<?xml version="1.0" encoding="UTF-8" standalone="no"?>
<svg
   version="1.1"
   viewBox="0 0 985.95276 480.52753"
   fill="none"
   stroke="none"
   stroke-linecap="square"
   stroke-miterlimit="10"
   id="svg1133"
   sodipodi:docname="tt03_project.svg"
   width="985.95276"
   height="480.52753"
   inkscape:version="1.2 (dc2aedaf03, 2022-05-15)"
   xmlns:inkscape="http://www.inkscape.org/namespaces/inkscape"
   xmlns:sodipodi="http://sodipodi.sourceforge.net/DTD/sodipodi-0.dtd"
   xmlns="http://www.w3.org/2000/svg"
   xmlns:svg="http://www.w3.org/2000/svg">
  <defs
     id="defs1137" />
  <sodipodi:namedview
     id="namedview1135"
     pagecolor="#ffffff"
     bordercolor="#000000"
     borderopacity="0.25"
     inkscape:showpageshadow="2"
     inkscape:pageopacity="0.0"
     inkscape:pagecheckerboard="0"
     inkscape:deskcolor="#d1d1d1"
     showgrid="false"
     inkscape:zoom="1.349537"
     inkscape:cx="532.03431"
     inkscape:cy="391.98628"
     inkscape:window-width="2560"
     inkscape:window-height="1369"
     inkscape:window-x="-8"
     inkscape:window-y="-8"
     inkscape:window-maximized="1"
     inkscape:current-layer="svg1133" />
  <path
     fill="#000000"
     fill-opacity="0"
     d="m 120.49999,80.42286 v 0 C 120.49999,36.282685 156.28267,0.5 200.42286,0.5 h 561.19366 c 21.19684,0 41.52557,8.420418 56.51398,23.40886 14.98846,14.988449 23.40887,35.31714 23.40887,56.514 v 319.68182 c 0,44.1402 -35.78265,79.92285 -79.92285,79.92285 H 200.42286 c -44.14018,0 -79.92287,-35.78265 -79.92287,-79.92285 z"
     fill-rule="evenodd"
     id="path1003" />
  <path
     stroke="#000000"
     stroke-width="1"
     stroke-linejoin="round"
     stroke-linecap="butt"
     d="m 120.49999,80.42286 v 0 C 120.49999,36.282685 156.28267,0.5 200.42286,0.5 h 561.19366 c 21.19684,0 41.52557,8.420418 56.51398,23.40886 14.98846,14.988449 23.40887,35.31714 23.40887,56.514 v 319.68182 c 0,44.1402 -35.78265,79.92285 -79.92285,79.92285 H 200.42286 c -44.14018,0 -79.92287,-35.78265 -79.92287,-79.92285 z"
     fill-rule="evenodd"
     id="path1005" />
  <path
     fill="#000000"
     d="M 408.82293,50.8286 V 39.73485 h -3.95313 v -2.265625 h 10.60938 v 2.265625 h -3.95313 V 50.8286 Z m 8.04312,-10.984375 v -2.375 h 2.5625 v 2.375 z m 0,10.984375 v -9.671875 h 2.5625 V 50.8286 Z m 13.98016,0 h -2.5625 v -4.9375 q 0,-1.5625 -0.17187,-2.015625 -0.15625,-0.46875 -0.53125,-0.71875 -0.35938,-0.265625 -0.875,-0.265625 -0.67188,0 -1.20313,0.375 -0.53125,0.359375 -0.73437,0.96875 -0.1875,0.59375 -0.1875,2.21875 v 4.375 h -2.54688 v -9.671875 h 2.375 V 42.5786 q 1.26563,-1.640625 3.1875,-1.640625 0.84375,0 1.54688,0.3125 0.70312,0.296875 1.0625,0.78125 0.35937,0.46875 0.5,1.078125 0.14062,0.59375 0.14062,1.703125 z m 1.38038,-9.671875 h 2.71875 l 2.32812,6.859375 2.25,-6.859375 h 2.65625 l -3.42187,9.3125 -0.60938,1.6875 q -0.32812,0.84375 -0.64062,1.28125 -0.3125,0.453125 -0.70313,0.71875 -0.39062,0.28125 -0.96875,0.4375 -0.57812,0.15625 -1.3125,0.15625 -0.73437,0 -1.45312,-0.15625 l -0.21875,-2 q 0.59375,0.125 1.07812,0.125 0.89063,0 1.3125,-0.53125 0.4375,-0.515625 0.67188,-1.328125 z m 16.77777,-3.6875 h 2.6875 V 44.7036 q 0,1.71875 0.10937,2.234375 0.17188,0.828125 0.8125,1.328125 0.65625,0.484375 1.78125,0.484375 1.15625,0 1.73438,-0.46875 0.59375,-0.46875 0.70312,-1.140625 0.125,-0.6875 0.125,-2.28125 v -7.390625 h 2.6875 v 7.015625 q 0,2.40625 -0.21875,3.40625 -0.21875,0.984375 -0.8125,1.671875 -0.57812,0.6875 -1.5625,1.09375 -0.98437,0.40625 -2.5625,0.40625 -1.92187,0 -2.90625,-0.4375 -0.98437,-0.453125 -1.5625,-1.15625 -0.57812,-0.703125 -0.75,-1.484375 -0.26562,-1.140625 -0.26562,-3.390625 z m 12.56671,10.59375 2.5625,-0.390625 q 0.17187,0.75 0.67187,1.140625 0.5,0.390625 1.40625,0.390625 0.98438,0 1.48438,-0.375 0.34375,-0.25 0.34375,-0.671875 0,-0.296875 -0.1875,-0.484375 -0.1875,-0.1875 -0.85938,-0.34375 -3.09375,-0.6875 -3.92187,-1.25 -1.14063,-0.78125 -1.14063,-2.171875 0,-1.265625 0.98438,-2.109375 1,-0.859375 3.07812,-0.859375 1.98438,0 2.95316,0.65625 0.96875,0.640625 1.32812,1.90625 l -2.40628,0.4375 q -0.15625,-0.5625 -0.59375,-0.859375 -0.42187,-0.296875 -1.23437,-0.296875 -1,0 -1.4375,0.28125 -0.29688,0.203125 -0.29688,0.515625 0,0.265625 0.25,0.46875 0.34375,0.25 2.39063,0.71875 2.0469,0.453125 2.8594,1.140625 0.79688,0.671875 0.79688,1.890625 0,1.34375 -1.10938,2.296875 -1.1094,0.953125 -3.28128,0.953125 -1.98437,0 -3.14062,-0.796875 -1.14063,-0.8125 -1.5,-2.1875 z m 16.8757,-0.3125 2.54688,0.421875 q -0.48438,1.40625 -1.54688,2.140625 -1.0625,0.734375 -2.65625,0.734375 -2.51562,0 -3.73437,-1.65625 -0.95313,-1.3125 -0.95313,-3.328125 0,-2.40625 1.25,-3.765625 1.26563,-1.359375 3.1875,-1.359375 2.15625,0 3.40625,1.421875 1.25,1.421875 1.1875,4.375 h -6.40625 q 0.0312,1.140625 0.60938,1.78125 0.59375,0.625 1.48437,0.625 0.59375,0 1,-0.328125 0.42188,-0.328125 0.625,-1.0625 z m 0.15625,-2.59375 q -0.0312,-1.109375 -0.57812,-1.6875 -0.54688,-0.578125 -1.32813,-0.578125 -0.84375,0 -1.39062,0.609375 -0.54688,0.609375 -0.53125,1.65625 z m 7.07886,5.671875 h -2.5625 v -9.671875 h 2.375 v 1.375 q 0.60937,-0.984375 1.09375,-1.28125 0.48437,-0.3125 1.10937,-0.3125 0.875,0 1.6875,0.484375 l -0.79687,2.234375 Q 487.9475,43.23485 487.385,43.23485 q -0.53125,0 -0.90625,0.296875 -0.375,0.296875 -0.59375,1.078125 -0.20312,0.765625 -0.20312,3.234375 z m 10.0061,0 V 37.469225 h 4.32813 q 2.45312,0 3.20312,0.203125 1.14063,0.296875 1.92188,1.3125 0.78125,1 0.78125,2.59375 0,1.234375 -0.45313,2.078125 -0.45312,0.828125 -1.14062,1.3125 -0.6875,0.46875 -1.39063,0.625 -0.96875,0.203125 -2.79687,0.203125 h -1.76563 v 5.03125 z m 2.6875,-11.09375 v 3.78125 h 1.48438 q 1.59375,0 2.125,-0.203125 0.54687,-0.203125 0.84375,-0.65625 0.3125,-0.453125 0.3125,-1.03125 0,-0.734375 -0.4375,-1.203125 -0.42188,-0.484375 -1.07813,-0.59375 -0.48437,-0.09375 -1.9375,-0.09375 z m 12.19354,11.09375 h -2.5625 v -9.671875 h 2.375 v 1.375 q 0.60938,-0.984375 1.09375,-1.28125 0.48438,-0.3125 1.10938,-0.3125 0.875,0 1.6875,0.484375 l -0.79688,2.234375 q -0.64062,-0.421875 -1.20312,-0.421875 -0.53125,0 -0.90625,0.296875 -0.375,0.296875 -0.59375,1.078125 -0.20313,0.765625 -0.20313,3.234375 z m 4.21338,-4.96875 q 0,-1.28125 0.625,-2.46875 0.625,-1.203125 1.78125,-1.828125 1.15625,-0.625 2.57813,-0.625 2.1875,0 3.59375,1.421875 1.40625,1.421875 1.40625,3.609375 0,2.1875 -1.42188,3.640625 -1.42187,1.4375 -3.5625,1.4375 -1.32812,0 -2.54687,-0.59375 -1.20313,-0.609375 -1.82813,-1.765625 -0.625,-1.171875 -0.625,-2.828125 z m 2.625,0.125 q 0,1.453125 0.67188,2.21875 0.6875,0.75 1.6875,0.75 1,0 1.67187,-0.75 0.6875,-0.765625 0.6875,-2.234375 0,-1.421875 -0.6875,-2.1875 -0.67187,-0.765625 -1.67187,-0.765625 -1,0 -1.6875,0.765625 -0.67188,0.765625 -0.67188,2.203125 z m 9.30225,-6.140625 v -2.375 h 2.5625 v 2.375 z m 2.5625,1.3125 v 9.375 q 0,1.84375 -0.25,2.59375 -0.23438,0.765625 -0.92188,1.1875 -0.6875,0.4375 -1.75,0.4375 -0.39062,0 -0.82812,-0.0625 -0.4375,-0.0625 -0.95313,-0.203125 l 0.45313,-2.1875 q 0.17187,0.03125 0.34375,0.04687 0.15625,0.03125 0.29687,0.03125 0.39063,0 0.64063,-0.171875 0.25,-0.15625 0.32812,-0.40625 0.0781,-0.234375 0.0781,-1.421875 v -9.21875 z m 8.27704,6.59375 2.54687,0.421875 q -0.48437,1.40625 -1.54687,2.140625 -1.0625,0.734375 -2.65625,0.734375 -2.51563,0 -3.73438,-1.65625 -0.95312,-1.3125 -0.95312,-3.328125 0,-2.40625 1.25,-3.765625 1.26562,-1.359375 3.1875,-1.359375 2.15625,0 3.40625,1.421875 1.25,1.421875 1.1875,4.375 h -6.40625 q 0.0312,1.140625 0.60937,1.78125 0.59375,0.625 1.48438,0.625 0.59375,0 1,-0.328125 0.42187,-0.328125 0.625,-1.0625 z m 0.15625,-2.59375 q -0.0312,-1.109375 -0.57813,-1.6875 -0.54687,-0.578125 -1.32812,-0.578125 -0.84375,0 -1.39063,0.609375 -0.54687,0.609375 -0.53125,1.65625 z m 13.06323,-1.140625 -2.53125,0.453125 q -0.125,-0.75 -0.57813,-1.125 -0.45312,-0.390625 -1.17187,-0.390625 -0.95313,0 -1.53125,0.65625 -0.5625,0.65625 -0.5625,2.203125 0,1.734375 0.57812,2.4375 0.57813,0.703125 1.54688,0.703125 0.73437,0 1.20312,-0.40625 0.46875,-0.421875 0.65625,-1.421875 l 2.51563,0.421875 q -0.39063,1.734375 -1.51563,2.625 -1.10937,0.875 -2.96875,0.875 -2.125,0 -3.39062,-1.328125 -1.25,-1.34375 -1.25,-3.71875 0,-2.390625 1.26562,-3.71875 1.26563,-1.34375 3.42188,-1.34375 1.76562,0 2.79687,0.765625 1.04688,0.75 1.51563,2.3125 z m 6.37573,-2.859375 v 2.03125 h -1.75 v 3.90625 q 0,1.1875 0.0469,1.390625 0.0469,0.1875 0.21875,0.3125 0.1875,0.125 0.4375,0.125 0.35937,0 1.03125,-0.25 l 0.21875,2 q -0.89063,0.375 -2.01563,0.375 -0.70312,0 -1.26562,-0.234375 -0.54688,-0.234375 -0.8125,-0.59375 -0.25,-0.375 -0.34375,-1 -0.0937,-0.453125 -0.0937,-1.8125 v -4.21875 h -1.17188 v -2.03125 h 1.17188 V 39.23485 l 2.57812,-1.5 v 3.421875 z"
     fill-rule="nonzero"
     id="path1007" />
  <path
     fill="#efefef"
     d="m 583.18506,103.64961 h 203.685 v 166.11023 h -203.685 z"
     fill-rule="evenodd"
     id="path1009" />
  <path
     stroke="#000000"
     stroke-width="1"
     stroke-linejoin="round"
     stroke-linecap="butt"
     d="m 583.18506,103.64961 h 203.685 v 166.11023 h -203.685 z"
     fill-rule="evenodd"
     id="path1011" />
  <path
     fill="#efefef"
     d="M 572.40816,94.2769 H 776.09322 V 260.38713 H 572.40816 Z"
     fill-rule="evenodd"
     id="path1013" />
  <path
     stroke="#000000"
     stroke-width="1"
     stroke-linejoin="round"
     stroke-linecap="butt"
     d="M 572.40816,94.2769 H 776.09322 V 260.38713 H 572.40816 Z"
     fill-rule="evenodd"
     id="path1015" />
  <path
     fill="#efefef"
     d="M 562.24806,85.17191 H 765.93312 V 251.28214 H 562.24806 Z"
     fill-rule="evenodd"
     id="path1017" />
  <path
     stroke="#000000"
     stroke-width="1"
     stroke-linejoin="round"
     stroke-linecap="butt"
     d="M 562.24806,85.17191 H 765.93312 V 251.28214 H 562.24806 Z"
     fill-rule="evenodd"
     id="path1019" />
  <path
     fill="#efefef"
     d="M 310.56298,75.72047 H 514.24804 V 241.8307 H 310.56298 Z"
     fill-rule="evenodd"
     id="path1021" />
  <path
     stroke="#000000"
     stroke-width="1"
     stroke-linejoin="round"
     stroke-linecap="butt"
     d="M 310.56298,75.72047 H 514.24804 V 241.8307 H 310.56298 Z"
     fill-rule="evenodd"
     id="path1023" />
  <path
     fill="#000000"
     d="m 357.24406,98.34359 1.65625,-0.14063 q 0.125,1 0.54687,1.64063 0.4375,0.64062 1.34375,1.04687 0.92188,0.39063 2.0625,0.39063 1,0 1.78125,-0.29688 0.78125,-0.29687 1.15625,-0.8125 0.375,-0.53125 0.375,-1.15625 0,-0.625 -0.375,-1.09375 -0.35937,-0.46875 -1.1875,-0.79687 -0.54687,-0.20313 -2.39062,-0.64063 -1.82813,-0.45312 -2.5625,-0.84375 -0.96875,-0.5 -1.4375,-1.23437 -0.46875,-0.75 -0.46875,-1.67188 0,-1 0.57812,-1.875 0.57813,-0.89062 1.67188,-1.34375 1.10937,-0.45312 2.45312,-0.45312 1.48438,0 2.60938,0.48437 1.14062,0.46875 1.75,1.40625 0.60937,0.92188 0.65625,2.09375 l -1.6875,0.125 q -0.14063,-1.26562 -0.9375,-1.90625 -0.78125,-0.65625 -2.3125,-0.65625 -1.60938,0 -2.34375,0.59375 -0.73438,0.59375 -0.73438,1.42188 0,0.71875 0.53125,1.17187 0.5,0.46875 2.65625,0.96875 2.15625,0.48438 2.95313,0.84375 1.17187,0.53125 1.71875,1.35938 0.5625,0.82812 0.5625,1.90625 0,1.0625 -0.60938,2.01562 -0.60937,0.9375 -1.75,1.46875 -1.14062,0.51563 -2.57812,0.51563 -1.8125,0 -3.04688,-0.53125 -1.21875,-0.53125 -1.92187,-1.59375 -0.6875,-1.0625 -0.71875,-2.40625 z m 19.1467,0.75 1.60937,0.21875 q -0.26562,1.65625 -1.35937,2.60937 -1.07813,0.9375 -2.67188,0.9375 -1.98437,0 -3.1875,-1.29687 -1.20312,-1.29688 -1.20312,-3.71875 0,-1.57813 0.51562,-2.75 0.51563,-1.17188 1.57813,-1.75 1.0625,-0.59375 2.3125,-0.59375 1.57812,0 2.57812,0.79687 1,0.79688 1.28125,2.26563 l -1.59375,0.23437 q -0.23437,-0.96875 -0.8125,-1.45312 -0.57812,-0.5 -1.39062,-0.5 -1.23438,0 -2.01563,0.89062 -0.78125,0.89063 -0.78125,2.8125 0,1.95313 0.75,2.84375 0.75,0.875 1.95313,0.875 0.96875,0 1.60937,-0.59375 0.65625,-0.59375 0.82813,-1.82812 z m 9.32812,2.35937 q -0.92187,0.76563 -1.76562,1.09375 -0.82813,0.3125 -1.79688,0.3125 -1.59375,0 -2.45312,-0.78125 -0.85938,-0.78125 -0.85938,-1.98437 0,-0.71875 0.32813,-1.29688 0.32812,-0.59375 0.84375,-0.9375 0.53125,-0.35937 1.1875,-0.54687 0.46875,-0.125 1.45312,-0.25 1.98438,-0.23438 2.92188,-0.5625 0.0156,-0.34375 0.0156,-0.42188 0,-1 -0.46875,-1.42187 -0.625,-0.54688 -1.875,-0.54688 -1.15625,0 -1.70312,0.40625 -0.54688,0.40625 -0.8125,1.42188 l -1.60938,-0.21875 q 0.21875,-1.01563 0.71875,-1.64063 0.5,-0.64062 1.45313,-0.98437 0.95312,-0.34375 2.1875,-0.34375 1.25,0 2.01562,0.29687 0.78125,0.28125 1.14063,0.73438 0.375,0.4375 0.51562,1.10937 0.0781,0.42188 0.0781,1.51563 v 2.1875 q 0,2.28125 0.10937,2.89062 0.10938,0.59375 0.40625,1.15625 h -1.70312 q -0.26563,-0.51562 -0.32813,-1.1875 z m -0.14062,-3.67187 q -0.89063,0.375 -2.67188,0.625 -1.01562,0.14062 -1.4375,0.32812 -0.42187,0.1875 -0.65625,0.53125 -0.21875,0.34375 -0.21875,0.78125 0,0.65625 0.5,1.09375 0.5,0.4375 1.45313,0.4375 0.9375,0 1.67187,-0.40625 0.75,-0.42187 1.09375,-1.14062 0.26563,-0.5625 0.26563,-1.64063 z m 4.20386,4.85937 v -9.67187 h 1.46875 v 1.375 q 1.0625,-1.59375 3.07812,-1.59375 0.875,0 1.60938,0.3125 0.73437,0.3125 1.09375,0.82812 0.375,0.5 0.51562,1.20313 0.0937,0.45312 0.0937,1.59375 v 5.95312 h -1.64062 v -5.89062 q 0,-1 -0.20313,-1.48438 -0.1875,-0.5 -0.67187,-0.79687 -0.48438,-0.29688 -1.14063,-0.29688 -1.04687,0 -1.8125,0.67188 -0.75,0.65625 -0.75,2.51562 v 5.28125 z m 16.6882,-3.54687 1.60937,0.21875 q -0.26562,1.65625 -1.35937,2.60937 -1.07813,0.9375 -2.67188,0.9375 -1.98437,0 -3.1875,-1.29687 -1.20312,-1.29688 -1.20312,-3.71875 0,-1.57813 0.51562,-2.75 0.51563,-1.17188 1.57813,-1.75 1.0625,-0.59375 2.3125,-0.59375 1.57812,0 2.57812,0.79687 1,0.79688 1.28125,2.26563 l -1.59375,0.23437 q -0.23437,-0.96875 -0.8125,-1.45312 -0.57812,-0.5 -1.39062,-0.5 -1.23438,0 -2.01563,0.89062 -0.78125,0.89063 -0.78125,2.8125 0,1.95313 0.75,2.84375 0.75,0.875 1.95313,0.875 0.96875,0 1.60937,-0.59375 0.65625,-0.59375 0.82813,-1.82812 z m 3.01562,3.54687 V 89.28109 h 1.64063 v 4.79687 q 1.14062,-1.32812 2.89062,-1.32812 1.07813,0 1.85938,0.42187 0.79687,0.42188 1.14062,1.17188 0.34375,0.75 0.34375,2.17187 v 6.125 h -1.64062 v -6.125 q 0,-1.23437 -0.53125,-1.79687 -0.53125,-0.5625 -1.51563,-0.5625 -0.71875,0 -1.35937,0.39062 -0.64063,0.375 -0.92188,1.01563 -0.26562,0.64062 -0.26562,1.78125 v 5.29687 z m 16.68823,-1.1875 q -0.92187,0.76563 -1.76562,1.09375 -0.82813,0.3125 -1.79688,0.3125 -1.59375,0 -2.45312,-0.78125 -0.85938,-0.78125 -0.85938,-1.98437 0,-0.71875 0.32813,-1.29688 0.32812,-0.59375 0.84375,-0.9375 0.53125,-0.35937 1.1875,-0.54687 0.46875,-0.125 1.45312,-0.25 1.98438,-0.23438 2.92188,-0.5625 0.0156,-0.34375 0.0156,-0.42188 0,-1 -0.46875,-1.42187 -0.625,-0.54688 -1.875,-0.54688 -1.15625,0 -1.70312,0.40625 -0.54688,0.40625 -0.8125,1.42188 l -1.60938,-0.21875 q 0.21875,-1.01563 0.71875,-1.64063 0.5,-0.64062 1.45313,-0.98437 0.95312,-0.34375 2.1875,-0.34375 1.25,0 2.01562,0.29687 0.78125,0.28125 1.14063,0.73438 0.375,0.4375 0.51562,1.10937 0.0781,0.42188 0.0781,1.51563 v 2.1875 q 0,2.28125 0.10937,2.89062 0.10938,0.59375 0.40625,1.15625 h -1.70312 q -0.26563,-0.51562 -0.32813,-1.1875 z m -0.14062,-3.67187 q -0.89063,0.375 -2.67188,0.625 -1.01562,0.14062 -1.4375,0.32812 -0.42187,0.1875 -0.65625,0.53125 -0.21875,0.34375 -0.21875,0.78125 0,0.65625 0.5,1.09375 0.5,0.4375 1.45313,0.4375 0.9375,0 1.67187,-0.40625 0.75,-0.42187 1.09375,-1.14062 0.26563,-0.5625 0.26563,-1.64063 z m 4.20383,-6.60938 v -1.89062 h 1.64062 v 1.89062 z m 0,11.46875 v -9.67187 h 1.64062 v 9.67187 z m 4.14483,0 v -9.67187 h 1.46875 v 1.375 q 1.0625,-1.59375 3.0781,-1.59375 0.875,0 1.60937,0.3125 0.73438,0.3125 1.09375,0.82812 0.375,0.5 0.51563,1.20313 0.0937,0.45312 0.0937,1.59375 v 5.95312 h -1.64063 v -5.89062 q 0,-1 -0.20312,-1.48438 -0.1875,-0.5 -0.67188,-0.79687 -0.48437,-0.29688 -1.14062,-0.29688 -1.04685,0 -1.81247,0.67188 -0.75,0.65625 -0.75,2.51562 v 5.28125 z m 18.24649,0 -3.6875,-9.67187 h 1.73438 l 2.07812,5.79687 q 0.32813,0.9375 0.625,1.9375 0.20313,-0.76562 0.60938,-1.82812 l 2.14062,-5.90625 h 1.6875 l -3.65625,9.67187 z m 14.79688,-1.57812 v 1.57812 h -8.82813 q -0.0156,-0.59375 0.1875,-1.14062 0.34375,-0.90625 1.07813,-1.78125 0.75,-0.875 2.15625,-2.01563 2.17187,-1.78125 2.9375,-2.82812 0.76562,-1.04688 0.76562,-1.96875 0,-0.98438 -0.70312,-1.64063 -0.6875,-0.67187 -1.8125,-0.67187 -1.1875,0 -1.90625,0.71875 -0.70313,0.70312 -0.70313,1.95312 l -1.6875,-0.17187 q 0.17188,-1.89063 1.29688,-2.875 1.14062,-0.98438 3.03125,-0.98438 1.92187,0 3.04687,1.0625 1.125,1.0625 1.125,2.64063 0,0.79687 -0.32812,1.57812 -0.32813,0.78125 -1.09375,1.64063 -0.75,0.84375 -2.53125,2.34375 -1.46875,1.23437 -1.89063,1.6875 -0.42187,0.4375 -0.6875,0.875 z"
     fill-rule="nonzero"
     id="path1025" />
  <path
     fill="#000000"
     d="m 378.89626,113.17172 v -1.89063 h 1.64062 v 1.89063 z m 0,11.46875 v -9.67188 h 1.64062 v 9.67188 z m 4.14484,0 v -9.67188 h 1.46875 v 1.375 q 1.0625,-1.59375 3.07812,-1.59375 0.875,0 1.60938,0.3125 0.73437,0.3125 1.09375,0.82813 0.375,0.5 0.51562,1.20312 0.0937,0.45313 0.0937,1.59375 v 5.95313 h -1.64062 v -5.89063 q 0,-1 -0.20313,-1.48437 -0.1875,-0.5 -0.67187,-0.79688 -0.48438,-0.29687 -1.14063,-0.29687 -1.04687,0 -1.8125,0.67187 -0.75,0.65625 -0.75,2.51563 v 5.28125 z m 9.71945,-2.89063 1.625,-0.25 q 0.125,0.96875 0.75,1.5 0.625,0.51563 1.75,0.51563 1.125,0 1.67187,-0.45313 0.54688,-0.46875 0.54688,-1.09375 0,-0.54687 -0.48438,-0.875 -0.32812,-0.21875 -1.67187,-0.54687 -1.8125,-0.46875 -2.51563,-0.79688 -0.6875,-0.32812 -1.04687,-0.90625 -0.35938,-0.59375 -0.35938,-1.3125 0,-0.64062 0.29688,-1.1875 0.29687,-0.5625 0.8125,-0.92187 0.375,-0.28125 1.03125,-0.46875 0.67187,-0.20313 1.42187,-0.20313 1.14063,0 2,0.32813 0.85938,0.32812 1.26563,0.89062 0.42187,0.5625 0.57812,1.5 l -1.60937,0.21875 q -0.10938,-0.75 -0.64063,-1.17187 -0.51562,-0.42188 -1.46875,-0.42188 -1.14062,0 -1.625,0.375 -0.46875,0.375 -0.46875,0.875 0,0.3125 0.1875,0.57813 0.20313,0.26562 0.64063,0.4375 0.23437,0.0937 1.4375,0.42187 1.75,0.45313 2.4375,0.75 0.6875,0.29688 1.07812,0.85938 0.39063,0.5625 0.39063,1.40625 0,0.82812 -0.48438,1.54687 -0.46875,0.71875 -1.375,1.125 -0.90625,0.39063 -2.04687,0.39063 -1.875,0 -2.875,-0.78125 -0.98438,-0.78125 -1.25,-2.32813 z m 13.5625,1.42188 0.23437,1.45312 q -0.6875,0.14063 -1.23437,0.14063 -0.89063,0 -1.39063,-0.28125 -0.48437,-0.28125 -0.6875,-0.73438 -0.20312,-0.46875 -0.20312,-1.9375 v -5.57812 h -1.20313 v -1.26563 h 1.20313 v -2.39062 l 1.625,-0.98438 v 3.375 h 1.65625 v 1.26563 h -1.65625 v 5.67187 q 0,0.6875 0.0781,0.89063 0.0937,0.20312 0.28125,0.32812 0.20313,0.10938 0.57813,0.10938 0.26562,0 0.71875,-0.0625 z m 7.91769,0.28125 q -0.92187,0.76562 -1.76562,1.09375 -0.82813,0.3125 -1.79688,0.3125 -1.59375,0 -2.45312,-0.78125 -0.85938,-0.78125 -0.85938,-1.98438 0,-0.71875 0.32813,-1.29687 0.32812,-0.59375 0.84375,-0.9375 0.53125,-0.35938 1.1875,-0.54688 0.46875,-0.125 1.45312,-0.25 1.98438,-0.23437 2.92188,-0.5625 0.0156,-0.34375 0.0156,-0.42187 0,-1 -0.46875,-1.42188 -0.625,-0.54687 -1.875,-0.54687 -1.15625,0 -1.70312,0.40625 -0.54688,0.40625 -0.8125,1.42187 l -1.60938,-0.21875 q 0.21875,-1.01562 0.71875,-1.64062 0.5,-0.64063 1.45313,-0.98438 0.95312,-0.34375 2.1875,-0.34375 1.25,0 2.01562,0.29688 0.78125,0.28125 1.14063,0.73437 0.375,0.4375 0.51562,1.10938 0.0781,0.42187 0.0781,1.51562 v 2.1875 q 0,2.28125 0.10937,2.89063 0.10938,0.59375 0.40625,1.15625 h -1.70312 q -0.26563,-0.51563 -0.32813,-1.1875 z m -0.14062,-3.67188 q -0.89063,0.375 -2.67188,0.625 -1.01562,0.14063 -1.4375,0.32813 -0.42187,0.1875 -0.65625,0.53125 -0.21875,0.34375 -0.21875,0.78125 0,0.65625 0.5,1.09375 0.5,0.4375 1.45313,0.4375 0.9375,0 1.67187,-0.40625 0.75,-0.42188 1.09375,-1.14063 0.26563,-0.5625 0.26563,-1.64062 z m 4.20382,4.85938 v -9.67188 h 1.46875 v 1.375 q 1.0625,-1.59375 3.07813,-1.59375 0.875,0 1.60937,0.3125 0.73438,0.3125 1.09375,0.82813 0.375,0.5 0.51563,1.20312 0.0937,0.45313 0.0937,1.59375 v 5.95313 h -1.64063 v -5.89063 q 0,-1 -0.20312,-1.48437 -0.1875,-0.5 -0.67188,-0.79688 -0.48437,-0.29687 -1.14062,-0.29687 -1.04688,0 -1.8125,0.67187 -0.75,0.65625 -0.75,2.51563 v 5.28125 z m 16.68824,-3.54688 1.60937,0.21875 q -0.26562,1.65625 -1.35937,2.60938 -1.07813,0.9375 -2.67188,0.9375 -1.98437,0 -3.1875,-1.29688 -1.20312,-1.29687 -1.20312,-3.71875 0,-1.57812 0.51562,-2.75 0.51563,-1.17187 1.57813,-1.75 1.0625,-0.59375 2.3125,-0.59375 1.57812,0 2.57812,0.79688 1,0.79687 1.28125,2.26562 l -1.59375,0.23438 q -0.23437,-0.96875 -0.8125,-1.45313 -0.57812,-0.5 -1.39062,-0.5 -1.23438,0 -2.01563,0.89063 -0.78125,0.89062 -0.78125,2.8125 0,1.95312 0.75,2.84375 0.75,0.875 1.95313,0.875 0.96875,0 1.60937,-0.59375 0.65625,-0.59375 0.82813,-1.82813 z m 9.64059,0.4375 1.6875,0.20313 q -0.40625,1.48437 -1.48437,2.3125 -1.07813,0.8125 -2.76563,0.8125 -2.125,0 -3.375,-1.29688 -1.23434,-1.3125 -1.23434,-3.67187 0,-2.45313 1.24997,-3.79688 1.26562,-1.34375 3.26562,-1.34375 1.9375,0 3.15625,1.32813 1.23438,1.3125 1.23438,3.70312 0,0.15625 0,0.4375 h -7.21875 q 0.0937,1.59375 0.90625,2.45313 0.8125,0.84375 2.01562,0.84375 0.90625,0 1.54688,-0.46875 0.64062,-0.48438 1.01562,-1.51563 z m -5.39062,-2.65625 h 5.40625 q -0.10938,-1.21875 -0.625,-1.82812 -0.78125,-0.95313 -2.03125,-0.95313 -1.125,0 -1.90625,0.76563 -0.76563,0.75 -0.84375,2.01562 z"
     fill-rule="nonzero"
     id="path1027" />
  <path
     fill="#cfe2f3"
     d="m 316.40551,361.83069 h 192 v 96 h -192 z"
     fill-rule="evenodd"
     id="path1029" />
  <path
     stroke="#000000"
     stroke-width="1"
     stroke-linejoin="round"
     stroke-linecap="butt"
     d="m 316.40551,361.83069 h 192 v 96 h -192 z"
     fill-rule="evenodd"
     id="path1031" />
  <path
     fill="#000000"
     d="m 337.64498,412.06321 1.76562,0.45313 q -0.5625,2.17187 -2,3.32812 -1.4375,1.14063 -3.53125,1.14063 -2.15625,0 -3.51562,-0.875 -1.34375,-0.89063 -2.0625,-2.54688 -0.70313,-1.67187 -0.70313,-3.59375 0,-2.07812 0.79688,-3.625 0.79687,-1.5625 2.26562,-2.35937 1.48438,-0.8125 3.25,-0.8125 2,0 3.35938,1.01562 1.375,1.01563 1.90625,2.875 l -1.73438,0.40625 q -0.46875,-1.45312 -1.35937,-2.10937 -0.875,-0.67188 -2.20313,-0.67188 -1.54687,0 -2.57812,0.73438 -1.03125,0.73437 -1.45313,1.98437 -0.42187,1.23438 -0.42187,2.5625 0,1.70313 0.5,2.96875 0.5,1.26563 1.54687,1.90625 1.04688,0.625 2.26563,0.625 1.48437,0 2.51562,-0.85937 1.03125,-0.85938 1.39063,-2.54688 z m 3.73856,4.6875 v -13.35937 h 1.64062 v 4.79687 q 1.14063,-1.32812 2.89063,-1.32812 1.07812,0 1.85937,0.42187 0.79688,0.42188 1.14063,1.17188 0.34375,0.75 0.34375,2.17187 v 6.125 h -1.64063 v -6.125 q 0,-1.23437 -0.53125,-1.79687 -0.53125,-0.5625 -1.51562,-0.5625 -0.71875,0 -1.35938,0.39062 -0.64062,0.375 -0.92187,1.01563 -0.26563,0.64062 -0.26563,1.78125 v 5.29687 z m 10.37573,-11.46875 v -1.89062 h 1.64062 v 1.89062 z m 0,11.46875 v -9.67187 h 1.64062 v 9.67187 z m 4.1448,3.70313 v -13.375 h 1.48438 v 1.25 q 0.53125,-0.73438 1.1875,-1.09375 0.67187,-0.375 1.625,-0.375 1.23437,0 2.17187,0.64062 0.95313,0.625 1.4375,1.79688 0.48438,1.15625 0.48438,2.54687 0,1.48438 -0.53125,2.67188 -0.53125,1.1875 -1.54688,1.82812 -1.01562,0.625 -2.14062,0.625 -0.8125,0 -1.46875,-0.34375 -0.65625,-0.34375 -1.0625,-0.875 v 4.70313 z m 1.48438,-8.48438 q 0,1.85938 0.75,2.76563 0.76562,0.89062 1.82812,0.89062 1.09375,0 1.875,-0.92187 0.78125,-0.9375 0.78125,-2.875 0,-1.84375 -0.76562,-2.76563 -0.75,-0.92187 -1.8125,-0.92187 -1.04688,0 -1.85938,0.98437 -0.79687,0.96875 -0.79687,2.84375 z m 12.50073,4.78125 v -11.78125 h -4.40625 v -1.57812 h 10.57813 v 1.57812 h -4.40625 v 11.78125 z m 13.42203,0 v -1.42187 q -1.125,1.64062 -3.0625,1.64062 -0.85938,0 -1.60938,-0.32812 -0.73437,-0.32813 -1.09375,-0.82813 -0.35937,-0.5 -0.5,-1.21875 -0.10937,-0.46875 -0.10937,-1.53125 v -5.98437 h 1.64062 v 5.35937 q 0,1.28125 0.10938,1.73438 0.15625,0.64062 0.65625,1.01562 0.5,0.375 1.23437,0.375 0.73438,0 1.375,-0.375 0.65625,-0.39062 0.92188,-1.03125 0.26562,-0.65625 0.26562,-1.89062 v -5.1875 h 1.64063 v 9.67187 z m 4.04758,0 v -9.67187 h 1.46875 v 1.375 q 1.0625,-1.59375 3.07812,-1.59375 0.875,0 1.60938,0.3125 0.73437,0.3125 1.09375,0.82812 0.375,0.5 0.51562,1.20313 0.0937,0.45312 0.0937,1.59375 v 5.95312 h -1.64062 v -5.89062 q 0,-1 -0.20313,-1.48438 -0.1875,-0.5 -0.67187,-0.79687 -0.48438,-0.29688 -1.14063,-0.29688 -1.04687,0 -1.8125,0.67188 -0.75,0.65625 -0.75,2.51562 v 5.28125 z m 17.00073,-3.10937 1.6875,0.20312 q -0.40625,1.48438 -1.48438,2.3125 -1.07812,0.8125 -2.76562,0.8125 -2.125,0 -3.375,-1.29687 -1.23438,-1.3125 -1.23438,-3.67188 0,-2.45312 1.25,-3.79687 1.26563,-1.34375 3.26563,-1.34375 1.9375,0 3.15625,1.32812 1.23437,1.3125 1.23437,3.70313 0,0.15625 0,0.4375 h -7.21875 q 0.0937,1.59375 0.90625,2.45312 0.8125,0.84375 2.01563,0.84375 0.90625,0 1.54687,-0.46875 0.64063,-0.48437 1.01563,-1.51562 z m -5.39063,-2.65625 h 5.40625 q -0.10937,-1.21875 -0.625,-1.82813 -0.78125,-0.95312 -2.03125,-0.95312 -1.125,0 -1.90625,0.76562 -0.76562,0.75 -0.84375,2.01563 z m 13.6684,2.875 1.625,-0.25 q 0.125,0.96875 0.75,1.5 0.625,0.51562 1.75,0.51562 1.125,0 1.67187,-0.45312 0.54688,-0.46875 0.54688,-1.09375 0,-0.54688 -0.48438,-0.875 -0.32812,-0.21875 -1.67187,-0.54688 -1.8125,-0.46875 -2.51563,-0.79687 -0.6875,-0.32813 -1.04687,-0.90625 -0.35938,-0.59375 -0.35938,-1.3125 0,-0.64063 0.29688,-1.1875 0.29687,-0.5625 0.8125,-0.92188 0.375,-0.28125 1.03125,-0.46875 0.67187,-0.20312 1.42187,-0.20312 1.14063,0 2,0.32812 0.85938,0.32813 1.26563,0.89063 0.42187,0.5625 0.57812,1.5 l -1.60937,0.21875 q -0.10938,-0.75 -0.64063,-1.17188 -0.51562,-0.42187 -1.46875,-0.42187 -1.14062,0 -1.625,0.375 -0.46875,0.375 -0.46875,0.875 0,0.3125 0.1875,0.57812 0.20313,0.26563 0.64063,0.4375 0.23437,0.0937 1.4375,0.42188 1.75,0.45312 2.4375,0.75 0.6875,0.29687 1.07812,0.85937 0.39063,0.5625 0.39063,1.40625 0,0.82813 -0.48438,1.54688 -0.46875,0.71875 -1.375,1.125 -0.90625,0.39062 -2.04687,0.39062 -1.875,0 -2.875,-0.78125 -0.98438,-0.78125 -1.25,-2.32812 z m 16.3125,2.89062 v -1.42187 q -1.125,1.64062 -3.0625,1.64062 -0.85938,0 -1.60938,-0.32812 -0.73437,-0.32813 -1.09375,-0.82813 -0.35937,-0.5 -0.5,-1.21875 -0.10937,-0.46875 -0.10937,-1.53125 v -5.98437 h 1.64062 v 5.35937 q 0,1.28125 0.10938,1.73438 0.15625,0.64062 0.65625,1.01562 0.5,0.375 1.23437,0.375 0.73438,0 1.375,-0.375 0.65625,-0.39062 0.92188,-1.03125 0.26562,-0.65625 0.26562,-1.89062 v -5.1875 h 1.64063 v 9.67187 z m 5.54758,0 h -1.51563 v -13.35937 h 1.64063 v 4.76562 q 1.04687,-1.29687 2.65625,-1.29687 0.89062,0 1.6875,0.35937 0.79687,0.35938 1.3125,1.01563 0.51562,0.64062 0.79687,1.5625 0.29688,0.92187 0.29688,1.96875 0,2.48437 -1.23438,3.84375 -1.21875,1.35937 -2.95312,1.35937 -1.70313,0 -2.6875,-1.4375 z m -0.0156,-4.90625 q 0,1.73438 0.48438,2.51563 0.76562,1.26562 2.09375,1.26562 1.07812,0 1.85937,-0.9375 0.78125,-0.9375 0.78125,-2.78125 0,-1.89062 -0.75,-2.79687 -0.75,-0.90625 -1.82812,-0.90625 -1.0625,0 -1.85938,0.9375 -0.78125,0.9375 -0.78125,2.70312 z m 8.89136,8.60938 v -13.375 h 1.48437 v 1.25 q 0.53125,-0.73438 1.1875,-1.09375 0.67188,-0.375 1.625,-0.375 1.23438,0 2.17188,0.64062 0.95312,0.625 1.4375,1.79688 0.48437,1.15625 0.48437,2.54687 0,1.48438 -0.53125,2.67188 -0.53125,1.1875 -1.54687,1.82812 -1.01563,0.625 -2.14063,0.625 -0.8125,0 -1.46875,-0.34375 -0.65625,-0.34375 -1.0625,-0.875 v 4.70313 z m 1.48437,-8.48438 q 0,1.85938 0.75,2.76563 0.76563,0.89062 1.82813,0.89062 1.09375,0 1.875,-0.92187 0.78125,-0.9375 0.78125,-2.875 0,-1.84375 -0.76563,-2.76563 -0.75,-0.92187 -1.8125,-0.92187 -1.04687,0 -1.85937,0.98437 -0.79688,0.96875 -0.79688,2.84375 z m 8.8757,4.78125 v -9.67187 h 1.46875 v 1.46875 q 0.5625,-1.03125 1.03125,-1.35938 0.48438,-0.32812 1.0625,-0.32812 0.82813,0 1.6875,0.53125 l -0.5625,1.51562 q -0.60937,-0.35937 -1.20312,-0.35937 -0.54688,0 -0.96875,0.32812 -0.42188,0.32813 -0.60938,0.89063 -0.28125,0.875 -0.28125,1.92187 v 5.0625 z m 5.61893,-4.84375 q 0,-2.6875 1.48438,-3.96875 1.25,-1.07812 3.04687,-1.07812 2,0 3.26563,1.3125 1.26562,1.29687 1.26562,3.60937 0,1.85938 -0.5625,2.9375 -0.5625,1.0625 -1.64062,1.65625 -1.0625,0.59375 -2.32813,0.59375 -2.03125,0 -3.28125,-1.29687 -1.25,-1.3125 -1.25,-3.76563 z m 1.6875,0 q 0,1.85938 0.79688,2.79688 0.8125,0.92187 2.04687,0.92187 1.21875,0 2.03125,-0.92187 0.8125,-0.9375 0.8125,-2.84375 0,-1.79688 -0.8125,-2.71875 -0.8125,-0.92188 -2.03125,-0.92188 -1.23437,0 -2.04687,0.92188 -0.79688,0.90625 -0.79688,2.76562 z m 9.28198,-6.60937 v -1.90625 h 1.64063 v 1.90625 z m -2.07812,15.20312 0.3125,-1.39062 q 0.5,0.125 0.78125,0.125 0.5,0 0.73437,-0.32813 0.25,-0.32812 0.25,-1.67187 v -10.15625 h 1.64063 v 10.20312 q 0,1.78125 -0.46875,2.48438 -0.59375,0.90625 -1.96875,0.90625 -0.65625,0 -1.28125,-0.17188 z m 12.86358,-6.85937 1.6875,0.20312 q -0.40625,1.48438 -1.48437,2.3125 -1.07813,0.8125 -2.76563,0.8125 -2.125,0 -3.375,-1.29687 -1.23437,-1.3125 -1.23437,-3.67188 0,-2.45312 1.25,-3.79687 1.26562,-1.34375 3.26562,-1.34375 1.9375,0 3.15625,1.32812 1.23438,1.3125 1.23438,3.70313 0,0.15625 0,0.4375 h -7.21875 q 0.0937,1.59375 0.90625,2.45312 0.8125,0.84375 2.01562,0.84375 0.90625,0 1.54688,-0.46875 0.64062,-0.48437 1.01562,-1.51562 z m -5.39062,-2.65625 h 5.40625 q -0.10938,-1.21875 -0.625,-1.82813 -0.78125,-0.95312 -2.03125,-0.95312 -1.125,0 -1.90625,0.76562 -0.76563,0.75 -0.84375,2.01563 z m 15.45386,2.21875 1.60937,0.21875 q -0.26562,1.65625 -1.35937,2.60937 -1.07813,0.9375 -2.67188,0.9375 -1.98437,0 -3.1875,-1.29687 -1.20312,-1.29688 -1.20312,-3.71875 0,-1.57813 0.51562,-2.75 0.51563,-1.17188 1.57813,-1.75 1.0625,-0.59375 2.3125,-0.59375 1.57812,0 2.57812,0.79687 1,0.79688 1.28125,2.26563 l -1.59375,0.23437 q -0.23437,-0.96875 -0.8125,-1.45312 -0.57812,-0.5 -1.39062,-0.5 -1.23438,0 -2.01563,0.89062 -0.78125,0.89063 -0.78125,2.8125 0,1.95313 0.75,2.84375 0.75,0.875 1.95313,0.875 0.96875,0 1.60937,-0.59375 0.65625,-0.59375 0.82813,-1.82812 z m 6.59375,2.07812 0.23437,1.45313 q -0.6875,0.14062 -1.23437,0.14062 -0.89063,0 -1.39063,-0.28125 -0.48437,-0.28125 -0.6875,-0.73437 -0.20312,-0.46875 -0.20312,-1.9375 v -5.57813 h -1.20313 v -1.26562 h 1.20313 v -2.39063 l 1.625,-0.98437 v 3.375 h 1.65625 v 1.26562 h -1.65625 v 5.67188 q 0,0.6875 0.0781,0.89062 0.0937,0.20313 0.28125,0.32813 0.20313,0.10937 0.57813,0.10937 0.26562,0 0.71875,-0.0625 z"
     fill-rule="nonzero"
     id="path1033" />
  <path
     fill="#efefef"
     d="m 396.40551,241.83069 v 88 h 16 l -32,32 -32,-32 h 16 v -88 z"
     fill-rule="evenodd"
     id="path1035" />
  <path
     stroke="#000000"
     stroke-width="1"
     stroke-linejoin="round"
     stroke-linecap="butt"
     d="m 396.40551,241.83069 v 88 h 16 l -32,32 -32,-32 h 16 v -88 z"
     fill-rule="evenodd"
     id="path1037" />
  <path
     fill="#000000"
     d="m 380.7199,254.12759 q 0.375,-1.01563 1.0625,-1.51563 0.70312,-0.48437 1.67187,-0.48437 1.45313,0 2.4375,1.04687 1,1.04688 1,2.78125 0,1.75 -1.01562,2.8125 -1.01563,1.07813 -2.46875,1.07813 -0.9375,0 -1.625,-0.5 -0.6875,-0.48438 -1.0625,-1.46875 -0.39063,1.21875 -1.28125,1.85937 -0.89063,0.65625 -2.14063,0.65625 -1.70312,0 -2.875,-1.21875 -1.17187,-1.21875 -1.17187,-3.1875 0,-1.98437 1.17187,-3.20312 1.17188,-1.20313 2.92188,-1.20313 1.3125,0 2.1875,0.65625 0.875,0.67188 1.1875,1.89063 z m 2.78125,-0.32813 q -0.9375,0 -1.54688,0.60938 -0.59375,0.60937 -0.59375,1.59375 0,0.9375 0.59375,1.54687 0.59375,0.60938 1.45313,0.60938 0.90625,0 1.51562,-0.625 0.625,-0.625 0.625,-1.5625 0,-0.9375 -0.60937,-1.5625 -0.59375,-0.60938 -1.4375,-0.60938 z m -6.15625,-0.53125 q -0.70313,0 -1.35938,0.32813 -0.65625,0.34375 -1.01562,1 -0.35938,0.65625 -0.35938,1.40625 0,1.17187 0.75,1.9375 0.75,0.76562 1.92188,0.76562 1.1875,0 1.95312,-0.79687 0.78125,-0.78125 0.78125,-1.95313 0,-1.15625 -0.76562,-1.92187 -0.76563,-0.76563 -1.90625,-0.76563 z m -3.85938,14.8559 h 13.35938 v 1.76563 h -13.35938 z m 0,4.68332 h 9.67188 v 1.46875 h -1.375 q 1.59375,1.0625 1.59375,3.07812 0,0.875 -0.3125,1.60938 -0.3125,0.73437 -0.82813,1.09375 -0.5,0.375 -1.20312,0.51562 -0.45313,0.0937 -1.59375,0.0937 h -5.95313 v -1.64062 h 5.89063 q 1,0 1.48437,-0.20313 0.5,-0.1875 0.79688,-0.67187 0.29687,-0.48438 0.29687,-1.14063 0,-1.04687 -0.67187,-1.8125 -0.65625,-0.75 -2.51563,-0.75 h -5.28125 z m -3.70312,10.3757 h 13.375 v 1.48438 h -1.25 q 0.73437,0.53125 1.09375,1.1875 0.375,0.67187 0.375,1.625 0,1.23437 -0.64063,2.17187 -0.625,0.95313 -1.79687,1.4375 -1.15625,0.48438 -2.54688,0.48438 -1.48437,0 -2.67187,-0.53125 -1.1875,-0.53125 -1.82813,-1.54688 -0.625,-1.01562 -0.625,-2.14062 0,-0.8125 0.34375,-1.46875 0.34375,-0.65625 0.875,-1.0625 h -4.70312 z m 8.48437,1.48438 q -1.85937,0 -2.76562,0.75 -0.89063,0.76562 -0.89063,1.82812 0,1.09375 0.92188,1.875 0.9375,0.78125 2.875,0.78125 1.84375,0 2.76562,-0.76562 0.92188,-0.75 0.92188,-1.8125 0,-1.04688 -0.98438,-1.85938 -0.96875,-0.79687 -2.84375,-0.79687 z m -4.78125,15.21948 h 1.42188 q -1.64063,-1.125 -1.64063,-3.0625 0,-0.85938 0.32813,-1.60938 0.32812,-0.73437 0.82812,-1.09375 0.5,-0.35937 1.21875,-0.5 0.46875,-0.10937 1.53125,-0.10937 h 5.98438 v 1.64062 h -5.35938 q -1.28125,0 -1.73437,0.10938 -0.64063,0.15625 -1.01563,0.65625 -0.375,0.5 -0.375,1.23437 0,0.73438 0.375,1.375 0.39063,0.65625 1.03125,0.92188 0.65625,0.26562 1.89063,0.26562 h 5.1875 v 1.64063 h -9.67188 z m 1.46875,7.6257 -1.45312,0.23438 q -0.14063,-0.6875 -0.14063,-1.23438 0,-0.89062 0.28125,-1.39062 0.28125,-0.48438 0.73438,-0.6875 0.46875,-0.20313 1.9375,-0.20313 h 5.57812 v -1.20312 h 1.26563 v 1.20312 h 2.39062 l 0.98438,1.625 h -3.375 v 1.65625 h -1.26563 v -1.65625 h -5.67187 q -0.6875,0 -0.89063,0.0781 -0.20312,0.0937 -0.32812,0.28125 -0.10938,0.20312 -0.10938,0.57812 0,0.26563 0.0625,0.71875 z m 1.42188,0.94895 0.25,1.625 q -0.96875,0.125 -1.5,0.75 -0.51563,0.625 -0.51563,1.75 0,1.125 0.45313,1.67187 0.46875,0.54688 1.09375,0.54688 0.54687,0 0.875,-0.48438 0.21875,-0.32812 0.54687,-1.67187 0.46875,-1.8125 0.79688,-2.51563 0.32812,-0.6875 0.90625,-1.04687 0.59375,-0.35938 1.3125,-0.35938 0.64062,0 1.1875,0.29688 0.5625,0.29687 0.92187,0.8125 0.28125,0.375 0.46875,1.03125 0.20313,0.67187 0.20313,1.42187 0,1.14063 -0.32813,2 -0.32812,0.85938 -0.89062,1.26563 -0.5625,0.42187 -1.5,0.57812 l -0.21875,-1.60937 q 0.75,-0.10938 1.17187,-0.64063 0.42188,-0.51562 0.42188,-1.46875 0,-1.14062 -0.375,-1.625 -0.375,-0.46875 -0.875,-0.46875 -0.3125,0 -0.57813,0.1875 -0.26562,0.20313 -0.4375,0.64063 -0.0937,0.23437 -0.42187,1.4375 -0.45313,1.75 -0.75,2.4375 -0.29688,0.6875 -0.85938,1.07812 -0.5625,0.39063 -1.40625,0.39063 -0.82812,0 -1.54687,-0.48438 -0.71875,-0.46875 -1.125,-1.375 -0.39063,-0.90625 -0.39063,-2.04687 0,-1.875 0.78125,-2.875 0.78125,-0.98438 2.32813,-1.25 z"
     fill-rule="nonzero"
     id="path1039" />
  <path
     fill="#efefef"
     d="m 428.40551,361.83069 v -88 h -16 l 32,-32 32,32 h -16 v 88 z"
     fill-rule="evenodd"
     id="path1041" />
  <path
     stroke="#000000"
     stroke-width="1"
     stroke-linejoin="round"
     stroke-linecap="butt"
     d="m 428.40551,361.83069 v -88 h -16 l 32,-32 32,32 h -16 v 88 z"
     fill-rule="evenodd"
     id="path1043" />
  <path
     fill="#000000"
     d="m 444.09116,349.53383 q -0.375,1.01563 -1.0625,1.51563 -0.70313,0.48437 -1.67188,0.48437 -1.45312,0 -2.4375,-1.04687 -1,-1.04688 -1,-2.78125 0,-1.75 1.01563,-2.8125 1.01562,-1.07813 2.46875,-1.07813 0.9375,0 1.625,0.5 0.6875,0.48438 1.0625,1.46875 0.39062,-1.21875 1.28125,-1.85937 0.89062,-0.65625 2.14062,-0.65625 1.70313,0 2.875,1.21875 1.17188,1.21875 1.17188,3.1875 0,1.98437 -1.17188,3.20312 -1.17187,1.20313 -2.92187,1.20313 -1.3125,0 -2.1875,-0.65625 -0.875,-0.67188 -1.1875,-1.89063 z m -2.78125,0.32813 q 0.9375,0 1.54687,-0.60938 0.59375,-0.60937 0.59375,-1.59375 0,-0.9375 -0.59375,-1.54687 -0.59375,-0.60938 -1.45312,-0.60938 -0.90625,0 -1.51563,0.625 -0.625,0.625 -0.625,1.5625 0,0.9375 0.60938,1.5625 0.59375,0.60938 1.4375,0.60938 z m 6.15625,0.53125 q 0.70312,0 1.35937,-0.32813 0.65625,-0.34375 1.01563,-1 0.35937,-0.65625 0.35937,-1.40625 0,-1.17187 -0.75,-1.9375 -0.75,-0.76562 -1.92187,-0.76562 -1.1875,0 -1.95313,0.79687 -0.78125,0.78125 -0.78125,1.95313 0,1.15625 0.76563,1.92187 0.76562,0.76563 1.90625,0.76563 z m -2.64063,-14.02778 q -3.32812,0 -5.20312,-1.78125 -1.89063,-1.78125 -1.89063,-4.60937 0,-1.84375 0.89063,-3.32813 0.875,-1.48437 2.46875,-2.26562 1.57812,-0.78125 3.57812,-0.78125 2.03125,0 3.64063,0.82812 1.59375,0.8125 2.42187,2.3125 0.82813,1.5 0.82813,3.25 0,1.875 -0.90625,3.35938 -0.92188,1.48437 -2.5,2.25 -1.57813,0.76562 -3.32813,0.76562 z m 0.0156,-1.8125 q 2.42187,0 3.8125,-1.29687 1.39062,-1.29688 1.39062,-3.26563 0,-2 -1.40625,-3.28125 -1.40625,-1.28125 -3.98437,-1.28125 -1.625,0 -2.84375,0.54688 -1.21875,0.54687 -1.875,1.60937 -0.67188,1.0625 -0.67188,2.375 0,1.89063 1.29688,3.25 1.28125,1.34375 4.28125,1.34375 z m 6.48437,-19.35516 h -1.42187 q 1.64062,1.125 1.64062,3.0625 0,0.85938 -0.32812,1.60938 -0.32813,0.73437 -0.82813,1.09375 -0.5,0.35937 -1.21875,0.5 -0.46875,0.10937 -1.53125,0.10937 h -5.98437 v -1.64062 h 5.35937 q 1.28125,0 1.73438,-0.10938 0.64062,-0.15625 1.01562,-0.65625 0.375,-0.5 0.375,-1.23437 0,-0.73438 -0.375,-1.375 -0.39062,-0.65625 -1.03125,-0.92188 -0.65625,-0.26562 -1.89062,-0.26562 h -5.1875 v -1.64063 h 9.67187 z m -1.46875,-7.62573 1.45313,-0.23438 q 0.14062,0.6875 0.14062,1.23438 0,0.89062 -0.28125,1.39062 -0.28125,0.48438 -0.73437,0.6875 -0.46875,0.20313 -1.9375,0.20313 h -5.57813 v 1.20312 h -1.26562 v -1.20312 H 439.263 l -0.98437,-1.625 h 3.375 v -1.65625 h 1.26562 v 1.65625 h 5.67188 q 0.6875,0 0.89062,-0.0781 0.20313,-0.0937 0.32813,-0.28125 0.10937,-0.20312 0.10937,-0.57812 0,-0.26563 -0.0625,-0.71875 z m 5.17188,-1.60517 h -13.375 v -1.48437 h 1.25 q -0.73438,-0.53125 -1.09375,-1.1875 -0.375,-0.67188 -0.375,-1.625 0,-1.23438 0.64062,-2.17188 0.625,-0.95312 1.79688,-1.4375 1.15625,-0.48437 2.54687,-0.48437 1.48438,0 2.67188,0.53125 1.1875,0.53125 1.82812,1.54687 0.625,1.01563 0.625,2.14063 0,0.8125 -0.34375,1.46875 -0.34375,0.65625 -0.875,1.0625 h 4.70313 z m -8.48438,-1.48437 q 1.85938,0 2.76563,-0.75 0.89062,-0.76563 0.89062,-1.82813 0,-1.09375 -0.92187,-1.875 -0.9375,-0.78125 -2.875,-0.78125 -1.84375,0 -2.76563,0.76563 -0.92187,0.75 -0.92187,1.8125 0,1.04687 0.98437,1.85937 0.96875,0.79688 2.84375,0.79688 z m 4.78125,-15.21948 h -1.42187 q 1.64062,1.125 1.64062,3.0625 0,0.85937 -0.32812,1.60937 -0.32813,0.73438 -0.82813,1.09375 -0.5,0.35938 -1.21875,0.5 -0.46875,0.10938 -1.53125,0.10938 h -5.98437 v -1.64063 h 5.35937 q 1.28125,0 1.73438,-0.10937 0.64062,-0.15625 1.01562,-0.65625 0.375,-0.5 0.375,-1.23438 0,-0.73437 -0.375,-1.375 -0.39062,-0.65625 -1.03125,-0.92187 -0.65625,-0.26563 -1.89062,-0.26563 h -5.1875 v -1.64062 h 9.67187 z m -1.46875,-7.62571 1.45313,-0.23437 q 0.14062,0.6875 0.14062,1.23437 0,0.89063 -0.28125,1.39063 -0.28125,0.48437 -0.73437,0.6875 -0.46875,0.20312 -1.9375,0.20312 h -5.57813 v 1.20313 h -1.26562 v -1.20313 H 439.263 l -0.98437,-1.625 h 3.375 v -1.65625 h 1.26562 v 1.65625 h 5.67188 q 0.6875,0 0.89062,-0.0781 0.20313,-0.0937 0.32813,-0.28125 0.10937,-0.20313 0.10937,-0.57813 0,-0.26562 -0.0625,-0.71875 z m -1.42187,-0.94894 -0.25,-1.625 q 0.96875,-0.125 1.5,-0.75 0.51562,-0.625 0.51562,-1.75 0,-1.125 -0.45312,-1.67187 -0.46875,-0.54688 -1.09375,-0.54688 -0.54688,0 -0.875,0.48438 -0.21875,0.32812 -0.54688,1.67187 -0.46875,1.8125 -0.79687,2.51563 -0.32813,0.6875 -0.90625,1.04687 -0.59375,0.35938 -1.3125,0.35938 -0.64063,0 -1.1875,-0.29688 -0.5625,-0.29687 -0.92188,-0.8125 -0.28125,-0.375 -0.46875,-1.03125 -0.20312,-0.67187 -0.20312,-1.42187 0,-1.14063 0.32812,-2 0.32813,-0.85938 0.89063,-1.26563 0.5625,-0.42187 1.5,-0.57812 l 0.21875,1.60937 q -0.75,0.10938 -1.17188,0.64063 -0.42187,0.51562 -0.42187,1.46875 0,1.14062 0.375,1.625 0.375,0.46875 0.875,0.46875 0.3125,0 0.57812,-0.1875 0.26563,-0.20313 0.4375,-0.64063 0.0937,-0.23437 0.42188,-1.4375 0.45312,-1.75 0.75,-2.4375 0.29687,-0.6875 0.85937,-1.07812 0.5625,-0.39063 1.40625,-0.39063 0.82813,0 1.54688,0.48438 0.71875,0.46875 1.125,1.375 0.39062,0.90625 0.39062,2.04687 0,1.875 -0.78125,2.875 -0.78125,0.98438 -2.32812,1.25 z"
     fill-rule="nonzero"
     id="path1045" />
  <path
     fill="#000000"
     fill-opacity="0"
     d="M 120.49999,199.76246 397.00393,199.479"
     fill-rule="evenodd"
     id="path1047" />
  <path
     stroke="#000000"
     stroke-width="3"
     stroke-linejoin="round"
     stroke-linecap="butt"
     d="m 120.49999,199.76246 258.50394,-0.26501"
     fill-rule="evenodd"
     id="path1049" />
  <path
     fill="#000000"
     stroke="#000000"
     stroke-width="3"
     stroke-linecap="butt"
     d="m 379.00902,204.45265 13.60919,-4.96915 -13.61935,-4.94124 z"
     fill-rule="evenodd"
     id="path1051" />
  <path
     fill="#000000"
     fill-opacity="0"
     d="m 314.7441,112.76509 h 53.25983 v 87.27559 H 314.7441 Z"
     fill-rule="evenodd"
     id="path1053" />
  <path
     fill="#000000"
     d="m 328.5566,138.21634 0.23437,1.45312 q -0.6875,0.14063 -1.23437,0.14063 -0.89063,0 -1.39063,-0.28125 -0.48437,-0.28125 -0.6875,-0.73438 -0.20312,-0.46875 -0.20312,-1.9375 v -5.57812 h -1.20313 v -1.26563 h 1.20313 v -2.39062 l 1.625,-0.98438 v 3.375 h 1.65625 v 1.26563 h -1.65625 v 5.67187 q 0,0.6875 0.0781,0.89063 0.0937,0.20312 0.28125,0.32812 0.20313,0.10938 0.57813,0.10938 0.26562,0 0.71875,-0.0625 z m 7.91766,-2.07813 1.60938,0.21875 q -0.26563,1.65625 -1.35938,2.60938 -1.07812,0.9375 -2.67187,0.9375 -1.98438,0 -3.1875,-1.29688 -1.20313,-1.29687 -1.20313,-3.71875 0,-1.57812 0.51563,-2.75 0.51562,-1.17187 1.57812,-1.75 1.0625,-0.59375 2.3125,-0.59375 1.57813,0 2.57813,0.79688 1,0.79687 1.28125,2.26562 l -1.59375,0.23438 q -0.23438,-0.96875 -0.8125,-1.45313 -0.57813,-0.5 -1.39063,-0.5 -1.23437,0 -2.01562,0.89063 -0.78125,0.89062 -0.78125,2.8125 0,1.95312 0.75,2.84375 0.75,0.875 1.95312,0.875 0.96875,0 1.60938,-0.59375 0.65625,-0.59375 0.82812,-1.82813 z m 3.01563,3.54688 v -13.35938 h 1.64062 v 7.625 l 3.89063,-3.9375 h 2.10937 l -3.6875,3.59375 4.0625,6.07813 h -2.01562 l -3.20313,-4.95313 -1.15625,1.125 v 3.82813 z"
     fill-rule="nonzero"
     id="path1055" />
  <path
     fill="#000000"
     d="m 328.5566,160.61633 0.23437,1.45312 q -0.6875,0.14063 -1.23437,0.14063 -0.89063,0 -1.39063,-0.28125 -0.48437,-0.28125 -0.6875,-0.73438 -0.20312,-0.46875 -0.20312,-1.9375 v -5.57812 h -1.20313 v -1.26563 h 1.20313 v -2.39062 l 1.625,-0.98438 v 3.375 h 1.65625 v 1.26563 h -1.65625 v 5.67187 q 0,0.6875 0.0781,0.89063 0.0937,0.20312 0.28125,0.32812 0.20313,0.10938 0.57813,0.10938 0.26562,0 0.71875,-0.0625 z m 1.60516,1.46875 v -9.67188 h 1.46875 v 1.35938 q 0.45313,-0.71875 1.20313,-1.14063 0.76562,-0.4375 1.71875,-0.4375 1.07812,0 1.76562,0.45313 0.6875,0.4375 0.96875,1.23437 1.15625,-1.6875 2.98438,-1.6875 1.45312,0 2.21875,0.79688 0.78125,0.79687 0.78125,2.45312 v 6.64063 h -1.64063 v -6.09375 q 0,-0.98438 -0.15625,-1.40625 -0.15625,-0.4375 -0.57812,-0.70313 -0.42188,-0.26562 -0.98438,-0.26562 -1.01562,0 -1.6875,0.6875 -0.67187,0.67187 -0.67187,2.15625 v 5.625 h -1.64063 v -6.28125 q 0,-1.09375 -0.40625,-1.64063 -0.40625,-0.54687 -1.3125,-0.54687 -0.6875,0 -1.28125,0.35937 -0.59375,0.35938 -0.85937,1.0625 -0.25,0.70313 -0.25,2.03125 v 5.01563 z m 14.88456,-2.89063 1.625,-0.25 q 0.125,0.96875 0.75,1.5 0.625,0.51563 1.75,0.51563 1.125,0 1.67187,-0.45313 0.54688,-0.46875 0.54688,-1.09375 0,-0.54687 -0.48438,-0.875 -0.32812,-0.21875 -1.67187,-0.54687 -1.8125,-0.46875 -2.51563,-0.79688 -0.6875,-0.32812 -1.04687,-0.90625 -0.35938,-0.59375 -0.35938,-1.3125 0,-0.64062 0.29688,-1.1875 0.29687,-0.5625 0.8125,-0.92187 0.375,-0.28125 1.03125,-0.46875 0.67187,-0.20313 1.42187,-0.20313 1.14063,0 2,0.32813 0.85938,0.32812 1.26563,0.89062 0.42187,0.5625 0.57812,1.5 l -1.60937,0.21875 q -0.10938,-0.75 -0.64063,-1.17187 -0.51562,-0.42188 -1.46875,-0.42188 -1.14062,0 -1.625,0.375 -0.46875,0.375 -0.46875,0.875 0,0.3125 0.1875,0.57813 0.20313,0.26562 0.64063,0.4375 0.23437,0.0937 1.4375,0.42187 1.75,0.45313 2.4375,0.75 0.6875,0.29688 1.07812,0.85938 0.39063,0.5625 0.39063,1.40625 0,0.82812 -0.48438,1.54687 -0.46875,0.71875 -1.375,1.125 -0.90625,0.39063 -2.04687,0.39063 -1.875,0 -2.875,-0.78125 -0.98438,-0.78125 -1.25,-2.32813 z"
     fill-rule="nonzero"
     id="path1057" />
  <path
     fill="#000000"
     d="m 328.5566,183.01634 0.23437,1.45312 q -0.6875,0.14063 -1.23437,0.14063 -0.89063,0 -1.39063,-0.28125 -0.48437,-0.28125 -0.6875,-0.73438 -0.20312,-0.46875 -0.20312,-1.9375 v -5.57812 h -1.20313 v -1.26563 h 1.20313 v -2.39062 l 1.625,-0.98438 v 3.375 h 1.65625 v 1.26563 h -1.65625 v 5.67187 q 0,0.6875 0.0781,0.89063 0.0937,0.20312 0.28125,0.32812 0.20313,0.10938 0.57813,0.10938 0.26562,0 0.71875,-0.0625 z m 7.87079,1.46875 v -1.21875 q -0.90625,1.4375 -2.70313,1.4375 -1.15625,0 -2.125,-0.64063 -0.96875,-0.64062 -1.5,-1.78125 -0.53125,-1.14062 -0.53125,-2.625 0,-1.45312 0.48438,-2.625 0.48437,-1.1875 1.4375,-1.8125 0.96875,-0.625 2.17187,-0.625 0.875,0 1.54688,0.375 0.6875,0.35938 1.10937,0.95313 v -4.79688 h 1.64063 v 13.35938 z m -5.17188,-4.82813 q 0,1.85938 0.78125,2.78125 0.78125,0.92188 1.84375,0.92188 1.07813,0 1.82813,-0.875 0.75,-0.89063 0.75,-2.6875 0,-1.98438 -0.76563,-2.90625 -0.76562,-0.9375 -1.89062,-0.9375 -1.07813,0 -1.8125,0.89062 -0.73438,0.89063 -0.73438,2.8125 z m 9.28199,-6.64062 v -1.89063 h 1.64062 v 1.89063 z m 0,11.46875 v -9.67188 h 1.64062 v 9.67188 z"
     fill-rule="nonzero"
     id="path1059" />
  <path
     fill="#ffffff"
     d="m 396.98818,181.39502 h 64 v 36.15749 h -64 z"
     fill-rule="evenodd"
     id="path1061" />
  <path
     stroke="#000000"
     stroke-width="1"
     stroke-linejoin="round"
     stroke-linecap="butt"
     d="m 396.98818,181.39502 h 64 v 36.15749 h -64 z"
     fill-rule="evenodd"
     id="path1063" />
  <path
     fill="#000000"
     d="m 412.75649,206.39375 v -13.35938 h 2.65625 l 3.15625,9.45313 q 0.4375,1.32812 0.64062,1.98437 0.23438,-0.73437 0.70313,-2.14062 l 3.20312,-9.29688 h 2.375 v 13.35938 h -1.70312 v -11.17188 l -3.875,11.17188 h -1.59375 l -3.85938,-11.375 v 11.375 z m 21.71268,0 v -1.42188 q -1.125,1.64063 -3.0625,1.64063 -0.85938,0 -1.60938,-0.32813 -0.73437,-0.32812 -1.09375,-0.82812 -0.35937,-0.5 -0.5,-1.21875 -0.10937,-0.46875 -0.10937,-1.53125 v -5.98438 h 1.64062 v 5.35938 q 0,1.28125 0.10938,1.73437 0.15625,0.64063 0.65625,1.01563 0.5,0.375 1.23437,0.375 0.73438,0 1.375,-0.375 0.65625,-0.39063 0.92188,-1.03125 0.26562,-0.65625 0.26562,-1.89063 v -5.1875 h 1.64063 v 9.67188 z m 2.95382,0 3.53125,-5.03125 -3.26562,-4.64063 h 2.04687 l 1.48438,2.26563 q 0.42187,0.64062 0.67187,1.07812 0.40625,-0.59375 0.73438,-1.0625 l 1.64062,-2.28125 h 1.95313 l -3.34375,4.54688 3.59375,5.125 h -2.01563 l -1.98437,-3 -0.51563,-0.8125 -2.54687,3.8125 z"
     fill-rule="nonzero"
     id="path1065" />
  <path
     fill="#000000"
     fill-opacity="0"
     d="m 460.98818,112.76509 h 53.25986 v 87.27559 h -53.25986 z"
     fill-rule="evenodd"
     id="path1067" />
  <path
     fill="#000000"
     d="m 474.80071,138.21634 0.23437,1.45312 q -0.6875,0.14063 -1.23437,0.14063 -0.89063,0 -1.39063,-0.28125 -0.48437,-0.28125 -0.6875,-0.73438 -0.20312,-0.46875 -0.20312,-1.9375 v -5.57812 h -1.20313 v -1.26563 h 1.20313 v -2.39062 l 1.625,-0.98438 v 3.375 h 1.65625 v 1.26563 h -1.65625 v 5.67187 q 0,0.6875 0.0781,0.89063 0.0937,0.20312 0.28125,0.32812 0.20313,0.10938 0.57813,0.10938 0.26562,0 0.71875,-0.0625 z m 7.91766,-2.07813 1.60938,0.21875 q -0.26563,1.65625 -1.35938,2.60938 -1.07812,0.9375 -2.67187,0.9375 -1.98438,0 -3.1875,-1.29688 -1.20313,-1.29687 -1.20313,-3.71875 0,-1.57812 0.51563,-2.75 0.51562,-1.17187 1.57812,-1.75 1.0625,-0.59375 2.3125,-0.59375 1.57813,0 2.57813,0.79688 1,0.79687 1.28125,2.26562 l -1.59375,0.23438 q -0.23438,-0.96875 -0.8125,-1.45313 -0.57813,-0.5 -1.39063,-0.5 -1.23437,0 -2.01562,0.89063 -0.78125,0.89062 -0.78125,2.8125 0,1.95312 0.75,2.84375 0.75,0.875 1.95312,0.875 0.96875,0 1.60938,-0.59375 0.65625,-0.59375 0.82812,-1.82813 z m 3.01563,3.54688 v -13.35938 h 1.64062 v 7.625 l 3.89063,-3.9375 h 2.10937 l -3.6875,3.59375 4.0625,6.07813 H 491.734 l -3.20313,-4.95313 -1.15625,1.125 v 3.82813 z"
     fill-rule="nonzero"
     id="path1069" />
  <path
     fill="#000000"
     d="m 474.80071,160.61633 0.23437,1.45312 q -0.6875,0.14063 -1.23437,0.14063 -0.89063,0 -1.39063,-0.28125 -0.48437,-0.28125 -0.6875,-0.73438 -0.20312,-0.46875 -0.20312,-1.9375 v -5.57812 h -1.20313 v -1.26563 h 1.20313 v -2.39062 l 1.625,-0.98438 v 3.375 h 1.65625 v 1.26563 h -1.65625 v 5.67187 q 0,0.6875 0.0781,0.89063 0.0937,0.20312 0.28125,0.32812 0.20313,0.10938 0.57813,0.10938 0.26562,0 0.71875,-0.0625 z m 1.60516,1.46875 v -9.67188 h 1.46875 v 1.35938 q 0.45313,-0.71875 1.20313,-1.14063 0.76562,-0.4375 1.71875,-0.4375 1.07812,0 1.76562,0.45313 0.6875,0.4375 0.96875,1.23437 1.15625,-1.6875 2.98438,-1.6875 1.45312,0 2.21875,0.79688 0.78125,0.79687 0.78125,2.45312 v 6.64063 h -1.64063 v -6.09375 q 0,-0.98438 -0.15625,-1.40625 -0.15625,-0.4375 -0.57812,-0.70313 -0.42188,-0.26562 -0.98438,-0.26562 -1.01562,0 -1.6875,0.6875 -0.67187,0.67187 -0.67187,2.15625 v 5.625 h -1.64063 v -6.28125 q 0,-1.09375 -0.40625,-1.64063 -0.40625,-0.54687 -1.3125,-0.54687 -0.6875,0 -1.28125,0.35937 -0.59375,0.35938 -0.85937,1.0625 -0.25,0.70313 -0.25,2.03125 v 5.01563 z m 14.88453,-2.89063 1.625,-0.25 q 0.125,0.96875 0.75,1.5 0.625,0.51563 1.75,0.51563 1.125,0 1.67187,-0.45313 0.54688,-0.46875 0.54688,-1.09375 0,-0.54687 -0.48438,-0.875 -0.32812,-0.21875 -1.67187,-0.54687 -1.8125,-0.46875 -2.51563,-0.79688 -0.6875,-0.32812 -1.04687,-0.90625 -0.35938,-0.59375 -0.35938,-1.3125 0,-0.64062 0.29688,-1.1875 0.29687,-0.5625 0.8125,-0.92187 0.375,-0.28125 1.03125,-0.46875 0.67187,-0.20313 1.42187,-0.20313 1.14063,0 2,0.32813 0.85938,0.32812 1.26563,0.89062 0.42187,0.5625 0.57812,1.5 l -1.60937,0.21875 q -0.10938,-0.75 -0.64063,-1.17187 -0.51562,-0.42188 -1.46875,-0.42188 -1.14062,0 -1.625,0.375 -0.46875,0.375 -0.46875,0.875 0,0.3125 0.1875,0.57813 0.20313,0.26562 0.64063,0.4375 0.23437,0.0937 1.4375,0.42187 1.75,0.45313 2.4375,0.75 0.6875,0.29688 1.07812,0.85938 0.39063,0.5625 0.39063,1.40625 0,0.82812 -0.48438,1.54687 -0.46875,0.71875 -1.375,1.125 -0.90625,0.39063 -2.04687,0.39063 -1.875,0 -2.875,-0.78125 -0.98438,-0.78125 -1.25,-2.32813 z"
     fill-rule="nonzero"
     id="path1071" />
  <path
     fill="#000000"
     d="m 474.80071,183.01634 0.23437,1.45312 q -0.6875,0.14063 -1.23437,0.14063 -0.89063,0 -1.39063,-0.28125 -0.48437,-0.28125 -0.6875,-0.73438 -0.20312,-0.46875 -0.20312,-1.9375 v -5.57812 h -1.20313 v -1.26563 h 1.20313 v -2.39062 l 1.625,-0.98438 v 3.375 h 1.65625 v 1.26563 h -1.65625 v 5.67187 q 0,0.6875 0.0781,0.89063 0.0937,0.20312 0.28125,0.32812 0.20313,0.10938 0.57813,0.10938 0.26562,0 0.71875,-0.0625 z m 7.87079,1.46875 v -1.21875 q -0.90625,1.4375 -2.70313,1.4375 -1.15625,0 -2.125,-0.64063 -0.96875,-0.64062 -1.5,-1.78125 -0.53125,-1.14062 -0.53125,-2.625 0,-1.45312 0.48438,-2.625 0.48437,-1.1875 1.4375,-1.8125 0.96875,-0.625 2.17187,-0.625 0.875,0 1.54688,0.375 0.6875,0.35938 1.10937,0.95313 v -4.79688 h 1.64063 v 13.35938 z m -5.17188,-4.82813 q 0,1.85938 0.78125,2.78125 0.78125,0.92188 1.84375,0.92188 1.07813,0 1.82813,-0.875 0.75,-0.89063 0.75,-2.6875 0,-1.98438 -0.76563,-2.90625 -0.76562,-0.9375 -1.89062,-0.9375 -1.07813,0 -1.8125,0.89062 -0.73438,0.89063 -0.73438,2.8125 z m 8.67261,-0.0156 q 0,-2.6875 1.48438,-3.96875 1.25,-1.07813 3.04687,-1.07813 2,0 3.26563,1.3125 1.26562,1.29688 1.26562,3.60938 0,1.85937 -0.5625,2.9375 -0.5625,1.0625 -1.64062,1.65625 -1.0625,0.59375 -2.32813,0.59375 -2.03125,0 -3.28125,-1.29688 -1.25,-1.3125 -1.25,-3.76562 z m 1.6875,0 q 0,1.85937 0.79688,2.79687 0.8125,0.92188 2.04687,0.92188 1.21875,0 2.03125,-0.92188 0.8125,-0.9375 0.8125,-2.84375 0,-1.79687 -0.8125,-2.71875 -0.8125,-0.92187 -2.03125,-0.92187 -1.23437,0 -2.04687,0.92187 -0.79688,0.90625 -0.79688,2.76563 z"
     fill-rule="nonzero"
     id="path1073" />
  <path
     fill="#efefef"
     d="M 554.3189,75.72047 H 758.00396 V 241.8307 H 554.3189 Z"
     fill-rule="evenodd"
     id="path1075" />
  <path
     stroke="#000000"
     stroke-width="1"
     stroke-linejoin="round"
     stroke-linecap="butt"
     d="M 554.3189,75.72047 H 758.00396 V 241.8307 H 554.3189 Z"
     fill-rule="evenodd"
     id="path1077" />
  <path
     fill="#000000"
     d="m 607.74526,102.64047 v -3.20313 h -5.79687 v -1.5 l 6.09375,-8.65625 h 1.34375 v 8.65625 h 1.79687 v 1.5 h -1.79687 v 3.20313 z m 0,-4.70313 v -6.01562 l -4.1875,6.01562 z m 4.48505,4.70313 3.53125,-5.03125 -3.26563,-4.64063 h 2.04688 l 1.48437,2.26563 q 0.42188,0.64062 0.67188,1.07812 0.40625,-0.59375 0.73437,-1.0625 l 1.64063,-2.28125 h 1.95312 l -3.34375,4.54688 3.59375,5.125 h -2.01562 l -1.98438,-3 -0.51562,-0.8125 -2.54688,3.8125 z m 14.94897,-2.89063 1.625,-0.25 q 0.125,0.96875 0.75,1.5 0.625,0.51563 1.75,0.51563 1.125,0 1.67188,-0.45313 0.54687,-0.46875 0.54687,-1.09375 0,-0.54687 -0.48437,-0.875 -0.32813,-0.21875 -1.67188,-0.54687 -1.8125,-0.46875 -2.51562,-0.79688 -0.6875,-0.32812 -1.04688,-0.90625 -0.35937,-0.59375 -0.35937,-1.3125 0,-0.64062 0.29687,-1.1875 0.29688,-0.5625 0.8125,-0.92187 0.375,-0.28125 1.03125,-0.46875 0.67188,-0.20313 1.42188,-0.20313 1.14062,0 2,0.32813 0.85937,0.32812 1.26562,0.89062 0.42188,0.5625 0.57813,1.5 l -1.60938,0.21875 q -0.10937,-0.75 -0.64062,-1.17187 -0.51563,-0.42188 -1.46875,-0.42188 -1.14063,0 -1.625,0.375 -0.46875,0.375 -0.46875,0.875 0,0.3125 0.1875,0.57813 0.20312,0.26562 0.64062,0.4375 0.23438,0.0937 1.4375,0.42187 1.75,0.45313 2.4375,0.75 0.6875,0.29688 1.07813,0.85938 0.39062,0.5625 0.39062,1.40625 0,0.82812 -0.48437,1.54687 -0.46875,0.71875 -1.375,1.125 -0.90625,0.39063 -2.04688,0.39063 -1.875,0 -2.875,-0.78125 -0.98437,-0.78125 -1.25,-2.32813 z m 16.29688,-0.65625 1.60937,0.21875 q -0.26562,1.65625 -1.35937,2.60938 -1.07813,0.9375 -2.67188,0.9375 -1.98437,0 -3.1875,-1.29688 -1.20312,-1.29687 -1.20312,-3.71875 0,-1.57812 0.51562,-2.75 0.51563,-1.17187 1.57813,-1.75 1.0625,-0.59375 2.3125,-0.59375 1.57812,0 2.57812,0.79688 1,0.79687 1.28125,2.26562 l -1.59375,0.23438 q -0.23437,-0.96875 -0.8125,-1.45313 -0.57812,-0.5 -1.39062,-0.5 -1.23438,0 -2.01563,0.89063 -0.78125,0.89062 -0.78125,2.8125 0,1.95312 0.75,2.84375 0.75,0.875 1.95313,0.875 0.96875,0 1.60937,-0.59375 0.65625,-0.59375 0.82813,-1.82813 z m 9.32812,2.35938 q -0.92187,0.76562 -1.76562,1.09375 -0.82813,0.3125 -1.79688,0.3125 -1.59375,0 -2.45312,-0.78125 -0.85938,-0.78125 -0.85938,-1.98438 0,-0.71875 0.32813,-1.29687 0.32812,-0.59375 0.84375,-0.9375 0.53125,-0.35938 1.1875,-0.54688 0.46875,-0.125 1.45312,-0.25 1.98438,-0.23437 2.92188,-0.5625 0.0156,-0.34375 0.0156,-0.42187 0,-1 -0.46875,-1.42188 -0.625,-0.54687 -1.875,-0.54687 -1.15625,0 -1.70312,0.40625 -0.54688,0.40625 -0.8125,1.42187 l -1.60938,-0.21875 q 0.21875,-1.01562 0.71875,-1.64062 0.5,-0.64063 1.45313,-0.98438 0.95312,-0.34375 2.1875,-0.34375 1.25,0 2.01562,0.29688 0.78125,0.28125 1.14063,0.73437 0.375,0.4375 0.51562,1.10938 0.0781,0.42187 0.0781,1.51562 v 2.1875 q 0,2.28125 0.10937,2.89063 0.10938,0.59375 0.40625,1.15625 h -1.70312 q -0.26563,-0.51563 -0.32813,-1.1875 z m -0.14062,-3.67188 q -0.89063,0.375 -2.67188,0.625 -1.01562,0.14063 -1.4375,0.32813 -0.42187,0.1875 -0.65625,0.53125 -0.21875,0.34375 -0.21875,0.78125 0,0.65625 0.5,1.09375 0.5,0.4375 1.45313,0.4375 0.9375,0 1.67187,-0.40625 0.75,-0.42188 1.09375,-1.14063 0.26563,-0.5625 0.26563,-1.64062 z m 4.20379,4.85938 v -9.67188 h 1.46875 v 1.375 q 1.0625,-1.59375 3.07813,-1.59375 0.875,0 1.60937,0.3125 0.73438,0.3125 1.09375,0.82813 0.375,0.5 0.51563,1.20312 0.0937,0.45313 0.0937,1.59375 v 5.95313 h -1.64063 v -5.89063 q 0,-1 -0.20312,-1.48437 -0.1875,-0.5 -0.67188,-0.79688 -0.48437,-0.29687 -1.14062,-0.29687 -1.04688,0 -1.8125,0.67187 -0.75,0.65625 -0.75,2.51563 v 5.28125 z m 16.68823,-3.54688 1.60938,0.21875 q -0.26563,1.65625 -1.35938,2.60938 -1.07812,0.9375 -2.67187,0.9375 -1.98438,0 -3.1875,-1.29688 -1.20313,-1.29687 -1.20313,-3.71875 0,-1.57812 0.51563,-2.75 0.51562,-1.17187 1.57812,-1.75 1.0625,-0.59375 2.3125,-0.59375 1.57813,0 2.57813,0.79688 1,0.79687 1.28125,2.26562 l -1.59375,0.23438 q -0.23438,-0.96875 -0.8125,-1.45313 -0.57813,-0.5 -1.39063,-0.5 -1.23437,0 -2.01562,0.89063 -0.78125,0.89062 -0.78125,2.8125 0,1.95312 0.75,2.84375 0.75,0.875 1.95312,0.875 0.96875,0 1.60938,-0.59375 0.65625,-0.59375 0.82812,-1.82813 z m 3.01563,3.54688 V 89.28109 h 1.64062 v 4.79688 q 1.14063,-1.32813 2.89063,-1.32813 1.07812,0 1.85937,0.42188 0.79688,0.42187 1.14063,1.17187 0.34375,0.75 0.34375,2.17188 v 6.125 h -1.64063 v -6.125 q 0,-1.23438 -0.53125,-1.79688 -0.53125,-0.5625 -1.51562,-0.5625 -0.71875,0 -1.35938,0.39063 -0.64062,0.375 -0.92187,1.01562 -0.26563,0.64063 -0.26563,1.78125 v 5.29688 z m 16.68823,-1.1875 q -0.92187,0.76562 -1.76562,1.09375 -0.82813,0.3125 -1.79688,0.3125 -1.59375,0 -2.45312,-0.78125 -0.85938,-0.78125 -0.85938,-1.98438 0,-0.71875 0.32813,-1.29687 0.32812,-0.59375 0.84375,-0.9375 0.53125,-0.35938 1.1875,-0.54688 0.46875,-0.125 1.45312,-0.25 1.98438,-0.23437 2.92188,-0.5625 0.0156,-0.34375 0.0156,-0.42187 0,-1 -0.46875,-1.42188 -0.625,-0.54687 -1.875,-0.54687 -1.15625,0 -1.70312,0.40625 -0.54688,0.40625 -0.8125,1.42187 l -1.60938,-0.21875 q 0.21875,-1.01562 0.71875,-1.64062 0.5,-0.64063 1.45313,-0.98438 0.95312,-0.34375 2.1875,-0.34375 1.25,0 2.01562,0.29688 0.78125,0.28125 1.14063,0.73437 0.375,0.4375 0.51562,1.10938 0.0781,0.42187 0.0781,1.51562 v 2.1875 q 0,2.28125 0.10937,2.89063 0.10938,0.59375 0.40625,1.15625 h -1.70312 q -0.26563,-0.51563 -0.32813,-1.1875 z m -0.14062,-3.67188 q -0.89063,0.375 -2.67188,0.625 -1.01562,0.14063 -1.4375,0.32813 -0.42187,0.1875 -0.65625,0.53125 -0.21875,0.34375 -0.21875,0.78125 0,0.65625 0.5,1.09375 0.5,0.4375 1.45313,0.4375 0.9375,0 1.67187,-0.40625 0.75,-0.42188 1.09375,-1.14063 0.26563,-0.5625 0.26563,-1.64062 z m 4.20379,-6.60937 v -1.89063 h 1.64063 v 1.89063 z m 0,11.46875 v -9.67188 h 1.64063 v 9.67188 z m 4.14484,0 v -9.67188 h 1.46875 v 1.375 q 1.0625,-1.59375 3.07812,-1.59375 0.875,0 1.60938,0.3125 0.73437,0.3125 1.09375,0.82813 0.375,0.5 0.51562,1.20312 0.0937,0.45313 0.0937,1.59375 v 5.95313 h -1.64062 v -5.89063 q 0,-1 -0.20313,-1.48437 -0.1875,-0.5 -0.67187,-0.79688 -0.48438,-0.29687 -1.14063,-0.29687 -1.04687,0 -1.8125,0.67187 -0.75,0.65625 -0.75,2.51563 v 5.28125 z"
     fill-rule="nonzero"
     id="path1079" />
  <path
     fill="#000000"
     d="m 617.98806,113.17172 v -1.89063 h 1.64063 v 1.89063 z m 0,11.46875 v -9.67188 h 1.64063 v 9.67188 z m 4.14484,0 v -9.67188 h 1.46875 v 1.375 q 1.0625,-1.59375 3.07812,-1.59375 0.875,0 1.60938,0.3125 0.73437,0.3125 1.09375,0.82813 0.375,0.5 0.51562,1.20312 0.0937,0.45313 0.0937,1.59375 v 5.95313 h -1.64062 v -5.89063 q 0,-1 -0.20313,-1.48437 -0.1875,-0.5 -0.67187,-0.79688 -0.48438,-0.29687 -1.14063,-0.29687 -1.04687,0 -1.8125,0.67187 -0.75,0.65625 -0.75,2.51563 v 5.28125 z m 9.71948,-2.89063 1.625,-0.25 q 0.125,0.96875 0.75,1.5 0.625,0.51563 1.75,0.51563 1.125,0 1.67187,-0.45313 0.54688,-0.46875 0.54688,-1.09375 0,-0.54687 -0.48438,-0.875 -0.32812,-0.21875 -1.67187,-0.54687 -1.8125,-0.46875 -2.51563,-0.79688 -0.6875,-0.32812 -1.04687,-0.90625 -0.35938,-0.59375 -0.35938,-1.3125 0,-0.64062 0.29688,-1.1875 0.29687,-0.5625 0.8125,-0.92187 0.375,-0.28125 1.03125,-0.46875 0.67187,-0.20313 1.42187,-0.20313 1.14063,0 2,0.32813 0.85938,0.32812 1.26563,0.89062 0.42187,0.5625 0.57812,1.5 l -1.60937,0.21875 q -0.10938,-0.75 -0.64063,-1.17187 -0.51562,-0.42188 -1.46875,-0.42188 -1.14062,0 -1.625,0.375 -0.46875,0.375 -0.46875,0.875 0,0.3125 0.1875,0.57813 0.20313,0.26562 0.64063,0.4375 0.23437,0.0937 1.4375,0.42187 1.75,0.45313 2.4375,0.75 0.6875,0.29688 1.07812,0.85938 0.39063,0.5625 0.39063,1.40625 0,0.82812 -0.48438,1.54687 -0.46875,0.71875 -1.375,1.125 -0.90625,0.39063 -2.04687,0.39063 -1.875,0 -2.875,-0.78125 -0.98438,-0.78125 -1.25,-2.32813 z m 13.5625,1.42188 0.23437,1.45312 q -0.6875,0.14063 -1.23437,0.14063 -0.89063,0 -1.39063,-0.28125 -0.48437,-0.28125 -0.6875,-0.73438 -0.20312,-0.46875 -0.20312,-1.9375 v -5.57812 h -1.20313 v -1.26563 h 1.20313 v -2.39062 l 1.625,-0.98438 v 3.375 h 1.65625 v 1.26563 h -1.65625 v 5.67187 q 0,0.6875 0.0781,0.89063 0.0937,0.20312 0.28125,0.32812 0.20313,0.10938 0.57813,0.10938 0.26562,0 0.71875,-0.0625 z m 7.91766,0.28125 q -0.92187,0.76562 -1.76562,1.09375 -0.82813,0.3125 -1.79688,0.3125 -1.59375,0 -2.45312,-0.78125 -0.85938,-0.78125 -0.85938,-1.98438 0,-0.71875 0.32813,-1.29687 0.32812,-0.59375 0.84375,-0.9375 0.53125,-0.35938 1.1875,-0.54688 0.46875,-0.125 1.45312,-0.25 1.98438,-0.23437 2.92188,-0.5625 0.0156,-0.34375 0.0156,-0.42187 0,-1 -0.46875,-1.42188 -0.625,-0.54687 -1.875,-0.54687 -1.15625,0 -1.70312,0.40625 -0.54688,0.40625 -0.8125,1.42187 l -1.60938,-0.21875 q 0.21875,-1.01562 0.71875,-1.64062 0.5,-0.64063 1.45313,-0.98438 0.95312,-0.34375 2.1875,-0.34375 1.25,0 2.01562,0.29688 0.78125,0.28125 1.14063,0.73437 0.375,0.4375 0.51562,1.10938 0.0781,0.42187 0.0781,1.51562 v 2.1875 q 0,2.28125 0.10937,2.89063 0.10938,0.59375 0.40625,1.15625 h -1.70312 q -0.26563,-0.51563 -0.32813,-1.1875 z m -0.14062,-3.67188 q -0.89063,0.375 -2.67188,0.625 -1.01562,0.14063 -1.4375,0.32813 -0.42187,0.1875 -0.65625,0.53125 -0.21875,0.34375 -0.21875,0.78125 0,0.65625 0.5,1.09375 0.5,0.4375 1.45313,0.4375 0.9375,0 1.67187,-0.40625 0.75,-0.42188 1.09375,-1.14063 0.26563,-0.5625 0.26563,-1.64062 z m 4.20385,4.85938 v -9.67188 h 1.46875 v 1.375 q 1.0625,-1.59375 3.07813,-1.59375 0.875,0 1.60937,0.3125 0.73438,0.3125 1.09375,0.82813 0.375,0.5 0.51563,1.20312 0.0937,0.45313 0.0937,1.59375 v 5.95313 h -1.64063 v -5.89063 q 0,-1 -0.20312,-1.48437 -0.1875,-0.5 -0.67188,-0.79688 -0.48437,-0.29687 -1.14062,-0.29687 -1.04688,0 -1.8125,0.67187 -0.75,0.65625 -0.75,2.51563 v 5.28125 z m 16.68824,-3.54688 1.60937,0.21875 q -0.26562,1.65625 -1.35937,2.60938 -1.07813,0.9375 -2.67188,0.9375 -1.98437,0 -3.1875,-1.29688 -1.20312,-1.29687 -1.20312,-3.71875 0,-1.57812 0.51562,-2.75 0.51563,-1.17187 1.57813,-1.75 1.0625,-0.59375 2.3125,-0.59375 1.57812,0 2.57812,0.79688 1,0.79687 1.28125,2.26562 l -1.59375,0.23438 q -0.23437,-0.96875 -0.8125,-1.45313 -0.57812,-0.5 -1.39062,-0.5 -1.23438,0 -2.01563,0.89063 -0.78125,0.89062 -0.78125,2.8125 0,1.95312 0.75,2.84375 0.75,0.875 1.95313,0.875 0.96875,0 1.60937,-0.59375 0.65625,-0.59375 0.82813,-1.82813 z m 9.64056,0.4375 1.6875,0.20313 q -0.40625,1.48437 -1.48437,2.3125 -1.07813,0.8125 -2.76557,0.8125 -2.125,0 -3.375,-1.29688 -1.23437,-1.3125 -1.23437,-3.67187 0,-2.45313 1.25,-3.79688 1.26562,-1.34375 3.26562,-1.34375 1.93744,0 3.15619,1.32813 1.23438,1.3125 1.23438,3.70312 0,0.15625 0,0.4375 h -7.21869 q 0.0937,1.59375 0.90625,2.45313 0.8125,0.84375 2.01562,0.84375 0.90625,0 1.54682,-0.46875 0.64062,-0.48438 1.01562,-1.51563 z m -5.39056,-2.65625 h 5.40619 q -0.10938,-1.21875 -0.625,-1.82812 -0.78125,-0.95313 -2.03119,-0.95313 -1.125,0 -1.90625,0.76563 -0.76563,0.75 -0.84375,2.01562 z m 8.48504,2.875 1.625,-0.25 q 0.125,0.96875 0.75,1.5 0.625,0.51563 1.75,0.51563 1.125,0 1.67188,-0.45313 0.54687,-0.46875 0.54687,-1.09375 0,-0.54687 -0.48437,-0.875 -0.32813,-0.21875 -1.67188,-0.54687 -1.8125,-0.46875 -2.51562,-0.79688 -0.6875,-0.32812 -1.04688,-0.90625 -0.35937,-0.59375 -0.35937,-1.3125 0,-0.64062 0.29687,-1.1875 0.29688,-0.5625 0.8125,-0.92187 0.375,-0.28125 1.03125,-0.46875 0.67188,-0.20313 1.42188,-0.20313 1.14062,0 2,0.32813 0.85937,0.32812 1.26562,0.89062 0.42188,0.5625 0.57813,1.5 l -1.60938,0.21875 q -0.10937,-0.75 -0.64062,-1.17187 -0.51563,-0.42188 -1.46875,-0.42188 -1.14063,0 -1.625,0.375 -0.46875,0.375 -0.46875,0.875 0,0.3125 0.1875,0.57813 0.20312,0.26562 0.64062,0.4375 0.23438,0.0937 1.4375,0.42187 1.75,0.45313 2.4375,0.75 0.6875,0.29688 1.07813,0.85938 0.39062,0.5625 0.39062,1.40625 0,0.82812 -0.48437,1.54687 -0.46875,0.71875 -1.375,1.125 -0.90625,0.39063 -2.04688,0.39063 -1.875,0 -2.875,-0.78125 -0.98437,-0.78125 -1.25,-2.32813 z"
     fill-rule="nonzero"
     id="path1081" />
  <path
     fill="#ffffff"
     d="m 624.16143,181.68373 h 64 v 36.15747 h -64 z"
     fill-rule="evenodd"
     id="path1083" />
  <path
     stroke="#000000"
     stroke-width="1"
     stroke-linejoin="round"
     stroke-linecap="butt"
     d="m 624.16143,181.68373 h 64 v 36.15747 h -64 z"
     fill-rule="evenodd"
     id="path1085" />
  <path
     fill="#000000"
     d="m 639.92976,206.68246 v -13.35937 h 2.65625 l 3.15625,9.45312 q 0.4375,1.32813 0.64062,1.98438 0.23438,-0.73438 0.70313,-2.14063 l 3.20312,-9.29687 h 2.375 v 13.35937 h -1.70312 v -11.17187 l -3.875,11.17187 h -1.59375 l -3.85938,-11.375 v 11.375 z m 21.71265,0 v -1.42187 q -1.125,1.64062 -3.0625,1.64062 -0.85938,0 -1.60938,-0.32812 -0.73437,-0.32813 -1.09375,-0.82813 -0.35937,-0.5 -0.5,-1.21875 -0.10937,-0.46875 -0.10937,-1.53125 v -5.98437 h 1.64062 v 5.35937 q 0,1.28125 0.10938,1.73438 0.15625,0.64062 0.65625,1.01562 0.5,0.375 1.23437,0.375 0.73438,0 1.375,-0.375 0.65625,-0.39062 0.92188,-1.03125 0.26562,-0.65625 0.26562,-1.89062 v -5.1875 h 1.64063 v 9.67187 z m 2.95385,0 3.53125,-5.03125 -3.26562,-4.64062 h 2.04687 l 1.48438,2.26562 q 0.42187,0.64063 0.67187,1.07813 0.40625,-0.59375 0.73438,-1.0625 l 1.64062,-2.28125 h 1.95313 l -3.34375,4.54687 3.59375,5.125 h -2.01563 l -1.98437,-3 -0.51563,-0.8125 -2.54687,3.8125 z"
     fill-rule="nonzero"
     id="path1087" />
  <path
     fill="#000000"
     fill-opacity="0"
     d="m 460.98818,199.47375 163.18112,0.28346"
     fill-rule="evenodd"
     id="path1089" />
  <path
     stroke="#000000"
     stroke-width="3"
     stroke-linejoin="round"
     stroke-linecap="butt"
     d="m 460.98818,199.47375 145.18112,0.2522"
     fill-rule="evenodd"
     id="path1091" />
  <path
     fill="#000000"
     stroke="#000000"
     stroke-width="3"
     stroke-linecap="butt"
     d="m 606.1607,204.68113 13.62286,-4.93153 -13.60565,-4.97884 z"
     fill-rule="evenodd"
     id="path1093" />
  <path
     fill="#000000"
     fill-opacity="0"
     d="m 688.16143,199.76246 h 153.3858"
     fill-rule="evenodd"
     id="path1095" />
  <path
     stroke="#000000"
     stroke-width="3"
     stroke-linejoin="round"
     stroke-linecap="butt"
     d="m 688.16143,199.76246 h 135.3858"
     fill-rule="evenodd"
     id="path1097" />
  <path
     fill="#000000"
     stroke="#000000"
     stroke-width="3"
     stroke-linecap="butt"
     d="m 823.54726,204.71766 13.61432,-4.9552 -13.61432,-4.9552 z"
     fill-rule="evenodd"
     id="path1099" />
  <path
     fill="#efefef"
     d="m 190.56299,110.2769 h 87.99998 v -16 l 32,32 -32,32 v -16 h -87.99998 z"
     fill-rule="evenodd"
     id="path1101" />
  <path
     stroke="#000000"
     stroke-width="1"
     stroke-linejoin="round"
     stroke-linecap="butt"
     d="m 190.56299,110.2769 h 87.99998 v -16 l 32,32 -32,32 v -16 h -87.99998 z"
     fill-rule="evenodd"
     id="path1103" />
  <path
     fill="#000000"
     d="m 199.53174,133.19689 5.125,-13.35938 h 1.90625 l 5.46875,13.35938 h -2.01563 l -1.54687,-4.04688 h -5.59375 l -1.46875,4.04688 z m 3.85937,-5.48438 h 4.53125 l -1.40625,-3.70312 q -0.625,-1.6875 -0.9375,-2.76563 -0.26562,1.28125 -0.71875,2.54688 z m 16.11544,5.48438 v -1.21875 q -0.90625,1.4375 -2.70313,1.4375 -1.15625,0 -2.125,-0.64063 -0.96875,-0.64062 -1.5,-1.78125 -0.53125,-1.14062 -0.53125,-2.625 0,-1.45312 0.48438,-2.625 0.48437,-1.1875 1.4375,-1.8125 0.96875,-0.625 2.17187,-0.625 0.875,0 1.54688,0.375 0.6875,0.35938 1.10937,0.95313 v -4.79688 h 1.64063 v 13.35938 z m -5.17188,-4.82813 q 0,1.85938 0.78125,2.78125 0.78125,0.92188 1.84375,0.92188 1.07813,0 1.82813,-0.875 0.75,-0.89063 0.75,-2.6875 0,-1.98438 -0.76563,-2.90625 -0.76562,-0.9375 -1.89062,-0.9375 -1.07813,0 -1.8125,0.89062 -0.73438,0.89063 -0.73438,2.8125 z m 15.54761,4.82813 v -1.21875 q -0.90625,1.4375 -2.70312,1.4375 -1.15625,0 -2.125,-0.64063 -0.96875,-0.64062 -1.5,-1.78125 -0.53125,-1.14062 -0.53125,-2.625 0,-1.45312 0.48437,-2.625 0.48438,-1.1875 1.4375,-1.8125 0.96875,-0.625 2.17188,-0.625 0.875,0 1.54687,0.375 0.6875,0.35938 1.10938,0.95313 v -4.79688 h 1.64062 v 13.35938 z m -5.17187,-4.82813 q 0,1.85938 0.78125,2.78125 0.78125,0.92188 1.84375,0.92188 1.07812,0 1.82812,-0.875 0.75,-0.89063 0.75,-2.6875 0,-1.98438 -0.76562,-2.90625 -0.76563,-0.9375 -1.89063,-0.9375 -1.07812,0 -1.8125,0.89062 -0.73437,0.89063 -0.73437,2.8125 z m 9.26632,4.82813 v -9.67188 h 1.46875 v 1.46875 q 0.5625,-1.03125 1.03125,-1.35937 0.48438,-0.32813 1.0625,-0.32813 0.82813,0 1.6875,0.53125 l -0.5625,1.51563 q -0.60937,-0.35938 -1.20312,-0.35938 -0.54688,0 -0.96875,0.32813 -0.42188,0.32812 -0.60938,0.89062 -0.28125,0.875 -0.28125,1.92188 v 5.0625 z m 12.8533,-3.10938 1.6875,0.20313 q -0.40625,1.48437 -1.48437,2.3125 -1.07813,0.8125 -2.76563,0.8125 -2.125,0 -3.375,-1.29688 -1.23437,-1.3125 -1.23437,-3.67187 0,-2.45313 1.25,-3.79688 1.26562,-1.34375 3.26562,-1.34375 1.9375,0 3.15625,1.32813 1.23438,1.3125 1.23438,3.70312 0,0.15625 0,0.4375 h -7.21875 q 0.0937,1.59375 0.90625,2.45313 0.8125,0.84375 2.01562,0.84375 0.90625,0 1.54688,-0.46875 0.64062,-0.48438 1.01562,-1.51563 z m -5.39062,-2.65625 h 5.40625 q -0.10938,-1.21875 -0.625,-1.82812 -0.78125,-0.95313 -2.03125,-0.95313 -1.125,0 -1.90625,0.76563 -0.76563,0.75 -0.84375,2.01562 z m 8.48511,2.875 1.625,-0.25 q 0.125,0.96875 0.75,1.5 0.625,0.51563 1.75,0.51563 1.125,0 1.67187,-0.45313 0.54688,-0.46875 0.54688,-1.09375 0,-0.54687 -0.48438,-0.875 -0.32812,-0.21875 -1.67187,-0.54687 -1.8125,-0.46875 -2.51563,-0.79688 -0.6875,-0.32812 -1.04687,-0.90625 -0.35938,-0.59375 -0.35938,-1.3125 0,-0.64062 0.29688,-1.1875 0.29687,-0.5625 0.8125,-0.92187 0.375,-0.28125 1.03125,-0.46875 0.67187,-0.20313 1.42187,-0.20313 1.14063,0 2,0.32813 0.85938,0.32812 1.26563,0.89062 0.42187,0.5625 0.57812,1.5 l -1.60937,0.21875 q -0.10938,-0.75 -0.64063,-1.17187 -0.51562,-0.42188 -1.46875,-0.42188 -1.14062,0 -1.625,0.375 -0.46875,0.375 -0.46875,0.875 0,0.3125 0.1875,0.57813 0.20313,0.26562 0.64063,0.4375 0.23437,0.0937 1.4375,0.42187 1.75,0.45313 2.4375,0.75 0.6875,0.29688 1.07812,0.85938 0.39063,0.5625 0.39063,1.40625 0,0.82812 -0.48438,1.54687 -0.46875,0.71875 -1.375,1.125 -0.90625,0.39063 -2.04687,0.39063 -1.875,0 -2.875,-0.78125 -0.98438,-0.78125 -1.25,-2.32813 z m 9.32812,0 1.625,-0.25 q 0.125,0.96875 0.75,1.5 0.625,0.51563 1.75,0.51563 1.125,0 1.67188,-0.45313 0.54687,-0.46875 0.54687,-1.09375 0,-0.54687 -0.48437,-0.875 -0.32813,-0.21875 -1.67188,-0.54687 -1.8125,-0.46875 -2.51562,-0.79688 -0.6875,-0.32812 -1.04688,-0.90625 -0.35937,-0.59375 -0.35937,-1.3125 0,-0.64062 0.29687,-1.1875 0.29688,-0.5625 0.8125,-0.92187 0.375,-0.28125 1.03125,-0.46875 0.67188,-0.20313 1.42188,-0.20313 1.14062,0 2,0.32813 0.85937,0.32812 1.26562,0.89062 0.42188,0.5625 0.57813,1.5 l -1.60938,0.21875 q -0.10937,-0.75 -0.64062,-1.17187 -0.51563,-0.42188 -1.46875,-0.42188 -1.14063,0 -1.625,0.375 -0.46875,0.375 -0.46875,0.875 0,0.3125 0.1875,0.57813 0.20312,0.26562 0.64062,0.4375 0.23438,0.0937 1.4375,0.42187 1.75,0.45313 2.4375,0.75 0.6875,0.29688 1.07813,0.85938 0.39062,0.5625 0.39062,1.40625 0,0.82812 -0.48437,1.54687 -0.46875,0.71875 -1.375,1.125 -0.90625,0.39063 -2.04688,0.39063 -1.875,0 -2.875,-0.78125 -0.98437,-0.78125 -1.25,-2.32813 z"
     fill-rule="nonzero"
     id="path1105" />
  <path
     fill="#efefef"
     d="M 138.87533,251.28084 H 294.27691 V 299.5013 H 138.87533 Z"
     fill-rule="evenodd"
     id="path1107" />
  <path
     stroke="#000000"
     stroke-width="1"
     stroke-linejoin="round"
     stroke-linecap="butt"
     d="M 138.87533,251.28084 H 294.27691 V 299.5013 H 138.87533 Z"
     fill-rule="evenodd"
     id="path1109" />
  <path
     fill="#000000"
     d="m 160.3474,274.65397 1.60937,0.21875 q -0.26562,1.65625 -1.35937,2.60937 -1.07813,0.9375 -2.67188,0.9375 -1.98437,0 -3.1875,-1.29687 -1.20312,-1.29688 -1.20312,-3.71875 0,-1.57813 0.51562,-2.75 0.51563,-1.17188 1.57813,-1.75 1.0625,-0.59375 2.3125,-0.59375 1.57812,0 2.57812,0.79687 1,0.79688 1.28125,2.26563 l -1.59375,0.23437 q -0.23437,-0.96875 -0.8125,-1.45312 -0.57812,-0.5 -1.39062,-0.5 -1.23438,0 -2.01563,0.89062 -0.78125,0.89063 -0.78125,2.8125 0,1.95313 0.75,2.84375 0.75,0.875 1.95313,0.875 0.96875,0 1.60937,-0.59375 0.65625,-0.59375 0.82813,-1.82812 z m 2.96875,3.54687 v -13.35937 h 1.64062 v 13.35937 z m 3.58232,-4.84375 q 0,-2.6875 1.48438,-3.96875 1.25,-1.07812 3.04687,-1.07812 2,0 3.26563,1.3125 1.26562,1.29687 1.26562,3.60937 0,1.85938 -0.5625,2.9375 -0.5625,1.0625 -1.64062,1.65625 -1.0625,0.59375 -2.32813,0.59375 -2.03125,0 -3.28125,-1.29687 -1.25,-1.3125 -1.25,-3.76563 z m 1.6875,0 q 0,1.85938 0.79688,2.79688 0.8125,0.92187 2.04687,0.92187 1.21875,0 2.03125,-0.92187 0.8125,-0.9375 0.8125,-2.84375 0,-1.79688 -0.8125,-2.71875 -0.8125,-0.92188 -2.03125,-0.92188 -1.23437,0 -2.04687,0.92188 -0.79688,0.90625 -0.79688,2.76562 z m 15.61009,1.29688 1.60938,0.21875 q -0.26563,1.65625 -1.35938,2.60937 -1.07812,0.9375 -2.67187,0.9375 -1.98438,0 -3.1875,-1.29687 -1.20313,-1.29688 -1.20313,-3.71875 0,-1.57813 0.51563,-2.75 0.51562,-1.17188 1.57812,-1.75 1.0625,-0.59375 2.3125,-0.59375 1.57813,0 2.57813,0.79687 1,0.79688 1.28125,2.26563 l -1.59375,0.23437 q -0.23438,-0.96875 -0.8125,-1.45312 -0.57813,-0.5 -1.39063,-0.5 -1.23437,0 -2.01562,0.89062 -0.78125,0.89063 -0.78125,2.8125 0,1.95313 0.75,2.84375 0.75,0.875 1.95312,0.875 0.96875,0 1.60938,-0.59375 0.65625,-0.59375 0.82812,-1.82812 z m 3.01563,3.54687 v -13.35937 h 1.64062 v 7.625 l 3.89063,-3.9375 h 2.10937 l -3.6875,3.59375 4.0625,6.07812 h -2.01562 l -3.20313,-4.95312 -1.15625,1.125 v 3.82812 z m 14.19893,0.79688 1.59375,0.23437 q 0.10937,0.75 0.5625,1.07813 0.60937,0.45312 1.67187,0.45312 1.14063,0 1.75,-0.45312 0.625,-0.45313 0.84375,-1.26563 0.125,-0.5 0.10938,-2.10937 -1.0625,1.26562 -2.67188,1.26562 -2,0 -3.09375,-1.4375 -1.09375,-1.4375 -1.09375,-3.45312 0,-1.39063 0.5,-2.5625 0.51563,-1.17188 1.45313,-1.79688 0.95312,-0.64062 2.25,-0.64062 1.70312,0 2.8125,1.375 v -1.15625 h 1.51562 v 8.35937 q 0,2.26563 -0.46875,3.20313 -0.45312,0.9375 -1.45312,1.48437 -0.98438,0.54688 -2.45313,0.54688 -1.71875,0 -2.79687,-0.78125 -1.0625,-0.76563 -1.03125,-2.34375 z m 1.35937,-5.8125 q 0,1.90625 0.75,2.78125 0.76563,0.875 1.90625,0.875 1.125,0 1.89063,-0.85938 0.76562,-0.875 0.76562,-2.73437 0,-1.78125 -0.79687,-2.67188 -0.78125,-0.90625 -1.89063,-0.90625 -1.09375,0 -1.85937,0.89063 -0.76563,0.875 -0.76563,2.625 z m 15.95384,1.90625 1.6875,0.20312 q -0.40625,1.48438 -1.48437,2.3125 -1.07813,0.8125 -2.76563,0.8125 -2.125,0 -3.375,-1.29687 -1.23437,-1.3125 -1.23437,-3.67188 0,-2.45312 1.25,-3.79687 1.26562,-1.34375 3.26562,-1.34375 1.9375,0 3.15625,1.32812 1.23438,1.3125 1.23438,3.70313 0,0.15625 0,0.4375 h -7.21875 q 0.0937,1.59375 0.90625,2.45312 0.8125,0.84375 2.01562,0.84375 0.90625,0 1.54688,-0.46875 0.64062,-0.48437 1.01562,-1.51562 z m -5.39062,-2.65625 h 5.40625 q -0.10938,-1.21875 -0.625,-1.82813 -0.78125,-0.95312 -2.03125,-0.95312 -1.125,0 -1.90625,0.76562 -0.76563,0.75 -0.84375,2.01563 z m 9.14133,5.76562 v -9.67187 h 1.46875 v 1.375 q 1.0625,-1.59375 3.07812,-1.59375 0.875,0 1.60938,0.3125 0.73437,0.3125 1.09375,0.82812 0.375,0.5 0.51562,1.20313 0.0937,0.45312 0.0937,1.59375 v 5.95312 h -1.64062 v -5.89062 q 0,-1 -0.20313,-1.48438 -0.1875,-0.5 -0.67187,-0.79687 -0.48438,-0.29688 -1.14063,-0.29688 -1.04687,0 -1.8125,0.67188 -0.75,0.65625 -0.75,2.51562 v 5.28125 z m 17.00073,-3.10937 1.6875,0.20312 q -0.40625,1.48438 -1.48438,2.3125 -1.07812,0.8125 -2.76562,0.8125 -2.125,0 -3.375,-1.29687 -1.23438,-1.3125 -1.23438,-3.67188 0,-2.45312 1.25,-3.79687 1.26563,-1.34375 3.26563,-1.34375 1.9375,0 3.15625,1.32812 1.23437,1.3125 1.23437,3.70313 0,0.15625 0,0.4375 h -7.21875 q 0.0937,1.59375 0.90625,2.45312 0.8125,0.84375 2.01563,0.84375 0.90625,0 1.54687,-0.46875 0.64063,-0.48437 1.01563,-1.51562 z m -5.39063,-2.65625 h 5.40625 q -0.10937,-1.21875 -0.625,-1.82813 -0.78125,-0.95312 -2.03125,-0.95312 -1.125,0 -1.90625,0.76562 -0.76562,0.75 -0.84375,2.01563 z m 9.12571,5.76562 v -9.67187 h 1.46875 v 1.46875 q 0.5625,-1.03125 1.03125,-1.35938 0.48437,-0.32812 1.0625,-0.32812 0.82812,0 1.6875,0.53125 l -0.5625,1.51562 q -0.60938,-0.35937 -1.20313,-0.35937 -0.54687,0 -0.96875,0.32812 -0.42187,0.32813 -0.60937,0.89063 -0.28125,0.875 -0.28125,1.92187 v 5.0625 z m 12.5408,-1.1875 q -0.92188,0.76563 -1.76563,1.09375 -0.82812,0.3125 -1.79687,0.3125 -1.59375,0 -2.45313,-0.78125 -0.85937,-0.78125 -0.85937,-1.98437 0,-0.71875 0.32812,-1.29688 0.32813,-0.59375 0.84375,-0.9375 0.53125,-0.35937 1.1875,-0.54687 0.46875,-0.125 1.45313,-0.25 1.98437,-0.23438 2.92187,-0.5625 0.0156,-0.34375 0.0156,-0.42188 0,-1 -0.46875,-1.42187 -0.625,-0.54688 -1.875,-0.54688 -1.15625,0 -1.70313,0.40625 -0.54687,0.40625 -0.8125,1.42188 l -1.60937,-0.21875 q 0.21875,-1.01563 0.71875,-1.64063 0.5,-0.64062 1.45312,-0.98437 0.95313,-0.34375 2.1875,-0.34375 1.25,0 2.01563,0.29687 0.78125,0.28125 1.14062,0.73438 0.375,0.4375 0.51563,1.10937 0.0781,0.42188 0.0781,1.51563 v 2.1875 q 0,2.28125 0.10938,2.89062 0.10937,0.59375 0.40625,1.15625 h -1.70313 q -0.26562,-0.51562 -0.32812,-1.1875 z m -0.14063,-3.67187 q -0.89062,0.375 -2.67187,0.625 -1.01563,0.14062 -1.4375,0.32812 -0.42188,0.1875 -0.65625,0.53125 -0.21875,0.34375 -0.21875,0.78125 0,0.65625 0.5,1.09375 0.5,0.4375 1.45312,0.4375 0.9375,0 1.67188,-0.40625 0.75,-0.42187 1.09375,-1.14062 0.26562,-0.5625 0.26562,-1.64063 z m 7.78198,3.39062 0.23438,1.45313 q -0.6875,0.14062 -1.23438,0.14062 -0.89062,0 -1.39062,-0.28125 -0.48438,-0.28125 -0.6875,-0.73437 -0.20313,-0.46875 -0.20313,-1.9375 v -5.57813 h -1.20312 v -1.26562 h 1.20312 v -2.39063 l 1.625,-0.98437 v 3.375 h 1.65625 v 1.26562 h -1.65625 v 5.67188 q 0,0.6875 0.0781,0.89062 0.0937,0.20313 0.28125,0.32813 0.20312,0.10937 0.57812,0.10937 0.26563,0 0.71875,-0.0625 z m 0.99579,-3.375 q 0,-2.6875 1.48438,-3.96875 1.25,-1.07812 3.04687,-1.07812 2,0 3.26563,1.3125 1.26562,1.29687 1.26562,3.60937 0,1.85938 -0.5625,2.9375 -0.5625,1.0625 -1.64062,1.65625 -1.0625,0.59375 -2.32813,0.59375 -2.03125,0 -3.28125,-1.29687 -1.25,-1.3125 -1.25,-3.76563 z m 1.6875,0 q 0,1.85938 0.79688,2.79688 0.8125,0.92187 2.04687,0.92187 1.21875,0 2.03125,-0.92187 0.8125,-0.9375 0.8125,-2.84375 0,-1.79688 -0.8125,-2.71875 -0.8125,-0.92188 -2.03125,-0.92188 -1.23437,0 -2.04687,0.92188 -0.79688,0.90625 -0.79688,2.76562 z m 9.28199,4.84375 v -9.67187 h 1.46875 v 1.46875 q 0.5625,-1.03125 1.03125,-1.35938 0.48437,-0.32812 1.0625,-0.32812 0.82812,0 1.6875,0.53125 l -0.5625,1.51562 q -0.60938,-0.35937 -1.20313,-0.35937 -0.54687,0 -0.96875,0.32812 -0.42187,0.32813 -0.60937,0.89063 -0.28125,0.875 -0.28125,1.92187 v 5.0625 z"
     fill-rule="nonzero"
     id="path1111" />
  <path
     fill="#efefef"
     d="m 0.5,183.76246 h 87.99999 v -16 l 32,32 -32,32 v -16 H 0.5 Z"
     fill-rule="evenodd"
     id="path1113" />
  <path
     stroke="#000000"
     stroke-width="1"
     stroke-linejoin="round"
     stroke-linecap="butt"
     d="m 0.5,183.76246 h 87.99999 v -16 l 32,32 -32,32 v -16 H 0.5 Z"
     fill-rule="evenodd"
     id="path1115" />
  <path
     fill="#000000"
     d="m 10.765624,210.38559 v -17.0625 h 3.609375 v 1.35937 h -1.96875 v 14.34375 h 1.96875 v 1.35938 z m 4.808304,-15.3125 v -1.57813 h 8.640625 v 1.28125 q -1.28125,1.35938 -2.53125,3.60938 -1.25,2.25 -1.9375,4.625 -0.484375,1.67187 -0.625,3.67187 h -1.6875 q 0.03125,-1.57812 0.625,-3.8125 0.59375,-2.23437 1.6875,-4.29687 1.109375,-2.07813 2.359375,-3.5 z m 11.172592,3.79687 v -1.85937 h 1.859375 v 1.85937 z m 0,7.8125 v -1.875 h 1.859375 v 1.875 z m 4.277054,-6.59375 q 0,-2.35937 0.484375,-3.79687 0.484375,-1.45313 1.4375,-2.23438 0.96875,-0.78125 2.421875,-0.78125 1.078125,0 1.890625,0.4375 0.8125,0.42188 1.328125,1.25 0.53125,0.8125 0.828125,1.98438 0.3125,1.15625 0.3125,3.14062 0,2.35938 -0.484375,3.8125 -0.484375,1.4375 -1.453125,2.23438 -0.953125,0.78125 -2.421875,0.78125 -1.921875,0 -3.03125,-1.39063 -1.3125,-1.67187 -1.3125,-5.4375 z m 1.671875,0 q 0,3.29688 0.765625,4.39063 0.78125,1.07812 1.90625,1.07812 1.140625,0 1.90625,-1.09375 0.765625,-1.09375 0.765625,-4.375 0,-3.29687 -0.765625,-4.375 -0.765625,-1.07812 -1.921875,-1.07812 -1.125,0 -1.796875,0.95312 -0.859375,1.21875 -0.859375,4.5 z m 11.891342,10.29688 h -3.609375 v -1.35938 h 1.96875 v -14.34375 h -1.96875 v -1.35937 h 3.609375 z m 7.632233,-15.17188 v -1.89062 h 1.640625 v 1.89062 z m 0,11.46875 v -9.67187 h 1.640625 v 9.67187 z m 3.535446,-4.84375 q 0,-2.6875 1.48437,-3.96875 1.25,-1.07812 3.04688,-1.07812 2,0 3.26562,1.3125 1.26563,1.29687 1.26563,3.60937 0,1.85938 -0.5625,2.9375 -0.5625,1.0625 -1.64063,1.65625 -1.0625,0.59375 -2.32812,0.59375 -2.03125,0 -3.28125,-1.29687 -1.25,-1.3125 -1.25,-3.76563 z m 1.6875,0 q 0,1.85938 0.79687,2.79688 0.8125,0.92187 2.04688,0.92187 1.21875,0 2.03125,-0.92187 0.8125,-0.9375 0.8125,-2.84375 0,-1.79688 -0.8125,-2.71875 -0.8125,-0.92188 -2.03125,-0.92188 -1.23438,0 -2.04688,0.92188 -0.79687,0.90625 -0.79687,2.76562 z m 7.78197,8.54688 v -1.1875 h 10.85937 v 1.1875 z m 11.89134,-15.17188 v -1.89062 h 1.64062 v 1.89062 z m 0,11.46875 v -9.67187 h 1.64062 v 9.67187 z m 4.14482,0 v -9.67187 h 1.46875 v 1.375 q 1.0625,-1.59375 3.07812,-1.59375 0.875,0 1.60937,0.3125 0.73438,0.3125 1.09375,0.82812 0.375,0.5 0.51563,1.20313 0.0937,0.45312 0.0937,1.59375 v 5.95312 h -1.64063 v -5.89062 q 0,-1 -0.20312,-1.48438 -0.1875,-0.5 -0.67188,-0.79687 -0.48437,-0.29688 -1.14062,-0.29688 -1.04688,0 -1.8125,0.67188 -0.75,0.65625 -0.75,2.51562 v 5.28125 z"
     fill-rule="nonzero"
     id="path1117" />
  <path
     fill="#efefef"
     d="m 841.54726,183.76246 h 111.90552 v -16 l 31.99998,32 -31.99998,32 v -16 H 841.54726 Z"
     fill-rule="evenodd"
     id="path1119" />
  <path
     stroke="#000000"
     stroke-width="1"
     stroke-linejoin="round"
     stroke-linecap="butt"
     d="m 841.54726,183.76246 h 111.90552 v -16 l 31.99998,32 -31.99998,32 v -16 H 841.54726 Z"
     fill-rule="evenodd"
     id="path1121" />
  <path
     fill="#000000"
     d="m 851.81286,210.38559 v -17.0625 h 3.60937 v 1.35937 h -1.96875 v 14.34375 h 1.96875 v 1.35938 z m 4.80829,-15.3125 v -1.57813 h 8.64062 v 1.28125 q -1.28125,1.35938 -2.53125,3.60938 -1.25,2.25 -1.9375,4.625 -0.48437,1.67187 -0.625,3.67187 h -1.6875 q 0.0312,-1.57812 0.625,-3.8125 0.59375,-2.23437 1.6875,-4.29687 1.10938,-2.07813 2.35938,-3.5 z m 11.17261,3.79687 v -1.85937 h 1.85937 v 1.85937 z m 0,7.8125 v -1.875 h 1.85937 v 1.875 z m 4.27703,-6.59375 q 0,-2.35937 0.48438,-3.79687 0.48437,-1.45313 1.4375,-2.23438 0.96875,-0.78125 2.42187,-0.78125 1.07813,0 1.89063,0.4375 0.8125,0.42188 1.32812,1.25 0.53125,0.8125 0.82813,1.98438 0.3125,1.15625 0.3125,3.14062 0,2.35938 -0.48438,3.8125 -0.48437,1.4375 -1.45312,2.23438 -0.95313,0.78125 -2.42188,0.78125 -1.92187,0 -3.03125,-1.39063 -1.3125,-1.67187 -1.3125,-5.4375 z m 1.67188,0 q 0,3.29688 0.76562,4.39063 0.78125,1.07812 1.90625,1.07812 1.14063,0 1.90625,-1.09375 0.76563,-1.09375 0.76563,-4.375 0,-3.29687 -0.76563,-4.375 -0.76562,-1.07812 -1.92187,-1.07812 -1.125,0 -1.79688,0.95312 -0.85937,1.21875 -0.85937,4.5 z m 11.89136,10.29688 h -3.60938 v -1.35938 h 1.96875 v -14.34375 h -1.96875 v -1.35937 h 3.60938 z m 7.63226,-15.17188 v -1.89062 h 1.64062 v 1.89062 z m 0,11.46875 v -9.67187 h 1.64062 v 9.67187 z m 3.5354,-4.84375 q 0,-2.6875 1.48437,-3.96875 1.25,-1.07812 3.04688,-1.07812 2,0 3.26562,1.3125 1.26563,1.29687 1.26563,3.60937 0,1.85938 -0.5625,2.9375 -0.5625,1.0625 -1.64063,1.65625 -1.0625,0.59375 -2.32812,0.59375 -2.03125,0 -3.28125,-1.29687 -1.25,-1.3125 -1.25,-3.76563 z m 1.6875,0 q 0,1.85938 0.79687,2.79688 0.8125,0.92187 2.04688,0.92187 1.21875,0 2.03125,-0.92187 0.8125,-0.9375 0.8125,-2.84375 0,-1.79688 -0.8125,-2.71875 -0.8125,-0.92188 -2.03125,-0.92188 -1.23438,0 -2.04688,0.92188 -0.79687,0.90625 -0.79687,2.76562 z m 7.78198,8.54688 v -1.1875 h 10.85938 v 1.1875 z m 11.28198,-8.54688 q 0,-2.6875 1.48438,-3.96875 1.25,-1.07812 3.04687,-1.07812 2,0 3.26563,1.3125 1.26562,1.29687 1.26562,3.60937 0,1.85938 -0.5625,2.9375 -0.5625,1.0625 -1.64062,1.65625 -1.0625,0.59375 -2.32813,0.59375 -2.03125,0 -3.28125,-1.29687 -1.25,-1.3125 -1.25,-3.76563 z m 1.6875,0 q 0,1.85938 0.79688,2.79688 0.8125,0.92187 2.04687,0.92187 1.21875,0 2.03125,-0.92187 0.8125,-0.9375 0.8125,-2.84375 0,-1.79688 -0.8125,-2.71875 -0.8125,-0.92188 -2.03125,-0.92188 -1.23437,0 -2.04687,0.92188 -0.79688,0.90625 -0.79688,2.76562 z m 15.62574,4.84375 v -1.42187 q -1.125,1.64062 -3.0625,1.64062 -0.85938,0 -1.60938,-0.32812 -0.73437,-0.32813 -1.09375,-0.82813 -0.35937,-0.5 -0.5,-1.21875 -0.10937,-0.46875 -0.10937,-1.53125 v -5.98437 h 1.64062 v 5.35937 q 0,1.28125 0.10938,1.73438 0.15625,0.64062 0.65625,1.01562 0.5,0.375 1.23437,0.375 0.73438,0 1.375,-0.375 0.65625,-0.39062 0.92188,-1.03125 0.26562,-0.65625 0.26562,-1.89062 v -5.1875 h 1.64063 v 9.67187 z m 7.62567,-1.46875 0.23437,1.45313 q -0.6875,0.14062 -1.23437,0.14062 -0.89063,0 -1.39063,-0.28125 -0.48437,-0.28125 -0.6875,-0.73437 -0.20312,-0.46875 -0.20312,-1.9375 v -5.57813 h -1.20313 v -1.26562 h 1.20313 v -2.39063 l 1.625,-0.98437 v 3.375 h 1.65625 v 1.26562 h -1.65625 v 5.67188 q 0,0.6875 0.0781,0.89062 0.0937,0.20313 0.28125,0.32813 0.20313,0.10937 0.57813,0.10937 0.26562,0 0.71875,-0.0625 z"
     fill-rule="nonzero"
     id="path1123" />
  <path
     fill="#000000"
     fill-opacity="0"
     d="m 216.5761,201.07611 v 50.20473"
     fill-rule="evenodd"
     id="path1125" />
  <path
     stroke="#000000"
     stroke-width="3"
     stroke-linejoin="round"
     stroke-linecap="butt"
     d="m 216.5761,201.07611 v 32.20473"
     fill-rule="evenodd"
     id="path1127" />
  <path
     fill="#000000"
     stroke="#000000"
     stroke-width="3"
     stroke-linecap="butt"
     d="m 211.62092,233.28084 4.95518,13.61429 4.9552,-13.61429 z"
     fill-rule="evenodd"
     id="path1129" />
</svg>
