<?xml version="1.0" encoding="UTF-8" standalone="no"?>
<svg
   version="1.1"
   viewBox="0 0 474.83072 385"
   fill="none"
   stroke="none"
   stroke-linecap="square"
   stroke-miterlimit="10"
   id="svg357"
   sodipodi:docname="tt03_top_level.svg"
   width="474.83072"
   height="385"
   inkscape:version="1.2 (dc2aedaf03, 2022-05-15)"
   xmlns:inkscape="http://www.inkscape.org/namespaces/inkscape"
   xmlns:sodipodi="http://sodipodi.sourceforge.net/DTD/sodipodi-0.dtd"
   xmlns="http://www.w3.org/2000/svg"
   xmlns:svg="http://www.w3.org/2000/svg">
  <defs
     id="defs361" />
  <sodipodi:namedview
     id="namedview359"
     pagecolor="#ffffff"
     bordercolor="#000000"
     borderopacity="0.25"
     inkscape:showpageshadow="2"
     inkscape:pageopacity="0.0"
     inkscape:pagecheckerboard="0"
     inkscape:deskcolor="#d1d1d1"
     showgrid="false"
     inkscape:zoom="0.95426679"
     inkscape:cx="735.64333"
     inkscape:cy="402.40319"
     inkscape:window-width="2560"
     inkscape:window-height="1369"
     inkscape:window-x="-8"
     inkscape:window-y="-8"
     inkscape:window-maximized="1"
     inkscape:current-layer="svg357" />
  <path
     fill="#cfe2f3"
     d="m 72.5,144.5 h 192 v 96 h -192 z"
     fill-rule="evenodd"
     id="path293" />
  <path
     stroke="#000000"
     stroke-width="1"
     stroke-linejoin="round"
     stroke-linecap="butt"
     d="m 72.5,144.5 h 192 v 96 h -192 z"
     fill-rule="evenodd"
     id="path295" />
  <path
     fill="#000000"
     d="m 115.09384,177.42 v -11.78125 h -4.40625 v -1.57813 h 10.57812 v 1.57813 h -4.40625 V 177.42 Z m 7.0939,-11.46875 v -1.89063 h 1.64063 v 1.89063 z m 0,11.46875 v -9.67188 h 1.64063 V 177.42 Z m 4.14482,0 v -9.67188 h 1.46875 v 1.375 q 1.0625,-1.59375 3.07813,-1.59375 0.875,0 1.60937,0.3125 0.73438,0.3125 1.09375,0.82813 0.375,0.5 0.51563,1.20312 0.0937,0.45313 0.0937,1.59375 V 177.42 h -1.64063 v -5.89063 q 0,-1 -0.20312,-1.48437 -0.1875,-0.5 -0.67188,-0.79688 -0.48437,-0.29687 -1.14062,-0.29687 -1.04688,0 -1.8125,0.67187 -0.75,0.65625 -0.75,2.51563 V 177.42 Z m 10.2976,3.71875 -0.1875,-1.53125 q 0.54687,0.14062 0.9375,0.14062 0.54687,0 0.875,-0.1875 0.32812,-0.17187 0.54687,-0.5 0.15625,-0.25 0.5,-1.21875 0.0469,-0.14062 0.14063,-0.40625 l -3.67188,-9.6875 h 1.76563 l 2.01562,5.59375 q 0.39063,1.07813 0.70313,2.25 0.28125,-1.125 0.67187,-2.20312 l 2.07813,-5.64063 h 1.64062 l -3.6875,9.82813 q -0.59375,1.60937 -0.92187,2.20312 -0.4375,0.8125 -1,1.1875 -0.5625,0.375 -1.34375,0.375 -0.48438,0 -1.0625,-0.20312 z M 149.64578,177.42 v -11.78125 h -4.40625 v -1.57813 h 10.57813 v 1.57813 h -4.40625 V 177.42 Z m 12.03009,-1.1875 q -0.92187,0.76562 -1.76562,1.09375 -0.82813,0.3125 -1.79688,0.3125 -1.59375,0 -2.45312,-0.78125 -0.85938,-0.78125 -0.85938,-1.98438 0,-0.71875 0.32813,-1.29687 0.32812,-0.59375 0.84375,-0.9375 0.53125,-0.35938 1.1875,-0.54688 0.46875,-0.125 1.45312,-0.25 1.98438,-0.23437 2.92188,-0.5625 0.0156,-0.34375 0.0156,-0.42187 0,-1 -0.46875,-1.42188 -0.625,-0.54687 -1.875,-0.54687 -1.15625,0 -1.70312,0.40625 -0.54688,0.40625 -0.8125,1.42187 l -1.60938,-0.21875 q 0.21875,-1.01562 0.71875,-1.64062 0.5,-0.64063 1.45313,-0.98438 0.95312,-0.34375 2.1875,-0.34375 1.25,0 2.01562,0.29688 0.78125,0.28125 1.14063,0.73437 0.375,0.4375 0.51562,1.10938 0.0781,0.42187 0.0781,1.51562 v 2.1875 q 0,2.28125 0.10937,2.89063 0.10938,0.59375 0.40625,1.15625 H 162.004 q -0.26563,-0.51563 -0.32813,-1.1875 z m -0.14062,-3.67188 q -0.89063,0.375 -2.67188,0.625 -1.01562,0.14063 -1.4375,0.32813 -0.42187,0.1875 -0.65625,0.53125 -0.21875,0.34375 -0.21875,0.78125 0,0.65625 0.5,1.09375 0.5,0.4375 1.45313,0.4375 0.9375,0 1.67187,-0.40625 0.75,-0.42188 1.09375,-1.14063 0.26563,-0.5625 0.26563,-1.64062 z m 4.20384,8.5625 v -13.375 h 1.48437 v 1.25 q 0.53125,-0.73437 1.1875,-1.09375 0.67188,-0.375 1.625,-0.375 1.23438,0 2.17188,0.64063 0.95312,0.625 1.4375,1.79687 0.48437,1.15625 0.48437,2.54688 0,1.48437 -0.53125,2.67187 -0.53125,1.1875 -1.54687,1.82813 -1.01563,0.625 -2.14063,0.625 -0.8125,0 -1.46875,-0.34375 -0.65625,-0.34375 -1.0625,-0.875 v 4.70312 z m 1.48437,-8.48437 q 0,1.85937 0.75,2.76562 0.76563,0.89063 1.82813,0.89063 1.09375,0 1.875,-0.92188 0.78125,-0.9375 0.78125,-2.875 0,-1.84375 -0.76563,-2.76562 -0.75,-0.92188 -1.8125,-0.92188 -1.04687,0 -1.85937,0.98438 -0.79688,0.96875 -0.79688,2.84375 z m 15.51634,1.67187 1.6875,0.20313 q -0.40625,1.48437 -1.48437,2.3125 -1.07813,0.8125 -2.76563,0.8125 -2.125,0 -3.375,-1.29688 -1.23437,-1.3125 -1.23437,-3.67187 0,-2.45313 1.25,-3.79688 1.26562,-1.34375 3.26562,-1.34375 1.9375,0 3.15625,1.32813 1.23438,1.3125 1.23438,3.70312 0,0.15625 0,0.4375 h -7.21875 q 0.0937,1.59375 0.90625,2.45313 0.8125,0.84375 2.01562,0.84375 0.90625,0 1.54688,-0.46875 0.64062,-0.48438 1.01562,-1.51563 z m -5.39062,-2.65625 h 5.40625 q -0.10938,-1.21875 -0.625,-1.82812 -0.78125,-0.95313 -2.03125,-0.95313 -1.125,0 -1.90625,0.76563 -0.76563,0.75 -0.84375,2.01562 z m 8.53197,0.92188 q 0,-2.6875 1.48437,-3.96875 1.25,-1.07813 3.04688,-1.07813 2,0 3.26562,1.3125 1.26563,1.29688 1.26563,3.60938 0,1.85937 -0.5625,2.9375 -0.5625,1.0625 -1.64063,1.65625 -1.0625,0.59375 -2.32812,0.59375 -2.03125,0 -3.28125,-1.29688 -1.25,-1.3125 -1.25,-3.76562 z m 1.6875,0 q 0,1.85937 0.79687,2.79687 0.8125,0.92188 2.04688,0.92188 1.21875,0 2.03125,-0.92188 0.8125,-0.9375 0.8125,-2.84375 0,-1.79687 -0.8125,-2.71875 -0.8125,-0.92187 -2.03125,-0.92187 -1.23438,0 -2.04688,0.92187 -0.79687,0.90625 -0.79687,2.76563 z m 15.62571,4.84375 v -1.42188 q -1.125,1.64063 -3.0625,1.64063 -0.85937,0 -1.60937,-0.32813 -0.73438,-0.32812 -1.09375,-0.82812 -0.35938,-0.5 -0.5,-1.21875 -0.10938,-0.46875 -0.10938,-1.53125 v -5.98438 h 1.64063 v 5.35938 q 0,1.28125 0.10937,1.73437 0.15625,0.64063 0.65625,1.01563 0.5,0.375 1.23438,0.375 0.73437,0 1.375,-0.375 0.65625,-0.39063 0.92187,-1.03125 0.26563,-0.65625 0.26563,-1.89063 v -5.1875 h 1.64062 V 177.42 Z m 7.62572,-1.46875 0.23438,1.45312 q -0.6875,0.14063 -1.23438,0.14063 -0.89062,0 -1.39062,-0.28125 -0.48438,-0.28125 -0.6875,-0.73438 -0.20313,-0.46875 -0.20313,-1.9375 v -5.57812 h -1.20312 v -1.26563 h 1.20312 v -2.39062 l 1.625,-0.98438 v 3.375 h 1.65625 v 1.26563 h -1.65625 v 5.67187 q 0,0.6875 0.0781,0.89063 0.0937,0.20312 0.28125,0.32812 0.20312,0.10938 0.57812,0.10938 0.26563,0 0.71875,-0.0625 z m 6.33536,-2.0625 1.64062,-0.21875 q 0.28125,1.40625 0.95313,2.01562 0.6875,0.60938 1.65625,0.60938 1.15625,0 1.95312,-0.79688 0.79688,-0.79687 0.79688,-1.98437 0,-1.125 -0.73438,-1.85938 -0.73437,-0.73437 -1.875,-0.73437 -0.46875,0 -1.15625,0.17187 l 0.1875,-1.4375 q 0.15625,0.0156 0.26563,0.0156 1.04687,0 1.875,-0.54688 0.84375,-0.54687 0.84375,-1.67187 0,-0.90625 -0.60938,-1.5 -0.60937,-0.59375 -1.57812,-0.59375 -0.95313,0 -1.59375,0.60937 -0.64063,0.59375 -0.8125,1.79688 l -1.64063,-0.29688 q 0.29688,-1.64062 1.35938,-2.54687 1.0625,-0.90625 2.65625,-0.90625 1.09375,0 2,0.46875 0.92187,0.46875 1.40625,1.28125 0.5,0.8125 0.5,1.71875 0,0.85937 -0.46875,1.57812 -0.46875,0.70313 -1.375,1.125 1.1875,0.28125 1.84375,1.14063 0.65625,0.85937 0.65625,2.15625 0,1.73437 -1.28125,2.95312 -1.26563,1.21875 -3.21875,1.21875 -1.76563,0 -2.92188,-1.04687 -1.15625,-1.04688 -1.32812,-2.71875 z"
     fill-rule="nonzero"
     id="path297" />
  <path
     fill="#000000"
     d="m 96.28133,199.42 v -13.35938 h 2.65625 l 3.15625,9.45313 q 0.4375,1.32812 0.64063,1.98437 0.23437,-0.73437 0.70312,-2.14062 l 3.20314,-9.29688 h 2.375 V 199.42 h -1.70313 V 188.24812 L 103.43758,199.42 h -1.59375 l -3.85937,-11.375 v 11.375 z m 21.71269,0 v -1.42188 q -1.125,1.64063 -3.0625,1.64063 -0.85938,0 -1.60938,-0.32813 -0.73437,-0.32812 -1.09375,-0.82812 -0.35937,-0.5 -0.5,-1.21875 -0.10937,-0.46875 -0.10937,-1.53125 v -5.98438 h 1.64062 v 5.35938 q 0,1.28125 0.10938,1.73437 0.15625,0.64063 0.65625,1.01563 0.5,0.375 1.23437,0.375 0.73438,0 1.375,-0.375 0.65625,-0.39063 0.92188,-1.03125 0.26562,-0.65625 0.26562,-1.89063 v -5.1875 h 1.64063 V 199.42 Z m 4.0007,0 v -13.35938 h 1.64063 V 199.42 Z m 7.76984,-1.46875 0.23437,1.45312 q -0.6875,0.14063 -1.23437,0.14063 -0.89063,0 -1.39063,-0.28125 -0.48437,-0.28125 -0.6875,-0.73438 -0.20312,-0.46875 -0.20312,-1.9375 v -5.57812 h -1.20313 v -1.26563 h 1.20313 v -2.39062 l 1.625,-0.98438 v 3.375 h 1.65625 v 1.26563 h -1.65625 v 5.67187 q 0,0.6875 0.0781,0.89063 0.0937,0.20312 0.28125,0.32812 0.20313,0.10938 0.57813,0.10938 0.26562,0 0.71875,-0.0625 z m 1.60516,-10 v -1.89063 h 1.64063 v 1.89063 z m 0,11.46875 v -9.67188 h 1.64063 V 199.42 Z m 3.50421,-4.01563 v -1.64062 h 5.03125 v 1.64062 z m 7.05643,4.01563 v -13.35938 h 5.04687 q 1.32813,0 2.03125,0.125 0.96875,0.17188 1.64063,0.64063 0.67187,0.45312 1.07812,1.28125 0.40625,0.82812 0.40625,1.82812 0,1.70313 -1.09375,2.89063 -1.07812,1.17187 -3.92187,1.17187 h -3.42188 V 199.42 Z m 1.76562,-7 h 3.45313 q 1.71875,0 2.4375,-0.64063 0.71875,-0.64062 0.71875,-1.79687 0,-0.84375 -0.42188,-1.4375 -0.42187,-0.59375 -1.125,-0.78125 -0.4375,-0.125 -1.64062,-0.125 h -3.42188 z m 10.4592,7 v -9.67188 h 1.46875 v 1.46875 q 0.5625,-1.03125 1.03125,-1.35937 0.48438,-0.32813 1.0625,-0.32813 0.82813,0 1.6875,0.53125 l -0.5625,1.51563 q -0.60937,-0.35938 -1.20312,-0.35938 -0.54688,0 -0.96875,0.32813 -0.42188,0.32812 -0.60938,0.89062 -0.28125,0.875 -0.28125,1.92188 v 5.0625 z m 5.61893,-4.84375 q 0,-2.6875 1.48437,-3.96875 1.25,-1.07813 3.04688,-1.07813 2,0 3.26562,1.3125 1.26563,1.29688 1.26563,3.60938 0,1.85937 -0.5625,2.9375 -0.5625,1.0625 -1.64063,1.65625 -1.0625,0.59375 -2.32812,0.59375 -2.03125,0 -3.28125,-1.29688 -1.25,-1.3125 -1.25,-3.76562 z m 1.6875,0 q 0,1.85937 0.79687,2.79687 0.8125,0.92188 2.04688,0.92188 1.21875,0 2.03125,-0.92188 0.8125,-0.9375 0.8125,-2.84375 0,-1.79687 -0.8125,-2.71875 -0.8125,-0.92187 -2.03125,-0.92187 -1.23438,0 -2.04688,0.92187 -0.79687,0.90625 -0.79687,2.76563 z m 9.28195,-6.60938 v -1.90625 h 1.64063 v 1.90625 z m -2.07812,15.20313 0.3125,-1.39063 q 0.5,0.125 0.78125,0.125 0.5,0 0.73437,-0.32812 0.25,-0.32813 0.25,-1.67188 v -10.15625 h 1.64063 v 10.20313 q 0,1.78125 -0.46875,2.48437 -0.59375,0.90625 -1.96875,0.90625 -0.65625,0 -1.28125,-0.17187 z m 12.86358,-6.85938 1.6875,0.20313 q -0.40625,1.48437 -1.48437,2.3125 -1.07813,0.8125 -2.76563,0.8125 -2.125,0 -3.375,-1.29688 -1.23437,-1.3125 -1.23437,-3.67187 0,-2.45313 1.25,-3.79688 1.26562,-1.34375 3.26562,-1.34375 1.9375,0 3.15625,1.32813 1.23438,1.3125 1.23438,3.70312 0,0.15625 0,0.4375 h -7.21875 q 0.0937,1.59375 0.90625,2.45313 0.8125,0.84375 2.01562,0.84375 0.90625,0 1.54688,-0.46875 0.64062,-0.48438 1.01562,-1.51563 z m -5.39062,-2.65625 h 5.40625 q -0.10938,-1.21875 -0.625,-1.82812 -0.78125,-0.95313 -2.03125,-0.95313 -1.125,0 -1.90625,0.76563 -0.76563,0.75 -0.84375,2.01562 z m 15.45382,2.21875 1.60938,0.21875 q -0.26563,1.65625 -1.35938,2.60938 -1.07812,0.9375 -2.67187,0.9375 -1.98438,0 -3.1875,-1.29688 -1.20313,-1.29687 -1.20313,-3.71875 0,-1.57812 0.51563,-2.75 0.51562,-1.17187 1.57812,-1.75 1.0625,-0.59375 2.3125,-0.59375 1.57813,0 2.57813,0.79688 1,0.79687 1.28125,2.26562 l -1.59375,0.23438 q -0.23438,-0.96875 -0.8125,-1.45313 -0.57813,-0.5 -1.39063,-0.5 -1.23437,0 -2.01562,0.89063 -0.78125,0.89062 -0.78125,2.8125 0,1.95312 0.75,2.84375 0.75,0.875 1.95312,0.875 0.96875,0 1.60938,-0.59375 0.65625,-0.59375 0.82812,-1.82813 z m 6.59375,2.07813 0.23438,1.45312 q -0.6875,0.14063 -1.23438,0.14063 -0.89062,0 -1.39062,-0.28125 -0.48438,-0.28125 -0.6875,-0.73438 -0.20313,-0.46875 -0.20313,-1.9375 v -5.57812 h -1.20312 v -1.26563 h 1.20312 v -2.39062 l 1.625,-0.98438 v 3.375 h 1.65625 v 1.26563 h -1.65625 v 5.67187 q 0,0.6875 0.0781,0.89063 0.0937,0.20312 0.28125,0.32812 0.20312,0.10938 0.57812,0.10938 0.26563,0 0.71875,-0.0625 z m 16.52286,-3.21875 1.76563,0.45312 q -0.5625,2.17188 -2,3.32813 -1.4375,1.14062 -3.53125,1.14062 -2.15625,0 -3.51563,-0.875 -1.34375,-0.89062 -2.0625,-2.54687 -0.70312,-1.67188 -0.70312,-3.59375 0,-2.07813 0.79687,-3.625 0.79688,-1.5625 2.26563,-2.35938 1.48437,-0.8125 3.25,-0.8125 2,0 3.35937,1.01563 1.375,1.01562 1.90625,2.875 l -1.73437,0.40625 q -0.46875,-1.45313 -1.35938,-2.10938 -0.875,-0.67187 -2.20312,-0.67187 -1.54688,0 -2.57813,0.73437 -1.03125,0.73438 -1.45312,1.98438 -0.42188,1.23437 -0.42188,2.5625 0,1.70312 0.5,2.96875 0.5,1.26562 1.54688,1.90625 1.04687,0.625 2.26562,0.625 1.48438,0 2.51563,-0.85938 1.03125,-0.85937 1.39062,-2.54687 z m 3.73859,4.6875 v -13.35938 h 1.64062 v 4.79688 q 1.14063,-1.32813 2.89063,-1.32813 1.07812,0 1.85937,0.42188 0.79688,0.42187 1.14063,1.17187 0.34375,0.75 0.34375,2.17188 v 6.125 h -1.64063 v -6.125 q 0,-1.23438 -0.53125,-1.79688 -0.53125,-0.5625 -1.51562,-0.5625 -0.71875,0 -1.35938,0.39063 -0.64062,0.375 -0.92187,1.01562 -0.26563,0.64063 -0.26563,1.78125 V 199.42 Z m 10.3757,-11.46875 v -1.89063 h 1.64063 v 1.89063 z m 0,11.46875 v -9.67188 h 1.64063 V 199.42 Z m 4.14484,3.70312 v -13.375 h 1.48437 v 1.25 q 0.53125,-0.73437 1.1875,-1.09375 0.67188,-0.375 1.625,-0.375 1.23438,0 2.17188,0.64063 0.95312,0.625 1.4375,1.79687 0.48437,1.15625 0.48437,2.54688 0,1.48437 -0.53125,2.67187 -0.53125,1.1875 -1.54687,1.82813 -1.01563,0.625 -2.14063,0.625 -0.8125,0 -1.46875,-0.34375 -0.65625,-0.34375 -1.0625,-0.875 v 4.70312 z m 1.48437,-8.48437 q 0,1.85937 0.75,2.76562 0.76563,0.89063 1.82813,0.89063 1.09375,0 1.875,-0.92188 0.78125,-0.9375 0.78125,-2.875 0,-1.84375 -0.76563,-2.76562 -0.75,-0.92188 -1.8125,-0.92188 -1.04687,0 -1.85937,0.98438 -0.79688,0.96875 -0.79688,2.84375 z"
     fill-rule="nonzero"
     id="path299" />
  <path
     fill="#000000"
     d="m 145.91803,225.34186 q -1.35938,-1.70313 -2.29688,-4 -0.9375,-2.29688 -0.9375,-4.76563 0,-2.15625 0.70313,-4.14062 0.82812,-2.3125 2.53125,-4.59373 h 1.17187 q -1.09375,1.8906 -1.45312,2.7031 -0.54688,1.25 -0.875,2.625 -0.39063,1.70313 -0.39063,3.42188 0,4.375 2.71875,8.75 z m 3.24393,-3.92188 v -13.35936 h 2.65625 l 3.15625,9.45311 q 0.4375,1.32813 0.64062,1.98438 0.23438,-0.73438 0.70313,-2.14063 l 3.20312,-9.29686 h 2.375 v 13.35936 h -1.70312 v -11.17187 l -3.875,11.17187 h -1.59375 l -3.85938,-11.375 v 11.375 z m 15.58767,0 v -13.35936 h 5.04688 q 1.32812,0 2.03125,0.125 0.96875,0.17188 1.64062,0.64061 0.67188,0.45313 1.07813,1.28125 0.40625,0.82813 0.40625,1.82813 0,1.70312 -1.09375,2.89062 -1.07813,1.17188 -3.92188,1.17188 h -3.42187 v 5.42187 z m 1.76563,-7 h 3.45312 q 1.71875,0 2.4375,-0.64062 0.71875,-0.64063 0.71875,-1.79688 0,-0.84375 -0.42187,-1.4375 -0.42188,-0.59375 -1.125,-0.78125 -0.4375,-0.125 -1.64063,-0.125 h -3.42187 z m 20.2092,2.3125 1.76562,0.45313 q -0.5625,2.17187 -2,3.32812 -1.4375,1.14063 -3.53125,1.14063 -2.15625,0 -3.51562,-0.875 -1.34375,-0.89063 -2.0625,-2.54688 -0.70313,-1.67187 -0.70313,-3.59375 0,-2.07812 0.79688,-3.625 0.79687,-1.5625 2.26562,-2.35937 1.48438,-0.81248 3.25,-0.81248 2,0 3.35938,1.0156 1.375,1.01563 1.90625,2.875 l -1.73438,0.40625 q -0.46875,-1.45312 -1.35937,-2.10937 -0.875,-0.67188 -2.20313,-0.67188 -1.54687,0 -2.57812,0.73438 -1.03125,0.73437 -1.45313,1.98437 -0.42187,1.23438 -0.42187,2.5625 0,1.70313 0.5,2.96875 0.5,1.26563 1.54687,1.90625 1.04688,0.625 2.26563,0.625 1.48437,0 2.51562,-0.85937 1.03125,-0.85938 1.39063,-2.54688 z m 4.81671,8.60938 h -1.1875 q 2.73437,-4.375 2.73437,-8.75 0,-1.71875 -0.39062,-3.39063 -0.3125,-1.375 -0.875,-2.625 -0.35938,-0.82812 -1.46875,-2.73435 h 1.1875 q 1.70312,2.28123 2.53125,4.59373 0.6875,1.98437 0.6875,4.14062 0,2.46875 -0.9375,4.76563 -0.9375,2.29687 -2.28125,4 z"
     fill-rule="nonzero"
     id="path301" />
  <path
     fill="#efefef"
     d="m 0.5,32.5 h 88 v -16 l 32,32 -32,32 v -16 h -88 z"
     fill-rule="evenodd"
     id="path303" />
  <path
     stroke="#000000"
     stroke-width="1"
     stroke-linejoin="round"
     stroke-linecap="butt"
     d="m 0.5,32.5 h 88 v -16 l 32,32 -32,32 v -16 h -88 z"
     fill-rule="evenodd"
     id="path305" />
  <path
     fill="#000000"
     d="m 12.796875,48.18562 q -1.015625,-0.375 -1.515625,-1.0625 -0.484375,-0.703125 -0.484375,-1.671875 0,-1.453125 1.046875,-2.4375 1.046875,-1 2.78125,-1 1.75,0 2.8125,1.015625 1.078125,1.015625 1.078125,2.46875 0,0.9375 -0.5,1.625 -0.484375,0.6875 -1.46875,1.0625 1.21875,0.390625 1.859375,1.28125 0.65625,0.890625 0.65625,2.140625 0,1.703125 -1.21875,2.875005 -1.21875,1.17187 -3.1875,1.17187 -1.984375,0 -3.203125,-1.17187 Q 10.25,53.31062 10.25,51.56062 q 0,-1.3125 0.65625,-2.1875 0.671875,-0.875 1.890625,-1.1875 z M 12.46875,45.40437 q 0,0.9375 0.609375,1.546875 0.609375,0.59375 1.59375,0.59375 0.9375,0 1.546875,-0.59375 0.609375,-0.59375 0.609375,-1.453125 0,-0.90625 -0.625,-1.515625 -0.625,-0.625 -1.5625,-0.625 -0.9375,0 -1.5625,0.609375 -0.609375,0.59375 -0.609375,1.4375 z m -0.53125,6.15625 q 0,0.703125 0.328125,1.35938 0.34375,0.65625 1,1.01562 0.65625,0.35938 1.40625,0.35938 1.171875,0 1.9375,-0.75 0.765625,-0.75 0.765625,-1.92188 0,-1.1875 -0.796875,-1.953125 -0.78125,-0.78125 -1.953125,-0.78125 -1.15625,0 -1.921875,0.765625 Q 11.9375,50.419995 11.9375,51.56062 Z M 26.793396,55.42 V 42.06062 h 1.765625 V 55.42 Z m 4.683304,0 v -9.67188 h 1.46875 v 1.375 q 1.0625,-1.59375 3.078125,-1.59375 0.875,0 1.609375,0.3125 0.734375,0.3125 1.09375,0.828125 0.375,0.5 0.515625,1.203125 0.09375,0.453125 0.09375,1.59375 V 55.42 H 37.69545 v -5.89063 q 0,-1 -0.203125,-1.484375 -0.1875,-0.5 -0.671875,-0.796875 -0.484375,-0.296875 -1.140625,-0.296875 -1.046875,0 -1.8125,0.671875 -0.75,0.65625 -0.75,2.515625 V 55.42 Z m 10.375717,3.70312 v -13.375 h 1.484375 v 1.25 q 0.53125,-0.734375 1.1875,-1.09375 0.671875,-0.375 1.625,-0.375 1.234375,0 2.171875,0.640625 0.953125,0.625 1.4375,1.796875 0.484375,1.15625 0.484375,2.546875 0,1.484375 -0.53125,2.671875 -0.53125,1.1875 -1.546875,1.82813 -1.015625,0.625 -2.140625,0.625 -0.8125,0 -1.46875,-0.34375 -0.65625,-0.34375 -1.0625,-0.875 v 4.70312 z m 1.484375,-8.484375 q 0,1.859375 0.75,2.765625 0.765625,0.89063 1.828125,0.89063 1.09375,0 1.875,-0.92188 0.78125,-0.9375 0.78125,-2.875 0,-1.84375 -0.765625,-2.765625 -0.75,-0.921875 -1.8125,-0.921875 -1.046875,0 -1.859375,0.984375 -0.796875,0.96875 -0.796875,2.84375 z M 58.556259,55.42 v -1.42188 q -1.125,1.64063 -3.0625,1.64063 -0.859375,0 -1.609375,-0.32813 -0.734375,-0.32812 -1.09375,-0.82812 -0.359375,-0.5 -0.5,-1.21875 Q 52.181259,52.795 52.181259,51.732495 V 45.74812 h 1.640625 v 5.359375 q 0,1.28125 0.109375,1.734375 0.15625,0.64063 0.65625,1.01563 0.5,0.375 1.234375,0.375 0.734375,0 1.375,-0.375 0.65625,-0.39063 0.921875,-1.03125 0.265625,-0.656255 0.265625,-1.89063 v -5.1875 h 1.640625 V 55.42 Z m 7.625717,-1.46875 0.234375,1.45312 q -0.6875,0.14063 -1.234375,0.14063 -0.890625,0 -1.390625,-0.28125 -0.484375,-0.28125 -0.6875,-0.73438 -0.203125,-0.46875 -0.203125,-1.9375 V 47.013745 H 61.697601 V 45.74812 h 1.203125 v -2.390625 l 1.625,-0.984375 v 3.375 h 1.65625 v 1.265625 h -1.65625 v 5.671875 q 0,0.6875 0.07813,0.89063 0.09375,0.20312 0.28125,0.32812 0.203125,0.10938 0.578125,0.10938 0.265625,0 0.71875,-0.0625 z m 0.948929,-1.42188 1.625,-0.25 q 0.125,0.96875 0.75,1.5 0.625,0.51563 1.75,0.51563 1.125,0 1.671875,-0.45313 0.546875,-0.46875 0.546875,-1.09375 0,-0.546875 -0.484375,-0.875 -0.328125,-0.21875 -1.671875,-0.546875 -1.8125,-0.46875 -2.515625,-0.796875 -0.6875,-0.328125 -1.046875,-0.90625 -0.359375,-0.59375 -0.359375,-1.3125 0,-0.640625 0.296875,-1.1875 0.296875,-0.5625 0.8125,-0.921875 0.375,-0.28125 1.03125,-0.46875 0.671875,-0.203125 1.421875,-0.203125 1.140625,0 2,0.328125 0.859375,0.328125 1.265625,0.890625 0.421875,0.5625 0.578125,1.5 l -1.609375,0.21875 q -0.109375,-0.75 -0.640625,-1.171875 -0.515625,-0.421875 -1.46875,-0.421875 -1.140625,0 -1.625,0.375 -0.46875,0.375 -0.46875,0.875 0,0.3125 0.1875,0.578125 0.203125,0.265625 0.640625,0.4375 0.234375,0.09375 1.4375,0.421875 1.75,0.453125 2.4375,0.75 0.6875,0.296875 1.078125,0.859375 0.390625,0.5625 0.390625,1.406255 0,0.82812 -0.484375,1.54687 -0.46875,0.71875 -1.375,1.125 -0.90625,0.39063 -2.046875,0.39063 -1.875,0 -2.875,-0.78125 -0.984375,-0.78125 -1.25,-2.32813 z"
     fill-rule="nonzero"
     id="path307" />
  <path
     fill="#efefef"
     d="m 120.5,288.5 h 96 v 96 h -96 z"
     fill-rule="evenodd"
     id="path309" />
  <path
     stroke="#000000"
     stroke-width="1"
     stroke-linejoin="round"
     stroke-linecap="butt"
     d="m 120.5,288.5 h 96 v 96 h -96 z"
     fill-rule="evenodd"
     id="path311" />
  <path
     fill="#000000"
     d="M 135.74893,332.41998 V 319.0606 h 9.65625 v 1.57813 h -7.875 v 4.09375 h 7.375 v 1.5625 h -7.375 v 4.54687 h 8.1875 v 1.57813 z m 11.11545,0 3.53125,-5.03125 -3.26563,-4.64063 h 2.04688 l 1.48437,2.26563 q 0.42188,0.64062 0.67188,1.07812 0.40625,-0.59375 0.73437,-1.0625 l 1.64063,-2.28125 h 1.95312 l -3.34375,4.54688 3.59375,5.125 h -2.01562 l -1.98438,-3 -0.51562,-0.8125 -2.54688,3.8125 z m 14,-1.46875 0.23437,1.45312 q -0.6875,0.14063 -1.23437,0.14063 -0.89063,0 -1.39063,-0.28125 -0.48437,-0.28125 -0.6875,-0.73438 -0.20312,-0.46875 -0.20312,-1.9375 v -5.57812 H 156.38 v -1.26563 h 1.20313 v -2.39062 l 1.625,-0.98438 v 3.375 h 1.65625 v 1.26563 h -1.65625 v 5.67187 q 0,0.6875 0.0781,0.89063 0.0937,0.20312 0.28125,0.32812 0.20313,0.10938 0.57813,0.10938 0.26562,0 0.71875,-0.0625 z m 8.23016,-1.64063 1.6875,0.20313 q -0.40625,1.48437 -1.48437,2.3125 -1.07813,0.8125 -2.76563,0.8125 -2.125,0 -3.375,-1.29688 -1.23437,-1.3125 -1.23437,-3.67187 0,-2.45313 1.25,-3.79688 1.26562,-1.34375 3.26562,-1.34375 1.9375,0 3.15625,1.32813 1.23438,1.3125 1.23438,3.70312 0,0.15625 0,0.4375 h -7.21875 q 0.0937,1.59375 0.90625,2.45313 0.8125,0.84375 2.01562,0.84375 0.90625,0 1.54688,-0.46875 0.64062,-0.48438 1.01562,-1.51563 z m -5.39062,-2.65625 h 5.40625 q -0.10938,-1.21875 -0.625,-1.82812 -0.78125,-0.95313 -2.03125,-0.95313 -1.125,0 -1.90625,0.76563 -0.76563,0.75 -0.84375,2.01562 z m 9.12573,5.76563 v -9.67188 h 1.46875 v 1.46875 q 0.5625,-1.03125 1.03125,-1.35937 0.48437,-0.32813 1.0625,-0.32813 0.82812,0 1.6875,0.53125 l -0.5625,1.51563 q -0.60938,-0.35938 -1.20313,-0.35938 -0.54687,0 -0.96875,0.32813 -0.42187,0.32812 -0.60937,0.89062 -0.28125,0.875 -0.28125,1.92188 v 5.0625 z m 6.2283,0 v -9.67188 h 1.46875 v 1.375 q 1.0625,-1.59375 3.07813,-1.59375 0.875,0 1.60937,0.3125 0.73438,0.3125 1.09375,0.82813 0.375,0.5 0.51563,1.20312 0.0937,0.45313 0.0937,1.59375 v 5.95313 h -1.64063 v -5.89063 q 0,-1 -0.20312,-1.48437 -0.1875,-0.5 -0.67188,-0.79688 -0.48437,-0.29687 -1.14062,-0.29687 -1.04688,0 -1.8125,0.67187 -0.75,0.65625 -0.75,2.51563 v 5.28125 z m 16.6882,-1.1875 q -0.92187,0.76562 -1.76562,1.09375 -0.82813,0.3125 -1.79688,0.3125 -1.59375,0 -2.45312,-0.78125 -0.85938,-0.78125 -0.85938,-1.98438 0,-0.71875 0.32813,-1.29687 0.32812,-0.59375 0.84375,-0.9375 0.53125,-0.35938 1.1875,-0.54688 0.46875,-0.125 1.45312,-0.25 1.98438,-0.23437 2.92188,-0.5625 0.0156,-0.34375 0.0156,-0.42187 0,-1 -0.46875,-1.42188 -0.625,-0.54687 -1.875,-0.54687 -1.15625,0 -1.70312,0.40625 -0.54688,0.40625 -0.8125,1.42187 l -1.60938,-0.21875 q 0.21875,-1.01562 0.71875,-1.64062 0.5,-0.64063 1.45313,-0.98438 0.95312,-0.34375 2.1875,-0.34375 1.25,0 2.01562,0.29688 0.78125,0.28125 1.14063,0.73437 0.375,0.4375 0.51562,1.10938 0.0781,0.42187 0.0781,1.51562 v 2.1875 q 0,2.28125 0.10937,2.89063 0.10938,0.59375 0.40625,1.15625 h -1.70312 q -0.26563,-0.51563 -0.32813,-1.1875 z m -0.14062,-3.67188 q -0.89063,0.375 -2.67188,0.625 -1.01562,0.14063 -1.4375,0.32813 -0.42187,0.1875 -0.65625,0.53125 -0.21875,0.34375 -0.21875,0.78125 0,0.65625 0.5,1.09375 0.5,0.4375 1.45313,0.4375 0.9375,0 1.67187,-0.40625 0.75,-0.42188 1.09375,-1.14063 0.26563,-0.5625 0.26563,-1.64062 z m 4.15698,4.85938 V 319.0606 h 1.64063 v 13.35938 z"
     fill-rule="nonzero"
     id="path313" />
  <path
     fill="#000000"
     d="M 134.6792,354.41998 V 341.0606 h 4.60937 q 1.54688,0 2.375,0.20313 1.14063,0.25 1.95313,0.95312 1.0625,0.89063 1.57812,2.28125 0.53125,1.39063 0.53125,3.17188 0,1.51562 -0.35937,2.70312 -0.35938,1.17188 -0.92188,1.9375 -0.54687,0.76563 -1.20312,1.21875 -0.65625,0.4375 -1.59375,0.67188 -0.9375,0.21875 -2.14063,0.21875 z m 1.76562,-1.57813 h 2.85938 q 1.3125,0 2.0625,-0.23437 0.75,-0.25 1.20312,-0.70313 0.625,-0.625 0.96875,-1.6875 0.35938,-1.0625 0.35938,-2.57812 0,-2.09375 -0.6875,-3.21875 -0.6875,-1.125 -1.67188,-1.5 -0.70312,-0.28125 -2.28125,-0.28125 h -2.8125 z m 18.12918,-1.53125 1.6875,0.20313 q -0.40625,1.48437 -1.48437,2.3125 -1.07813,0.8125 -2.76563,0.8125 -2.125,0 -3.375,-1.29688 -1.23437,-1.3125 -1.23437,-3.67187 0,-2.45313 1.25,-3.79688 1.26562,-1.34375 3.26562,-1.34375 1.9375,0 3.15625,1.32813 1.23438,1.3125 1.23438,3.70312 0,0.15625 0,0.4375 h -7.21875 q 0.0937,1.59375 0.90625,2.45313 0.8125,0.84375 2.01562,0.84375 0.90625,0 1.54688,-0.46875 0.64062,-0.48438 1.01562,-1.51563 z m -5.39062,-2.65625 h 5.40625 q -0.10938,-1.21875 -0.625,-1.82812 -0.78125,-0.95313 -2.03125,-0.95313 -1.125,0 -1.90625,0.76563 -0.76563,0.75 -0.84375,2.01562 z m 15.45386,2.21875 1.60937,0.21875 q -0.26562,1.65625 -1.35937,2.60938 -1.07813,0.9375 -2.67188,0.9375 -1.98437,0 -3.1875,-1.29688 -1.20312,-1.29687 -1.20312,-3.71875 0,-1.57812 0.51562,-2.75 0.51563,-1.17187 1.57813,-1.75 1.0625,-0.59375 2.3125,-0.59375 1.57812,0 2.57812,0.79688 1,0.79687 1.28125,2.26562 l -1.59375,0.23438 q -0.23437,-0.96875 -0.8125,-1.45313 -0.57812,-0.5 -1.39062,-0.5 -1.23438,0 -2.01563,0.89063 -0.78125,0.89062 -0.78125,2.8125 0,1.95312 0.75,2.84375 0.75,0.875 1.95313,0.875 0.96875,0 1.60937,-0.59375 0.65625,-0.59375 0.82813,-1.82813 z m 2.40625,-1.29687 q 0,-2.6875 1.48437,-3.96875 1.25,-1.07813 3.04688,-1.07813 2,0 3.26562,1.3125 1.26563,1.29688 1.26563,3.60938 0,1.85937 -0.5625,2.9375 -0.5625,1.0625 -1.64063,1.65625 -1.0625,0.59375 -2.32812,0.59375 -2.03125,0 -3.28125,-1.29688 -1.25,-1.3125 -1.25,-3.76562 z m 1.6875,0 q 0,1.85937 0.79687,2.79687 0.8125,0.92188 2.04688,0.92188 1.21875,0 2.03125,-0.92188 0.8125,-0.9375 0.8125,-2.84375 0,-1.79687 -0.8125,-2.71875 -0.8125,-0.92187 -2.03125,-0.92187 -1.23438,0 -2.04688,0.92187 -0.79687,0.90625 -0.79687,2.76563 z m 15.5632,4.84375 v -1.21875 q -0.90625,1.4375 -2.70313,1.4375 -1.15625,0 -2.125,-0.64063 -0.96875,-0.64062 -1.5,-1.78125 -0.53125,-1.14062 -0.53125,-2.625 0,-1.45312 0.48438,-2.625 0.48437,-1.1875 1.4375,-1.8125 0.96875,-0.625 2.17187,-0.625 0.875,0 1.54688,0.375 0.6875,0.35938 1.10937,0.95313 v -4.79688 h 1.64063 v 13.35938 z m -5.17188,-4.82813 q 0,1.85938 0.78125,2.78125 0.78125,0.92188 1.84375,0.92188 1.07813,0 1.82813,-0.875 0.75,-0.89063 0.75,-2.6875 0,-1.98438 -0.76563,-2.90625 -0.76562,-0.9375 -1.89062,-0.9375 -1.07813,0 -1.8125,0.89062 -0.73438,0.89063 -0.73438,2.8125 z m 15.90699,1.71875 1.6875,0.20313 q -0.40625,1.48437 -1.48438,2.3125 -1.07812,0.8125 -2.76562,0.8125 -2.125,0 -3.375,-1.29688 -1.23438,-1.3125 -1.23438,-3.67187 0,-2.45313 1.25,-3.79688 1.26563,-1.34375 3.26563,-1.34375 1.9375,0 3.15625,1.32813 1.23437,1.3125 1.23437,3.70312 0,0.15625 0,0.4375 h -7.21875 q 0.0937,1.59375 0.90625,2.45313 0.8125,0.84375 2.01563,0.84375 0.90625,0 1.54687,-0.46875 0.64063,-0.48438 1.01563,-1.51563 z m -5.39063,-2.65625 h 5.40625 q -0.10937,-1.21875 -0.625,-1.82812 -0.78125,-0.95313 -2.03125,-0.95313 -1.125,0 -1.90625,0.76563 -0.76562,0.75 -0.84375,2.01562 z m 9.1257,5.76563 v -9.67188 h 1.46875 v 1.46875 q 0.5625,-1.03125 1.03125,-1.35937 0.48438,-0.32813 1.0625,-0.32813 0.82813,0 1.6875,0.53125 l -0.5625,1.51563 q -0.60937,-0.35938 -1.20312,-0.35938 -0.54688,0 -0.96875,0.32813 -0.42188,0.32812 -0.60938,0.89062 -0.28125,0.875 -0.28125,1.92188 v 5.0625 z"
     fill-rule="nonzero"
     id="path315" />
  <path
     fill="#efefef"
     d="m 120.5,0.5 h 96 v 96 h -96 z"
     fill-rule="evenodd"
     id="path317" />
  <path
     stroke="#000000"
     stroke-width="1"
     stroke-linejoin="round"
     stroke-linecap="butt"
     d="m 120.5,0.5 h 96 v 96 h -96 z"
     fill-rule="evenodd"
     id="path319" />
  <path
     fill="#000000"
     d="M 135.74893,44.42 V 31.060625 h 9.65625 v 1.578125 h -7.875 v 4.09375 h 7.375 v 1.5625 h -7.375 v 4.546875 h 8.1875 V 44.42 Z m 11.11545,0 3.53125,-5.03125 -3.26563,-4.640625 h 2.04688 l 1.48437,2.265625 q 0.42188,0.640625 0.67188,1.078125 0.40625,-0.59375 0.73437,-1.0625 l 1.64063,-2.28125 h 1.95312 l -3.34375,4.546875 3.59375,5.125 h -2.01562 l -1.98438,-3 -0.51562,-0.8125 -2.54688,3.8125 z m 14,-1.46875 0.23437,1.453125 q -0.6875,0.140625 -1.23437,0.140625 -0.89063,0 -1.39063,-0.28125 -0.48437,-0.28125 -0.6875,-0.734375 -0.20312,-0.46875 -0.20312,-1.9375 V 36.01375 H 156.38 v -1.265625 h 1.20313 V 32.3575 l 1.625,-0.984375 v 3.375 h 1.65625 v 1.265625 h -1.65625 v 5.671875 q 0,0.6875 0.0781,0.890625 0.0937,0.203125 0.28125,0.328125 0.20313,0.109375 0.57813,0.109375 0.26562,0 0.71875,-0.0625 z m 8.23016,-1.640625 1.6875,0.203125 q -0.40625,1.484375 -1.48437,2.3125 -1.07813,0.8125 -2.76563,0.8125 -2.125,0 -3.375,-1.296875 -1.23437,-1.3125 -1.23437,-3.671875 0,-2.453125 1.25,-3.796875 1.26562,-1.34375 3.26562,-1.34375 1.9375,0 3.15625,1.328125 1.23438,1.3125 1.23438,3.703125 0,0.15625 0,0.4375 h -7.21875 q 0.0937,1.59375 0.90625,2.453125 0.8125,0.84375 2.01562,0.84375 0.90625,0 1.54688,-0.46875 0.64062,-0.484375 1.01562,-1.515625 z m -5.39062,-2.65625 h 5.40625 q -0.10938,-1.21875 -0.625,-1.828125 -0.78125,-0.953125 -2.03125,-0.953125 -1.125,0 -1.90625,0.765625 -0.76563,0.75 -0.84375,2.015625 z M 172.82965,44.42 v -9.671875 h 1.46875 v 1.46875 q 0.5625,-1.03125 1.03125,-1.359375 0.48437,-0.328125 1.0625,-0.328125 0.82812,0 1.6875,0.53125 l -0.5625,1.515625 q -0.60938,-0.359375 -1.20313,-0.359375 -0.54687,0 -0.96875,0.328125 -0.42187,0.328125 -0.60937,0.890625 -0.28125,0.875 -0.28125,1.921875 V 44.42 Z m 6.2283,0 v -9.671875 h 1.46875 v 1.375 q 1.0625,-1.59375 3.07813,-1.59375 0.875,0 1.60937,0.3125 0.73438,0.3125 1.09375,0.828125 0.375,0.5 0.51563,1.203125 0.0937,0.453125 0.0937,1.59375 V 44.42 h -1.64063 v -5.890625 q 0,-1 -0.20312,-1.484375 -0.1875,-0.5 -0.67188,-0.796875 -0.48437,-0.296875 -1.14062,-0.296875 -1.04688,0 -1.8125,0.671875 -0.75,0.65625 -0.75,2.515625 V 44.42 Z m 16.6882,-1.1875 q -0.92187,0.765625 -1.76562,1.09375 -0.82813,0.3125 -1.79688,0.3125 -1.59375,0 -2.45312,-0.78125 -0.85938,-0.78125 -0.85938,-1.984375 0,-0.71875 0.32813,-1.296875 0.32812,-0.59375 0.84375,-0.9375 0.53125,-0.359375 1.1875,-0.546875 0.46875,-0.125 1.45312,-0.25 1.98438,-0.234375 2.92188,-0.5625 0.0156,-0.34375 0.0156,-0.421875 0,-1 -0.46875,-1.421875 -0.625,-0.546875 -1.875,-0.546875 -1.15625,0 -1.70312,0.40625 -0.54688,0.40625 -0.8125,1.421875 l -1.60938,-0.21875 q 0.21875,-1.015625 0.71875,-1.640625 0.5,-0.640625 1.45313,-0.984375 0.95312,-0.34375 2.1875,-0.34375 1.25,0 2.01562,0.296875 0.78125,0.28125 1.14063,0.734375 0.375,0.4375 0.51562,1.109375 0.0781,0.421875 0.0781,1.515625 v 2.1875 q 0,2.28125 0.10937,2.890625 0.10938,0.59375 0.40625,1.15625 h -1.70312 q -0.26563,-0.515625 -0.32813,-1.1875 z m -0.14062,-3.671875 q -0.89063,0.375 -2.67188,0.625 -1.01562,0.140625 -1.4375,0.328125 -0.42187,0.1875 -0.65625,0.53125 -0.21875,0.34375 -0.21875,0.78125 0,0.65625 0.5,1.09375 0.5,0.4375 1.45313,0.4375 0.9375,0 1.67187,-0.40625 0.75,-0.421875 1.09375,-1.140625 0.26563,-0.5625 0.26563,-1.640625 z M 199.76251,44.42 V 31.060625 h 1.64063 V 44.42 Z"
     fill-rule="nonzero"
     id="path321" />
  <path
     fill="#000000"
     d="M 135.22513,66.42 V 53.06063 h 9.65625 v 1.57812 h -7.875 v 4.09375 h 7.375 v 1.5625 h -7.375 v 4.54688 h 8.1875 V 66.42 Z m 12.2092,0 v -9.67187 h 1.46875 v 1.375 q 1.0625,-1.59375 3.07812,-1.59375 0.875,0 1.60938,0.3125 0.73437,0.3125 1.09375,0.82812 0.375,0.5 0.51562,1.20313 0.0937,0.45312 0.0937,1.59375 V 66.42 h -1.64062 v -5.89062 q 0,-1 -0.20313,-1.48438 -0.1875,-0.5 -0.67187,-0.79687 -0.48438,-0.29688 -1.14063,-0.29688 -1.04687,0 -1.8125,0.67188 -0.75,0.65625 -0.75,2.51562 V 66.42 Z m 16.68821,-3.54687 1.60938,0.21875 q -0.26563,1.65625 -1.35938,2.60937 -1.07812,0.9375 -2.67187,0.9375 -1.98438,0 -3.1875,-1.29687 -1.20313,-1.29688 -1.20313,-3.71875 0,-1.57813 0.51563,-2.75 0.51562,-1.17188 1.57812,-1.75 1.0625,-0.59375 2.3125,-0.59375 1.57813,0 2.57813,0.79687 1,0.79688 1.28125,2.26563 l -1.59375,0.23437 q -0.23438,-0.96875 -0.8125,-1.45312 -0.57813,-0.5 -1.39063,-0.5 -1.23437,0 -2.01562,0.89062 -0.78125,0.89063 -0.78125,2.8125 0,1.95313 0.75,2.84375 0.75,0.875 1.95312,0.875 0.96875,0 1.60938,-0.59375 0.65625,-0.59375 0.82812,-1.82812 z m 2.40625,-1.29688 q 0,-2.6875 1.48438,-3.96875 1.25,-1.07812 3.04687,-1.07812 2,0 3.26563,1.3125 1.26562,1.29687 1.26562,3.60937 0,1.85938 -0.5625,2.9375 -0.5625,1.0625 -1.64062,1.65625 -1.0625,0.59375 -2.32813,0.59375 -2.03125,0 -3.28125,-1.29687 -1.25,-1.3125 -1.25,-3.76563 z m 1.6875,0 q 0,1.85938 0.79688,2.79688 0.8125,0.92187 2.04687,0.92187 1.21875,0 2.03125,-0.92187 0.8125,-0.9375 0.8125,-2.84375 0,-1.79688 -0.8125,-2.71875 -0.8125,-0.92188 -2.03125,-0.92188 -1.23437,0 -2.04687,0.92188 -0.79688,0.90625 -0.79688,2.76562 z M 183.77951,66.42 v -1.21875 q -0.90625,1.4375 -2.70312,1.4375 -1.15625,0 -2.125,-0.64062 -0.96875,-0.64063 -1.5,-1.78125 -0.53125,-1.14063 -0.53125,-2.625 0,-1.45313 0.48437,-2.625 0.48438,-1.1875 1.4375,-1.8125 0.96875,-0.625 2.17188,-0.625 0.875,0 1.54687,0.375 0.6875,0.35937 1.10938,0.95312 v -4.79687 h 1.64062 V 66.42 Z m -5.17187,-4.82812 q 0,1.85937 0.78125,2.78125 0.78125,0.92187 1.84375,0.92187 1.07812,0 1.82812,-0.875 0.75,-0.89062 0.75,-2.6875 0,-1.98437 -0.76562,-2.90625 -0.76563,-0.9375 -1.89063,-0.9375 -1.07812,0 -1.8125,0.89063 -0.73437,0.89062 -0.73437,2.8125 z m 15.90696,1.71875 1.6875,0.20312 q -0.40625,1.48438 -1.48437,2.3125 -1.07813,0.8125 -2.76563,0.8125 -2.125,0 -3.375,-1.29687 -1.23437,-1.3125 -1.23437,-3.67188 0,-2.45312 1.25,-3.79687 1.26562,-1.34375 3.26562,-1.34375 1.9375,0 3.15625,1.32812 1.23438,1.3125 1.23438,3.70313 0,0.15625 0,0.4375 h -7.21875 q 0.0937,1.59375 0.90625,2.45312 0.8125,0.84375 2.01562,0.84375 0.90625,0 1.54688,-0.46875 0.64062,-0.48437 1.01562,-1.51562 z m -5.39062,-2.65625 h 5.40625 q -0.10938,-1.21875 -0.625,-1.82813 -0.78125,-0.95312 -2.03125,-0.95312 -1.125,0 -1.90625,0.76562 -0.76563,0.75 -0.84375,2.01563 z M 198.2497,66.42 v -9.67187 h 1.46875 v 1.46875 q 0.5625,-1.03125 1.03125,-1.35938 0.48437,-0.32812 1.0625,-0.32812 0.82812,0 1.6875,0.53125 l -0.5625,1.51562 q -0.60938,-0.35937 -1.20313,-0.35937 -0.54687,0 -0.96875,0.32812 -0.42187,0.32813 -0.60937,0.89063 -0.28125,0.875 -0.28125,1.92187 V 66.42 Z"
     fill-rule="nonzero"
     id="path323" />
  <path
     fill="#efefef"
     d="m 216.5,320.5 h 88 v -16 l 32,32 -32,32 v -16 h -88 z"
     fill-rule="evenodd"
     id="path325" />
  <path
     stroke="#000000"
     stroke-width="1"
     stroke-linejoin="round"
     stroke-linecap="butt"
     d="m 216.5,320.5 h 88 v -16 l 32,32 -32,32 v -16 h -88 z"
     fill-rule="evenodd"
     id="path327" />
  <path
     fill="#000000"
     d="m 228.79688,336.1856 q -1.01563,-0.375 -1.51563,-1.0625 -0.48437,-0.70312 -0.48437,-1.67187 0,-1.45313 1.04687,-2.4375 1.04688,-1 2.78125,-1 1.75,0 2.8125,1.01562 1.07813,1.01563 1.07813,2.46875 0,0.9375 -0.5,1.625 -0.48438,0.6875 -1.46875,1.0625 1.21875,0.39063 1.85937,1.28125 0.65625,0.89063 0.65625,2.14063 0,1.70312 -1.21875,2.875 -1.21875,1.17187 -3.1875,1.17187 -1.98437,0 -3.20312,-1.17187 -1.20313,-1.17188 -1.20313,-2.92188 0,-1.3125 0.65625,-2.1875 0.67188,-0.875 1.89063,-1.1875 z m -0.32813,-2.78125 q 0,0.9375 0.60938,1.54688 0.60937,0.59375 1.59375,0.59375 0.9375,0 1.54687,-0.59375 0.60938,-0.59375 0.60938,-1.45313 0,-0.90625 -0.625,-1.51562 -0.625,-0.625 -1.5625,-0.625 -0.9375,0 -1.5625,0.60937 -0.60938,0.59375 -0.60938,1.4375 z m -0.53125,6.15625 q 0,0.70313 0.32813,1.35938 0.34375,0.65625 1,1.01562 0.65625,0.35938 1.40625,0.35938 1.17187,0 1.9375,-0.75 0.76562,-0.75 0.76562,-1.92188 0,-1.1875 -0.79687,-1.95312 -0.78125,-0.78125 -1.95313,-0.78125 -1.15625,0 -1.92187,0.76562 -0.76563,0.76563 -0.76563,1.90625 z m 14.02778,-2.64062 q 0,-3.32813 1.78125,-5.20313 1.78125,-1.89062 4.60937,-1.89062 1.84375,0 3.32813,0.89062 1.48437,0.875 2.26562,2.46875 0.78125,1.57813 0.78125,3.57813 0,2.03125 -0.82812,3.64062 -0.8125,1.59375 -2.3125,2.42188 -1.5,0.82812 -3.25,0.82812 -1.875,0 -3.35938,-0.90625 -1.48437,-0.92187 -2.25,-2.5 -0.76562,-1.57812 -0.76562,-3.32812 z m 1.8125,0.0156 q 0,2.42188 1.29687,3.8125 1.29688,1.39063 3.26563,1.39063 2,0 3.28125,-1.40625 1.28125,-1.40625 1.28125,-3.98438 0,-1.625 -0.54688,-2.84375 -0.54687,-1.21875 -1.60937,-1.875 -1.0625,-0.67187 -2.375,-0.67187 -1.89063,0 -3.25,1.29687 -1.34375,1.28125 -1.34375,4.28125 z m 19.35516,6.48438 v -1.42188 q -1.125,1.64063 -3.0625,1.64063 -0.85938,0 -1.60938,-0.32813 -0.73437,-0.32812 -1.09375,-0.82812 -0.35937,-0.5 -0.5,-1.21875 -0.10937,-0.46875 -0.10937,-1.53125 v -5.98438 h 1.64062 v 5.35938 q 0,1.28125 0.10938,1.73437 0.15625,0.64063 0.65625,1.01563 0.5,0.375 1.23437,0.375 0.73438,0 1.375,-0.375 0.65625,-0.39063 0.92188,-1.03125 0.26562,-0.65625 0.26562,-1.89063 v -5.1875 h 1.64063 v 9.67188 z m 7.62573,-1.46875 0.23438,1.45312 q -0.6875,0.14063 -1.23438,0.14063 -0.89062,0 -1.39062,-0.28125 -0.48438,-0.28125 -0.6875,-0.73438 -0.20313,-0.46875 -0.20313,-1.9375 v -5.57812 h -1.20312 v -1.26563 h 1.20312 v -2.39062 l 1.625,-0.98438 v 3.375 h 1.65625 v 1.26563 h -1.65625 v 5.67187 q 0,0.6875 0.0781,0.89063 0.0937,0.20312 0.28125,0.32812 0.20312,0.10938 0.57812,0.10938 0.26563,0 0.71875,-0.0625 z m 1.60517,5.17187 v -13.375 h 1.48437 v 1.25 q 0.53125,-0.73437 1.1875,-1.09375 0.67188,-0.375 1.625,-0.375 1.23438,0 2.17188,0.64063 0.95312,0.625 1.4375,1.79687 0.48437,1.15625 0.48437,2.54688 0,1.48437 -0.53125,2.67187 -0.53125,1.1875 -1.54687,1.82813 -1.01563,0.625 -2.14063,0.625 -0.8125,0 -1.46875,-0.34375 -0.65625,-0.34375 -1.0625,-0.875 v 4.70312 z m 1.48437,-8.48437 q 0,1.85937 0.75,2.76562 0.76563,0.89063 1.82813,0.89063 1.09375,0 1.875,-0.92188 0.78125,-0.9375 0.78125,-2.875 0,-1.84375 -0.76563,-2.76562 -0.75,-0.92188 -1.8125,-0.92188 -1.04687,0 -1.85937,0.98438 -0.79688,0.96875 -0.79688,2.84375 z m 15.21948,4.78125 v -1.42188 q -1.125,1.64063 -3.0625,1.64063 -0.85937,0 -1.60937,-0.32813 -0.73438,-0.32812 -1.09375,-0.82812 -0.35938,-0.5 -0.5,-1.21875 -0.10938,-0.46875 -0.10938,-1.53125 v -5.98438 h 1.64063 v 5.35938 q 0,1.28125 0.10937,1.73437 0.15625,0.64063 0.65625,1.01563 0.5,0.375 1.23438,0.375 0.73437,0 1.375,-0.375 0.65625,-0.39063 0.92187,-1.03125 0.26563,-0.65625 0.26563,-1.89063 v -5.1875 h 1.64062 v 9.67188 z m 7.62574,-1.46875 0.23437,1.45312 q -0.6875,0.14063 -1.23437,0.14063 -0.89063,0 -1.39063,-0.28125 -0.48437,-0.28125 -0.6875,-0.73438 -0.20312,-0.46875 -0.20312,-1.9375 v -5.57812 h -1.20313 v -1.26563 h 1.20313 v -2.39062 l 1.625,-0.98438 v 3.375 h 1.65625 v 1.26563 h -1.65625 v 5.67187 q 0,0.6875 0.0781,0.89063 0.0937,0.20312 0.28125,0.32812 0.20313,0.10938 0.57813,0.10938 0.26562,0 0.71875,-0.0625 z m 0.94891,-1.42188 1.625,-0.25 q 0.125,0.96875 0.75,1.5 0.625,0.51563 1.75,0.51563 1.125,0 1.67187,-0.45313 0.54688,-0.46875 0.54688,-1.09375 0,-0.54687 -0.48438,-0.875 -0.32812,-0.21875 -1.67187,-0.54687 -1.8125,-0.46875 -2.51563,-0.79688 -0.6875,-0.32812 -1.04687,-0.90625 -0.35938,-0.59375 -0.35938,-1.3125 0,-0.64062 0.29688,-1.1875 0.29687,-0.5625 0.8125,-0.92187 0.375,-0.28125 1.03125,-0.46875 0.67187,-0.20313 1.42187,-0.20313 1.14063,0 2,0.32813 0.85938,0.32812 1.26563,0.89062 0.42187,0.5625 0.57812,1.5 l -1.60937,0.21875 q -0.10938,-0.75 -0.64063,-1.17187 -0.51562,-0.42188 -1.46875,-0.42188 -1.14062,0 -1.625,0.375 -0.46875,0.375 -0.46875,0.875 0,0.3125 0.1875,0.57813 0.20313,0.26562 0.64063,0.4375 0.23437,0.0937 1.4375,0.42187 1.75,0.45313 2.4375,0.75 0.6875,0.29688 1.07812,0.85938 0.39063,0.5625 0.39063,1.40625 0,0.82812 -0.48438,1.54687 -0.46875,0.71875 -1.375,1.125 -0.90625,0.39063 -2.04687,0.39063 -1.875,0 -2.875,-0.78125 -0.98438,-0.78125 -1.25,-2.32813 z"
     fill-rule="nonzero"
     id="path329" />
  <path
     fill="#000000"
     fill-opacity="0"
     d="m 168.5,96.5 v 48"
     fill-rule="evenodd"
     id="path331" />
  <path
     stroke="#000000"
     stroke-width="3"
     stroke-linejoin="round"
     stroke-linecap="butt"
     d="m 168.5,96.5 v 30"
     fill-rule="evenodd"
     id="path333" />
  <path
     fill="#000000"
     stroke="#000000"
     stroke-width="3"
     stroke-linecap="butt"
     d="M 163.5448,126.5 168.5,140.11429 173.4552,126.5 Z"
     fill-rule="evenodd"
     id="path335" />
  <path
     fill="#000000"
     fill-opacity="0"
     d="m 168.5,240.5 v 48"
     fill-rule="evenodd"
     id="path337" />
  <path
     stroke="#000000"
     stroke-width="3"
     stroke-linejoin="round"
     stroke-linecap="butt"
     d="m 168.5,240.5 v 30"
     fill-rule="evenodd"
     id="path339" />
  <path
     fill="#000000"
     stroke="#000000"
     stroke-width="3"
     stroke-linecap="butt"
     d="M 163.5448,270.5 168.5,284.11429 173.4552,270.5 Z"
     fill-rule="evenodd"
     id="path341" />
  <path
     fill="#000000"
     fill-opacity="0"
     d="m 168.5,96.5 h 306.33072 v 42.01575 H 168.5 Z"
     fill-rule="evenodd"
     id="path343" />
  <path
     fill="#000000"
     d="m 186.27303,123.42 v -13.35938 h 9.65625 v 1.57813 h -7.875 v 4.09375 h 7.375 v 1.5625 h -7.375 v 4.54687 h 8.1875 V 123.42 Z m 11.11545,0 3.53125,-5.03125 -3.26563,-4.64063 h 2.04688 l 1.48437,2.26563 q 0.42188,0.64062 0.67188,1.07812 0.40625,-0.59375 0.73437,-1.0625 l 1.64063,-2.28125 h 1.95312 l -3.34375,4.54688 3.59375,5.125 h -2.01562 l -1.98438,-3 -0.51562,-0.8125 -2.54688,3.8125 z m 14,-1.46875 0.23437,1.45312 q -0.6875,0.14063 -1.23437,0.14063 -0.89063,0 -1.39063,-0.28125 -0.48437,-0.28125 -0.6875,-0.73438 -0.20312,-0.46875 -0.20312,-1.9375 v -5.57812 h -1.20313 v -1.26563 h 1.20313 v -2.39062 l 1.625,-0.98438 v 3.375 h 1.65625 v 1.26563 h -1.65625 v 5.67187 q 0,0.6875 0.0781,0.89063 0.0937,0.20312 0.28125,0.32812 0.20313,0.10938 0.57813,0.10938 0.26562,0 0.71875,-0.0625 z m 2.0583,1.46875 v -1.875 h 1.875 v 1.875 z m 9.25723,-2.89063 1.625,-0.25 q 0.125,0.96875 0.75,1.5 0.625,0.51563 1.75,0.51563 1.125,0 1.67188,-0.45313 0.54687,-0.46875 0.54687,-1.09375 0,-0.54687 -0.48437,-0.875 -0.32813,-0.21875 -1.67188,-0.54687 -1.8125,-0.46875 -2.51562,-0.79688 -0.6875,-0.32812 -1.04688,-0.90625 -0.35937,-0.59375 -0.35937,-1.3125 0,-0.64062 0.29687,-1.1875 0.29688,-0.5625 0.8125,-0.92187 0.375,-0.28125 1.03125,-0.46875 0.67188,-0.20313 1.42188,-0.20313 1.14062,0 2,0.32813 0.85937,0.32812 1.26562,0.89062 0.42188,0.5625 0.57813,1.5 l -1.60938,0.21875 q -0.10937,-0.75 -0.64062,-1.17187 -0.51563,-0.42188 -1.46875,-0.42188 -1.14063,0 -1.625,0.375 -0.46875,0.375 -0.46875,0.875 0,0.3125 0.1875,0.57813 0.20312,0.26562 0.64062,0.4375 0.23438,0.0937 1.4375,0.42187 1.75,0.45313 2.4375,0.75 0.6875,0.29688 1.07813,0.85938 0.39062,0.5625 0.39062,1.40625 0,0.82812 -0.48437,1.54687 -0.46875,0.71875 -1.375,1.125 -0.90625,0.39063 -2.04688,0.39063 -1.875,0 -2.875,-0.78125 -0.98437,-0.78125 -1.25,-2.32813 z m 16.29688,-0.65625 1.60937,0.21875 q -0.26562,1.65625 -1.35937,2.60938 -1.07813,0.9375 -2.67188,0.9375 -1.98437,0 -3.1875,-1.29688 -1.20312,-1.29687 -1.20312,-3.71875 0,-1.57812 0.51562,-2.75 0.51563,-1.17187 1.57813,-1.75 1.0625,-0.59375 2.3125,-0.59375 1.57812,0 2.57812,0.79688 1,0.79687 1.28125,2.26562 l -1.59375,0.23438 q -0.23437,-0.96875 -0.8125,-1.45313 -0.57812,-0.5 -1.39062,-0.5 -1.23438,0 -2.01563,0.89063 -0.78125,0.89062 -0.78125,2.8125 0,1.95312 0.75,2.84375 0.75,0.875 1.95313,0.875 0.96875,0 1.60937,-0.59375 0.65625,-0.59375 0.82813,-1.82813 z m 9.32812,2.35938 q -0.92187,0.76562 -1.76562,1.09375 -0.82813,0.3125 -1.79688,0.3125 -1.59375,0 -2.45312,-0.78125 -0.85938,-0.78125 -0.85938,-1.98438 0,-0.71875 0.32813,-1.29687 0.32812,-0.59375 0.84375,-0.9375 0.53125,-0.35938 1.1875,-0.54688 0.46875,-0.125 1.45312,-0.25 1.98438,-0.23437 2.92188,-0.5625 0.0156,-0.34375 0.0156,-0.42187 0,-1 -0.46875,-1.42188 -0.625,-0.54687 -1.875,-0.54687 -1.15625,0 -1.70312,0.40625 -0.54688,0.40625 -0.8125,1.42187 l -1.60938,-0.21875 q 0.21875,-1.01562 0.71875,-1.64062 0.5,-0.64063 1.45313,-0.98438 0.95312,-0.34375 2.1875,-0.34375 1.25,0 2.01562,0.29688 0.78125,0.28125 1.14063,0.73437 0.375,0.4375 0.51562,1.10938 0.0781,0.42187 0.0781,1.51562 v 2.1875 q 0,2.28125 0.10937,2.89063 0.10938,0.59375 0.40625,1.15625 h -1.70312 q -0.26563,-0.51563 -0.32813,-1.1875 z m -0.14062,-3.67188 q -0.89063,0.375 -2.67188,0.625 -1.01562,0.14063 -1.4375,0.32813 -0.42187,0.1875 -0.65625,0.53125 -0.21875,0.34375 -0.21875,0.78125 0,0.65625 0.5,1.09375 0.5,0.4375 1.45313,0.4375 0.9375,0 1.67187,-0.40625 0.75,-0.42188 1.09375,-1.14063 0.26563,-0.5625 0.26563,-1.64062 z m 4.20383,4.85938 v -9.67188 h 1.46875 v 1.375 q 1.0625,-1.59375 3.07812,-1.59375 0.875,0 1.60938,0.3125 0.73437,0.3125 1.09375,0.82813 0.375,0.5 0.51562,1.20312 0.0937,0.45313 0.0937,1.59375 V 123.42 h -1.64062 v -5.89063 q 0,-1 -0.20313,-1.48437 -0.1875,-0.5 -0.67187,-0.79688 -0.48438,-0.29687 -1.14063,-0.29687 -1.04687,0 -1.8125,0.67187 -0.75,0.65625 -0.75,2.51563 V 123.42 Z m 15.55902,-11.46875 v -1.89063 h 1.64062 v 1.89063 z m 0,11.46875 v -9.67188 h 1.64062 V 123.42 Z m 4.14483,0 v -9.67188 h 1.46875 v 1.375 q 1.0625,-1.59375 3.07813,-1.59375 0.875,0 1.60937,0.3125 0.73438,0.3125 1.09375,0.82813 0.375,0.5 0.51563,1.20312 0.0937,0.45313 0.0937,1.59375 V 123.42 h -1.64063 v -5.89063 q 0,-1 -0.20312,-1.48437 -0.1875,-0.5 -0.67188,-0.79688 -0.48437,-0.29687 -1.14062,-0.29687 -1.04688,0 -1.8125,0.67187 -0.75,0.65625 -0.75,2.51563 V 123.42 Z m 10.79761,0 v -1.875 h 1.875 v 1.875 q 0,1.03125 -0.375,1.65625 -0.35937,0.64062 -1.15625,0.98437 l -0.45312,-0.70312 q 0.51562,-0.21875 0.76562,-0.67188 0.25,-0.4375 0.28125,-1.26562 z m 15.66345,0 h -1.64062 v -10.45313 q -0.59375,0.5625 -1.5625,1.14063 -0.95313,0.5625 -1.71875,0.84375 v -1.59375 q 1.375,-0.64063 2.40625,-1.5625 1.03125,-0.92188 1.45312,-1.78125 h 1.0625 z m 4.43824,-3.09375 1.57812,-0.14063 q 0.20313,1.10938 0.76563,1.60938 0.5625,0.5 1.45312,0.5 0.75,0 1.3125,-0.34375 0.57813,-0.34375 0.9375,-0.92188 0.375,-0.57812 0.60938,-1.5625 0.25,-0.98437 0.25,-2 0,-0.10937 0,-0.32812 -0.5,0.78125 -1.35938,1.26562 -0.84375,0.48438 -1.82812,0.48438 -1.67188,0 -2.8125,-1.20313 -1.14063,-1.20312 -1.14063,-3.17187 0,-2.03125 1.1875,-3.26563 1.20313,-1.23437 3,-1.23437 1.3125,0 2.39063,0.70312 1.07812,0.70313 1.64062,2 0.5625,1.29688 0.5625,3.75 0,2.5625 -0.5625,4.07813 -0.5625,1.51562 -1.65625,2.3125 -1.09375,0.79687 -2.57812,0.79687 -1.5625,0 -2.5625,-0.875 -0.98438,-0.875 -1.1875,-2.45312 z m 6.71875,-5.89063 q 0,-1.40625 -0.75,-2.23437 -0.75,-0.82813 -1.8125,-0.82813 -1.09375,0 -1.90625,0.89063 -0.8125,0.89062 -0.8125,2.3125 0,1.28125 0.76562,2.07812 0.78125,0.79688 1.90625,0.79688 1.14063,0 1.875,-0.79688 0.73438,-0.79687 0.73438,-2.21875 z m 4.32885,8.98438 v -1.875 h 1.875 v 1.875 z m 12.88642,-1.57813 V 123.42 h -8.82813 q -0.0156,-0.59375 0.1875,-1.14063 0.34375,-0.90625 1.07813,-1.78125 0.75,-0.875 2.15625,-2.01562 2.17187,-1.78125 2.9375,-2.82813 0.76562,-1.04687 0.76562,-1.96875 0,-0.98437 -0.70312,-1.64062 -0.6875,-0.67188 -1.8125,-0.67188 -1.1875,0 -1.90625,0.71875 -0.70313,0.70313 -0.70313,1.95313 l -1.6875,-0.17188 q 0.17188,-1.89062 1.29688,-2.875 1.14062,-0.98437 3.03125,-0.98437 1.92187,0 3.04687,1.0625 1.125,1.0625 1.125,2.64062 0,0.79688 -0.32812,1.57813 -0.32813,0.78125 -1.09375,1.64062 -0.75,0.84375 -2.53125,2.34375 -1.46875,1.23438 -1.89063,1.6875 -0.42187,0.4375 -0.6875,0.875 z m 7.55902,1.57813 v -13.35938 h 2.65625 l 3.15625,9.45313 q 0.4375,1.32812 0.64062,1.98437 0.23438,-0.73437 0.70313,-2.14062 l 3.20312,-9.29688 h 2.375 V 123.42 h -1.70312 v -11.17188 l -3.875,11.17188 h -1.59375 l -3.85938,-11.375 v 11.375 z m 15.65017,0 v -13.35938 h 1.76563 v 5.48438 h 6.9375 v -5.48438 h 1.76562 V 123.42 h -1.76562 v -6.29688 h -6.9375 V 123.42 Z m 12.33231,0 v -1.32813 l 6.15625,-7.07812 q -1.04687,0.0625 -1.84375,0.0625 h -3.9375 v -1.32813 h 7.90625 v 1.07813 l -5.25,6.14062 -1,1.125 q 1.09375,-0.0781 2.0625,-0.0781 h 4.46875 V 123.42 Z m 14.73019,-2.89063 1.625,-0.25 q 0.125,0.96875 0.75,1.5 0.625,0.51563 1.75,0.51563 1.125,0 1.67188,-0.45313 0.54687,-0.46875 0.54687,-1.09375 0,-0.54687 -0.48437,-0.875 -0.32813,-0.21875 -1.67188,-0.54687 -1.8125,-0.46875 -2.51562,-0.79688 -0.6875,-0.32812 -1.04688,-0.90625 -0.35937,-0.59375 -0.35937,-1.3125 0,-0.64062 0.29687,-1.1875 0.29688,-0.5625 0.8125,-0.92187 0.375,-0.28125 1.03125,-0.46875 0.67188,-0.20313 1.42188,-0.20313 1.14062,0 2,0.32813 0.85937,0.32812 1.26562,0.89062 0.42188,0.5625 0.57813,1.5 l -1.60938,0.21875 q -0.10937,-0.75 -0.64062,-1.17187 -0.51563,-0.42188 -1.46875,-0.42188 -1.14063,0 -1.625,0.375 -0.46875,0.375 -0.46875,0.875 0,0.3125 0.1875,0.57813 0.20312,0.26562 0.64062,0.4375 0.23438,0.0937 1.4375,0.42187 1.75,0.45313 2.4375,0.75 0.6875,0.29688 1.07813,0.85938 0.39062,0.5625 0.39062,1.40625 0,0.82812 -0.48437,1.54687 -0.46875,0.71875 -1.375,1.125 -0.90625,0.39063 -2.04688,0.39063 -1.875,0 -2.875,-0.78125 -0.98437,-0.78125 -1.25,-2.32813 z m 9.98438,2.89063 v -13.35938 h 1.64062 v 4.79688 q 1.14063,-1.32813 2.89063,-1.32813 1.07812,0 1.85937,0.42188 0.79688,0.42187 1.14063,1.17187 0.34375,0.75 0.34375,2.17188 v 6.125 h -1.64063 v -6.125 q 0,-1.23438 -0.53125,-1.79688 -0.53125,-0.5625 -1.51562,-0.5625 -0.71875,0 -1.35938,0.39063 -0.64062,0.375 -0.92187,1.01562 -0.26563,0.64063 -0.26563,1.78125 V 123.42 Z m 10.3757,-11.46875 v -1.89063 h 1.64063 v 1.89063 z m 0,11.46875 v -9.67188 h 1.64063 V 123.42 Z m 4.53546,0 v -8.40625 h -1.45312 v -1.26563 h 1.45312 v -1.03125 q 0,-0.96875 0.17188,-1.45312 0.23437,-0.64063 0.82812,-1.03125 0.59375,-0.39063 1.67188,-0.39063 0.6875,0 1.53125,0.15625 l -0.25,1.4375 q -0.5,-0.0937 -0.95313,-0.0937 -0.75,0 -1.0625,0.32813 -0.3125,0.3125 -0.3125,1.1875 v 0.89062 h 1.89063 v 1.26563 h -1.89063 v 8.4062 z m 8.37079,-1.46875 0.23438,1.45312 q -0.6875,0.14063 -1.23438,0.14063 -0.89062,0 -1.39062,-0.28125 -0.48438,-0.28125 -0.6875,-0.73438 -0.20313,-0.46875 -0.20313,-1.9375 v -5.57812 h -1.20312 v -1.26563 h 1.20312 v -2.39062 l 1.625,-0.98438 v 3.375 h 1.65625 v 1.26563 h -1.65625 v 5.67187 q 0,0.6875 0.0781,0.89063 0.0937,0.20312 0.28125,0.32812 0.20312,0.10938 0.57812,0.10938 0.26563,0 0.71875,-0.0625 z m 13.10102,-2.07813 1.60937,0.21875 q -0.26562,1.65625 -1.35937,2.60938 -1.07813,0.9375 -2.67188,0.9375 -1.98437,0 -3.1875,-1.29688 -1.20312,-1.29687 -1.20312,-3.71875 0,-1.57812 0.51562,-2.75 0.51563,-1.17187 1.57813,-1.75 1.0625,-0.59375 2.3125,-0.59375 1.57812,0 2.57812,0.79688 1,0.79687 1.28125,2.26562 l -1.59375,0.23438 q -0.23437,-0.96875 -0.8125,-1.45313 -0.57812,-0.5 -1.39062,-0.5 -1.23438,0 -2.01563,0.89063 -0.78125,0.89062 -0.78125,2.8125 0,1.95312 0.75,2.84375 0.75,0.875 1.95313,0.875 0.96875,0 1.60937,-0.59375 0.65625,-0.59375 0.82813,-1.82813 z m 2.96875,3.54688 v -13.35938 h 1.64062 V 123.42 Z m 3.5823,-4.84375 q 0,-2.6875 1.48438,-3.96875 1.25,-1.07813 3.04687,-1.07813 2,0 3.26563,1.3125 1.26562,1.29688 1.26562,3.60938 0,1.85937 -0.5625,2.9375 -0.5625,1.0625 -1.64062,1.65625 -1.0625,0.59375 -2.32813,0.59375 -2.03125,0 -3.28125,-1.29688 -1.25,-1.3125 -1.25,-3.76562 z m 1.6875,0 q 0,1.85937 0.79688,2.79687 0.8125,0.92188 2.04687,0.92188 1.21875,0 2.03125,-0.92188 0.8125,-0.9375 0.8125,-2.84375 0,-1.79687 -0.8125,-2.71875 -0.8125,-0.92187 -2.03125,-0.92187 -1.23437,0 -2.04687,0.92187 -0.79688,0.90625 -0.79688,2.76563 z m 15.61008,1.29687 1.60937,0.21875 q -0.26562,1.65625 -1.35937,2.60938 -1.07813,0.9375 -2.67188,0.9375 -1.98437,0 -3.1875,-1.29688 -1.20312,-1.29687 -1.20312,-3.71875 0,-1.57812 0.51562,-2.75 0.51563,-1.17187 1.57813,-1.75 1.0625,-0.59375 2.3125,-0.59375 1.57812,0 2.57812,0.79688 1,0.79687 1.28125,2.26562 l -1.59375,0.23438 q -0.23437,-0.96875 -0.8125,-1.45313 -0.57812,-0.5 -1.39062,-0.5 -1.23438,0 -2.01563,0.89063 -0.78125,0.89062 -0.78125,2.8125 0,1.95312 0.75,2.84375 0.75,0.875 1.95313,0.875 0.96875,0 1.60937,-0.59375 0.65625,-0.59375 0.82813,-1.82813 z m 3.01562,3.54688 v -13.35938 h 1.64063 v 7.625 l 3.89062,-3.9375 h 2.10938 l -3.6875,3.59375 4.0625,6.07813 h -2.01563 l -3.20312,-4.95313 -1.15625,1.125 V 123.42 Z"
     fill-rule="nonzero"
     id="path345" />
  <path
     fill="#000000"
     fill-opacity="0"
     d="m 168.5,238.48425 h 288 V 280.5 h -288 z"
     fill-rule="evenodd"
     id="path347" />
  <path
     fill="#000000"
     d="m 189.52391,265.40424 v -13.35937 h 9.65625 v 1.57812 h -7.875 v 4.09375 h 7.375 v 1.5625 h -7.375 v 4.54688 h 8.1875 v 1.57812 z m 11.11545,0 3.53125,-5.03125 -3.26563,-4.64062 h 2.04688 l 1.48437,2.26562 q 0.42188,0.64063 0.67188,1.07813 0.40625,-0.59375 0.73437,-1.0625 l 1.64063,-2.28125 h 1.95312 l -3.34375,4.54687 3.59375,5.125 h -2.01562 l -1.98438,-3 -0.51562,-0.8125 -2.54688,3.8125 z m 14,-1.46875 0.23437,1.45313 q -0.6875,0.14062 -1.23437,0.14062 -0.89063,0 -1.39063,-0.28125 -0.48437,-0.28125 -0.6875,-0.73437 -0.20312,-0.46875 -0.20312,-1.9375 v -5.57813 h -1.20313 v -1.26562 h 1.20313 v -2.39063 l 1.625,-0.98437 v 3.375 h 1.65625 v 1.26562 h -1.65625 v 5.67188 q 0,0.6875 0.0781,0.89062 0.0937,0.20313 0.28125,0.32813 0.20313,0.10937 0.57813,0.10937 0.26562,0 0.71875,-0.0625 z m 2.0583,1.46875 v -1.875 h 1.875 v 1.875 z m 9.25723,-2.89062 1.625,-0.25 q 0.125,0.96875 0.75,1.5 0.625,0.51562 1.75,0.51562 1.125,0 1.67188,-0.45312 0.54687,-0.46875 0.54687,-1.09375 0,-0.54688 -0.48437,-0.875 -0.32813,-0.21875 -1.67188,-0.54688 -1.8125,-0.46875 -2.51562,-0.79687 -0.6875,-0.32813 -1.04688,-0.90625 -0.35937,-0.59375 -0.35937,-1.3125 0,-0.64063 0.29687,-1.1875 0.29688,-0.5625 0.8125,-0.92188 0.375,-0.28125 1.03125,-0.46875 0.67188,-0.20312 1.42188,-0.20312 1.14062,0 2,0.32812 0.85937,0.32813 1.26562,0.89063 0.42188,0.5625 0.57813,1.5 l -1.60938,0.21875 q -0.10937,-0.75 -0.64062,-1.17188 -0.51563,-0.42187 -1.46875,-0.42187 -1.14063,0 -1.625,0.375 -0.46875,0.375 -0.46875,0.875 0,0.3125 0.1875,0.57812 0.20312,0.26563 0.64062,0.4375 0.23438,0.0937 1.4375,0.42188 1.75,0.45312 2.4375,0.75 0.6875,0.29687 1.07813,0.85937 0.39062,0.5625 0.39062,1.40625 0,0.82813 -0.48437,1.54688 -0.46875,0.71875 -1.375,1.125 -0.90625,0.39062 -2.04688,0.39062 -1.875,0 -2.875,-0.78125 -0.98437,-0.78125 -1.25,-2.32812 z m 16.29688,-0.65625 1.60937,0.21875 q -0.26562,1.65625 -1.35937,2.60937 -1.07813,0.9375 -2.67188,0.9375 -1.98437,0 -3.1875,-1.29687 -1.20312,-1.29688 -1.20312,-3.71875 0,-1.57813 0.51562,-2.75 0.51563,-1.17188 1.57813,-1.75 1.0625,-0.59375 2.3125,-0.59375 1.57812,0 2.57812,0.79687 1,0.79688 1.28125,2.26563 l -1.59375,0.23437 q -0.23437,-0.96875 -0.8125,-1.45312 -0.57812,-0.5 -1.39062,-0.5 -1.23438,0 -2.01563,0.89062 -0.78125,0.89063 -0.78125,2.8125 0,1.95313 0.75,2.84375 0.75,0.875 1.95313,0.875 0.96875,0 1.60937,-0.59375 0.65625,-0.59375 0.82813,-1.82812 z m 9.32812,2.35937 q -0.92187,0.76563 -1.76562,1.09375 -0.82813,0.3125 -1.79688,0.3125 -1.59375,0 -2.45312,-0.78125 -0.85938,-0.78125 -0.85938,-1.98437 0,-0.71875 0.32813,-1.29688 0.32812,-0.59375 0.84375,-0.9375 0.53125,-0.35937 1.1875,-0.54687 0.46875,-0.125 1.45312,-0.25 1.98438,-0.23438 2.92188,-0.5625 0.0156,-0.34375 0.0156,-0.42188 0,-1 -0.46875,-1.42187 -0.625,-0.54688 -1.875,-0.54688 -1.15625,0 -1.70312,0.40625 -0.54688,0.40625 -0.8125,1.42188 l -1.60938,-0.21875 q 0.21875,-1.01563 0.71875,-1.64063 0.5,-0.64062 1.45313,-0.98437 0.95312,-0.34375 2.1875,-0.34375 1.25,0 2.01562,0.29687 0.78125,0.28125 1.14063,0.73438 0.375,0.4375 0.51562,1.10937 0.0781,0.42188 0.0781,1.51563 v 2.1875 q 0,2.28125 0.10937,2.89062 0.10938,0.59375 0.40625,1.15625 h -1.70312 q -0.26563,-0.51562 -0.32813,-1.1875 z m -0.14062,-3.67187 q -0.89063,0.375 -2.67188,0.625 -1.01562,0.14062 -1.4375,0.32812 -0.42187,0.1875 -0.65625,0.53125 -0.21875,0.34375 -0.21875,0.78125 0,0.65625 0.5,1.09375 0.5,0.4375 1.45313,0.4375 0.9375,0 1.67187,-0.40625 0.75,-0.42187 1.09375,-1.14062 0.26563,-0.5625 0.26563,-1.64063 z m 4.20386,4.85937 v -9.67187 h 1.46875 v 1.375 q 1.0625,-1.59375 3.07812,-1.59375 0.875,0 1.60938,0.3125 0.73437,0.3125 1.09375,0.82812 0.375,0.5 0.51562,1.20313 0.0937,0.45312 0.0937,1.59375 v 5.95312 h -1.64062 v -5.89062 q 0,-1 -0.20313,-1.48438 -0.1875,-0.5 -0.67187,-0.79687 -0.48438,-0.29688 -1.14063,-0.29688 -1.04687,0 -1.8125,0.67188 -0.75,0.65625 -0.75,2.51562 v 5.28125 z m 14.94964,-4.84375 q 0,-2.6875 1.48438,-3.96875 1.25,-1.07812 3.04687,-1.07812 2,0 3.26563,1.3125 1.26562,1.29687 1.26562,3.60937 0,1.85938 -0.5625,2.9375 -0.5625,1.0625 -1.64062,1.65625 -1.0625,0.59375 -2.32813,0.59375 -2.03125,0 -3.28125,-1.29687 -1.25,-1.3125 -1.25,-3.76563 z m 1.6875,0 q 0,1.85938 0.79688,2.79688 0.8125,0.92187 2.04687,0.92187 1.21875,0 2.03125,-0.92187 0.8125,-0.9375 0.8125,-2.84375 0,-1.79688 -0.8125,-2.71875 -0.8125,-0.92188 -2.03125,-0.92188 -1.23437,0 -2.04687,0.92188 -0.79688,0.90625 -0.79688,2.76562 z m 15.62571,4.84375 v -1.42187 q -1.125,1.64062 -3.0625,1.64062 -0.85938,0 -1.60938,-0.32812 -0.73437,-0.32813 -1.09375,-0.82813 -0.35937,-0.5 -0.5,-1.21875 -0.10937,-0.46875 -0.10937,-1.53125 v -5.98437 h 1.64062 v 5.35937 q 0,1.28125 0.10938,1.73438 0.15625,0.64062 0.65625,1.01562 0.5,0.375 1.23437,0.375 0.73438,0 1.375,-0.375 0.65625,-0.39062 0.92188,-1.03125 0.26562,-0.65625 0.26562,-1.89062 v -5.1875 h 1.64063 v 9.67187 z m 7.6257,-1.46875 0.23437,1.45313 q -0.6875,0.14062 -1.23437,0.14062 -0.89063,0 -1.39063,-0.28125 -0.48437,-0.28125 -0.6875,-0.73437 -0.20312,-0.46875 -0.20312,-1.9375 v -5.57813 h -1.20313 v -1.26562 h 1.20313 v -2.39063 l 1.625,-0.98437 v 3.375 h 1.65625 v 1.26562 h -1.65625 v 5.67188 q 0,0.6875 0.0781,0.89062 0.0937,0.20313 0.28125,0.32813 0.20313,0.10937 0.57813,0.10937 0.26562,0 0.71875,-0.0625 z m 2.02707,1.46875 v -1.875 h 1.875 v 1.875 q 0,1.03125 -0.375,1.65625 -0.35938,0.64063 -1.15625,0.98438 l -0.45313,-0.70313 q 0.51563,-0.21875 0.76563,-0.67187 0.25,-0.4375 0.28125,-1.26563 z m 9.72598,-3.09375 1.57812,-0.14062 q 0.20313,1.10937 0.76563,1.60937 0.5625,0.5 1.45312,0.5 0.75,0 1.3125,-0.34375 0.57813,-0.34375 0.9375,-0.92187 0.375,-0.57813 0.60938,-1.5625 0.25,-0.98438 0.25,-2 0,-0.10938 0,-0.32813 -0.5,0.78125 -1.35938,1.26563 -0.84375,0.48437 -1.82812,0.48437 -1.67188,0 -2.8125,-1.20312 -1.14063,-1.20313 -1.14063,-3.17188 0,-2.03125 1.1875,-3.26562 1.20313,-1.23438 3,-1.23438 1.3125,0 2.39063,0.70313 1.07812,0.70312 1.64062,2 0.5625,1.29687 0.5625,3.75 0,2.5625 -0.5625,4.07812 -0.5625,1.51563 -1.65625,2.3125 -1.09375,0.79688 -2.57812,0.79688 -1.5625,0 -2.5625,-0.875 -0.98438,-0.875 -1.1875,-2.45313 z m 6.71875,-5.89062 q 0,-1.40625 -0.75,-2.23438 -0.75,-0.82812 -1.8125,-0.82812 -1.09375,0 -1.90625,0.89062 -0.8125,0.89063 -0.8125,2.3125 0,1.28125 0.76562,2.07813 0.78125,0.79687 1.90625,0.79687 1.14063,0 1.875,-0.79687 0.73438,-0.79688 0.73438,-2.21875 z m 4.29761,8.98437 v -1.875 h 1.875 v 1.875 q 0,1.03125 -0.375,1.65625 -0.35938,0.64063 -1.15625,0.98438 l -0.45313,-0.70313 q 0.51563,-0.21875 0.76563,-0.67187 0.25,-0.4375 0.28125,-1.26563 z m 12.80829,-10.07812 -1.625,0.125 q -0.21875,-0.96875 -0.625,-1.40625 -0.65625,-0.70313 -1.64063,-0.70313 -0.78125,0 -1.375,0.4375 -0.76562,0.5625 -1.21875,1.65625 -0.45312,1.07813 -0.46875,3.07813 0.59375,-0.89063 1.45313,-1.32813 0.85937,-0.4375 1.79687,-0.4375 1.64063,0 2.78125,1.20313 1.15625,1.20312 1.15625,3.10937 0,1.26563 -0.54687,2.34375 -0.53125,1.07813 -1.48438,1.65625 -0.9375,0.57813 -2.14062,0.57813 -2.0625,0 -3.35938,-1.5 -1.28125,-1.51563 -1.28125,-4.98438 0,-3.875 1.42188,-5.625 1.25,-1.53125 3.375,-1.53125 1.5625,0 2.5625,0.89063 1.01562,0.875 1.21875,2.4375 z m -6.6875,5.75 q 0,0.84375 0.35937,1.625 0.35938,0.76562 1,1.17187 0.64063,0.40625 1.35938,0.40625 1.03125,0 1.78125,-0.82812 0.75,-0.84375 0.75,-2.28125 0,-1.39063 -0.73438,-2.1875 -0.73437,-0.79688 -1.85937,-0.79688 -1.10938,0 -1.89063,0.79688 -0.76562,0.79687 -0.76562,2.09375 z m 8.56323,-2.26563 q 0,-2.35937 0.48437,-3.79687 0.48438,-1.45313 1.4375,-2.23438 0.96875,-0.78125 2.42188,-0.78125 1.07812,0 1.89062,0.4375 0.8125,0.42188 1.32813,1.25 0.53125,0.8125 0.82812,1.98438 0.3125,1.15625 0.3125,3.14062 0,2.35938 -0.48437,3.8125 -0.48438,1.4375 -1.45313,2.23438 -0.95312,0.78125 -2.42187,0.78125 -1.92188,0 -3.03125,-1.39063 -1.3125,-1.67187 -1.3125,-5.4375 z m 1.67187,0 q 0,3.29688 0.76563,4.39063 0.78125,1.07812 1.90625,1.07812 1.14062,0 1.90625,-1.09375 0.76562,-1.09375 0.76562,-4.375 0,-3.29687 -0.76562,-4.375 -0.76563,-1.07812 -1.92188,-1.07812 -1.125,0 -1.79687,0.95312 -0.85938,1.21875 -0.85938,4.5 z m 8.70383,0 q 0,-2.35937 0.48437,-3.79687 0.48438,-1.45313 1.4375,-2.23438 0.96875,-0.78125 2.42188,-0.78125 1.07812,0 1.89062,0.4375 0.8125,0.42188 1.32813,1.25 0.53125,0.8125 0.82812,1.98438 0.3125,1.15625 0.3125,3.14062 0,2.35938 -0.48437,3.8125 -0.48438,1.4375 -1.45313,2.23438 -0.95312,0.78125 -2.42187,0.78125 -1.92188,0 -3.03125,-1.39063 -1.3125,-1.67187 -1.3125,-5.4375 z m 1.67187,0 q 0,3.29688 0.76563,4.39063 0.78125,1.07812 1.90625,1.07812 1.14062,0 1.90625,-1.09375 0.76562,-1.09375 0.76562,-4.375 0,-3.29687 -0.76562,-4.375 -0.76563,-1.07812 -1.92188,-1.07812 -1.125,0 -1.79687,0.95312 -0.85938,1.21875 -0.85938,4.5 z m 15.84028,6.59375 h -1.51563 v -13.35937 h 1.64063 v 4.76562 q 1.04687,-1.29687 2.65625,-1.29687 0.89062,0 1.6875,0.35937 0.79687,0.35938 1.3125,1.01563 0.51562,0.64062 0.79687,1.5625 0.29688,0.92187 0.29688,1.96875 0,2.48437 -1.23438,3.84375 -1.21875,1.35937 -2.95312,1.35937 -1.70313,0 -2.6875,-1.4375 z m -0.0156,-4.90625 q 0,1.73438 0.48438,2.51563 0.76562,1.26562 2.09375,1.26562 1.07812,0 1.85937,-0.9375 0.78125,-0.9375 0.78125,-2.78125 0,-1.89062 -0.75,-2.79687 -0.75,-0.90625 -1.82812,-0.90625 -1.0625,0 -1.85938,0.9375 -0.78125,0.9375 -0.78125,2.70312 z m 8.8132,8.625 -0.1875,-1.53125 q 0.54688,0.14063 0.9375,0.14063 0.54688,0 0.875,-0.1875 0.32813,-0.17188 0.54688,-0.5 0.15625,-0.25 0.5,-1.21875 0.0469,-0.14063 0.14062,-0.40625 l -3.67187,-9.6875 h 1.76562 l 2.01563,5.59375 q 0.39062,1.07812 0.70312,2.25 0.28125,-1.125 0.67188,-2.20313 l 2.07812,-5.64062 h 1.64063 l -3.6875,9.82812 q -0.59375,1.60938 -0.92188,2.20313 -0.4375,0.8125 -1,1.1875 -0.5625,0.375 -1.34375,0.375 -0.48437,0 -1.0625,-0.20313 z m 12.98438,-5.1875 0.23437,1.45313 q -0.6875,0.14062 -1.23437,0.14062 -0.89063,0 -1.39063,-0.28125 -0.48437,-0.28125 -0.6875,-0.73437 -0.20312,-0.46875 -0.20312,-1.9375 v -5.57813 h -1.20313 v -1.26562 h 1.20313 v -2.39063 l 1.625,-0.98437 v 3.375 h 1.65625 v 1.26562 h -1.65625 v 5.67188 q 0,0.6875 0.0781,0.89062 0.0937,0.20313 0.28125,0.32813 0.20313,0.10937 0.57813,0.10937 0.26562,0 0.71875,-0.0625 z m 8.23019,-1.64062 1.6875,0.20312 q -0.40625,1.48438 -1.48437,2.3125 -1.07813,0.8125 -2.76563,0.8125 -2.125,0 -3.375,-1.29687 -1.23437,-1.3125 -1.23437,-3.67188 0,-2.45312 1.25,-3.79687 1.26562,-1.34375 3.26562,-1.34375 1.9375,0 3.15625,1.32812 1.23438,1.3125 1.23438,3.70313 0,0.15625 0,0.4375 h -7.21875 q 0.0937,1.59375 0.90625,2.45312 0.8125,0.84375 2.01562,0.84375 0.90625,0 1.54688,-0.46875 0.64062,-0.48437 1.01562,-1.51562 z m -5.39062,-2.65625 h 5.40625 q -0.10938,-1.21875 -0.625,-1.82813 -0.78125,-0.95312 -2.03125,-0.95312 -1.125,0 -1.90625,0.76562 -0.76563,0.75 -0.84375,2.01563 z m 8.48507,2.875 1.625,-0.25 q 0.125,0.96875 0.75,1.5 0.625,0.51562 1.75,0.51562 1.125,0 1.67188,-0.45312 0.54687,-0.46875 0.54687,-1.09375 0,-0.54688 -0.48437,-0.875 -0.32813,-0.21875 -1.67188,-0.54688 -1.8125,-0.46875 -2.51562,-0.79687 -0.6875,-0.32813 -1.04688,-0.90625 -0.35937,-0.59375 -0.35937,-1.3125 0,-0.64063 0.29687,-1.1875 0.29688,-0.5625 0.8125,-0.92188 0.375,-0.28125 1.03125,-0.46875 0.67188,-0.20312 1.42188,-0.20312 1.14062,0 2,0.32812 0.85937,0.32813 1.26562,0.89063 0.42188,0.5625 0.57813,1.5 l -1.60938,0.21875 q -0.10937,-0.75 -0.64062,-1.17188 -0.51563,-0.42187 -1.46875,-0.42187 -1.14063,0 -1.625,0.375 -0.46875,0.375 -0.46875,0.875 0,0.3125 0.1875,0.57812 0.20312,0.26563 0.64062,0.4375 0.23438,0.0937 1.4375,0.42188 1.75,0.45312 2.4375,0.75 0.6875,0.29687 1.07813,0.85937 0.39062,0.5625 0.39062,1.40625 0,0.82813 -0.48437,1.54688 -0.46875,0.71875 -1.375,1.125 -0.90625,0.39062 -2.04688,0.39062 -1.875,0 -2.875,-0.78125 -0.98437,-0.78125 -1.25,-2.32812 z m 8.75,3.125 3.875,-13.8125 h 1.3125 l -3.85937,13.8125 z m 5.76145,-3.125 1.625,-0.25 q 0.125,0.96875 0.75,1.5 0.625,0.51562 1.75,0.51562 1.125,0 1.67187,-0.45312 0.54688,-0.46875 0.54688,-1.09375 0,-0.54688 -0.48438,-0.875 -0.32812,-0.21875 -1.67187,-0.54688 -1.8125,-0.46875 -2.51563,-0.79687 -0.6875,-0.32813 -1.04687,-0.90625 -0.35938,-0.59375 -0.35938,-1.3125 0,-0.64063 0.29688,-1.1875 0.29687,-0.5625 0.8125,-0.92188 0.375,-0.28125 1.03125,-0.46875 0.67187,-0.20312 1.42187,-0.20312 1.14063,0 2,0.32812 0.85938,0.32813 1.26563,0.89063 0.42187,0.5625 0.57812,1.5 l -1.60937,0.21875 q -0.10938,-0.75 -0.64063,-1.17188 -0.51562,-0.42187 -1.46875,-0.42187 -1.14062,0 -1.625,0.375 -0.46875,0.375 -0.46875,0.875 0,0.3125 0.1875,0.57812 0.20313,0.26563 0.64063,0.4375 0.23437,0.0937 1.4375,0.42188 1.75,0.45312 2.4375,0.75 0.6875,0.29687 1.07812,0.85937 0.39063,0.5625 0.39063,1.40625 0,0.82813 -0.48438,1.54688 -0.46875,0.71875 -1.375,1.125 -0.90625,0.39062 -2.04687,0.39062 -1.875,0 -2.875,-0.78125 -0.98438,-0.78125 -1.25,-2.32812 z m 16.60937,-0.21875 1.6875,0.20312 q -0.40625,1.48438 -1.48437,2.3125 -1.07813,0.8125 -2.76563,0.8125 -2.125,0 -3.375,-1.29687 -1.23437,-1.3125 -1.23437,-3.67188 0,-2.45312 1.25,-3.79687 1.26562,-1.34375 3.26562,-1.34375 1.9375,0 3.15625,1.32812 1.23438,1.3125 1.23438,3.70313 0,0.15625 0,0.4375 H 419.616 q 0.0937,1.59375 0.90625,2.45312 0.8125,0.84375 2.01562,0.84375 0.90625,0 1.54688,-0.46875 0.64062,-0.48437 1.01562,-1.51562 z m -5.39062,-2.65625 h 5.40625 q -0.10938,-1.21875 -0.625,-1.82813 -0.78125,-0.95312 -2.03125,-0.95312 -1.125,0 -1.90625,0.76562 -0.76563,0.75 -0.84375,2.01563 z m 15.45382,2.21875 1.60938,0.21875 q -0.26563,1.65625 -1.35938,2.60937 -1.07812,0.9375 -2.67187,0.9375 -1.98438,0 -3.1875,-1.29687 -1.20313,-1.29688 -1.20313,-3.71875 0,-1.57813 0.51563,-2.75 0.51562,-1.17188 1.57812,-1.75 1.0625,-0.59375 2.3125,-0.59375 1.57813,0 2.57813,0.79687 1,0.79688 1.28125,2.26563 l -1.59375,0.23437 q -0.23438,-0.96875 -0.8125,-1.45312 -0.57813,-0.5 -1.39063,-0.5 -1.23437,0 -2.01562,0.89062 -0.78125,0.89063 -0.78125,2.8125 0,1.95313 0.75,2.84375 0.75,0.875 1.95312,0.875 0.96875,0 1.60938,-0.59375 0.65625,-0.59375 0.82812,-1.82812 z"
     fill-rule="nonzero"
     id="path349" />
  <path
     fill="#000000"
     fill-opacity="0"
     d="m 264.5,168.5 h 192 v 42.01575 h -192 z"
     fill-rule="evenodd"
     id="path351" />
  <path
     fill="#000000"
     d="m 287.9598,193.84187 v 1.57812 h -8.82813 q -0.0156,-0.59375 0.1875,-1.14062 0.34375,-0.90625 1.07813,-1.78125 0.75,-0.875 2.15625,-2.01563 2.17187,-1.78125 2.9375,-2.82812 0.76562,-1.04688 0.76562,-1.96875 0,-0.98438 -0.70312,-1.64063 -0.6875,-0.67187 -1.8125,-0.67187 -1.1875,0 -1.90625,0.71875 -0.70313,0.70312 -0.70313,1.95312 l -1.6875,-0.17187 q 0.17188,-1.89063 1.29688,-2.875 1.14062,-0.98438 3.03125,-0.98438 1.92187,0 3.04687,1.0625 1.125,1.0625 1.125,2.64063 0,0.79687 -0.32812,1.57812 -0.32813,0.78125 -1.09375,1.64063 -0.75,0.84375 -2.53125,2.34375 -1.46875,1.23437 -1.89063,1.6875 -0.42187,0.4375 -0.6875,0.875 z m 2.64133,1.57812 v -1.875 h 1.875 v 1.875 q 0,1.03125 -0.375,1.65625 -0.35938,0.64063 -1.15625,0.98438 l -0.45313,-0.70313 q 0.51563,-0.21875 0.76563,-0.67187 0.25,-0.4375 0.28125,-1.26563 z m 4.30832,-6.59375 q 0,-2.35937 0.48437,-3.79687 0.48438,-1.45313 1.4375,-2.23438 0.96875,-0.78125 2.42188,-0.78125 1.07812,0 1.89062,0.4375 0.8125,0.42188 1.32813,1.25 0.53125,0.8125 0.82812,1.98438 0.3125,1.15625 0.3125,3.14062 0,2.35938 -0.48437,3.8125 -0.48438,1.4375 -1.45313,2.23438 -0.95312,0.78125 -2.42187,0.78125 -1.92188,0 -3.03125,-1.39063 -1.3125,-1.67187 -1.3125,-5.4375 z m 1.67187,0 q 0,3.29688 0.76563,4.39063 0.78125,1.07812 1.90625,1.07812 1.14062,0 1.90625,-1.09375 0.76562,-1.09375 0.76562,-4.375 0,-3.29687 -0.76562,-4.375 -0.76563,-1.07812 -1.92188,-1.07812 -1.125,0 -1.79687,0.95312 -0.85938,1.21875 -0.85938,4.5 z m 8.70383,0 q 0,-2.35937 0.48437,-3.79687 0.48438,-1.45313 1.4375,-2.23438 0.96875,-0.78125 2.42188,-0.78125 1.07812,0 1.89062,0.4375 0.8125,0.42188 1.32813,1.25 0.53125,0.8125 0.82812,1.98438 0.3125,1.15625 0.3125,3.14062 0,2.35938 -0.48437,3.8125 -0.48438,1.4375 -1.45313,2.23438 -0.95312,0.78125 -2.42187,0.78125 -1.92188,0 -3.03125,-1.39063 -1.3125,-1.67187 -1.3125,-5.4375 z m 1.67187,0 q 0,3.29688 0.76563,4.39063 0.78125,1.07812 1.90625,1.07812 1.14062,0 1.90625,-1.09375 0.76562,-1.09375 0.76562,-4.375 0,-3.29687 -0.76562,-4.375 -0.76563,-1.07812 -1.92188,-1.07812 -1.125,0 -1.79687,0.95312 -0.85938,1.21875 -0.85938,4.5 z m 8.70386,0 q 0,-2.35937 0.48437,-3.79687 0.48438,-1.45313 1.4375,-2.23438 0.96875,-0.78125 2.42188,-0.78125 1.07812,0 1.89062,0.4375 0.8125,0.42188 1.32813,1.25 0.53125,0.8125 0.82812,1.98438 0.3125,1.15625 0.3125,3.14062 0,2.35938 -0.48437,3.8125 -0.48438,1.4375 -1.45313,2.23438 -0.95312,0.78125 -2.42187,0.78125 -1.92188,0 -3.03125,-1.39063 -1.3125,-1.67187 -1.3125,-5.4375 z m 1.67187,0 q 0,3.29688 0.76563,4.39063 0.78125,1.07812 1.90625,1.07812 1.14062,0 1.90625,-1.09375 0.76562,-1.09375 0.76562,-4.375 0,-3.29687 -0.76562,-4.375 -0.76563,-1.07812 -1.92188,-1.07812 -1.125,0 -1.79687,0.95312 -0.85938,1.21875 -0.85938,4.5 z m 14.32465,6.59375 v -9.67187 h 1.46875 v 1.46875 q 0.5625,-1.03125 1.03125,-1.35938 0.48438,-0.32812 1.0625,-0.32812 0.82813,0 1.6875,0.53125 l -0.5625,1.51562 q -0.60937,-0.35937 -1.20312,-0.35937 -0.54688,0 -0.96875,0.32812 -0.42188,0.32813 -0.60938,0.89063 -0.28125,0.875 -0.28125,1.92187 v 5.0625 z m 12.8533,-3.10937 1.6875,0.20312 q -0.40625,1.48438 -1.48437,2.3125 -1.07813,0.8125 -2.76563,0.8125 -2.125,0 -3.375,-1.29687 -1.23437,-1.3125 -1.23437,-3.67188 0,-2.45312 1.25,-3.79687 1.26562,-1.34375 3.26562,-1.34375 1.9375,0 3.15625,1.32812 1.23438,1.3125 1.23438,3.70313 0,0.15625 0,0.4375 h -7.21875 q 0.0937,1.59375 0.90625,2.45312 0.8125,0.84375 2.01562,0.84375 0.90625,0 1.54688,-0.46875 0.64062,-0.48437 1.01562,-1.51562 z m -5.39062,-2.65625 h 5.40625 q -0.10938,-1.21875 -0.625,-1.82813 -0.78125,-0.95312 -2.03125,-0.95312 -1.125,0 -1.90625,0.76562 -0.76563,0.75 -0.84375,2.01563 z m 8.82882,6.5625 1.59375,0.23437 q 0.10938,0.75 0.5625,1.07813 0.60938,0.45312 1.67188,0.45312 1.14062,0 1.75,-0.45312 0.625,-0.45313 0.84375,-1.26563 0.125,-0.5 0.10937,-2.10937 -1.0625,1.26562 -2.67187,1.26562 -2,0 -3.09375,-1.4375 -1.09375,-1.4375 -1.09375,-3.45312 0,-1.39063 0.5,-2.5625 0.51562,-1.17188 1.45312,-1.79688 0.95313,-0.64062 2.25,-0.64062 1.70313,0 2.8125,1.375 v -1.15625 h 1.51563 v 8.35937 q 0,2.26563 -0.46875,3.20313 -0.45313,0.9375 -1.45313,1.48437 -0.98437,0.54688 -2.45312,0.54688 -1.71875,0 -2.79688,-0.78125 -1.0625,-0.76563 -1.03125,-2.34375 z m 1.35938,-5.8125 q 0,1.90625 0.75,2.78125 0.76562,0.875 1.90625,0.875 1.125,0 1.89062,-0.85938 0.76563,-0.875 0.76563,-2.73437 0,-1.78125 -0.79688,-2.67188 -0.78125,-0.90625 -1.89062,-0.90625 -1.09375,0 -1.85938,0.89063 -0.76562,0.875 -0.76562,2.625 z m 9.32886,-6.45313 v -1.89062 h 1.64062 v 1.89062 z m 0,11.46875 v -9.67187 h 1.64062 v 9.67187 z m 3.48858,-2.89062 1.625,-0.25 q 0.125,0.96875 0.75,1.5 0.625,0.51562 1.75,0.51562 1.125,0 1.67188,-0.45312 0.54687,-0.46875 0.54687,-1.09375 0,-0.54688 -0.48437,-0.875 -0.32813,-0.21875 -1.67188,-0.54688 -1.8125,-0.46875 -2.51562,-0.79687 -0.6875,-0.32813 -1.04688,-0.90625 -0.35937,-0.59375 -0.35937,-1.3125 0,-0.64063 0.29687,-1.1875 0.29688,-0.5625 0.8125,-0.92188 0.375,-0.28125 1.03125,-0.46875 0.67188,-0.20312 1.42188,-0.20312 1.14062,0 2,0.32812 0.85937,0.32813 1.26562,0.89063 0.42188,0.5625 0.57813,1.5 l -1.60938,0.21875 q -0.10937,-0.75 -0.64062,-1.17188 -0.51563,-0.42187 -1.46875,-0.42187 -1.14063,0 -1.625,0.375 -0.46875,0.375 -0.46875,0.875 0,0.3125 0.1875,0.57812 0.20312,0.26563 0.64062,0.4375 0.23438,0.0937 1.4375,0.42188 1.75,0.45312 2.4375,0.75 0.6875,0.29687 1.07813,0.85937 0.39062,0.5625 0.39062,1.40625 0,0.82813 -0.48437,1.54688 -0.46875,0.71875 -1.375,1.125 -0.90625,0.39062 -2.04688,0.39062 -1.875,0 -2.875,-0.78125 -0.98437,-0.78125 -1.25,-2.32812 z m 13.5625,1.42187 0.23438,1.45313 q -0.6875,0.14062 -1.23438,0.14062 -0.89062,0 -1.39062,-0.28125 -0.48438,-0.28125 -0.6875,-0.73437 -0.20313,-0.46875 -0.20313,-1.9375 v -5.57813 h -1.20312 v -1.26562 h 1.20312 v -2.39063 l 1.625,-0.98437 v 3.375 h 1.65625 v 1.26562 h -1.65625 v 5.67188 q 0,0.6875 0.0781,0.89062 0.0937,0.20313 0.28125,0.32813 0.20312,0.10937 0.57812,0.10937 0.26563,0 0.71875,-0.0625 z m 8.23017,-1.64062 1.6875,0.20312 q -0.40625,1.48438 -1.48438,2.3125 -1.07812,0.8125 -2.76562,0.8125 -2.125,0 -3.375,-1.29687 -1.23438,-1.3125 -1.23438,-3.67188 0,-2.45312 1.25,-3.79687 1.26563,-1.34375 3.26563,-1.34375 1.9375,0 3.15625,1.32812 1.23437,1.3125 1.23437,3.70313 0,0.15625 0,0.4375 h -7.21875 q 0.0937,1.59375 0.90625,2.45312 0.8125,0.84375 2.01563,0.84375 0.90625,0 1.54687,-0.46875 0.64063,-0.48437 1.01563,-1.51562 z m -5.39063,-2.65625 h 5.40625 q -0.10937,-1.21875 -0.625,-1.82813 -0.78125,-0.95312 -2.03125,-0.95312 -1.125,0 -1.90625,0.76562 -0.76562,0.75 -0.84375,2.01563 z m 9.12573,5.76562 v -9.67187 h 1.46875 v 1.46875 q 0.5625,-1.03125 1.03125,-1.35938 0.48438,-0.32812 1.0625,-0.32812 0.82813,0 1.6875,0.53125 l -0.5625,1.51562 q -0.60937,-0.35937 -1.20312,-0.35937 -0.54688,0 -0.96875,0.32812 -0.42188,0.32813 -0.60938,0.89063 -0.28125,0.875 -0.28125,1.92187 v 5.0625 z m 17.72409,-3.54687 1.60938,0.21875 q -0.26563,1.65625 -1.35938,2.60937 -1.07812,0.9375 -2.67187,0.9375 -1.98438,0 -3.1875,-1.29687 -1.20313,-1.29688 -1.20313,-3.71875 0,-1.57813 0.51563,-2.75 0.51562,-1.17188 1.57812,-1.75 1.0625,-0.59375 2.3125,-0.59375 1.57813,0 2.57813,0.79687 1,0.79688 1.28125,2.26563 l -1.59375,0.23437 q -0.23438,-0.96875 -0.8125,-1.45312 -0.57813,-0.5 -1.39063,-0.5 -1.23437,0 -2.01562,0.89062 -0.78125,0.89063 -0.78125,2.8125 0,1.95313 0.75,2.84375 0.75,0.875 1.95312,0.875 0.96875,0 1.60938,-0.59375 0.65625,-0.59375 0.82812,-1.82812 z m 3.01563,3.54687 v -13.35937 h 1.64062 v 4.79687 q 1.14063,-1.32812 2.89063,-1.32812 1.07812,0 1.85937,0.42187 0.79688,0.42188 1.14063,1.17188 0.34375,0.75 0.34375,2.17187 v 6.125 h -1.64063 v -6.125 q 0,-1.23437 -0.53125,-1.79687 -0.53125,-0.5625 -1.51562,-0.5625 -0.71875,0 -1.35938,0.39062 -0.64062,0.375 -0.92187,1.01563 -0.26563,0.64062 -0.26563,1.78125 v 5.29687 z m 16.6882,-1.1875 q -0.92187,0.76563 -1.76562,1.09375 -0.82813,0.3125 -1.79688,0.3125 -1.59375,0 -2.45312,-0.78125 -0.85938,-0.78125 -0.85938,-1.98437 0,-0.71875 0.32813,-1.29688 0.32812,-0.59375 0.84375,-0.9375 0.53125,-0.35937 1.1875,-0.54687 0.46875,-0.125 1.45312,-0.25 1.98438,-0.23438 2.92188,-0.5625 0.0156,-0.34375 0.0156,-0.42188 0,-1 -0.46875,-1.42187 -0.625,-0.54688 -1.875,-0.54688 -1.15625,0 -1.70312,0.40625 -0.54688,0.40625 -0.8125,1.42188 l -1.60938,-0.21875 q 0.21875,-1.01563 0.71875,-1.64063 0.5,-0.64062 1.45313,-0.98437 0.95312,-0.34375 2.1875,-0.34375 1.25,0 2.01562,0.29687 0.78125,0.28125 1.14063,0.73438 0.375,0.4375 0.51562,1.10937 0.0781,0.42188 0.0781,1.51563 v 2.1875 q 0,2.28125 0.10937,2.89062 0.10938,0.59375 0.40625,1.15625 h -1.70312 q -0.26563,-0.51562 -0.32813,-1.1875 z m -0.14062,-3.67187 q -0.89063,0.375 -2.67188,0.625 -1.01562,0.14062 -1.4375,0.32812 -0.42187,0.1875 -0.65625,0.53125 -0.21875,0.34375 -0.21875,0.78125 0,0.65625 0.5,1.09375 0.5,0.4375 1.45313,0.4375 0.9375,0 1.67187,-0.40625 0.75,-0.42187 1.09375,-1.14062 0.26563,-0.5625 0.26563,-1.64063 z m 4.20385,-6.60938 v -1.89062 h 1.64063 v 1.89062 z m 0,11.46875 v -9.67187 h 1.64063 v 9.67187 z m 4.14484,0 v -9.67187 h 1.46875 v 1.375 q 1.0625,-1.59375 3.07813,-1.59375 0.875,0 1.60937,0.3125 0.73438,0.3125 1.09375,0.82812 0.375,0.5 0.51563,1.20313 0.0937,0.45312 0.0937,1.59375 v 5.95312 h -1.64063 v -5.89062 q 0,-1 -0.20312,-1.48438 -0.1875,-0.5 -0.67188,-0.79687 -0.48437,-0.29688 -1.14062,-0.29688 -1.04688,0 -1.8125,0.67188 -0.75,0.65625 -0.75,2.51562 v 5.28125 z"
     fill-rule="nonzero"
     id="path353" />
</svg>
