<?xml version="1.0" encoding="UTF-8" standalone="no"?>
<svg
   version="1.1"
   viewBox="0 0 874.4173 408.99997"
   fill="none"
   stroke="none"
   stroke-linecap="square"
   stroke-miterlimit="10"
   id="svg616"
   sodipodi:docname="tt03_caravel.svg"
   width="874.4173"
   height="408.99997"
   inkscape:version="1.2 (dc2aedaf03, 2022-05-15)"
   xmlns:inkscape="http://www.inkscape.org/namespaces/inkscape"
   xmlns:sodipodi="http://sodipodi.sourceforge.net/DTD/sodipodi-0.dtd"
   xmlns="http://www.w3.org/2000/svg"
   xmlns:svg="http://www.w3.org/2000/svg">
  <defs
     id="defs620" />
  <sodipodi:namedview
     id="namedview618"
     pagecolor="#ffffff"
     bordercolor="#000000"
     borderopacity="0.25"
     inkscape:showpageshadow="2"
     inkscape:pageopacity="0.0"
     inkscape:pagecheckerboard="0"
     inkscape:deskcolor="#d1d1d1"
     showgrid="false"
     inkscape:zoom="1.0503472"
     inkscape:cx="505.54711"
     inkscape:cy="320.84628"
     inkscape:window-width="2560"
     inkscape:window-height="1369"
     inkscape:window-x="-8"
     inkscape:window-y="-8"
     inkscape:window-maximized="1"
     inkscape:current-layer="svg616" />
  <path
     fill="#efefef"
     d="m 529.91732,104.5 h 288 v 96 h -288 z"
     fill-rule="evenodd"
     id="path442" />
  <path
     stroke="#000000"
     stroke-width="1"
     stroke-linejoin="round"
     stroke-linecap="butt"
     d="m 529.91732,104.5 h 288 v 96 h -288 z"
     fill-rule="evenodd"
     id="path444" />
  <path
     fill="#efefef"
     d="m 521.91732,96.5 h 288 v 96 h -288 z"
     fill-rule="evenodd"
     id="path446" />
  <path
     stroke="#000000"
     stroke-width="1"
     stroke-linejoin="round"
     stroke-linecap="butt"
     d="m 521.91732,96.5 h 288 v 96 h -288 z"
     fill-rule="evenodd"
     id="path448" />
  <path
     fill="#efefef"
     d="m 513.91732,88.5 h 288 v 96 h -288 z"
     fill-rule="evenodd"
     id="path450" />
  <path
     stroke="#000000"
     stroke-width="1"
     stroke-linejoin="round"
     stroke-linecap="butt"
     d="m 513.91732,88.5 h 288 v 96 h -288 z"
     fill-rule="evenodd"
     id="path452" />
  <path
     fill="#000000"
     fill-opacity="0"
     d="m 0.5,68.50136 v 0 C 0.5,30.94525 30.94524,0.5 68.50135,0.5 h 737.4146 c 18.03509,0 35.33148,7.16441 48.08423,19.91714 12.75269,12.75272 19.91711,30.04914 19.91711,48.08422 v 271.99725 c 0,37.55612 -30.44525,68.00137 -68.00134,68.00137 H 68.50135 c -37.5561,0 -68.001346,-30.44525 -68.001346,-68.00137 z"
     fill-rule="evenodd"
     id="path454" />
  <path
     stroke="#000000"
     stroke-width="1"
     stroke-linejoin="round"
     stroke-linecap="butt"
     d="m 0.5,68.50136 v 0 C 0.5,30.94525 30.94524,0.5 68.50135,0.5 h 737.4146 c 18.03509,0 35.33148,7.16441 48.08423,19.91714 12.75269,12.75272 19.91711,30.04914 19.91711,48.08422 v 271.99725 c 0,37.55612 -30.44525,68.00137 -68.00134,68.00137 H 68.50135 c -37.5561,0 -68.001346,-30.44525 -68.001346,-68.00137 z"
     fill-rule="evenodd"
     id="path456" />
  <path
     fill="#000000"
     d="m 373.1459,42.43066 2.60938,0.82812 q -0.59375,2.1875 -2,3.25 -1.39063,1.0625 -3.54688,1.0625 -2.65625,0 -4.375,-1.8125 -1.70312,-1.82812 -1.70312,-4.98437 0,-3.32813 1.71875,-5.17188 1.71875,-1.84375 4.51562,-1.84375 2.45313,0 3.98438,1.4375 0.92187,0.85938 1.375,2.46875 l -2.67188,0.64063 q -0.23437,-1.04688 -0.98437,-1.64063 -0.75,-0.60937 -1.82813,-0.60937 -1.48437,0 -2.42187,1.07812 -0.92188,1.0625 -0.92188,3.4375 0,2.53125 0.90625,3.60938 0.92188,1.07812 2.375,1.07812 1.07813,0 1.84375,-0.67187 0.78125,-0.6875 1.125,-2.15625 z m 6.81668,-1.8125 -2.32812,-0.42188 q 0.40625,-1.40625 1.35937,-2.07812 0.95313,-0.67188 2.84375,-0.67188 1.70313,0 2.54688,0.40625 0.84375,0.40625 1.17187,1.03125 0.34375,0.625 0.34375,2.28125 l -0.0156,3 q 0,1.26563 0.10937,1.875 0.125,0.60938 0.46875,1.29688 h -2.53125 q -0.10937,-0.25 -0.25,-0.75 -0.0625,-0.23438 -0.0937,-0.3125 -0.65625,0.64062 -1.40625,0.96875 -0.73437,0.3125 -1.59375,0.3125 -1.48437,0 -2.34375,-0.8125 -0.85937,-0.8125 -0.85937,-2.04688 0,-0.82812 0.39062,-1.46875 0.39063,-0.64062 1.09375,-0.96875 0.70313,-0.34375 2.03125,-0.60937 1.79688,-0.32813 2.48438,-0.625 v -0.25 q 0,-0.75 -0.35938,-1.0625 -0.35937,-0.3125 -1.375,-0.3125 -0.6875,0 -1.07812,0.28125 -0.375,0.26562 -0.60938,0.9375 z m 3.42188,2.07812 q -0.48438,0.15625 -1.5625,0.39063 -1.0625,0.21875 -1.39063,0.4375 -0.5,0.35937 -0.5,0.90625 0,0.53125 0.40625,0.9375 0.40625,0.39062 1.01563,0.39062 0.70312,0 1.32812,-0.46875 0.46875,-0.34375 0.60938,-0.84375 0.0937,-0.32812 0.0937,-1.25 z m 7.50073,4.64063 h -2.5625 v -9.67188 h 2.375 v 1.375 q 0.60937,-0.98437 1.09375,-1.28125 0.48437,-0.3125 1.10937,-0.3125 0.875,0 1.6875,0.48438 l -0.79687,2.23437 q -0.64063,-0.42187 -1.20313,-0.42187 -0.53125,0 -0.90625,0.29687 -0.375,0.29688 -0.59375,1.07813 -0.20312,0.76562 -0.20312,3.23437 z m 6.71338,-6.71875 -2.32813,-0.42188 q 0.40625,-1.40625 1.35938,-2.07812 0.95312,-0.67188 2.84375,-0.67188 1.70312,0 2.54687,0.40625 0.84375,0.40625 1.17188,1.03125 0.34375,0.625 0.34375,2.28125 l -0.0156,3 q 0,1.26563 0.10938,1.875 0.125,0.60938 0.46875,1.29688 h -2.53128 q -0.10938,-0.25 -0.25,-0.75 -0.0625,-0.23438 -0.0937,-0.3125 -0.65625,0.64062 -1.40625,0.96875 -0.73438,0.3125 -1.59375,0.3125 -1.48438,0 -2.34375,-0.8125 -0.85938,-0.8125 -0.85938,-2.04688 0,-0.82812 0.39063,-1.46875 0.39062,-0.64062 1.09375,-0.96875 0.70312,-0.34375 2.03125,-0.60937 1.79687,-0.32813 2.48437,-0.625 v -0.25 q 0,-0.75 -0.35937,-1.0625 -0.35938,-0.3125 -1.375,-0.3125 -0.6875,0 -1.07813,0.28125 -0.375,0.26562 -0.60937,0.9375 z m 3.42187,2.07812 q -0.48437,0.15625 -1.5625,0.39063 -1.0625,0.21875 -1.39062,0.4375 -0.5,0.35937 -0.5,0.90625 0,0.53125 0.40625,0.9375 0.40625,0.39062 1.01562,0.39062 0.70313,0 1.32813,-0.46875 0.46875,-0.34375 0.60937,-0.84375 0.0937,-0.32812 0.0937,-1.25 z m 7.70386,4.64063 -3.90625,-9.67188 h 2.6875 l 1.82812,4.9375 0.53125,1.64063 q 0.20313,-0.625 0.26563,-0.82813 0.125,-0.40625 0.26562,-0.8125 l 1.84375,-4.9375 h 2.625 l -3.84375,9.67188 z m 13.31323,-3.07813 2.54688,0.42188 q -0.48438,1.40625 -1.54688,2.14062 -1.0625,0.73438 -2.65625,0.73438 -2.51562,0 -3.73437,-1.65625 -0.95313,-1.3125 -0.95313,-3.32813 0,-2.40625 1.25,-3.76562 1.26563,-1.35938 3.1875,-1.35938 2.15625,0 3.40625,1.42188 1.25,1.42187 1.1875,4.375 h -6.40625 q 0.0312,1.14062 0.60938,1.78125 0.59375,0.625 1.48437,0.625 0.59375,0 1,-0.32813 0.42188,-0.32812 0.625,-1.0625 z m 0.15625,-2.59375 q -0.0312,-1.10937 -0.57812,-1.6875 -0.54688,-0.57812 -1.32813,-0.57812 -0.84375,0 -1.39062,0.60937 -0.54688,0.60938 -0.53125,1.65625 z m 4.6257,5.67188 V 33.97753 h 2.5625 v 13.35938 z m 12.27286,0 -3.1875,-13.35938 h 2.76563 l 2.01562,9.17188 2.43747,-9.17188 h 3.20313 l 2.34375,9.32813 2.04687,-9.32813 h 2.71875 l -3.25,13.35938 h -2.85937 l -2.65625,-9.98438 -2.65625,9.98438 z m 17.81827,0 h -2.5625 v -9.67188 h 2.375 v 1.375 q 0.60937,-0.98437 1.09375,-1.28125 0.48437,-0.3125 1.10937,-0.3125 0.875,0 1.6875,0.48438 l -0.79687,2.23437 q -0.64063,-0.42187 -1.20313,-0.42187 -0.53125,0 -0.90625,0.29687 -0.375,0.29688 -0.59375,1.07813 -0.20312,0.76562 -0.20312,3.23437 z m 6.71338,-6.71875 -2.32813,-0.42188 q 0.40625,-1.40625 1.35938,-2.07812 0.95312,-0.67188 2.84375,-0.67188 1.70312,0 2.54687,0.40625 0.84375,0.40625 1.17188,1.03125 0.34375,0.625 0.34375,2.28125 l -0.0156,3 q 0,1.26563 0.10938,1.875 0.125,0.60938 0.46875,1.29688 h -2.53125 q -0.10938,-0.25 -0.25,-0.75 -0.0625,-0.23438 -0.0937,-0.3125 -0.65625,0.64062 -1.40625,0.96875 -0.73438,0.3125 -1.59375,0.3125 -1.48438,0 -2.34375,-0.8125 -0.85938,-0.8125 -0.85938,-2.04688 0,-0.82812 0.39063,-1.46875 0.39062,-0.64062 1.09375,-0.96875 0.70312,-0.34375 2.03125,-0.60937 1.79687,-0.32813 2.48437,-0.625 v -0.25 q 0,-0.75 -0.35937,-1.0625 -0.35938,-0.3125 -1.375,-0.3125 -0.6875,0 -1.07813,0.28125 -0.375,0.26562 -0.60937,0.9375 z m 3.42187,2.07812 q -0.48437,0.15625 -1.5625,0.39063 -1.0625,0.21875 -1.39062,0.4375 -0.5,0.35937 -0.5,0.90625 0,0.53125 0.40625,0.9375 0.40625,0.39062 1.01562,0.39062 0.70313,0 1.32813,-0.46875 0.46875,-0.34375 0.60937,-0.84375 0.0937,-0.32812 0.0937,-1.25 z m 4.96949,-5.03125 h 2.39062 v 1.42188 q 0.46875,-0.73438 1.25,-1.1875 0.79688,-0.45313 1.76563,-0.45313 1.6875,0 2.85937,1.32813 1.17188,1.3125 1.17188,3.67187 0,2.42188 -1.1875,3.76563 -1.1875,1.34375 -2.85938,1.34375 -0.8125,0 -1.46875,-0.3125 -0.64062,-0.32813 -1.35937,-1.09375 v 4.875 h -2.5625 z m 2.53125,4.67188 q 0,1.625 0.64062,2.40625 0.65625,0.78125 1.57813,0.78125 0.90625,0 1.48437,-0.71875 0.59375,-0.71875 0.59375,-2.34375 0,-1.51563 -0.60937,-2.25 -0.60938,-0.75 -1.51563,-0.75 -0.9375,0 -1.5625,0.73437 -0.60937,0.71875 -0.60937,2.14063 z m 8.86474,-4.67188 h 2.39063 v 1.42188 q 0.46875,-0.73438 1.25,-1.1875 0.79687,-0.45313 1.76562,-0.45313 1.6875,0 2.85938,1.32813 1.17187,1.3125 1.17187,3.67187 0,2.42188 -1.1875,3.76563 -1.1875,1.34375 -2.85937,1.34375 -0.8125,0 -1.46875,-0.3125 -0.64063,-0.32813 -1.35938,-1.09375 v 4.875 h -2.5625 z m 2.53125,4.67188 q 0,1.625 0.64063,2.40625 0.65625,0.78125 1.57812,0.78125 0.90625,0 1.48438,-0.71875 0.59375,-0.71875 0.59375,-2.34375 0,-1.51563 -0.60938,-2.25 -0.60937,-0.75 -1.51562,-0.75 -0.9375,0 -1.5625,0.73437 -0.60938,0.71875 -0.60938,2.14063 z m 14.53662,1.92187 2.54688,0.42188 q -0.48438,1.40625 -1.54688,2.14062 -1.0625,0.73438 -2.65625,0.73438 -2.51562,0 -3.73437,-1.65625 -0.95313,-1.3125 -0.95313,-3.32813 0,-2.40625 1.25,-3.76562 1.26563,-1.35938 3.1875,-1.35938 2.15625,0 3.40625,1.42188 1.25,1.42187 1.1875,4.375 h -6.40625 q 0.0312,1.14062 0.60938,1.78125 0.59375,0.625 1.48437,0.625 0.59375,0 1,-0.32813 0.42188,-0.32812 0.625,-1.0625 z m 0.15625,-2.59375 q -0.0312,-1.10937 -0.57812,-1.6875 -0.54688,-0.57812 -1.32813,-0.57812 -0.84375,0 -1.39062,0.60937 -0.54688,0.60938 -0.53125,1.65625 z m 7.0788,5.67188 h -2.5625 v -9.67188 h 2.375 v 1.375 q 0.60937,-0.98437 1.09375,-1.28125 0.48437,-0.3125 1.10937,-0.3125 0.875,0 1.6875,0.48438 l -0.79687,2.23437 q -0.64063,-0.42187 -1.20313,-0.42187 -0.53125,0 -0.90625,0.29687 -0.375,0.29688 -0.59375,1.07813 -0.20312,0.76562 -0.20312,3.23437 z"
     fill-rule="nonzero"
     id="path458" />
  <path
     fill="#cfe2f3"
     d="m 217.91732,296.5 h 192 v 96 h -192 z"
     fill-rule="evenodd"
     id="path460" />
  <path
     stroke="#000000"
     stroke-width="1"
     stroke-linejoin="round"
     stroke-linecap="butt"
     d="m 217.91732,296.5 h 192 v 96 h -192 z"
     fill-rule="evenodd"
     id="path462" />
  <path
     fill="#000000"
     d="m 272.80209,338.0606 h 1.76562 v 7.71875 q 0,2.01563 -0.45312,3.20313 -0.45313,1.1875 -1.64063,1.9375 -1.1875,0.73437 -3.125,0.73437 -1.875,0 -3.07812,-0.64062 -1.1875,-0.65625 -1.70313,-1.875 -0.5,-1.23438 -0.5,-3.35938 v -7.71875 h 1.76563 v 7.71875 q 0,1.73438 0.3125,2.5625 0.32812,0.8125 1.10937,1.26563 0.79688,0.45312 1.9375,0.45312 1.95313,0 2.78125,-0.89062 0.82813,-0.89063 0.82813,-3.39063 z m 3.84796,10.46875 1.625,-0.25 q 0.125,0.96875 0.75,1.5 0.625,0.51563 1.75,0.51563 1.125,0 1.67188,-0.45313 0.54687,-0.46875 0.54687,-1.09375 0,-0.54687 -0.48437,-0.875 -0.32813,-0.21875 -1.67188,-0.54687 -1.8125,-0.46875 -2.51562,-0.79688 -0.6875,-0.32812 -1.04688,-0.90625 -0.35937,-0.59375 -0.35937,-1.3125 0,-0.64062 0.29687,-1.1875 0.29688,-0.5625 0.8125,-0.92187 0.375,-0.28125 1.03125,-0.46875 0.67188,-0.20313 1.42188,-0.20313 1.14062,0 2,0.32813 0.85937,0.32812 1.26562,0.89062 0.42188,0.5625 0.57813,1.5 l -1.60938,0.21875 q -0.10937,-0.75 -0.64062,-1.17187 -0.51563,-0.42188 -1.46875,-0.42188 -1.14063,0 -1.625,0.375 -0.46875,0.375 -0.46875,0.875 0,0.3125 0.1875,0.57813 0.20312,0.26562 0.64062,0.4375 0.23438,0.0937 1.4375,0.42187 1.75,0.45313 2.4375,0.75 0.6875,0.29688 1.07813,0.85938 0.39062,0.5625 0.39062,1.40625 0,0.82812 -0.48437,1.54687 -0.46875,0.71875 -1.375,1.125 -0.90625,0.39063 -2.04688,0.39063 -1.875,0 -2.875,-0.78125 -0.98437,-0.78125 -1.25,-2.32813 z m 16.60938,-0.21875 1.6875,0.20313 q -0.40625,1.48437 -1.48438,2.3125 -1.07812,0.8125 -2.76562,0.8125 -2.125,0 -3.375,-1.29688 -1.23438,-1.3125 -1.23438,-3.67187 0,-2.45313 1.25,-3.79688 1.26563,-1.34375 3.26563,-1.34375 1.9375,0 3.15625,1.32813 1.23437,1.3125 1.23437,3.70312 0,0.15625 0,0.4375 h -7.21875 q 0.0937,1.59375 0.90625,2.45313 0.8125,0.84375 2.01563,0.84375 0.90625,0 1.54687,-0.46875 0.64063,-0.48438 1.01563,-1.51563 z m -5.39063,-2.65625 h 5.40625 q -0.10937,-1.21875 -0.625,-1.82812 -0.78125,-0.95313 -2.03125,-0.95313 -1.125,0 -1.90625,0.76563 -0.76562,0.75 -0.84375,2.01562 z m 9.1257,5.76563 v -9.67188 h 1.46875 v 1.46875 q 0.5625,-1.03125 1.03125,-1.35937 0.48438,-0.32813 1.0625,-0.32813 0.82813,0 1.6875,0.53125 l -0.5625,1.51563 q -0.60937,-0.35938 -1.20312,-0.35938 -0.54688,0 -0.96875,0.32813 -0.42188,0.32812 -0.60938,0.89062 -0.28125,0.875 -0.28125,1.92188 v 5.0625 z m 11.61475,0 V 338.0606 h 5.04687 q 1.32813,0 2.03125,0.125 0.96875,0.17188 1.64063,0.64063 0.67187,0.45312 1.07812,1.28125 0.40625,0.82812 0.40625,1.82812 0,1.70313 -1.09375,2.89063 -1.07812,1.17187 -3.92187,1.17187 h -3.42188 v 5.42188 z m 1.76562,-7 h 3.45313 q 1.71875,0 2.4375,-0.64063 0.71875,-0.64062 0.71875,-1.79687 0,-0.84375 -0.42188,-1.4375 -0.42187,-0.59375 -1.125,-0.78125 -0.4375,-0.125 -1.64062,-0.125 h -3.42188 z m 10.4592,7 v -9.67188 h 1.46875 v 1.46875 q 0.5625,-1.03125 1.03125,-1.35937 0.48438,-0.32813 1.0625,-0.32813 0.82813,0 1.6875,0.53125 l -0.5625,1.51563 q -0.60937,-0.35938 -1.20312,-0.35938 -0.54688,0 -0.96875,0.32813 -0.42188,0.32812 -0.60938,0.89062 -0.28125,0.875 -0.28125,1.92188 v 5.0625 z m 5.61893,-4.84375 q 0,-2.6875 1.48437,-3.96875 1.25,-1.07813 3.04688,-1.07813 2,0 3.26562,1.3125 1.26563,1.29688 1.26563,3.60938 0,1.85937 -0.5625,2.9375 -0.5625,1.0625 -1.64063,1.65625 -1.0625,0.59375 -2.32812,0.59375 -2.03125,0 -3.28125,-1.29688 -1.25,-1.3125 -1.25,-3.76562 z m 1.6875,0 q 0,1.85937 0.79687,2.79687 0.8125,0.92188 2.04688,0.92188 1.21875,0 2.03125,-0.92188 0.8125,-0.9375 0.8125,-2.84375 0,-1.79687 -0.8125,-2.71875 -0.8125,-0.92187 -2.03125,-0.92187 -1.23438,0 -2.04688,0.92187 -0.79687,0.90625 -0.79687,2.76563 z m 9.28195,-6.60938 v -1.90625 h 1.64063 v 1.90625 z m -2.07812,15.20313 0.3125,-1.39063 q 0.5,0.125 0.78125,0.125 0.5,0 0.73437,-0.32812 0.25,-0.32813 0.25,-1.67188 V 341.7481 h 1.64063 v 10.20313 q 0,1.78125 -0.46875,2.48437 -0.59375,0.90625 -1.96875,0.90625 -0.65625,0 -1.28125,-0.17187 z m 12.86358,-6.85938 1.6875,0.20313 q -0.40625,1.48437 -1.48437,2.3125 -1.07813,0.8125 -2.76563,0.8125 -2.125,0 -3.375,-1.29688 -1.23437,-1.3125 -1.23437,-3.67187 0,-2.45313 1.25,-3.79688 1.26562,-1.34375 3.26562,-1.34375 1.9375,0 3.15625,1.32813 1.23438,1.3125 1.23438,3.70312 0,0.15625 0,0.4375 h -7.21875 q 0.0937,1.59375 0.90625,2.45313 0.8125,0.84375 2.01562,0.84375 0.90625,0 1.54688,-0.46875 0.64062,-0.48438 1.01562,-1.51563 z m -5.39062,-2.65625 h 5.40625 q -0.10938,-1.21875 -0.625,-1.82812 -0.78125,-0.95313 -2.03125,-0.95313 -1.125,0 -1.90625,0.76563 -0.76563,0.75 -0.84375,2.01562 z m 15.45382,2.21875 1.60938,0.21875 q -0.26563,1.65625 -1.35938,2.60938 -1.07812,0.9375 -2.67187,0.9375 -1.98438,0 -3.1875,-1.29688 -1.20313,-1.29687 -1.20313,-3.71875 0,-1.57812 0.51563,-2.75 0.51562,-1.17187 1.57812,-1.75 1.0625,-0.59375 2.3125,-0.59375 1.57813,0 2.57813,0.79688 1,0.79687 1.28125,2.26562 l -1.59375,0.23438 q -0.23438,-0.96875 -0.8125,-1.45313 -0.57813,-0.5 -1.39063,-0.5 -1.23437,0 -2.01562,0.89063 -0.78125,0.89062 -0.78125,2.8125 0,1.95312 0.75,2.84375 0.75,0.875 1.95312,0.875 0.96875,0 1.60938,-0.59375 0.65625,-0.59375 0.82812,-1.82813 z m 6.59375,2.07813 0.23438,1.45312 q -0.6875,0.14063 -1.23438,0.14063 -0.89062,0 -1.39062,-0.28125 -0.48438,-0.28125 -0.6875,-0.73438 -0.20313,-0.46875 -0.20313,-1.9375 v -5.57812 h -1.20312 v -1.26563 h 1.20312 v -2.39062 l 1.625,-0.98438 v 3.375 h 1.65625 v 1.26563 h -1.65625 v 5.67187 q 0,0.6875 0.0781,0.89063 0.0937,0.20312 0.28125,0.32812 0.20312,0.10938 0.57812,0.10938 0.26563,0 0.71875,-0.0625 z"
     fill-rule="nonzero"
     id="path464" />
  <path
     fill="#efefef"
     d="m 297.91732,176.5 v 88 h 16 l -32,32 -32,-32 h 16 v -88 z"
     fill-rule="evenodd"
     id="path466" />
  <path
     stroke="#000000"
     stroke-width="1"
     stroke-linejoin="round"
     stroke-linecap="butt"
     d="m 297.91732,176.5 v 88 h 16 l -32,32 -32,-32 h 16 v -88 z"
     fill-rule="evenodd"
     id="path468" />
  <path
     fill="#000000"
     d="m 282.23172,188.79688 q 0.375,-1.01563 1.0625,-1.51563 0.70312,-0.48437 1.67187,-0.48437 1.45313,0 2.4375,1.04687 1,1.04688 1,2.78125 0,1.75 -1.01562,2.8125 -1.01563,1.07813 -2.46875,1.07813 -0.9375,0 -1.625,-0.5 -0.6875,-0.48438 -1.0625,-1.46875 -0.39063,1.21875 -1.28125,1.85937 -0.89063,0.65625 -2.14063,0.65625 -1.70312,0 -2.875,-1.21875 -1.17187,-1.21875 -1.17187,-3.1875 0,-1.98437 1.17187,-3.20312 1.17188,-1.20313 2.92188,-1.20313 1.3125,0 2.1875,0.65625 0.875,0.67188 1.1875,1.89063 z m 2.78125,-0.32813 q -0.9375,0 -1.54688,0.60938 -0.59375,0.60937 -0.59375,1.59375 0,0.9375 0.59375,1.54687 0.59375,0.60938 1.45313,0.60938 0.90625,0 1.51562,-0.625 0.625,-0.625 0.625,-1.5625 0,-0.9375 -0.60937,-1.5625 -0.59375,-0.60938 -1.4375,-0.60938 z m -6.15625,-0.53125 q -0.70313,0 -1.35938,0.32813 -0.65625,0.34375 -1.01562,1 -0.35938,0.65625 -0.35938,1.40625 0,1.17187 0.75,1.9375 0.75,0.76562 1.92188,0.76562 1.1875,0 1.95312,-0.79687 0.78125,-0.78125 0.78125,-1.95313 0,-1.15625 -0.76562,-1.92187 -0.76563,-0.76563 -1.90625,-0.76563 z m -3.85938,14.8559 h 13.35938 v 1.76563 h -13.35938 z m 0,4.68329 h 9.67188 v 1.46875 h -1.375 q 1.59375,1.0625 1.59375,3.07812 0,0.875 -0.3125,1.60938 -0.3125,0.73437 -0.82813,1.09375 -0.5,0.375 -1.20312,0.51562 -0.45313,0.0937 -1.59375,0.0937 h -5.95313 v -1.64062 h 5.89063 q 1,0 1.48437,-0.20313 0.5,-0.1875 0.79688,-0.67187 0.29687,-0.48438 0.29687,-1.14063 0,-1.04687 -0.67187,-1.8125 -0.65625,-0.75 -2.51563,-0.75 h -5.28125 z m -3.70312,10.37573 h 13.375 v 1.48438 h -1.25 q 0.73437,0.53125 1.09375,1.1875 0.375,0.67187 0.375,1.625 0,1.23437 -0.64063,2.17187 -0.625,0.95313 -1.79687,1.4375 -1.15625,0.48438 -2.54688,0.48438 -1.48437,0 -2.67187,-0.53125 -1.1875,-0.53125 -1.82813,-1.54688 -0.625,-1.01562 -0.625,-2.14062 0,-0.8125 0.34375,-1.46875 0.34375,-0.65625 0.875,-1.0625 h -4.70312 z m 8.48437,1.48438 q -1.85937,0 -2.76562,0.75 -0.89063,0.76562 -0.89063,1.82812 0,1.09375 0.92188,1.875 0.9375,0.78125 2.875,0.78125 1.84375,0 2.76562,-0.76562 0.92188,-0.75 0.92188,-1.8125 0,-1.04688 -0.98438,-1.85938 -0.96875,-0.79687 -2.84375,-0.79687 z m -4.78125,15.21948 h 1.42188 q -1.64063,-1.125 -1.64063,-3.0625 0,-0.85938 0.32813,-1.60938 0.32812,-0.73437 0.82812,-1.09375 0.5,-0.35937 1.21875,-0.5 0.46875,-0.10937 1.53125,-0.10937 h 5.98438 v 1.64062 h -5.35938 q -1.28125,0 -1.73437,0.10938 -0.64063,0.15625 -1.01563,0.65625 -0.375,0.5 -0.375,1.23437 0,0.73438 0.375,1.375 0.39063,0.65625 1.03125,0.92188 0.65625,0.26562 1.89063,0.26562 h 5.1875 v 1.64063 h -9.67188 z m 1.46875,7.6257 -1.45312,0.23438 q -0.14063,-0.6875 -0.14063,-1.23438 0,-0.89062 0.28125,-1.39062 0.28125,-0.48438 0.73438,-0.6875 0.46875,-0.20313 1.9375,-0.20313 h 5.57812 v -1.20312 h 1.26563 v 1.20312 h 2.39062 l 0.98438,1.625 h -3.375 v 1.65625 h -1.26563 v -1.65625 h -5.67187 q -0.6875,0 -0.89063,0.0781 -0.20312,0.0937 -0.32812,0.28125 -0.10938,0.20312 -0.10938,0.57812 0,0.26563 0.0625,0.71875 z m 1.42188,0.94894 0.25,1.625 q -0.96875,0.125 -1.5,0.75 -0.51563,0.625 -0.51563,1.75 0,1.125 0.45313,1.67188 0.46875,0.54687 1.09375,0.54687 0.54687,0 0.875,-0.48437 0.21875,-0.32813 0.54687,-1.67188 0.46875,-1.8125 0.79688,-2.51562 0.32812,-0.6875 0.90625,-1.04688 0.59375,-0.35937 1.3125,-0.35937 0.64062,0 1.1875,0.29687 0.5625,0.29688 0.92187,0.8125 0.28125,0.375 0.46875,1.03125 0.20313,0.67188 0.20313,1.42188 0,1.14062 -0.32813,2 -0.32812,0.85937 -0.89062,1.26562 -0.5625,0.42188 -1.5,0.57813 l -0.21875,-1.60938 q 0.75,-0.10937 1.17187,-0.64062 0.42188,-0.51563 0.42188,-1.46875 0,-1.14063 -0.375,-1.625 -0.375,-0.46875 -0.875,-0.46875 -0.3125,0 -0.57813,0.1875 -0.26562,0.20312 -0.4375,0.64062 -0.0937,0.23438 -0.42187,1.4375 -0.45313,1.75 -0.75,2.4375 -0.29688,0.6875 -0.85938,1.07813 -0.5625,0.39062 -1.40625,0.39062 -0.82812,0 -1.54687,-0.48437 -0.71875,-0.46875 -1.125,-1.375 -0.39063,-0.90625 -0.39063,-2.04688 0,-1.875 0.78125,-2.875 0.78125,-0.98437 2.32813,-1.25 z"
     fill-rule="nonzero"
     id="path470" />
  <path
     fill="#efefef"
     d="m 329.91732,296.5 v -88 h -16 l 32,-32 32,32 h -16 v 88 z"
     fill-rule="evenodd"
     id="path472" />
  <path
     stroke="#000000"
     stroke-width="1"
     stroke-linejoin="round"
     stroke-linecap="butt"
     d="m 329.91732,296.5 v -88 h -16 l 32,-32 32,32 h -16 v 88 z"
     fill-rule="evenodd"
     id="path474" />
  <path
     fill="#000000"
     d="m 345.60292,284.20312 q -0.375,1.01563 -1.0625,1.51563 -0.70312,0.48437 -1.67187,0.48437 -1.45313,0 -2.4375,-1.04687 -1,-1.04688 -1,-2.78125 0,-1.75 1.01562,-2.8125 1.01563,-1.07813 2.46875,-1.07813 0.9375,0 1.625,0.5 0.6875,0.48438 1.0625,1.46875 0.39063,-1.21875 1.28125,-1.85937 0.89063,-0.65625 2.14063,-0.65625 1.70312,0 2.875,1.21875 1.17187,1.21875 1.17187,3.1875 0,1.98437 -1.17187,3.20312 -1.17188,1.20313 -2.92188,1.20313 -1.3125,0 -2.1875,-0.65625 -0.875,-0.67188 -1.1875,-1.89063 z m -2.78125,0.32813 q 0.9375,0 1.54688,-0.60938 0.59375,-0.60937 0.59375,-1.59375 0,-0.9375 -0.59375,-1.54687 -0.59375,-0.60938 -1.45313,-0.60938 -0.90625,0 -1.51562,0.625 -0.625,0.625 -0.625,1.5625 0,0.9375 0.60937,1.5625 0.59375,0.60938 1.4375,0.60938 z m 6.15625,0.53125 q 0.70313,0 1.35938,-0.32813 0.65625,-0.34375 1.01562,-1 0.35938,-0.65625 0.35938,-1.40625 0,-1.17187 -0.75,-1.9375 -0.75,-0.76562 -1.92188,-0.76562 -1.1875,0 -1.95312,0.79687 -0.78125,0.78125 -0.78125,1.95313 0,1.15625 0.76562,1.92187 0.76563,0.76563 1.90625,0.76563 z m -2.64062,-14.02778 q -3.32813,0 -5.20313,-1.78125 -1.89062,-1.78125 -1.89062,-4.60937 0,-1.84375 0.89062,-3.32813 0.875,-1.48437 2.46875,-2.26562 1.57813,-0.78125 3.57813,-0.78125 2.03125,0 3.64062,0.82812 1.59375,0.8125 2.42188,2.3125 0.82812,1.5 0.82812,3.25 0,1.875 -0.90625,3.35938 -0.92187,1.48437 -2.5,2.25 -1.57812,0.76562 -3.32812,0.76562 z m 0.0156,-1.8125 q 2.42188,0 3.8125,-1.29687 1.39063,-1.29688 1.39063,-3.26563 0,-2 -1.40625,-3.28125 -1.40625,-1.28125 -3.98438,-1.28125 -1.625,0 -2.84375,0.54688 -1.21875,0.54687 -1.875,1.60937 -0.67187,1.0625 -0.67187,2.375 0,1.89063 1.29687,3.25 1.28125,1.34375 4.28125,1.34375 z m 6.48438,-19.35516 h -1.42188 q 1.64063,1.125 1.64063,3.0625 0,0.85938 -0.32813,1.60938 -0.32812,0.73437 -0.82812,1.09375 -0.5,0.35937 -1.21875,0.5 -0.46875,0.10937 -1.53125,0.10937 h -5.98438 v -1.64062 h 5.35938 q 1.28125,0 1.73437,-0.10938 0.64063,-0.15625 1.01563,-0.65625 0.375,-0.5 0.375,-1.23437 0,-0.73438 -0.375,-1.375 -0.39063,-0.65625 -1.03125,-0.92188 -0.65625,-0.26562 -1.89063,-0.26562 h -5.1875 v -1.64063 h 9.67188 z m -1.46875,-7.62573 1.45312,-0.23438 q 0.14063,0.6875 0.14063,1.23438 0,0.89062 -0.28125,1.39062 -0.28125,0.48438 -0.73438,0.6875 -0.46875,0.20313 -1.9375,0.20313 h -5.57812 v 1.20312 h -1.26563 v -1.20312 h -2.39062 l -0.98438,-1.625 h 3.375 v -1.65625 h 1.26563 v 1.65625 h 5.67187 q 0.6875,0 0.89063,-0.0781 0.20312,-0.0937 0.32812,-0.28125 0.10938,-0.20312 0.10938,-0.57812 0,-0.26563 -0.0625,-0.71875 z m 5.17187,-1.60517 h -13.375 v -1.48437 h 1.25 q -0.73437,-0.53125 -1.09375,-1.1875 -0.375,-0.67188 -0.375,-1.625 0,-1.23438 0.64063,-2.17188 0.625,-0.95312 1.79687,-1.4375 1.15625,-0.48437 2.54688,-0.48437 1.48437,0 2.67187,0.53125 1.1875,0.53125 1.82813,1.54687 0.625,1.01563 0.625,2.14063 0,0.8125 -0.34375,1.46875 -0.34375,0.65625 -0.875,1.0625 h 4.70312 z m -8.48437,-1.48437 q 1.85937,0 2.76562,-0.75 0.89063,-0.76563 0.89063,-1.82813 0,-1.09375 -0.92188,-1.875 -0.9375,-0.78125 -2.875,-0.78125 -1.84375,0 -2.76562,0.76563 -0.92188,0.75 -0.92188,1.8125 0,1.04687 0.98438,1.85937 0.96875,0.79688 2.84375,0.79688 z m 4.78125,-15.21948 h -1.42188 q 1.64063,1.125 1.64063,3.0625 0,0.85937 -0.32813,1.60937 -0.32812,0.73438 -0.82812,1.09375 -0.5,0.35938 -1.21875,0.5 -0.46875,0.10938 -1.53125,0.10938 h -5.98438 v -1.64063 h 5.35938 q 1.28125,0 1.73437,-0.10937 0.64063,-0.15625 1.01563,-0.65625 0.375,-0.5 0.375,-1.23438 0,-0.73437 -0.375,-1.375 -0.39063,-0.65625 -1.03125,-0.92187 -0.65625,-0.26563 -1.89063,-0.26563 h -5.1875 v -1.64062 h 9.67188 z m -1.46875,-7.62574 1.45312,-0.23437 q 0.14063,0.6875 0.14063,1.23437 0,0.89063 -0.28125,1.39063 -0.28125,0.48437 -0.73438,0.6875 -0.46875,0.20312 -1.9375,0.20312 h -5.57812 v 1.20313 h -1.26563 v -1.20313 h -2.39062 l -0.98438,-1.625 h 3.375 v -1.65625 h 1.26563 v 1.65625 h 5.67187 q 0.6875,0 0.89063,-0.0781 0.20312,-0.0937 0.32812,-0.28125 0.10938,-0.20313 0.10938,-0.57813 0,-0.26562 -0.0625,-0.71875 z m -1.42188,-0.94891 -0.25,-1.625 q 0.96875,-0.125 1.5,-0.75 0.51563,-0.625 0.51563,-1.75 0,-1.125 -0.45313,-1.67187 -0.46875,-0.54688 -1.09375,-0.54688 -0.54687,0 -0.875,0.48438 -0.21875,0.32812 -0.54687,1.67187 -0.46875,1.8125 -0.79688,2.51563 -0.32812,0.6875 -0.90625,1.04687 -0.59375,0.35938 -1.3125,0.35938 -0.64062,0 -1.1875,-0.29688 -0.5625,-0.29687 -0.92187,-0.8125 -0.28125,-0.375 -0.46875,-1.03125 -0.20313,-0.67187 -0.20313,-1.42187 0,-1.14063 0.32813,-2 0.32812,-0.85938 0.89062,-1.26563 0.5625,-0.42187 1.5,-0.57812 l 0.21875,1.60937 q -0.75,0.10938 -1.17187,0.64063 -0.42188,0.51562 -0.42188,1.46875 0,1.14062 0.375,1.625 0.375,0.46875 0.875,0.46875 0.3125,0 0.57813,-0.1875 0.26562,-0.20313 0.4375,-0.64063 0.0937,-0.23437 0.42187,-1.4375 0.45313,-1.75 0.75,-2.4375 0.29688,-0.6875 0.85938,-1.07812 0.5625,-0.39063 1.40625,-0.39063 0.82812,0 1.54687,0.48438 0.71875,0.46875 1.125,1.375 0.39063,0.90625 0.39063,2.04687 0,1.875 -0.78125,2.875 -0.78125,0.98438 -2.32813,1.25 z"
     fill-rule="nonzero"
     id="path476" />
  <path
     fill="#000000"
     fill-opacity="0"
     d="m 9.91732,128.5 h 160"
     fill-rule="evenodd"
     id="path478" />
  <path
     stroke="#000000"
     stroke-width="3"
     stroke-linejoin="round"
     stroke-linecap="butt"
     d="m 9.91732,128.5 h 142"
     fill-rule="evenodd"
     id="path480" />
  <path
     fill="#000000"
     stroke="#000000"
     stroke-width="3"
     stroke-linecap="butt"
     d="M 151.91732,133.4552 165.53161,128.5 151.91732,123.5448 Z"
     fill-rule="evenodd"
     id="path482" />
  <path
     fill="#000000"
     fill-opacity="0"
     d="M 9.91732,16.5 H 151.30315 V 126.38977 H 9.91732 Z"
     fill-rule="evenodd"
     id="path484" />
  <path
     fill="#000000"
     d="m 76.75657,39.87312 1.60937,0.21875 q -0.26562,1.65625 -1.35937,2.60937 -1.07813,0.9375 -2.67188,0.9375 -1.98437,0 -3.1875,-1.29687 -1.20312,-1.29688 -1.20312,-3.71875 0,-1.57813 0.51562,-2.75 0.51563,-1.17188 1.57813,-1.75 1.0625,-0.59375 2.3125,-0.59375 1.57812,0 2.57812,0.79687 1,0.79688 1.28125,2.26563 l -1.59375,0.23437 q -0.23437,-0.96875 -0.8125,-1.45312 -0.57812,-0.5 -1.39062,-0.5 -1.23438,0 -2.01563,0.89062 -0.78125,0.89063 -0.78125,2.8125 0,1.95313 0.75,2.84375 0.75,0.875 1.95313,0.875 0.96875,0 1.60937,-0.59375 0.65625,-0.59375 0.82813,-1.82812 z m 2.96875,3.54687 V 30.06062 h 1.64062 v 13.35937 z m 4.1917,0 V 30.06062 h 1.64062 v 7.625 l 3.89063,-3.9375 h 2.10937 l -3.6875,3.59375 4.0625,6.07812 h -2.01562 l -3.20313,-4.95312 -1.15625,1.125 v 3.82812 z"
     fill-rule="nonzero"
     id="path486" />
  <path
     fill="#000000"
     d="m 69.95501,65.81999 v -1.21875 q -0.90625,1.4375 -2.70313,1.4375 -1.15625,0 -2.125,-0.64063 -0.96875,-0.64062 -1.5,-1.78125 -0.53125,-1.14062 -0.53125,-2.625 0,-1.45312 0.48438,-2.625 0.48437,-1.1875 1.4375,-1.8125 0.96875,-0.625 2.17187,-0.625 0.875,0 1.54688,0.375 0.6875,0.35938 1.10937,0.95313 v -4.79688 h 1.64063 v 13.35938 z m -5.17188,-4.82813 q 0,1.85938 0.78125,2.78125 0.78125,0.92188 1.84375,0.92188 1.07813,0 1.82813,-0.875 0.75,-0.89063 0.75,-2.6875 0,-1.98438 -0.76563,-2.90625 -0.76562,-0.9375 -1.89062,-0.9375 -1.07813,0 -1.8125,0.89062 -0.73438,0.89063 -0.73438,2.8125 z m 15.59447,3.64063 q -0.92187,0.76562 -1.76562,1.09375 -0.82813,0.3125 -1.79688,0.3125 -1.59375,0 -2.45312,-0.78125 -0.85938,-0.78125 -0.85938,-1.98438 0,-0.71875 0.32813,-1.29687 0.32812,-0.59375 0.84375,-0.9375 0.53125,-0.35938 1.1875,-0.54688 0.46875,-0.125 1.45312,-0.25 1.98438,-0.23437 2.92188,-0.5625 0.0156,-0.34375 0.0156,-0.42187 0,-1 -0.46875,-1.42188 -0.625,-0.54687 -1.875,-0.54687 -1.15625,0 -1.70312,0.40625 -0.54688,0.40625 -0.8125,1.42187 l -1.60938,-0.21875 q 0.21875,-1.01562 0.71875,-1.64062 0.5,-0.64063 1.45313,-0.98438 0.95312,-0.34375 2.1875,-0.34375 1.25,0 2.01562,0.29688 0.78125,0.28125 1.14063,0.73437 0.375,0.4375 0.51562,1.10938 0.0781,0.42187 0.0781,1.51562 v 2.1875 q 0,2.28125 0.10937,2.89063 0.10938,0.59375 0.40625,1.15625 h -1.70312 q -0.26563,-0.51563 -0.32813,-1.1875 z m -0.14062,-3.67188 q -0.89063,0.375 -2.67188,0.625 -1.01562,0.14063 -1.4375,0.32813 -0.42187,0.1875 -0.65625,0.53125 -0.21875,0.34375 -0.21875,0.78125 0,0.65625 0.5,1.09375 0.5,0.4375 1.45313,0.4375 0.9375,0 1.67187,-0.40625 0.75,-0.42188 1.09375,-1.14063 0.26563,-0.5625 0.26563,-1.64062 z m 7.78196,3.39063 0.23438,1.45312 q -0.6875,0.14063 -1.23438,0.14063 -0.89062,0 -1.39062,-0.28125 -0.48438,-0.28125 -0.6875,-0.73438 -0.20313,-0.46875 -0.20313,-1.9375 v -5.57812 h -1.20312 v -1.26563 h 1.20312 v -2.39062 l 1.625,-0.98438 v 3.375 h 1.65625 v 1.26563 h -1.65625 v 5.67187 q 0,0.6875 0.0781,0.89063 0.0937,0.20312 0.28125,0.32812 0.20312,0.10938 0.57812,0.10938 0.26563,0 0.71875,-0.0625 z m 7.91768,0.28125 q -0.92187,0.76562 -1.76562,1.09375 -0.82813,0.3125 -1.79688,0.3125 -1.59375,0 -2.45312,-0.78125 -0.85938,-0.78125 -0.85938,-1.98438 0,-0.71875 0.32813,-1.29687 0.32812,-0.59375 0.84375,-0.9375 0.53125,-0.35938 1.1875,-0.54688 0.46875,-0.125 1.45312,-0.25 1.98438,-0.23437 2.92188,-0.5625 0.0156,-0.34375 0.0156,-0.42187 0,-1 -0.46875,-1.42188 -0.625,-0.54687 -1.875,-0.54687 -1.15625,0 -1.70312,0.40625 -0.54688,0.40625 -0.8125,1.42187 l -1.60938,-0.21875 q 0.21875,-1.01562 0.71875,-1.64062 0.5,-0.64063 1.45313,-0.98438 0.95312,-0.34375 2.1875,-0.34375 1.25,0 2.01562,0.29688 0.78125,0.28125 1.14063,0.73437 0.375,0.4375 0.51562,1.10938 0.0781,0.42187 0.0781,1.51562 v 2.1875 q 0,2.28125 0.10937,2.89063 0.10938,0.59375 0.40625,1.15625 H 96.2647 q -0.26563,-0.51563 -0.32813,-1.1875 z M 95.796,60.96061 q -0.89063,0.375 -2.67188,0.625 -1.01562,0.14063 -1.4375,0.32813 -0.42187,0.1875 -0.65625,0.53125 -0.21875,0.34375 -0.21875,0.78125 0,0.65625 0.5,1.09375 0.5,0.4375 1.45313,0.4375 0.9375,0 1.67187,-0.40625 0.75,-0.42188 1.09375,-1.14063 0.26563,-0.5625 0.26563,-1.64062 z"
     fill-rule="nonzero"
     id="path488" />
  <path
     fill="#000000"
     d="m 31.92875,85.32938 1.625,-0.25 q 0.125,0.96875 0.75,1.5 0.625,0.51562 1.75,0.51562 1.125,0 1.67188,-0.45312 0.54687,-0.46875 0.54687,-1.09375 0,-0.54688 -0.48437,-0.875 -0.32813,-0.21875 -1.67188,-0.54688 -1.8125,-0.46875 -2.51562,-0.79687 -0.6875,-0.32813 -1.04688,-0.90625 -0.35937,-0.59375 -0.35937,-1.3125 0,-0.64063 0.29687,-1.1875 0.29688,-0.5625 0.8125,-0.92188 0.375,-0.28125 1.03125,-0.46875 0.67188,-0.20312 1.42188,-0.20312 1.14062,0 2,0.32812 0.85937,0.32813 1.26562,0.89063 0.42188,0.5625 0.57813,1.5 l -1.60938,0.21875 q -0.10937,-0.75 -0.64062,-1.17188 -0.51563,-0.42187 -1.46875,-0.42187 -1.14063,0 -1.625,0.375 -0.46875,0.375 -0.46875,0.875 0,0.3125 0.1875,0.57812 0.20312,0.26563 0.64062,0.4375 0.23438,0.0937 1.4375,0.42188 1.75,0.45312 2.4375,0.75 0.6875,0.29687 1.07813,0.85937 0.39062,0.5625 0.39062,1.40625 0,0.82813 -0.48437,1.54688 -0.46875,0.71875 -1.375,1.125 -0.90625,0.39062 -2.04688,0.39062 -1.875,0 -2.875,-0.78125 -0.98437,-0.78125 -1.25,-2.32812 z m 16.29688,-0.65625 1.60937,0.21875 q -0.26562,1.65625 -1.35937,2.60937 -1.07813,0.9375 -2.67188,0.9375 -1.98437,0 -3.1875,-1.29687 -1.20312,-1.29688 -1.20312,-3.71875 0,-1.57813 0.51562,-2.75 0.51563,-1.17188 1.57813,-1.75 1.0625,-0.59375 2.3125,-0.59375 1.57812,0 2.57812,0.79687 1,0.79688 1.28125,2.26563 L 48.085,81.62625 q -0.23437,-0.96875 -0.8125,-1.45312 -0.57812,-0.5 -1.39062,-0.5 -1.23438,0 -2.01563,0.89062 -0.78125,0.89063 -0.78125,2.8125 0,1.95313 0.75,2.84375 0.75,0.875 1.95313,0.875 0.96875,0 1.60937,-0.59375 0.65625,-0.59375 0.82813,-1.82812 z m 9.32812,2.35937 q -0.92187,0.76563 -1.76562,1.09375 -0.82813,0.3125 -1.79688,0.3125 -1.59375,0 -2.45312,-0.78125 -0.85938,-0.78125 -0.85938,-1.98437 0,-0.71875 0.32813,-1.29688 0.32812,-0.59375 0.84375,-0.9375 0.53125,-0.35937 1.1875,-0.54687 0.46875,-0.125 1.45312,-0.25 1.98438,-0.23438 2.92188,-0.5625 0.0156,-0.34375 0.0156,-0.42188 0,-1 -0.46875,-1.42187 -0.625,-0.54688 -1.875,-0.54688 -1.15625,0 -1.70312,0.40625 -0.54688,0.40625 -0.8125,1.42188 l -1.60938,-0.21875 q 0.21875,-1.01563 0.71875,-1.64063 0.5,-0.64062 1.45313,-0.98437 0.95312,-0.34375 2.1875,-0.34375 1.25,0 2.01562,0.29687 0.78125,0.28125 1.14063,0.73438 0.375,0.4375 0.51562,1.10937 0.0781,0.42188 0.0781,1.51563 v 2.1875 q 0,2.28125 0.10937,2.89062 0.10938,0.59375 0.40625,1.15625 H 57.88183 Q 57.6162,87.70438 57.5537,87.0325 Z m -0.14062,-3.67187 q -0.89063,0.375 -2.67188,0.625 -1.01562,0.14062 -1.4375,0.32812 -0.42187,0.1875 -0.65625,0.53125 -0.21875,0.34375 -0.21875,0.78125 0,0.65625 0.5,1.09375 0.5,0.4375 1.45313,0.4375 0.9375,0 1.67187,-0.40625 0.75,-0.42187 1.09375,-1.14062 0.26563,-0.5625 0.26563,-1.64063 z M 61.61697,88.22 v -9.67187 h 1.46875 v 1.375 q 1.0625,-1.59375 3.07812,-1.59375 0.875,0 1.60938,0.3125 0.73437,0.3125 1.09375,0.82812 0.375,0.5 0.51562,1.20313 0.0937,0.45312 0.0937,1.59375 V 88.22 h -1.64062 v -5.89062 q 0,-1 -0.20313,-1.48438 -0.1875,-0.5 -0.67187,-0.79687 -0.48438,-0.29688 -1.14063,-0.29688 -1.04687,0 -1.8125,0.67188 -0.75,0.65625 -0.75,2.51562 V 88.22 Z m 8.86009,3.70313 v -1.1875 h 10.85937 v 1.1875 z m 11.23509,-6.59375 1.625,-0.25 q 0.125,0.96875 0.75,1.5 0.625,0.51562 1.75,0.51562 1.125,0 1.67188,-0.45312 0.54687,-0.46875 0.54687,-1.09375 0,-0.54688 -0.48437,-0.875 -0.32813,-0.21875 -1.67188,-0.54688 -1.8125,-0.46875 -2.51562,-0.79687 -0.6875,-0.32813 -1.04688,-0.90625 -0.35937,-0.59375 -0.35937,-1.3125 0,-0.64063 0.29687,-1.1875 0.29688,-0.5625 0.8125,-0.92188 0.375,-0.28125 1.03125,-0.46875 0.67188,-0.20312 1.42188,-0.20312 1.14062,0 2,0.32812 0.85937,0.32813 1.26562,0.89063 0.42188,0.5625 0.57813,1.5 l -1.60938,0.21875 q -0.10937,-0.75 -0.64062,-1.17188 -0.51563,-0.42187 -1.46875,-0.42187 -1.14063,0 -1.625,0.375 -0.46875,0.375 -0.46875,0.875 0,0.3125 0.1875,0.57812 0.20312,0.26563 0.64062,0.4375 0.23438,0.0937 1.4375,0.42188 1.75,0.45312 2.4375,0.75 0.6875,0.29687 1.07813,0.85937 0.39062,0.5625 0.39062,1.40625 0,0.82813 -0.48437,1.54688 -0.46875,0.71875 -1.375,1.125 -0.90625,0.39062 -2.04688,0.39062 -1.875,0 -2.875,-0.78125 -0.98437,-0.78125 -1.25,-2.32812 z m 16.60938,-0.21875 1.6875,0.20312 q -0.40625,1.48438 -1.48438,2.3125 -1.07812,0.8125 -2.76562,0.8125 -2.125,0 -3.375,-1.29687 -1.23438,-1.3125 -1.23438,-3.67188 0,-2.45312 1.25,-3.79687 1.26563,-1.34375 3.26563,-1.34375 1.9375,0 3.15625,1.32812 1.23437,1.3125 1.23437,3.70313 0,0.15625 0,0.4375 h -7.21875 q 0.0937,1.59375 0.90625,2.45312 0.8125,0.84375 2.01563,0.84375 0.90625,0 1.54687,-0.46875 0.64063,-0.48437 1.01563,-1.51562 z M 92.9309,82.45438 h 5.40625 q -0.10937,-1.21875 -0.625,-1.82813 -0.78125,-0.95312 -2.03125,-0.95312 -1.125,0 -1.90625,0.76562 -0.76562,0.75 -0.84375,2.01563 z M 102.02537,88.22 V 74.86063 h 1.64062 V 88.22 Z m 10.81669,-3.10937 1.6875,0.20312 q -0.40625,1.48438 -1.48437,2.3125 -1.07813,0.8125 -2.76563,0.8125 -2.125,0 -3.375,-1.29687 -1.23437,-1.3125 -1.23437,-3.67188 0,-2.45312 1.25,-3.79687 1.26562,-1.34375 3.26562,-1.34375 1.9375,0 3.15625,1.32812 1.23438,1.3125 1.23438,3.70313 0,0.15625 0,0.4375 h -7.21875 q 0.0937,1.59375 0.90625,2.45312 0.8125,0.84375 2.01562,0.84375 0.90625,0 1.54688,-0.46875 0.64062,-0.48437 1.01562,-1.51562 z m -5.39062,-2.65625 h 5.40625 q -0.10938,-1.21875 -0.625,-1.82813 -0.78125,-0.95312 -2.03125,-0.95312 -1.125,0 -1.90625,0.76562 -0.76563,0.75 -0.84375,2.01563 z m 15.45384,2.21875 1.60938,0.21875 q -0.26563,1.65625 -1.35938,2.60937 -1.07812,0.9375 -2.67187,0.9375 -1.98438,0 -3.1875,-1.29687 -1.20313,-1.29688 -1.20313,-3.71875 0,-1.57813 0.51563,-2.75 0.51562,-1.17188 1.57812,-1.75 1.0625,-0.59375 2.3125,-0.59375 1.57813,0 2.57813,0.79687 1,0.79688 1.28125,2.26563 l -1.59375,0.23437 q -0.23438,-0.96875 -0.8125,-1.45312 -0.57813,-0.5 -1.39063,-0.5 -1.23437,0 -2.01562,0.89062 -0.78125,0.89063 -0.78125,2.8125 0,1.95313 0.75,2.84375 0.75,0.875 1.95312,0.875 0.96875,0 1.60938,-0.59375 0.65625,-0.59375 0.82812,-1.82812 z m 6.59375,2.07812 0.23438,1.45313 q -0.6875,0.14062 -1.23438,0.14062 -0.89062,0 -1.39062,-0.28125 -0.48438,-0.28125 -0.6875,-0.73437 -0.20313,-0.46875 -0.20313,-1.9375 v -5.57813 h -1.20312 v -1.26562 h 1.20312 V 76.1575 l 1.625,-0.98437 v 3.375 h 1.65625 v 1.26562 h -1.65625 v 5.67188 q 0,0.6875 0.0781,0.89062 0.0937,0.20313 0.28125,0.32813 0.20312,0.10937 0.57812,0.10937 0.26563,0 0.71875,-0.0625 z"
     fill-rule="nonzero"
     id="path490" />
  <path
     fill="#000000"
     d="M 28.894325,110.62 V 97.26062 H 30.53495 V 110.62 Z m 10.504195,-1.1875 q -0.92187,0.76562 -1.76562,1.09375 -0.82813,0.3125 -1.79688,0.3125 -1.59375,0 -2.45312,-0.78125 -0.85938,-0.78125 -0.85938,-1.98438 0,-0.71875 0.32813,-1.29687 0.32812,-0.59375 0.84375,-0.9375 0.53125,-0.35938 1.1875,-0.54688 0.46875,-0.125 1.45312,-0.25 1.98438,-0.23437 2.92188,-0.5625 0.0156,-0.34375 0.0156,-0.42187 0,-1 -0.46875,-1.42188 -0.625,-0.54687 -1.875,-0.54687 -1.15625,0 -1.70312,0.40625 -0.54688,0.40625 -0.8125,1.42187 l -1.60938,-0.21875 q 0.21875,-1.01562 0.71875,-1.64062 0.5,-0.64063 1.45313,-0.98438 0.95312,-0.34375 2.1875,-0.34375 1.25,0 2.01562,0.29688 0.78125,0.28125 1.14063,0.73437 0.375,0.4375 0.51562,1.10938 0.0781,0.42187 0.0781,1.51562 v 2.1875 q 0,2.28125 0.10937,2.89063 0.10938,0.59375 0.40625,1.15625 H 39.7266 q -0.26563,-0.51563 -0.32813,-1.1875 z m -0.14062,-3.67188 q -0.89063,0.375 -2.67188,0.625 -1.01562,0.14063 -1.4375,0.32813 -0.42187,0.1875 -0.65625,0.53125 -0.21875,0.34375 -0.21875,0.78125 0,0.65625 0.5,1.09375 0.5,0.4375 1.45313,0.4375 0.9375,0 1.67187,-0.40625 0.75,-0.42188 1.09375,-1.14063 0.26563,-0.5625 0.26563,-1.64062 z m 7.78196,3.39063 0.23438,1.45312 q -0.6875,0.14063 -1.23438,0.14063 -0.89062,0 -1.39062,-0.28125 -0.48438,-0.28125 -0.6875,-0.73438 -0.20313,-0.46875 -0.20313,-1.9375 v -5.57812 h -1.20312 v -1.26563 h 1.20312 V 98.5575 l 1.625,-0.98438 v 3.375 h 1.65625 v 1.26563 h -1.65625 v 5.67187 q 0,0.6875 0.0781,0.89063 0.0937,0.20312 0.28125,0.32812 0.20312,0.10938 0.57812,0.10938 0.26563,0 0.71875,-0.0625 z m 7.91768,-2.07813 1.60938,0.21875 q -0.26563,1.65625 -1.35938,2.60938 -1.07812,0.9375 -2.67187,0.9375 -1.98438,0 -3.1875,-1.29688 -1.20313,-1.29687 -1.20313,-3.71875 0,-1.57812 0.51563,-2.75 0.51562,-1.17187 1.57812,-1.75 1.0625,-0.59375 2.3125,-0.59375 1.57813,0 2.57813,0.79688 1,0.79687 1.28125,2.26562 l -1.59375,0.23438 q -0.23438,-0.96875 -0.8125,-1.45313 -0.57813,-0.5 -1.39063,-0.5 -1.23437,0 -2.01562,0.89063 -0.78125,0.89062 -0.78125,2.8125 0,1.95312 0.75,2.84375 0.75,0.875 1.95312,0.875 0.96875,0 1.60938,-0.59375 0.65625,-0.59375 0.82812,-1.82813 z M 57.97317,110.62 V 97.26062 h 1.64062 v 4.79688 q 1.14063,-1.32813 2.89063,-1.32813 1.07812,0 1.85937,0.42188 0.79688,0.42187 1.14063,1.17187 0.34375,0.75 0.34375,2.17188 v 6.125 h -1.64063 v -6.125 q 0,-1.23438 -0.53125,-1.79688 -0.53125,-0.5625 -1.51562,-0.5625 -0.71875,0 -1.35938,0.39063 -0.64062,0.375 -0.92187,1.01562 -0.26563,0.64063 -0.26563,1.78125 V 110.62 Z m 8.86009,3.70312 v -1.1875 h 10.85937 v 1.1875 z m 18.51634,-6.8125 1.6875,0.20313 q -0.40625,1.48437 -1.48437,2.3125 -1.07813,0.8125 -2.76563,0.8125 -2.125,0 -3.375,-1.29688 -1.23437,-1.3125 -1.23437,-3.67187 0,-2.45313 1.25,-3.79688 1.26562,-1.34375 3.26562,-1.34375 1.9375,0 3.15625,1.32813 1.23438,1.3125 1.23438,3.70312 0,0.15625 0,0.4375 h -7.21875 q 0.0937,1.59375 0.90625,2.45313 0.8125,0.84375 2.01562,0.84375 0.90625,0 1.54688,-0.46875 0.64062,-0.48438 1.01562,-1.51563 z m -5.39062,-2.65625 h 5.40625 q -0.10938,-1.21875 -0.625,-1.82812 -0.78125,-0.95313 -2.03125,-0.95313 -1.125,0 -1.90625,0.76563 -0.76563,0.75 -0.84375,2.01562 z m 9.14134,5.76563 v -9.67188 h 1.46875 v 1.375 q 1.0625,-1.59375 3.07812,-1.59375 0.875,0 1.60938,0.3125 0.73437,0.3125 1.09375,0.82813 0.375,0.5 0.51562,1.20312 0.0937,0.45313 0.0937,1.59375 V 110.62 h -1.64062 v -5.89063 q 0,-1 -0.20313,-1.48437 -0.1875,-0.5 -0.67187,-0.79688 -0.48438,-0.29687 -1.14063,-0.29687 -1.04687,0 -1.8125,0.67187 -0.75,0.65625 -0.75,2.51563 V 110.62 Z m 16.68822,-1.1875 q -0.92188,0.76562 -1.76563,1.09375 -0.82812,0.3125 -1.79687,0.3125 -1.59375,0 -2.45313,-0.78125 -0.85937,-0.78125 -0.85937,-1.98438 0,-0.71875 0.32812,-1.29687 0.32813,-0.59375 0.84375,-0.9375 0.53125,-0.35938 1.1875,-0.54688 0.46875,-0.125 1.45313,-0.25 1.98437,-0.23437 2.92187,-0.5625 0.0156,-0.34375 0.0156,-0.42187 0,-1 -0.46875,-1.42188 -0.625,-0.54687 -1.875,-0.54687 -1.15625,0 -1.70313,0.40625 -0.54687,0.40625 -0.8125,1.42187 l -1.60937,-0.21875 q 0.21875,-1.01562 0.71875,-1.64062 0.5,-0.64063 1.45312,-0.98438 0.95313,-0.34375 2.1875,-0.34375 1.25,0 2.01563,0.29688 0.78125,0.28125 1.14062,0.73437 0.375,0.4375 0.51563,1.10938 0.0781,0.42187 0.0781,1.51562 v 2.1875 q 0,2.28125 0.10938,2.89063 0.10937,0.59375 0.40625,1.15625 h -1.70313 q -0.26562,-0.51563 -0.32812,-1.1875 z m -0.14063,-3.67188 q -0.89062,0.375 -2.67187,0.625 -1.01563,0.14063 -1.4375,0.32813 -0.42188,0.1875 -0.65625,0.53125 -0.21875,0.34375 -0.21875,0.78125 0,0.65625 0.5,1.09375 0.5,0.4375 1.45312,0.4375 0.9375,0 1.67188,-0.40625 0.75,-0.42188 1.09375,-1.14063 0.26562,-0.5625 0.26562,-1.64062 z m 5.70384,4.85938 h -1.51562 V 97.26062 h 1.64062 v 4.76563 q 1.04688,-1.29688 2.65625,-1.29688 0.89063,0 1.6875,0.35938 0.79688,0.35937 1.3125,1.01562 0.51563,0.64063 0.79688,1.5625 0.29687,0.92188 0.29687,1.96875 0,2.48438 -1.23437,3.84375 -1.21875,1.35938 -2.95313,1.35938 -1.70312,0 -2.6875,-1.4375 z m -0.0156,-4.90625 q 0,1.73437 0.48437,2.51562 0.76563,1.26563 2.09375,1.26563 1.07813,0 1.85938,-0.9375 0.78125,-0.9375 0.78125,-2.78125 0,-1.89063 -0.75,-2.79688 -0.75,-0.90625 -1.82813,-0.90625 -1.0625,0 -1.85937,0.9375 -0.78125,0.9375 -0.78125,2.70313 z m 8.84446,4.90625 V 97.26062 h 1.64063 V 110.62 Z m 10.8167,-3.10938 1.6875,0.20313 q -0.40625,1.48437 -1.48437,2.3125 -1.07813,0.8125 -2.76563,0.8125 -2.125,0 -3.375,-1.29688 -1.23437,-1.3125 -1.23437,-3.67187 0,-2.45313 1.25,-3.79688 1.26562,-1.34375 3.26562,-1.34375 1.9375,0 3.15625,1.32813 1.23438,1.3125 1.23438,3.70312 0,0.15625 0,0.4375 h -7.21875 q 0.0937,1.59375 0.90625,2.45313 0.8125,0.84375 2.01562,0.84375 0.90625,0 1.54688,-0.46875 0.64062,-0.48438 1.01562,-1.51563 z m -5.39062,-2.65625 h 5.40625 q -0.10938,-1.21875 -0.625,-1.82812 -0.78125,-0.95313 -2.03125,-0.95313 -1.125,0 -1.90625,0.76563 -0.76563,0.75 -0.84375,2.01562 z"
     fill-rule="nonzero"
     id="path492" />
  <path
     fill="#efefef"
     d="m 169.91732,80.5 h 288 v 96 h -288 z"
     fill-rule="evenodd"
     id="path494" />
  <path
     stroke="#000000"
     stroke-width="1"
     stroke-linejoin="round"
     stroke-linecap="butt"
     d="m 169.91732,80.5 h 288 v 96 h -288 z"
     fill-rule="evenodd"
     id="path496" />
  <path
     fill="#000000"
     d="m 233.86419,103.12312 1.65625,-0.14063 q 0.125,1 0.54687,1.64063 0.4375,0.64062 1.34375,1.04687 0.92188,0.39063 2.0625,0.39063 1,0 1.78125,-0.29688 0.78125,-0.29687 1.15625,-0.8125 0.375,-0.53125 0.375,-1.15625 0,-0.625 -0.375,-1.09375 -0.35937,-0.46875 -1.1875,-0.79687 -0.54687,-0.20313 -2.39062,-0.64063 -1.82813,-0.45312 -2.5625,-0.84375 -0.96875,-0.5 -1.4375,-1.23437 -0.46875,-0.75 -0.46875,-1.67188 0,-1 0.57812,-1.875 0.57813,-0.89062 1.67188,-1.34375 1.10937,-0.45312 2.45312,-0.45312 1.48438,0 2.60938,0.48437 1.14062,0.46875 1.75,1.40625 0.60937,0.92188 0.65625,2.09375 l -1.6875,0.125 q -0.14063,-1.26562 -0.9375,-1.90625 -0.78125,-0.65625 -2.3125,-0.65625 -1.60938,0 -2.34375,0.59375 -0.73438,0.59375 -0.73438,1.42188 0,0.71875 0.53125,1.17187 0.5,0.46875 2.65625,0.96875 2.15625,0.48438 2.95313,0.84375 1.17187,0.53125 1.71875,1.35938 0.5625,0.82812 0.5625,1.90625 0,1.0625 -0.60938,2.01562 -0.60937,0.9375 -1.75,1.46875 -1.14062,0.51563 -2.57812,0.51563 -1.8125,0 -3.04688,-0.53125 -1.21875,-0.53125 -1.92187,-1.59375 -0.6875,-1.0625 -0.71875,-2.40625 z m 19.1467,0.75 1.60937,0.21875 q -0.26562,1.65625 -1.35937,2.60937 -1.07813,0.9375 -2.67188,0.9375 -1.98437,0 -3.1875,-1.29687 -1.20312,-1.29688 -1.20312,-3.71875 0,-1.57813 0.51562,-2.75 0.51563,-1.17188 1.57813,-1.75 1.0625,-0.59375 2.3125,-0.59375 1.57812,0 2.57812,0.79687 1,0.79688 1.28125,2.26563 l -1.59375,0.23437 q -0.23437,-0.96875 -0.8125,-1.45312 -0.57812,-0.5 -1.39062,-0.5 -1.23438,0 -2.01563,0.89062 -0.78125,0.89063 -0.78125,2.8125 0,1.95313 0.75,2.84375 0.75,0.875 1.95313,0.875 0.96875,0 1.60937,-0.59375 0.65625,-0.59375 0.82813,-1.82812 z m 9.32812,2.35937 q -0.92187,0.76563 -1.76562,1.09375 -0.82813,0.3125 -1.79688,0.3125 -1.59375,0 -2.45312,-0.78125 -0.85938,-0.78125 -0.85938,-1.98437 0,-0.71875 0.32813,-1.29688 0.32812,-0.59375 0.84375,-0.9375 0.53125,-0.35937 1.1875,-0.54687 0.46875,-0.125 1.45312,-0.25 1.98438,-0.23438 2.92188,-0.5625 0.0156,-0.34375 0.0156,-0.42188 0,-1 -0.46875,-1.42187 -0.625,-0.54688 -1.875,-0.54688 -1.15625,0 -1.70312,0.40625 -0.54688,0.40625 -0.8125,1.42188 l -1.60938,-0.21875 q 0.21875,-1.01563 0.71875,-1.64063 0.5,-0.64062 1.45313,-0.98437 0.95312,-0.34375 2.1875,-0.34375 1.25,0 2.01562,0.29687 0.78125,0.28125 1.14063,0.73438 0.375,0.4375 0.51562,1.10937 0.0781,0.42188 0.0781,1.51563 v 2.1875 q 0,2.28125 0.10937,2.89062 0.10938,0.59375 0.40625,1.15625 h -1.70312 q -0.26563,-0.51562 -0.32813,-1.1875 z m -0.14062,-3.67187 q -0.89063,0.375 -2.67188,0.625 -1.01562,0.14062 -1.4375,0.32812 -0.42187,0.1875 -0.65625,0.53125 -0.21875,0.34375 -0.21875,0.78125 0,0.65625 0.5,1.09375 0.5,0.4375 1.45313,0.4375 0.9375,0 1.67187,-0.40625 0.75,-0.42187 1.09375,-1.14062 0.26563,-0.5625 0.26563,-1.64063 z m 4.20382,4.85937 v -9.67187 h 1.46875 v 1.375 q 1.0625,-1.59375 3.07813,-1.59375 0.875,0 1.60937,0.3125 0.73438,0.3125 1.09375,0.82812 0.375,0.5 0.51563,1.20313 0.0937,0.45312 0.0937,1.59375 v 5.95312 h -1.64063 v -5.89062 q 0,-1 -0.20312,-1.48438 -0.1875,-0.5 -0.67188,-0.79687 -0.48437,-0.29688 -1.14062,-0.29688 -1.04688,0 -1.8125,0.67188 -0.75,0.65625 -0.75,2.51562 v 5.28125 z m 16.68824,-3.54687 1.60937,0.21875 q -0.26562,1.65625 -1.35937,2.60937 -1.07813,0.9375 -2.67188,0.9375 -1.98437,0 -3.1875,-1.29687 -1.20312,-1.29688 -1.20312,-3.71875 0,-1.57813 0.51562,-2.75 0.51563,-1.17188 1.57813,-1.75 1.0625,-0.59375 2.3125,-0.59375 1.57812,0 2.57812,0.79687 1,0.79688 1.28125,2.26563 l -1.59375,0.23437 q -0.23437,-0.96875 -0.8125,-1.45312 -0.57812,-0.5 -1.39062,-0.5 -1.23438,0 -2.01563,0.89062 -0.78125,0.89063 -0.78125,2.8125 0,1.95313 0.75,2.84375 0.75,0.875 1.95313,0.875 0.96875,0 1.60937,-0.59375 0.65625,-0.59375 0.82813,-1.82812 z m 3.01562,3.54687 V 94.06062 h 1.64063 v 4.79687 q 1.14062,-1.32812 2.89062,-1.32812 1.07813,0 1.85938,0.42187 0.79687,0.42188 1.14062,1.17188 0.34375,0.75 0.34375,2.17187 v 6.125 h -1.64062 v -6.125 q 0,-1.23437 -0.53125,-1.79687 -0.53125,-0.5625 -1.51563,-0.5625 -0.71875,0 -1.35937,0.39062 -0.64063,0.375 -0.92188,1.01563 -0.26562,0.64062 -0.26562,1.78125 v 5.29687 z m 16.6882,-1.1875 q -0.92187,0.76563 -1.76562,1.09375 -0.82813,0.3125 -1.79688,0.3125 -1.59375,0 -2.45312,-0.78125 -0.85938,-0.78125 -0.85938,-1.98437 0,-0.71875 0.32813,-1.29688 0.32812,-0.59375 0.84375,-0.9375 0.53125,-0.35937 1.1875,-0.54687 0.46875,-0.125 1.45312,-0.25 1.98438,-0.23438 2.92188,-0.5625 0.0156,-0.34375 0.0156,-0.42188 0,-1 -0.46875,-1.42187 -0.625,-0.54688 -1.875,-0.54688 -1.15625,0 -1.70312,0.40625 -0.54688,0.40625 -0.8125,1.42188 l -1.60938,-0.21875 q 0.21875,-1.01563 0.71875,-1.64063 0.5,-0.64062 1.45313,-0.98437 0.95312,-0.34375 2.1875,-0.34375 1.25,0 2.01562,0.29687 0.78125,0.28125 1.14063,0.73438 0.375,0.4375 0.51562,1.10937 0.0781,0.42188 0.0781,1.51563 v 2.1875 q 0,2.28125 0.10937,2.89062 0.10938,0.59375 0.40625,1.15625 h -1.70312 q -0.26563,-0.51562 -0.32813,-1.1875 z m -0.14062,-3.67187 q -0.89063,0.375 -2.67188,0.625 -1.01562,0.14062 -1.4375,0.32812 -0.42187,0.1875 -0.65625,0.53125 -0.21875,0.34375 -0.21875,0.78125 0,0.65625 0.5,1.09375 0.5,0.4375 1.45313,0.4375 0.9375,0 1.67187,-0.40625 0.75,-0.42187 1.09375,-1.14062 0.26563,-0.5625 0.26563,-1.64063 z m 4.20386,-6.60938 v -1.89062 h 1.64062 v 1.89062 z m 0,11.46875 v -9.67187 h 1.64062 v 9.67187 z m 4.1448,0 v -9.67187 h 1.46875 v 1.375 q 1.0625,-1.59375 3.07813,-1.59375 0.875,0 1.60937,0.3125 0.73438,0.3125 1.09375,0.82812 0.375,0.5 0.51563,1.20313 0.0937,0.45312 0.0937,1.59375 v 5.95312 h -1.64063 v -5.89062 q 0,-1 -0.20312,-1.48438 -0.1875,-0.5 -0.67188,-0.79687 -0.48437,-0.29688 -1.14062,-0.29688 -1.04688,0 -1.8125,0.67188 -0.75,0.65625 -0.75,2.51562 v 5.28125 z m 15.55902,-11.46875 v -1.89062 h 1.64063 v 1.89062 z m 0,11.46875 v -9.67187 h 1.64063 v 9.67187 z m 4.14484,0 v -9.67187 h 1.46875 v 1.375 q 1.0625,-1.59375 3.07812,-1.59375 0.875,0 1.60938,0.3125 0.73437,0.3125 1.09375,0.82812 0.375,0.5 0.51562,1.20313 0.0937,0.45312 0.0937,1.59375 v 5.95312 h -1.64062 v -5.89062 q 0,-1 -0.20313,-1.48438 -0.1875,-0.5 -0.67187,-0.79687 -0.48438,-0.29688 -1.14063,-0.29688 -1.04687,0 -1.8125,0.67188 -0.75,0.65625 -0.75,2.51562 v 5.28125 z m 9.71945,-2.89062 1.625,-0.25 q 0.125,0.96875 0.75,1.5 0.625,0.51562 1.75,0.51562 1.125,0 1.67188,-0.45312 0.54687,-0.46875 0.54687,-1.09375 0,-0.54688 -0.48437,-0.875 -0.32813,-0.21875 -1.67188,-0.54688 -1.8125,-0.46875 -2.51562,-0.79687 -0.6875,-0.32813 -1.04688,-0.90625 -0.35937,-0.59375 -0.35937,-1.3125 0,-0.64063 0.29687,-1.1875 0.29688,-0.5625 0.8125,-0.92188 0.375,-0.28125 1.03125,-0.46875 0.67188,-0.20312 1.42188,-0.20312 1.14062,0 2,0.32812 0.85937,0.32813 1.26562,0.89063 0.42188,0.5625 0.57813,1.5 l -1.60938,0.21875 q -0.10937,-0.75 -0.64062,-1.17188 -0.51563,-0.42187 -1.46875,-0.42187 -1.14063,0 -1.625,0.375 -0.46875,0.375 -0.46875,0.875 0,0.3125 0.1875,0.57812 0.20312,0.26563 0.64062,0.4375 0.23438,0.0937 1.4375,0.42188 1.75,0.45312 2.4375,0.75 0.6875,0.29687 1.07813,0.85937 0.39062,0.5625 0.39062,1.40625 0,0.82813 -0.48437,1.54688 -0.46875,0.71875 -1.375,1.125 -0.90625,0.39062 -2.04688,0.39062 -1.875,0 -2.875,-0.78125 -0.98437,-0.78125 -1.25,-2.32812 z m 13.5625,1.42187 0.23438,1.45313 q -0.6875,0.14062 -1.23438,0.14062 -0.89062,0 -1.39062,-0.28125 -0.48438,-0.28125 -0.6875,-0.73437 -0.20313,-0.46875 -0.20313,-1.9375 v -5.57813 h -1.20312 v -1.26562 h 1.20312 v -2.39063 l 1.625,-0.98437 v 3.375 h 1.65625 v 1.26562 h -1.65625 v 5.67188 q 0,0.6875 0.0781,0.89062 0.0937,0.20313 0.28125,0.32813 0.20312,0.10937 0.57812,0.10937 0.26563,0 0.71875,-0.0625 z m 7.9177,0.28125 q -0.92188,0.76563 -1.76563,1.09375 -0.82812,0.3125 -1.79687,0.3125 -1.59375,0 -2.45313,-0.78125 -0.85937,-0.78125 -0.85937,-1.98437 0,-0.71875 0.32812,-1.29688 0.32813,-0.59375 0.84375,-0.9375 0.53125,-0.35937 1.1875,-0.54687 0.46875,-0.125 1.45313,-0.25 1.98437,-0.23438 2.92187,-0.5625 0.0156,-0.34375 0.0156,-0.42188 0,-1 -0.46875,-1.42187 -0.625,-0.54688 -1.875,-0.54688 -1.15625,0 -1.70313,0.40625 -0.54687,0.40625 -0.8125,1.42188 l -1.60937,-0.21875 q 0.21875,-1.01563 0.71875,-1.64063 0.5,-0.64062 1.45312,-0.98437 0.95313,-0.34375 2.1875,-0.34375 1.25,0 2.01563,0.29687 0.78125,0.28125 1.14062,0.73438 0.375,0.4375 0.51563,1.10937 0.0781,0.42188 0.0781,1.51563 v 2.1875 q 0,2.28125 0.10938,2.89062 0.10937,0.59375 0.40625,1.15625 h -1.70313 q -0.26562,-0.51562 -0.32812,-1.1875 z m -0.14063,-3.67187 q -0.89062,0.375 -2.67187,0.625 -1.01563,0.14062 -1.4375,0.32812 -0.42188,0.1875 -0.65625,0.53125 -0.21875,0.34375 -0.21875,0.78125 0,0.65625 0.5,1.09375 0.5,0.4375 1.45312,0.4375 0.9375,0 1.67188,-0.40625 0.75,-0.42187 1.09375,-1.14062 0.26562,-0.5625 0.26562,-1.64063 z m 4.20383,4.85937 v -9.67187 h 1.46875 v 1.375 q 1.0625,-1.59375 3.07812,-1.59375 0.875,0 1.60938,0.3125 0.73437,0.3125 1.09375,0.82812 0.375,0.5 0.51562,1.20313 0.0937,0.45312 0.0937,1.59375 v 5.95312 h -1.64062 v -5.89062 q 0,-1 -0.20313,-1.48438 -0.1875,-0.5 -0.67187,-0.79687 -0.48438,-0.29688 -1.14063,-0.29688 -1.04687,0 -1.8125,0.67188 -0.75,0.65625 -0.75,2.51562 v 5.28125 z m 16.68823,-3.54687 1.60937,0.21875 q -0.26562,1.65625 -1.35937,2.60937 -1.07813,0.9375 -2.67188,0.9375 -1.98437,0 -3.1875,-1.29687 -1.20312,-1.29688 -1.20312,-3.71875 0,-1.57813 0.51562,-2.75 0.51563,-1.17188 1.57813,-1.75 1.0625,-0.59375 2.3125,-0.59375 1.57812,0 2.57812,0.79687 1,0.79688 1.28125,2.26563 l -1.59375,0.23437 q -0.23437,-0.96875 -0.8125,-1.45312 -0.57812,-0.5 -1.39062,-0.5 -1.23438,0 -2.01563,0.89062 -0.78125,0.89063 -0.78125,2.8125 0,1.95313 0.75,2.84375 0.75,0.875 1.95313,0.875 0.96875,0 1.60937,-0.59375 0.65625,-0.59375 0.82813,-1.82812 z m 9.64062,0.4375 1.6875,0.20312 q -0.40625,1.48438 -1.48437,2.3125 -1.07813,0.8125 -2.76563,0.8125 -2.125,0 -3.375,-1.29687 -1.23437,-1.3125 -1.23437,-3.67188 0,-2.45312 1.25,-3.79687 1.26562,-1.34375 3.26562,-1.34375 1.9375,0 3.15625,1.32812 1.23438,1.3125 1.23438,3.70313 0,0.15625 0,0.4375 h -7.21875 q 0.0937,1.59375 0.90625,2.45312 0.8125,0.84375 2.01562,0.84375 0.90625,0 1.54688,-0.46875 0.64062,-0.48437 1.01562,-1.51562 z m -5.39062,-2.65625 h 5.40625 q -0.10938,-1.21875 -0.625,-1.82813 -0.78125,-0.95312 -2.03125,-0.95312 -1.125,0 -1.90625,0.76562 -0.76563,0.75 -0.84375,2.01563 z"
     fill-rule="nonzero"
     id="path498" />
  <path
     fill="#ffffff"
     d="m 185.91732,124.35564 h 32 v 36.15749 h -32 z"
     fill-rule="evenodd"
     id="path500" />
  <path
     stroke="#000000"
     stroke-width="1"
     stroke-linejoin="round"
     stroke-linecap="butt"
     d="m 185.91732,124.35564 h 32 v 36.15749 h -32 z"
     fill-rule="evenodd"
     id="path502" />
  <path
     fill="#000000"
     d="m 196.61834,149.35437 v -13.35936 h 4.60938 q 1.54687,0 2.375,0.20312 1.14062,0.25 1.95312,0.95313 1.0625,0.89062 1.57813,2.28125 0.53125,1.39062 0.53125,3.17187 0,1.51563 -0.35938,2.70311 -0.35937,1.17188 -0.92187,1.9375 -0.54688,0.76563 -1.20313,1.21875 -0.65625,0.4375 -1.59375,0.67188 -0.9375,0.21875 -2.14062,0.21875 z m 1.76563,-1.57812 h 2.85937 q 1.3125,0 2.0625,-0.23438 0.75,-0.25 1.20313,-0.70312 0.625,-0.625 0.96875,-1.6875 0.35937,-1.06249 0.35937,-2.57811 0,-2.09375 -0.6875,-3.21875 -0.6875,-1.125 -1.67187,-1.5 -0.70313,-0.28125 -2.28125,-0.28125 h -2.8125 z"
     fill-rule="nonzero"
     id="path504" />
  <path
     fill="#ffffff"
     d="m 217.91732,124.34251 h 32 V 160.5 h -32 z"
     fill-rule="evenodd"
     id="path506" />
  <path
     stroke="#000000"
     stroke-width="1"
     stroke-linejoin="round"
     stroke-linecap="butt"
     d="m 217.91732,124.34251 h 32 V 160.5 h -32 z"
     fill-rule="evenodd"
     id="path508" />
  <path
     fill="#000000"
     d="m 228.61834,149.34125 v -13.35936 h 4.60938 q 1.54687,0 2.375,0.20312 1.14062,0.25 1.95312,0.95313 1.0625,0.89062 1.57813,2.28125 0.53125,1.39062 0.53125,3.17187 0,1.51563 -0.35938,2.70311 -0.35937,1.17188 -0.92187,1.9375 -0.54688,0.76563 -1.20313,1.21875 -0.65625,0.4375 -1.59375,0.67188 -0.9375,0.21875 -2.14062,0.21875 z m 1.76563,-1.57813 h 2.85937 q 1.3125,0 2.0625,-0.23437 0.75,-0.25 1.20313,-0.70313 0.625,-0.625 0.96875,-1.6875 0.35937,-1.06248 0.35937,-2.5781 0,-2.09375 -0.6875,-3.21875 -0.6875,-1.125 -1.67187,-1.5 -0.70313,-0.28125 -2.28125,-0.28125 h -2.8125 z"
     fill-rule="nonzero"
     id="path510" />
  <path
     fill="#ffffff"
     d="m 249.91732,124.34251 h 32 V 160.5 h -32 z"
     fill-rule="evenodd"
     id="path512" />
  <path
     stroke="#000000"
     stroke-width="1"
     stroke-linejoin="round"
     stroke-linecap="butt"
     d="m 249.91732,124.34251 h 32 V 160.5 h -32 z"
     fill-rule="evenodd"
     id="path514" />
  <path
     fill="#000000"
     d="m 260.61834,149.34125 v -13.35936 h 4.60938 q 1.54687,0 2.375,0.20312 1.14062,0.25 1.95312,0.95313 1.0625,0.89062 1.57813,2.28125 0.53125,1.39062 0.53125,3.17187 0,1.51563 -0.35938,2.70311 -0.35937,1.17188 -0.92187,1.9375 -0.54688,0.76563 -1.20313,1.21875 -0.65625,0.4375 -1.59375,0.67188 -0.9375,0.21875 -2.14062,0.21875 z m 1.76563,-1.57813 h 2.85937 q 1.3125,0 2.0625,-0.23437 0.75,-0.25 1.20313,-0.70313 0.625,-0.625 0.96875,-1.6875 0.35937,-1.06248 0.35937,-2.5781 0,-2.09375 -0.6875,-3.21875 -0.6875,-1.125 -1.67187,-1.5 -0.70313,-0.28125 -2.28125,-0.28125 h -2.8125 z"
     fill-rule="nonzero"
     id="path516" />
  <path
     fill="#ffffff"
     d="m 281.91732,124.34251 h 32 V 160.5 h -32 z"
     fill-rule="evenodd"
     id="path518" />
  <path
     stroke="#000000"
     stroke-width="1"
     stroke-linejoin="round"
     stroke-linecap="butt"
     d="m 281.91732,124.34251 h 32 V 160.5 h -32 z"
     fill-rule="evenodd"
     id="path520" />
  <path
     fill="#000000"
     d="m 292.61834,149.34125 v -13.35936 h 4.60938 q 1.54687,0 2.375,0.20312 1.14062,0.25 1.95312,0.95313 1.0625,0.89062 1.57813,2.28125 0.53125,1.39062 0.53125,3.17187 0,1.51563 -0.35938,2.70311 -0.35937,1.17188 -0.92187,1.9375 -0.54688,0.76563 -1.20313,1.21875 -0.65625,0.4375 -1.59375,0.67188 -0.9375,0.21875 -2.14062,0.21875 z m 1.76563,-1.57813 h 2.85937 q 1.3125,0 2.0625,-0.23437 0.75,-0.25 1.20313,-0.70313 0.625,-0.625 0.96875,-1.6875 0.35937,-1.06248 0.35937,-2.5781 0,-2.09375 -0.6875,-3.21875 -0.6875,-1.125 -1.67187,-1.5 -0.70313,-0.28125 -2.28125,-0.28125 h -2.8125 z"
     fill-rule="nonzero"
     id="path522" />
  <path
     fill="#ffffff"
     d="m 313.91732,124.34251 h 32 V 160.5 h -32 z"
     fill-rule="evenodd"
     id="path524" />
  <path
     stroke="#000000"
     stroke-width="1"
     stroke-linejoin="round"
     stroke-linecap="butt"
     d="m 313.91732,124.34251 h 32 V 160.5 h -32 z"
     fill-rule="evenodd"
     id="path526" />
  <path
     fill="#000000"
     d="m 324.61834,149.34125 v -13.35936 h 4.60938 q 1.54687,0 2.375,0.20312 1.14062,0.25 1.95312,0.95313 1.0625,0.89062 1.57813,2.28125 0.53125,1.39062 0.53125,3.17187 0,1.51563 -0.35938,2.70311 -0.35937,1.17188 -0.92187,1.9375 -0.54688,0.76563 -1.20313,1.21875 -0.65625,0.4375 -1.59375,0.67188 -0.9375,0.21875 -2.14062,0.21875 z m 1.76563,-1.57813 h 2.85937 q 1.3125,0 2.0625,-0.23437 0.75,-0.25 1.20313,-0.70313 0.625,-0.625 0.96875,-1.6875 0.35937,-1.06248 0.35937,-2.5781 0,-2.09375 -0.6875,-3.21875 -0.6875,-1.125 -1.67187,-1.5 -0.70313,-0.28125 -2.28125,-0.28125 h -2.8125 z"
     fill-rule="nonzero"
     id="path528" />
  <path
     fill="#ffffff"
     d="m 345.91732,124.34251 h 32 V 160.5 h -32 z"
     fill-rule="evenodd"
     id="path530" />
  <path
     stroke="#000000"
     stroke-width="1"
     stroke-linejoin="round"
     stroke-linecap="butt"
     d="m 345.91732,124.34251 h 32 V 160.5 h -32 z"
     fill-rule="evenodd"
     id="path532" />
  <path
     fill="#000000"
     d="m 356.61834,149.34125 v -13.35936 h 4.60938 q 1.54687,0 2.375,0.20312 1.14062,0.25 1.95312,0.95313 1.0625,0.89062 1.57813,2.28125 0.53125,1.39062 0.53125,3.17187 0,1.51563 -0.35938,2.70311 -0.35937,1.17188 -0.92187,1.9375 -0.54688,0.76563 -1.20313,1.21875 -0.65625,0.4375 -1.59375,0.67188 -0.9375,0.21875 -2.14062,0.21875 z m 1.76563,-1.57813 h 2.85937 q 1.3125,0 2.0625,-0.23437 0.75,-0.25 1.20313,-0.70313 0.625,-0.625 0.96875,-1.6875 0.35937,-1.06248 0.35937,-2.5781 0,-2.09375 -0.6875,-3.21875 -0.6875,-1.125 -1.67187,-1.5 -0.70313,-0.28125 -2.28125,-0.28125 h -2.8125 z"
     fill-rule="nonzero"
     id="path534" />
  <path
     fill="#ffffff"
     d="m 377.91732,124.34251 h 32 V 160.5 h -32 z"
     fill-rule="evenodd"
     id="path536" />
  <path
     stroke="#000000"
     stroke-width="1"
     stroke-linejoin="round"
     stroke-linecap="butt"
     d="m 377.91732,124.34251 h 32 V 160.5 h -32 z"
     fill-rule="evenodd"
     id="path538" />
  <path
     fill="#000000"
     d="m 388.61834,149.34125 v -13.35936 h 4.60938 q 1.54687,0 2.375,0.20312 1.14062,0.25 1.95312,0.95313 1.0625,0.89062 1.57813,2.28125 0.53125,1.39062 0.53125,3.17187 0,1.51563 -0.35938,2.70311 -0.35937,1.17188 -0.92187,1.9375 -0.54688,0.76563 -1.20313,1.21875 -0.65625,0.4375 -1.59375,0.67188 -0.9375,0.21875 -2.14062,0.21875 z m 1.76563,-1.57813 h 2.85937 q 1.3125,0 2.0625,-0.23437 0.75,-0.25 1.20313,-0.70313 0.625,-0.625 0.96875,-1.6875 0.35937,-1.06248 0.35937,-2.5781 0,-2.09375 -0.6875,-3.21875 -0.6875,-1.125 -1.67187,-1.5 -0.70313,-0.28125 -2.28125,-0.28125 h -2.8125 z"
     fill-rule="nonzero"
     id="path540" />
  <path
     fill="#ffffff"
     d="m 409.91732,124.34251 h 32 V 160.5 h -32 z"
     fill-rule="evenodd"
     id="path542" />
  <path
     stroke="#000000"
     stroke-width="1"
     stroke-linejoin="round"
     stroke-linecap="butt"
     d="m 409.91732,124.34251 h 32 V 160.5 h -32 z"
     fill-rule="evenodd"
     id="path544" />
  <path
     fill="#000000"
     d="m 420.61834,149.34125 v -13.35936 h 4.60938 q 1.54687,0 2.375,0.20312 1.14062,0.25 1.95312,0.95313 1.0625,0.89062 1.57813,2.28125 0.53125,1.39062 0.53125,3.17187 0,1.51563 -0.35938,2.70311 -0.35937,1.17188 -0.92187,1.9375 -0.54688,0.76563 -1.20313,1.21875 -0.65625,0.4375 -1.59375,0.67188 -0.9375,0.21875 -2.14062,0.21875 z m 1.76563,-1.57813 h 2.85937 q 1.3125,0 2.0625,-0.23437 0.75,-0.25 1.20313,-0.70313 0.625,-0.625 0.96875,-1.6875 0.35937,-1.06248 0.35937,-2.5781 0,-2.09375 -0.6875,-3.21875 -0.6875,-1.125 -1.67187,-1.5 -0.70313,-0.28125 -2.28125,-0.28125 h -2.8125 z"
     fill-rule="nonzero"
     id="path546" />
  <path
     fill="#efefef"
     d="m 505.91732,80.5 h 288 v 96 h -288 z"
     fill-rule="evenodd"
     id="path548" />
  <path
     stroke="#000000"
     stroke-width="1"
     stroke-linejoin="round"
     stroke-linecap="butt"
     d="m 505.91732,80.5 h 288 v 96 h -288 z"
     fill-rule="evenodd"
     id="path550" />
  <path
     fill="#000000"
     d="m 552.48542,105.84187 v 1.57812 h -8.82813 q -0.0156,-0.59375 0.1875,-1.14062 0.34375,-0.90625 1.07813,-1.78125 0.75,-0.875 2.15625,-2.01563 2.17187,-1.78125 2.9375,-2.82812 0.76562,-1.04688 0.76562,-1.96875 0,-0.98438 -0.70312,-1.64063 -0.6875,-0.67187 -1.8125,-0.67187 -1.1875,0 -1.90625,0.71875 -0.70313,0.70312 -0.70313,1.95312 l -1.6875,-0.17187 q 0.17188,-1.89063 1.29688,-2.875 1.14062,-0.98438 3.03125,-0.98438 1.92187,0 3.04687,1.0625 1.125,1.0625 1.125,2.64063 0,0.79687 -0.32812,1.57812 -0.32813,0.78125 -1.09375,1.64063 -0.75,0.84375 -2.53125,2.34375 -1.46875,1.23437 -1.89063,1.6875 -0.42187,0.4375 -0.6875,0.875 z m 7.01636,1.57812 v -3.20312 h -5.79688 v -1.5 l 6.09375,-8.65625 h 1.34375 v 8.65625 h 1.79688 v 1.5 h -1.79688 v 3.20312 z m 0,-4.70312 v -6.01563 l -4.1875,6.01563 z m 5.36004,1.60937 1.57813,-0.14062 q 0.20312,1.10937 0.76562,1.60937 0.5625,0.5 1.45313,0.5 0.75,0 1.3125,-0.34375 0.57812,-0.34375 0.9375,-0.92187 0.375,-0.57813 0.60937,-1.5625 0.25,-0.98438 0.25,-2 0,-0.10938 0,-0.32813 -0.5,0.78125 -1.35937,1.26563 -0.84375,0.48437 -1.82813,0.48437 -1.67187,0 -2.8125,-1.20312 -1.14062,-1.20313 -1.14062,-3.17188 0,-2.03125 1.1875,-3.26562 1.20312,-1.23438 3,-1.23438 1.3125,0 2.39062,0.70313 1.07813,0.70312 1.64063,2 0.5625,1.29687 0.5625,3.75 0,2.5625 -0.5625,4.07812 -0.5625,1.51563 -1.65625,2.3125 -1.09375,0.79688 -2.57813,0.79688 -1.5625,0 -2.5625,-0.875 -0.98437,-0.875 -1.1875,-2.45313 z m 6.71875,-5.89062 q 0,-1.40625 -0.75,-2.23438 -0.75,-0.82812 -1.8125,-0.82812 -1.09375,0 -1.90625,0.89062 -0.8125,0.89063 -0.8125,2.3125 0,1.28125 0.76563,2.07813 0.78125,0.79687 1.90625,0.79687 1.14062,0 1.875,-0.79687 0.73437,-0.79688 0.73437,-2.21875 z m 2.78199,8.98437 3.53125,-5.03125 -3.26563,-4.64062 h 2.04688 l 1.48437,2.26562 q 0.42188,0.64063 0.67188,1.07813 0.40625,-0.59375 0.73437,-1.0625 l 1.64063,-2.28125 h 1.95312 l -3.34375,4.54687 3.59375,5.125 h -2.01562 l -1.98438,-3 -0.51562,-0.8125 -2.54688,3.8125 z m 14.94891,-2.89062 1.625,-0.25 q 0.125,0.96875 0.75,1.5 0.625,0.51562 1.75,0.51562 1.125,0 1.67188,-0.45312 0.54687,-0.46875 0.54687,-1.09375 0,-0.54688 -0.48437,-0.875 -0.32813,-0.21875 -1.67188,-0.54688 -1.8125,-0.46875 -2.51562,-0.79687 -0.6875,-0.32813 -1.04688,-0.90625 -0.35937,-0.59375 -0.35937,-1.3125 0,-0.64063 0.29687,-1.1875 0.29688,-0.5625 0.8125,-0.92188 0.375,-0.28125 1.03125,-0.46875 0.67188,-0.20312 1.42188,-0.20312 1.14062,0 2,0.32812 0.85937,0.32813 1.26562,0.89063 0.42188,0.5625 0.57813,1.5 l -1.60938,0.21875 q -0.10937,-0.75 -0.64062,-1.17188 -0.51563,-0.42187 -1.46875,-0.42187 -1.14063,0 -1.625,0.375 -0.46875,0.375 -0.46875,0.875 0,0.3125 0.1875,0.57812 0.20312,0.26563 0.64062,0.4375 0.23438,0.0937 1.4375,0.42188 1.75,0.45312 2.4375,0.75 0.6875,0.29687 1.07813,0.85937 0.39062,0.5625 0.39062,1.40625 0,0.82813 -0.48437,1.54688 -0.46875,0.71875 -1.375,1.125 -0.90625,0.39062 -2.04688,0.39062 -1.875,0 -2.875,-0.78125 -0.98437,-0.78125 -1.25,-2.32812 z m 16.29688,-0.65625 1.60937,0.21875 q -0.26562,1.65625 -1.35937,2.60937 -1.07813,0.9375 -2.67188,0.9375 -1.98437,0 -3.1875,-1.29687 -1.20312,-1.29688 -1.20312,-3.71875 0,-1.57813 0.51562,-2.75 0.51563,-1.17188 1.57813,-1.75 1.0625,-0.59375 2.3125,-0.59375 1.57812,0 2.57812,0.79687 1,0.79688 1.28125,2.26563 l -1.59375,0.23437 q -0.23437,-0.96875 -0.8125,-1.45312 -0.57812,-0.5 -1.39062,-0.5 -1.23438,0 -2.01563,0.89062 -0.78125,0.89063 -0.78125,2.8125 0,1.95313 0.75,2.84375 0.75,0.875 1.95313,0.875 0.96875,0 1.60937,-0.59375 0.65625,-0.59375 0.82813,-1.82812 z m 9.32812,2.35937 q -0.92187,0.76563 -1.76562,1.09375 -0.82813,0.3125 -1.79688,0.3125 -1.59375,0 -2.45312,-0.78125 -0.85938,-0.78125 -0.85938,-1.98437 0,-0.71875 0.32813,-1.29688 0.32812,-0.59375 0.84375,-0.9375 0.53125,-0.35937 1.1875,-0.54687 0.46875,-0.125 1.45312,-0.25 1.98438,-0.23438 2.92188,-0.5625 0.0156,-0.34375 0.0156,-0.42188 0,-1 -0.46875,-1.42187 -0.625,-0.54688 -1.875,-0.54688 -1.15625,0 -1.70312,0.40625 -0.54688,0.40625 -0.8125,1.42188 l -1.60938,-0.21875 q 0.21875,-1.01563 0.71875,-1.64063 0.5,-0.64062 1.45313,-0.98437 0.95312,-0.34375 2.1875,-0.34375 1.25,0 2.01562,0.29687 0.78125,0.28125 1.14063,0.73438 0.375,0.4375 0.51562,1.10937 0.0781,0.42188 0.0781,1.51563 v 2.1875 q 0,2.28125 0.10937,2.89062 0.10938,0.59375 0.40625,1.15625 h -1.70312 q -0.26563,-0.51562 -0.32813,-1.1875 z m -0.14062,-3.67187 q -0.89063,0.375 -2.67188,0.625 -1.01562,0.14062 -1.4375,0.32812 -0.42187,0.1875 -0.65625,0.53125 -0.21875,0.34375 -0.21875,0.78125 0,0.65625 0.5,1.09375 0.5,0.4375 1.45313,0.4375 0.9375,0 1.67187,-0.40625 0.75,-0.42187 1.09375,-1.14062 0.26563,-0.5625 0.26563,-1.64063 z m 4.20385,4.85937 v -9.67187 h 1.46875 v 1.375 q 1.0625,-1.59375 3.07813,-1.59375 0.875,0 1.60937,0.3125 0.73438,0.3125 1.09375,0.82812 0.375,0.5 0.51563,1.20313 0.0937,0.45312 0.0937,1.59375 v 5.95312 h -1.64063 v -5.89062 q 0,-1 -0.20312,-1.48438 -0.1875,-0.5 -0.67188,-0.79687 -0.48437,-0.29688 -1.14062,-0.29688 -1.04688,0 -1.8125,0.67188 -0.75,0.65625 -0.75,2.51562 v 5.28125 z m 16.68823,-3.54687 1.60938,0.21875 q -0.26563,1.65625 -1.35938,2.60937 -1.07812,0.9375 -2.67187,0.9375 -1.98438,0 -3.1875,-1.29687 -1.20313,-1.29688 -1.20313,-3.71875 0,-1.57813 0.51563,-2.75 0.51562,-1.17188 1.57812,-1.75 1.0625,-0.59375 2.3125,-0.59375 1.57813,0 2.57813,0.79687 1,0.79688 1.28125,2.26563 l -1.59375,0.23437 q -0.23438,-0.96875 -0.8125,-1.45312 -0.57813,-0.5 -1.39063,-0.5 -1.23437,0 -2.01562,0.89062 -0.78125,0.89063 -0.78125,2.8125 0,1.95313 0.75,2.84375 0.75,0.875 1.95312,0.875 0.96875,0 1.60938,-0.59375 0.65625,-0.59375 0.82812,-1.82812 z m 3.01563,3.54687 V 94.06062 h 1.64062 v 4.79687 q 1.14063,-1.32812 2.89063,-1.32812 1.07812,0 1.85937,0.42187 0.79688,0.42188 1.14063,1.17188 0.34375,0.75 0.34375,2.17187 v 6.125 h -1.64063 v -6.125 q 0,-1.23437 -0.53125,-1.79687 -0.53125,-0.5625 -1.51562,-0.5625 -0.71875,0 -1.35938,0.39062 -0.64062,0.375 -0.92187,1.01563 -0.26563,0.64062 -0.26563,1.78125 v 5.29687 z m 16.68823,-1.1875 q -0.92187,0.76563 -1.76562,1.09375 -0.82813,0.3125 -1.79688,0.3125 -1.59375,0 -2.45312,-0.78125 -0.85938,-0.78125 -0.85938,-1.98437 0,-0.71875 0.32813,-1.29688 0.32812,-0.59375 0.84375,-0.9375 0.53125,-0.35937 1.1875,-0.54687 0.46875,-0.125 1.45312,-0.25 1.98438,-0.23438 2.92188,-0.5625 0.0156,-0.34375 0.0156,-0.42188 0,-1 -0.46875,-1.42187 -0.625,-0.54688 -1.875,-0.54688 -1.15625,0 -1.70312,0.40625 -0.54688,0.40625 -0.8125,1.42188 l -1.60938,-0.21875 q 0.21875,-1.01563 0.71875,-1.64063 0.5,-0.64062 1.45313,-0.98437 0.95312,-0.34375 2.1875,-0.34375 1.25,0 2.01562,0.29687 0.78125,0.28125 1.14063,0.73438 0.375,0.4375 0.51562,1.10937 0.0781,0.42188 0.0781,1.51563 v 2.1875 q 0,2.28125 0.10937,2.89062 0.10938,0.59375 0.40625,1.15625 h -1.70312 q -0.26563,-0.51562 -0.32813,-1.1875 z m -0.14062,-3.67187 q -0.89063,0.375 -2.67188,0.625 -1.01562,0.14062 -1.4375,0.32812 -0.42187,0.1875 -0.65625,0.53125 -0.21875,0.34375 -0.21875,0.78125 0,0.65625 0.5,1.09375 0.5,0.4375 1.45313,0.4375 0.9375,0 1.67187,-0.40625 0.75,-0.42187 1.09375,-1.14062 0.26563,-0.5625 0.26563,-1.64063 z m 4.20385,-6.60938 v -1.89062 h 1.64063 v 1.89062 z m 0,11.46875 v -9.67187 h 1.64063 v 9.67187 z m 4.14478,0 v -9.67187 h 1.46875 v 1.375 q 1.0625,-1.59375 3.07812,-1.59375 0.875,0 1.60938,0.3125 0.73437,0.3125 1.09375,0.82812 0.375,0.5 0.51562,1.20313 0.0937,0.45312 0.0937,1.59375 v 5.95312 h -1.64062 v -5.89062 q 0,-1 -0.20313,-1.48438 -0.1875,-0.5 -0.67187,-0.79687 -0.48438,-0.29688 -1.14063,-0.29688 -1.04687,0 -1.8125,0.67188 -0.75,0.65625 -0.75,2.51562 v 5.28125 z m 15.55902,-11.46875 v -1.89062 h 1.64063 v 1.89062 z m 0,11.46875 v -9.67187 h 1.64063 v 9.67187 z m 4.14484,0 v -9.67187 h 1.46875 v 1.375 q 1.0625,-1.59375 3.07812,-1.59375 0.875,0 1.60938,0.3125 0.73437,0.3125 1.09375,0.82812 0.375,0.5 0.51562,1.20313 0.0937,0.45312 0.0937,1.59375 v 5.95312 h -1.64062 v -5.89062 q 0,-1 -0.20313,-1.48438 -0.1875,-0.5 -0.67187,-0.79687 -0.48438,-0.29688 -1.14063,-0.29688 -1.04687,0 -1.8125,0.67188 -0.75,0.65625 -0.75,2.51562 v 5.28125 z m 9.71948,-2.89062 1.625,-0.25 q 0.125,0.96875 0.75,1.5 0.625,0.51562 1.75,0.51562 1.125,0 1.67187,-0.45312 0.54688,-0.46875 0.54688,-1.09375 0,-0.54688 -0.48438,-0.875 -0.32812,-0.21875 -1.67187,-0.54688 -1.8125,-0.46875 -2.51563,-0.79687 -0.6875,-0.32813 -1.04687,-0.90625 -0.35938,-0.59375 -0.35938,-1.3125 0,-0.64063 0.29688,-1.1875 0.29687,-0.5625 0.8125,-0.92188 0.375,-0.28125 1.03125,-0.46875 0.67187,-0.20312 1.42187,-0.20312 1.14063,0 2,0.32812 0.85938,0.32813 1.26563,0.89063 0.42187,0.5625 0.57812,1.5 l -1.60937,0.21875 q -0.10938,-0.75 -0.64063,-1.17188 -0.51562,-0.42187 -1.46875,-0.42187 -1.14062,0 -1.625,0.375 -0.46875,0.375 -0.46875,0.875 0,0.3125 0.1875,0.57812 0.20313,0.26563 0.64063,0.4375 0.23437,0.0937 1.4375,0.42188 1.75,0.45312 2.4375,0.75 0.6875,0.29687 1.07812,0.85937 0.39063,0.5625 0.39063,1.40625 0,0.82813 -0.48438,1.54688 -0.46875,0.71875 -1.375,1.125 -0.90625,0.39062 -2.04687,0.39062 -1.875,0 -2.875,-0.78125 -0.98438,-0.78125 -1.25,-2.32812 z m 13.5625,1.42187 0.23437,1.45313 q -0.6875,0.14062 -1.23437,0.14062 -0.89063,0 -1.39063,-0.28125 -0.48437,-0.28125 -0.6875,-0.73437 -0.20312,-0.46875 -0.20312,-1.9375 v -5.57813 h -1.20313 v -1.26562 h 1.20313 v -2.39063 l 1.625,-0.98437 v 3.375 h 1.65625 v 1.26562 h -1.65625 v 5.67188 q 0,0.6875 0.0781,0.89062 0.0937,0.20313 0.28125,0.32813 0.20313,0.10937 0.57813,0.10937 0.26562,0 0.71875,-0.0625 z m 7.91766,0.28125 q -0.92187,0.76563 -1.76562,1.09375 -0.82813,0.3125 -1.79688,0.3125 -1.59375,0 -2.45312,-0.78125 -0.85938,-0.78125 -0.85938,-1.98437 0,-0.71875 0.32813,-1.29688 0.32812,-0.59375 0.84375,-0.9375 0.53125,-0.35937 1.1875,-0.54687 0.46875,-0.125 1.45312,-0.25 1.98438,-0.23438 2.92188,-0.5625 0.0156,-0.34375 0.0156,-0.42188 0,-1 -0.46875,-1.42187 -0.625,-0.54688 -1.875,-0.54688 -1.15625,0 -1.70312,0.40625 -0.54688,0.40625 -0.8125,1.42188 l -1.60938,-0.21875 q 0.21875,-1.01563 0.71875,-1.64063 0.5,-0.64062 1.45313,-0.98437 0.95312,-0.34375 2.1875,-0.34375 1.25,0 2.01562,0.29687 0.78125,0.28125 1.14063,0.73438 0.375,0.4375 0.51562,1.10937 0.0781,0.42188 0.0781,1.51563 v 2.1875 q 0,2.28125 0.10937,2.89062 0.10938,0.59375 0.40625,1.15625 h -1.70312 q -0.26563,-0.51562 -0.32813,-1.1875 z m -0.14062,-3.67187 q -0.89063,0.375 -2.67188,0.625 -1.01562,0.14062 -1.4375,0.32812 -0.42187,0.1875 -0.65625,0.53125 -0.21875,0.34375 -0.21875,0.78125 0,0.65625 0.5,1.09375 0.5,0.4375 1.45313,0.4375 0.9375,0 1.67187,-0.40625 0.75,-0.42187 1.09375,-1.14062 0.26563,-0.5625 0.26563,-1.64063 z m 4.20379,4.85937 v -9.67187 h 1.46875 v 1.375 q 1.0625,-1.59375 3.07813,-1.59375 0.875,0 1.60937,0.3125 0.73438,0.3125 1.09375,0.82812 0.375,0.5 0.51563,1.20313 0.0937,0.45312 0.0937,1.59375 v 5.95312 h -1.64063 v -5.89062 q 0,-1 -0.20312,-1.48438 -0.1875,-0.5 -0.67188,-0.79687 -0.48437,-0.29688 -1.14062,-0.29688 -1.04688,0 -1.8125,0.67188 -0.75,0.65625 -0.75,2.51562 v 5.28125 z m 16.68824,-3.54687 1.60937,0.21875 q -0.26562,1.65625 -1.35937,2.60937 -1.07813,0.9375 -2.67188,0.9375 -1.98437,0 -3.1875,-1.29687 -1.20312,-1.29688 -1.20312,-3.71875 0,-1.57813 0.51562,-2.75 0.51563,-1.17188 1.57813,-1.75 1.0625,-0.59375 2.3125,-0.59375 1.57812,0 2.57812,0.79687 1,0.79688 1.28125,2.26563 l -1.59375,0.23437 q -0.23437,-0.96875 -0.8125,-1.45312 -0.57812,-0.5 -1.39062,-0.5 -1.23438,0 -2.01563,0.89062 -0.78125,0.89063 -0.78125,2.8125 0,1.95313 0.75,2.84375 0.75,0.875 1.95313,0.875 0.96875,0 1.60937,-0.59375 0.65625,-0.59375 0.82813,-1.82812 z m 9.64062,0.4375 1.6875,0.20312 q -0.40625,1.48438 -1.48437,2.3125 -1.07813,0.8125 -2.76563,0.8125 -2.125,0 -3.375,-1.29687 -1.23437,-1.3125 -1.23437,-3.67188 0,-2.45312 1.25,-3.79687 1.26562,-1.34375 3.26562,-1.34375 1.9375,0 3.15625,1.32812 1.23438,1.3125 1.23438,3.70313 0,0.15625 0,0.4375 h -7.21875 q 0.0937,1.59375 0.90625,2.45312 0.8125,0.84375 2.01562,0.84375 0.90625,0 1.54688,-0.46875 0.64062,-0.48437 1.01562,-1.51562 z m -5.39062,-2.65625 h 5.40625 q -0.10938,-1.21875 -0.625,-1.82813 -0.78125,-0.95312 -2.03125,-0.95312 -1.125,0 -1.90625,0.76562 -0.76563,0.75 -0.84375,2.01563 z m 8.4851,2.875 1.625,-0.25 q 0.125,0.96875 0.75,1.5 0.625,0.51562 1.75,0.51562 1.125,0 1.67188,-0.45312 0.54687,-0.46875 0.54687,-1.09375 0,-0.54688 -0.48437,-0.875 -0.32813,-0.21875 -1.67188,-0.54688 -1.8125,-0.46875 -2.51562,-0.79687 -0.6875,-0.32813 -1.04688,-0.90625 -0.35937,-0.59375 -0.35937,-1.3125 0,-0.64063 0.29687,-1.1875 0.29688,-0.5625 0.8125,-0.92188 0.375,-0.28125 1.03125,-0.46875 0.67188,-0.20312 1.42188,-0.20312 1.14062,0 2,0.32812 0.85937,0.32813 1.26562,0.89063 0.42188,0.5625 0.57813,1.5 l -1.60938,0.21875 q -0.10937,-0.75 -0.64062,-1.17188 -0.51563,-0.42187 -1.46875,-0.42187 -1.14063,0 -1.625,0.375 -0.46875,0.375 -0.46875,0.875 0,0.3125 0.1875,0.57812 0.20312,0.26563 0.64062,0.4375 0.23438,0.0937 1.4375,0.42188 1.75,0.45312 2.4375,0.75 0.6875,0.29687 1.07813,0.85937 0.39062,0.5625 0.39062,1.40625 0,0.82813 -0.48437,1.54688 -0.46875,0.71875 -1.375,1.125 -0.90625,0.39062 -2.04688,0.39062 -1.875,0 -2.875,-0.78125 -0.98437,-0.78125 -1.25,-2.32812 z"
     fill-rule="nonzero"
     id="path552" />
  <path
     fill="#ffffff"
     d="m 521.91732,124.35564 h 32 v 36.15749 h -32 z"
     fill-rule="evenodd"
     id="path554" />
  <path
     stroke="#000000"
     stroke-width="1"
     stroke-linejoin="round"
     stroke-linecap="butt"
     d="m 521.91732,124.35564 h 32 v 36.15749 h -32 z"
     fill-rule="evenodd"
     id="path556" />
  <path
     fill="#000000"
     d="m 532.61837,149.35437 v -13.35936 h 4.60937 q 1.54688,0 2.375,0.20312 1.14063,0.25 1.95313,0.95313 1.0625,0.89062 1.57812,2.28125 0.53125,1.39062 0.53125,3.17187 0,1.51563 -0.35937,2.70311 -0.35938,1.17188 -0.92188,1.9375 -0.54687,0.76563 -1.20312,1.21875 -0.65625,0.4375 -1.59375,0.67188 -0.9375,0.21875 -2.14063,0.21875 z m 1.76562,-1.57812 h 2.85938 q 1.3125,0 2.0625,-0.23438 0.75,-0.25 1.20312,-0.70312 0.625,-0.625 0.96875,-1.6875 0.35938,-1.06249 0.35938,-2.57811 0,-2.09375 -0.6875,-3.21875 -0.6875,-1.125 -1.67188,-1.5 -0.70312,-0.28125 -2.28125,-0.28125 h -2.8125 z"
     fill-rule="nonzero"
     id="path558" />
  <path
     fill="#ffffff"
     d="m 553.91732,124.34251 h 32 V 160.5 h -32 z"
     fill-rule="evenodd"
     id="path560" />
  <path
     stroke="#000000"
     stroke-width="1"
     stroke-linejoin="round"
     stroke-linecap="butt"
     d="m 553.91732,124.34251 h 32 V 160.5 h -32 z"
     fill-rule="evenodd"
     id="path562" />
  <path
     fill="#000000"
     d="m 564.61837,149.34125 v -13.35936 h 4.60937 q 1.54688,0 2.375,0.20312 1.14063,0.25 1.95313,0.95313 1.0625,0.89062 1.57812,2.28125 0.53125,1.39062 0.53125,3.17187 0,1.51563 -0.35937,2.70311 -0.35938,1.17188 -0.92188,1.9375 -0.54687,0.76563 -1.20312,1.21875 -0.65625,0.4375 -1.59375,0.67188 -0.9375,0.21875 -2.14063,0.21875 z m 1.76562,-1.57813 h 2.85938 q 1.3125,0 2.0625,-0.23437 0.75,-0.25 1.20312,-0.70313 0.625,-0.625 0.96875,-1.6875 0.35938,-1.06248 0.35938,-2.5781 0,-2.09375 -0.6875,-3.21875 -0.6875,-1.125 -1.67188,-1.5 -0.70312,-0.28125 -2.28125,-0.28125 h -2.8125 z"
     fill-rule="nonzero"
     id="path564" />
  <path
     fill="#ffffff"
     d="m 585.91732,124.34251 h 32 V 160.5 h -32 z"
     fill-rule="evenodd"
     id="path566" />
  <path
     stroke="#000000"
     stroke-width="1"
     stroke-linejoin="round"
     stroke-linecap="butt"
     d="m 585.91732,124.34251 h 32 V 160.5 h -32 z"
     fill-rule="evenodd"
     id="path568" />
  <path
     fill="#000000"
     d="m 596.61837,149.34125 v -13.35936 h 4.60937 q 1.54688,0 2.375,0.20312 1.14063,0.25 1.95313,0.95313 1.0625,0.89062 1.57812,2.28125 0.53125,1.39062 0.53125,3.17187 0,1.51563 -0.35937,2.70311 -0.35938,1.17188 -0.92188,1.9375 -0.54687,0.76563 -1.20312,1.21875 -0.65625,0.4375 -1.59375,0.67188 -0.9375,0.21875 -2.14063,0.21875 z m 1.76562,-1.57813 h 2.85938 q 1.3125,0 2.0625,-0.23437 0.75,-0.25 1.20312,-0.70313 0.625,-0.625 0.96875,-1.6875 0.35938,-1.06248 0.35938,-2.5781 0,-2.09375 -0.6875,-3.21875 -0.6875,-1.125 -1.67188,-1.5 -0.70312,-0.28125 -2.28125,-0.28125 h -2.8125 z"
     fill-rule="nonzero"
     id="path570" />
  <path
     fill="#ffffff"
     d="m 617.91732,124.34251 h 32 V 160.5 h -32 z"
     fill-rule="evenodd"
     id="path572" />
  <path
     stroke="#000000"
     stroke-width="1"
     stroke-linejoin="round"
     stroke-linecap="butt"
     d="m 617.91732,124.34251 h 32 V 160.5 h -32 z"
     fill-rule="evenodd"
     id="path574" />
  <path
     fill="#000000"
     d="m 628.61837,149.34125 v -13.35936 h 4.60937 q 1.54688,0 2.375,0.20312 1.14063,0.25 1.95313,0.95313 1.0625,0.89062 1.57812,2.28125 0.53125,1.39062 0.53125,3.17187 0,1.51563 -0.35937,2.70311 -0.35938,1.17188 -0.92188,1.9375 -0.54687,0.76563 -1.20312,1.21875 -0.65625,0.4375 -1.59375,0.67188 -0.9375,0.21875 -2.14063,0.21875 z m 1.76562,-1.57813 h 2.85938 q 1.3125,0 2.0625,-0.23437 0.75,-0.25 1.20312,-0.70313 0.625,-0.625 0.96875,-1.6875 0.35938,-1.06248 0.35938,-2.5781 0,-2.09375 -0.6875,-3.21875 -0.6875,-1.125 -1.67188,-1.5 -0.70312,-0.28125 -2.28125,-0.28125 h -2.8125 z"
     fill-rule="nonzero"
     id="path576" />
  <path
     fill="#ffffff"
     d="m 649.91732,124.34251 h 32 V 160.5 h -32 z"
     fill-rule="evenodd"
     id="path578" />
  <path
     stroke="#000000"
     stroke-width="1"
     stroke-linejoin="round"
     stroke-linecap="butt"
     d="m 649.91732,124.34251 h 32 V 160.5 h -32 z"
     fill-rule="evenodd"
     id="path580" />
  <path
     fill="#000000"
     d="m 660.61837,149.34125 v -13.35936 h 4.60937 q 1.54688,0 2.375,0.20312 1.14063,0.25 1.95313,0.95313 1.0625,0.89062 1.57812,2.28125 0.53125,1.39062 0.53125,3.17187 0,1.51563 -0.35937,2.70311 -0.35938,1.17188 -0.92188,1.9375 -0.54687,0.76563 -1.20312,1.21875 -0.65625,0.4375 -1.59375,0.67188 -0.9375,0.21875 -2.14063,0.21875 z m 1.76562,-1.57813 h 2.85938 q 1.3125,0 2.0625,-0.23437 0.75,-0.25 1.20312,-0.70313 0.625,-0.625 0.96875,-1.6875 0.35938,-1.06248 0.35938,-2.5781 0,-2.09375 -0.6875,-3.21875 -0.6875,-1.125 -1.67188,-1.5 -0.70312,-0.28125 -2.28125,-0.28125 h -2.8125 z"
     fill-rule="nonzero"
     id="path582" />
  <path
     fill="#ffffff"
     d="m 681.91732,124.34251 h 32 V 160.5 h -32 z"
     fill-rule="evenodd"
     id="path584" />
  <path
     stroke="#000000"
     stroke-width="1"
     stroke-linejoin="round"
     stroke-linecap="butt"
     d="m 681.91732,124.34251 h 32 V 160.5 h -32 z"
     fill-rule="evenodd"
     id="path586" />
  <path
     fill="#000000"
     d="m 692.61837,149.34125 v -13.35936 h 4.60937 q 1.54688,0 2.375,0.20312 1.14063,0.25 1.95313,0.95313 1.0625,0.89062 1.57812,2.28125 0.53125,1.39062 0.53125,3.17187 0,1.51563 -0.35937,2.70311 -0.35938,1.17188 -0.92188,1.9375 -0.54687,0.76563 -1.20312,1.21875 -0.65625,0.4375 -1.59375,0.67188 -0.9375,0.21875 -2.14063,0.21875 z m 1.76562,-1.57813 h 2.85938 q 1.3125,0 2.0625,-0.23437 0.75,-0.25 1.20312,-0.70313 0.625,-0.625 0.96875,-1.6875 0.35938,-1.06248 0.35938,-2.5781 0,-2.09375 -0.6875,-3.21875 -0.6875,-1.125 -1.67188,-1.5 -0.70312,-0.28125 -2.28125,-0.28125 h -2.8125 z"
     fill-rule="nonzero"
     id="path588" />
  <path
     fill="#ffffff"
     d="m 713.91732,124.34251 h 32 V 160.5 h -32 z"
     fill-rule="evenodd"
     id="path590" />
  <path
     stroke="#000000"
     stroke-width="1"
     stroke-linejoin="round"
     stroke-linecap="butt"
     d="m 713.91732,124.34251 h 32 V 160.5 h -32 z"
     fill-rule="evenodd"
     id="path592" />
  <path
     fill="#000000"
     d="m 724.61837,149.34125 v -13.35936 h 4.60937 q 1.54688,0 2.375,0.20312 1.14063,0.25 1.95313,0.95313 1.0625,0.89062 1.57812,2.28125 0.53125,1.39062 0.53125,3.17187 0,1.51563 -0.35937,2.70311 -0.35938,1.17188 -0.92188,1.9375 -0.54687,0.76563 -1.20312,1.21875 -0.65625,0.4375 -1.59375,0.67188 -0.9375,0.21875 -2.14063,0.21875 z m 1.76562,-1.57813 h 2.85938 q 1.3125,0 2.0625,-0.23437 0.75,-0.25 1.20312,-0.70313 0.625,-0.625 0.96875,-1.6875 0.35938,-1.06248 0.35938,-2.5781 0,-2.09375 -0.6875,-3.21875 -0.6875,-1.125 -1.67188,-1.5 -0.70312,-0.28125 -2.28125,-0.28125 h -2.8125 z"
     fill-rule="nonzero"
     id="path594" />
  <path
     fill="#ffffff"
     d="m 745.91732,124.34251 h 32 V 160.5 h -32 z"
     fill-rule="evenodd"
     id="path596" />
  <path
     stroke="#000000"
     stroke-width="1"
     stroke-linejoin="round"
     stroke-linecap="butt"
     d="m 745.91732,124.34251 h 32 V 160.5 h -32 z"
     fill-rule="evenodd"
     id="path598" />
  <path
     fill="#000000"
     d="m 756.61837,149.34125 v -13.35936 h 4.60937 q 1.54688,0 2.375,0.20312 1.14063,0.25 1.95313,0.95313 1.0625,0.89062 1.57812,2.28125 0.53125,1.39062 0.53125,3.17187 0,1.51563 -0.35937,2.70311 -0.35938,1.17188 -0.92188,1.9375 -0.54687,0.76563 -1.20312,1.21875 -0.65625,0.4375 -1.59375,0.67188 -0.9375,0.21875 -2.14063,0.21875 z m 1.76562,-1.57813 h 2.85938 q 1.3125,0 2.0625,-0.23437 0.75,-0.25 1.20312,-0.70313 0.625,-0.625 0.96875,-1.6875 0.35938,-1.06248 0.35938,-2.5781 0,-2.09375 -0.6875,-3.21875 -0.6875,-1.125 -1.67188,-1.5 -0.70312,-0.28125 -2.28125,-0.28125 h -2.8125 z"
     fill-rule="nonzero"
     id="path600" />
  <path
     fill="#000000"
     fill-opacity="0"
     d="m 457.91732,128.5 h 48"
     fill-rule="evenodd"
     id="path602" />
  <path
     stroke="#000000"
     stroke-width="3"
     stroke-linejoin="round"
     stroke-linecap="butt"
     d="m 457.91732,128.5 h 30"
     fill-rule="evenodd"
     id="path604" />
  <path
     fill="#000000"
     stroke="#000000"
     stroke-width="3"
     stroke-linecap="butt"
     d="M 487.91732,133.4552 501.53164,128.5 487.91732,123.5448 Z"
     fill-rule="evenodd"
     id="path606" />
  <path
     fill="#000000"
     fill-opacity="0"
     d="m 793.91732,128.5 h 72"
     fill-rule="evenodd"
     id="path608" />
  <path
     stroke="#000000"
     stroke-width="3"
     stroke-linejoin="round"
     stroke-linecap="butt"
     d="m 793.91732,128.5 h 54"
     fill-rule="evenodd"
     id="path610" />
  <path
     fill="#000000"
     stroke="#000000"
     stroke-width="3"
     stroke-linecap="butt"
     d="M 847.91732,133.4552 861.53164,128.5 847.91732,123.5448 Z"
     fill-rule="evenodd"
     id="path612" />
</svg>
