<?xml version="1.0" encoding="UTF-8" standalone="no"?>
<svg
   version="1.1"
   viewBox="0 0 663.36224 813.81891"
   fill="none"
   stroke="none"
   stroke-linecap="square"
   stroke-miterlimit="10"
   id="svg1454"
   sodipodi:docname="tt03_scanchain_v2.svg"
   width="663.36224"
   height="813.81891"
   inkscape:version="1.2 (dc2aedaf03, 2022-05-15)"
   xmlns:inkscape="http://www.inkscape.org/namespaces/inkscape"
   xmlns:sodipodi="http://sodipodi.sourceforge.net/DTD/sodipodi-0.dtd"
   xmlns="http://www.w3.org/2000/svg"
   xmlns:svg="http://www.w3.org/2000/svg">
  <defs
     id="defs1458" />
  <sodipodi:namedview
     id="namedview1456"
     pagecolor="#ffffff"
     bordercolor="#000000"
     borderopacity="0.25"
     inkscape:showpageshadow="2"
     inkscape:pageopacity="0.0"
     inkscape:pagecheckerboard="0"
     inkscape:deskcolor="#d1d1d1"
     showgrid="false"
     inkscape:zoom="1.349537"
     inkscape:cx="469.79074"
     inkscape:cy="402.36021"
     inkscape:window-width="2560"
     inkscape:window-height="1369"
     inkscape:window-x="-8"
     inkscape:window-y="-8"
     inkscape:window-maximized="1"
     inkscape:current-layer="svg1454" />
  <path
     fill="#000000"
     fill-opacity="0"
     d="m 0.5,110.89591 v 0 C 0.5,49.925924 49.92593,0.5 110.89591,0.5 h 441.57037 v 0 c 29.27881,0 57.35846,11.630964 78.06171,32.334213 20.70325,20.70325 32.33423,48.782877 32.33423,78.061707 v 592.0271 c 0,60.96997 -49.42596,110.39588 -110.39593,110.39588 H 110.89592 C 49.92593,813.3189 0.50001,763.89299 0.50001,702.92302 Z"
     fill-rule="evenodd"
     id="path1290" />
  <path
     stroke="#000000"
     stroke-width="1"
     stroke-linejoin="round"
     stroke-linecap="butt"
     d="m 0.5,110.89591 v 0 C 0.5,49.925924 49.92593,0.5 110.89591,0.5 h 441.57037 v 0 c 29.27881,0 57.35846,11.630964 78.06171,32.334213 20.70325,20.70325 32.33423,48.782877 32.33423,78.061707 v 592.0271 c 0,60.96997 -49.42596,110.39588 -110.39593,110.39588 H 110.89592 C 49.92593,813.3189 0.50001,763.89299 0.50001,702.92302 Z"
     fill-rule="evenodd"
     id="path1292" />
  <path
     fill="#000000"
     d="m 241.62267,55.4101 2.625,-0.25 q 0.23437,1.3125 0.95312,1.9375 0.73438,0.609375 1.96875,0.609375 1.29688,0 1.95313,-0.546875 0.67187,-0.546875 0.67187,-1.28125 0,-0.484375 -0.28125,-0.8125 -0.28125,-0.328125 -0.96875,-0.578125 -0.48437,-0.15625 -2.17187,-0.578125 -2.15625,-0.546875 -3.03125,-1.328125 -1.23438,-1.09375 -1.23438,-2.6875 0,-1.015625 0.57813,-1.90625 0.57812,-0.890625 1.65625,-1.34375 1.09375,-0.46875 2.64062,-0.46875 2.51563,0 3.78125,1.109375 1.28125,1.09375 1.34375,2.9375 l -2.70312,0.109375 q -0.17188,-1.03125 -0.75,-1.46875 -0.5625,-0.453125 -1.70313,-0.453125 -1.17187,0 -1.84375,0.46875 -0.42187,0.3125 -0.42187,0.84375 0,0.46875 0.40625,0.796875 0.5,0.4375 2.46875,0.90625 1.96875,0.453125 2.90625,0.953125 0.95312,0.5 1.48437,1.359375 0.53125,0.859375 0.53125,2.125 0,1.15625 -0.64062,2.15625 -0.64063,1 -1.8125,1.484375 -1.15625,0.484375 -2.89063,0.484375 -2.53125,0 -3.89062,-1.171875 -1.35938,-1.171875 -1.625,-3.40625 z m 21.55295,-2.46875 -2.53125,0.453125 q -0.125,-0.75 -0.57813,-1.125 -0.45312,-0.390625 -1.17187,-0.390625 -0.95313,0 -1.53125,0.65625 -0.5625,0.65625 -0.5625,2.203125 0,1.734375 0.57812,2.4375 0.57813,0.703125 1.54688,0.703125 0.73437,0 1.20312,-0.40625 0.46875,-0.421875 0.65625,-1.421875 l 2.51563,0.421875 q -0.39063,1.734375 -1.51563,2.625 -1.10937,0.875 -2.96875,0.875 -2.125,0 -3.39062,-1.328125 -1.25,-1.34375 -1.25,-3.71875 0,-2.390625 1.26562,-3.71875 1.26563,-1.34375 3.42188,-1.34375 1.76562,0 2.79687,0.765625 1.04688,0.75 1.51563,2.3125 z m 3.84448,0.09375 -2.32812,-0.421875 q 0.40625,-1.40625 1.35937,-2.078125 0.95313,-0.671875 2.84375,-0.671875 1.70313,0 2.54688,0.40625 0.84375,0.40625 1.17187,1.03125 0.34375,0.625 0.34375,2.28125 l -0.0156,3 q 0,1.265625 0.10937,1.875 0.125,0.609375 0.46875,1.296875 h -2.53125 q -0.10937,-0.25 -0.25,-0.75 -0.0625,-0.234375 -0.0937,-0.3125 -0.65625,0.640625 -1.40625,0.96875 -0.73437,0.3125 -1.59375,0.3125 -1.48437,0 -2.34375,-0.8125 -0.85937,-0.8125 -0.85937,-2.046875 0,-0.828125 0.39062,-1.46875 0.39063,-0.640625 1.09375,-0.96875 0.70313,-0.34375 2.03125,-0.609375 1.79688,-0.328125 2.48438,-0.625 v -0.25 q 0,-0.75 -0.35938,-1.0625 -0.35937,-0.3125 -1.375,-0.3125 -0.6875,0 -1.07812,0.28125 -0.375,0.265625 -0.60938,0.9375 z m 3.42188,2.078125 q -0.48438,0.15625 -1.5625,0.390625 -1.0625,0.21875 -1.39063,0.4375 -0.5,0.359375 -0.5,0.90625 0,0.53125 0.40625,0.9375 0.40625,0.390625 1.01563,0.390625 0.70312,0 1.32812,-0.46875 0.46875,-0.34375 0.60938,-0.84375 0.0937,-0.328125 0.0937,-1.25 z m 13.84445,4.640625 h -2.5625 v -4.9375 q 0,-1.5625 -0.17188,-2.015625 -0.15625,-0.46875 -0.53125,-0.71875 -0.35937,-0.265625 -0.875,-0.265625 -0.67187,0 -1.20312,0.375 -0.53125,0.359375 -0.73438,0.96875 -0.1875,0.59375 -0.1875,2.21875 v 4.375 h -2.54687 v -9.671875 h 2.375 v 1.421875 q 1.26562,-1.640625 3.1875,-1.640625 0.84375,0 1.54687,0.3125 0.70313,0.296875 1.0625,0.78125 0.35938,0.46875 0.5,1.078125 0.14063,0.59375 0.14063,1.703125 z m 11.03662,-6.8125 -2.53125,0.453125 q -0.125,-0.75 -0.57813,-1.125 -0.45312,-0.390625 -1.17187,-0.390625 -0.95313,0 -1.53125,0.65625 -0.5625,0.65625 -0.5625,2.203125 0,1.734375 0.57812,2.4375 0.57813,0.703125 1.54688,0.703125 0.73437,0 1.20312,-0.40625 0.46875,-0.421875 0.65625,-1.421875 l 2.51563,0.421875 q -0.39063,1.734375 -1.51563,2.625 -1.10937,0.875 -2.96875,0.875 -2.125,0 -3.39062,-1.328125 -1.25,-1.34375 -1.25,-3.71875 0,-2.390625 1.26562,-3.71875 1.26563,-1.34375 3.42188,-1.34375 1.76562,0 2.79687,0.765625 1.04688,0.75 1.51563,2.3125 z m 4.48511,-6.546875 v 4.921875 q 1.23437,-1.453125 2.95312,-1.453125 0.89063,0 1.59375,0.328125 0.71875,0.328125 1.07813,0.84375 0.35937,0.5 0.48437,1.125 0.14063,0.609375 0.14063,1.921875 v 5.671875 h -2.5625 v -5.109375 q 0,-1.515625 -0.15625,-1.921875 -0.14063,-0.421875 -0.51563,-0.65625 -0.35937,-0.25 -0.90625,-0.25 -0.64062,0 -1.14062,0.3125 -0.5,0.3125 -0.73438,0.9375 -0.23437,0.625 -0.23437,1.84375 v 4.84375 h -2.5625 V 46.394475 Z m 10.75534,6.640625 -2.32813,-0.421875 q 0.40625,-1.40625 1.35938,-2.078125 0.95312,-0.671875 2.84375,-0.671875 1.70312,0 2.54687,0.40625 0.84375,0.40625 1.17188,1.03125 0.34375,0.625 0.34375,2.28125 l -0.0156,3 q 0,1.265625 0.10938,1.875 0.125,0.609375 0.46875,1.296875 h -2.53125 q -0.10938,-0.25 -0.25,-0.75 -0.0625,-0.234375 -0.0937,-0.3125 -0.65625,0.640625 -1.40625,0.96875 -0.73438,0.3125 -1.59375,0.3125 -1.48438,0 -2.34375,-0.8125 -0.85938,-0.8125 -0.85938,-2.046875 0,-0.828125 0.39063,-1.46875 0.39062,-0.640625 1.09375,-0.96875 0.70312,-0.34375 2.03125,-0.609375 1.79687,-0.328125 2.48437,-0.625 v -0.25 q 0,-0.75 -0.35937,-1.0625 -0.35938,-0.3125 -1.375,-0.3125 -0.6875,0 -1.07813,0.28125 -0.375,0.265625 -0.60937,0.9375 z m 3.42187,2.078125 q -0.48437,0.15625 -1.5625,0.390625 -1.0625,0.21875 -1.39062,0.4375 -0.5,0.359375 -0.5,0.90625 0,0.53125 0.40625,0.9375 0.40625,0.390625 1.01562,0.390625 0.70313,0 1.32813,-0.46875 0.46875,-0.34375 0.60937,-0.84375 0.0937,-0.328125 0.0937,-1.25 z m 5.04758,-6.34375 v -2.375 h 2.5625 v 2.375 z m 0,10.984375 v -9.671875 h 2.5625 v 9.671875 z m 13.98019,0 h -2.5625 v -4.9375 q 0,-1.5625 -0.17187,-2.015625 -0.15625,-0.46875 -0.53125,-0.71875 -0.35938,-0.265625 -0.875,-0.265625 -0.67188,0 -1.20313,0.375 -0.53125,0.359375 -0.73437,0.96875 -0.1875,0.59375 -0.1875,2.21875 v 4.375 h -2.54688 v -9.671875 h 2.375 v 1.421875 q 1.26563,-1.640625 3.1875,-1.640625 0.84375,0 1.54688,0.3125 0.70312,0.296875 1.0625,0.78125 0.35937,0.46875 0.5,1.078125 0.14062,0.59375 0.14062,1.703125 z m 11.20429,0 -4.78125,-13.359375 h 2.9375 l 3.375,9.890625 3.26562,-9.890625 h 2.85938 l -4.78125,13.359375 z m 13.58548,-3.078125 2.54687,0.421875 q -0.48437,1.40625 -1.54687,2.140625 -1.0625,0.734375 -2.65625,0.734375 -2.51563,0 -3.73438,-1.65625 -0.95312,-1.3125 -0.95312,-3.328125 0,-2.40625 1.25,-3.765625 1.26562,-1.359375 3.1875,-1.359375 2.15625,0 3.40625,1.421875 1.25,1.421875 1.1875,4.375 h -6.40625 q 0.0312,1.140625 0.60937,1.78125 0.59375,0.625 1.48438,0.625 0.59375,0 1,-0.328125 0.42187,-0.328125 0.625,-1.0625 z m 0.15625,-2.59375 q -0.0312,-1.109375 -0.57813,-1.6875 -0.54687,-0.578125 -1.32812,-0.578125 -0.84375,0 -1.39063,0.609375 -0.54687,0.609375 -0.53125,1.65625 z m 7.07886,5.671875 h -2.5625 v -9.671875 h 2.375 v 1.375 q 0.60937,-0.984375 1.09375,-1.28125 0.48437,-0.3125 1.10937,-0.3125 0.875,0 1.6875,0.484375 l -0.79687,2.234375 q -0.64063,-0.421875 -1.20313,-0.421875 -0.53125,0 -0.90625,0.296875 -0.375,0.296875 -0.59375,1.078125 -0.20312,0.765625 -0.20312,3.234375 z m 3.90087,-2.765625 2.5625,-0.390625 q 0.17188,0.75 0.67188,1.140625 0.5,0.390625 1.40625,0.390625 0.98437,0 1.48437,-0.375 0.34375,-0.25 0.34375,-0.671875 0,-0.296875 -0.1875,-0.484375 -0.1875,-0.1875 -0.85937,-0.34375 -3.09375,-0.6875 -3.92188,-1.25 -1.14062,-0.78125 -1.14062,-2.171875 0,-1.265625 0.98437,-2.109375 1,-0.859375 3.07813,-0.859375 1.98437,0 2.95312,0.65625 0.96875,0.640625 1.32813,1.90625 l -2.40625,0.4375 q -0.15625,-0.5625 -0.59375,-0.859375 -0.42188,-0.296875 -1.23438,-0.296875 -1,0 -1.4375,0.28125 -0.29687,0.203125 -0.29687,0.515625 0,0.265625 0.25,0.46875 0.34375,0.25 2.39062,0.71875 2.04688,0.453125 2.85938,1.140625 0.79687,0.671875 0.79687,1.890625 0,1.34375 -1.10937,2.296875 -1.10938,0.953125 -3.28125,0.953125 -1.98438,0 -3.14063,-0.796875 -1.14062,-0.8125 -1.5,-2.1875 z m 11.28199,-8.21875 v -2.375 h 2.5625 v 2.375 z m 0,10.984375 v -9.671875 h 2.5625 v 9.671875 z m 4.58953,-4.96875 q 0,-1.28125 0.625,-2.46875 0.625,-1.203125 1.78125,-1.828125 1.15625,-0.625 2.57813,-0.625 2.1875,0 3.59375,1.421875 1.40625,1.421875 1.40625,3.609375 0,2.1875 -1.42188,3.640625 -1.42187,1.4375 -3.5625,1.4375 -1.32812,0 -2.54687,-0.59375 -1.20313,-0.609375 -1.82813,-1.765625 -0.625,-1.171875 -0.625,-2.828125 z m 2.625,0.125 q 0,1.453125 0.67188,2.21875 0.6875,0.75 1.6875,0.75 1,0 1.67187,-0.75 0.6875,-0.765625 0.6875,-2.234375 0,-1.421875 -0.6875,-2.1875 -0.67187,-0.765625 -1.67187,-0.765625 -1,0 -1.6875,0.765625 -0.67188,0.765625 -0.67188,2.203125 z m 18.16163,4.84375 h -2.5625 v -4.9375 q 0,-1.5625 -0.17188,-2.015625 -0.15625,-0.46875 -0.53125,-0.71875 -0.35937,-0.265625 -0.875,-0.265625 -0.67187,0 -1.20312,0.375 -0.53125,0.359375 -0.73438,0.96875 -0.1875,0.59375 -0.1875,2.21875 v 4.375 h -2.54687 v -9.671875 h 2.375 v 1.421875 q 1.26562,-1.640625 3.1875,-1.640625 0.84375,0 1.54687,0.3125 0.70313,0.296875 1.0625,0.78125 0.35938,0.46875 0.5,1.078125 0.14063,0.59375 0.14063,1.703125 z m 15.87612,-2.375 v 2.375 h -8.96875 q 0.14063,-1.34375 0.85938,-2.546875 0.73437,-1.21875 2.89062,-3.203125 1.73438,-1.625 2.125,-2.1875 0.53125,-0.796875 0.53125,-1.578125 0,-0.84375 -0.46875,-1.296875 -0.45312,-0.46875 -1.26562,-0.46875 -0.79688,0 -1.28125,0.484375 -0.46875,0.46875 -0.54688,1.59375 l -2.54687,-0.25 q 0.23437,-2.109375 1.42187,-3.03125 1.20313,-0.921875 3.01563,-0.921875 1.96875,0 3.09375,1.0625 1.14062,1.0625 1.14062,2.65625 0,0.890625 -0.32812,1.71875 -0.3125,0.8125 -1.01563,1.703125 -0.46875,0.59375 -1.6875,1.703125 -1.20312,1.109375 -1.53125,1.484375 -0.3125,0.359375 -0.51562,0.703125 z"
     fill-rule="nonzero"
     id="path1294" />
  <path
     fill="#efefef"
     d="M 417.29262,119.32152 H 620.97768 V 285.43176 H 417.29262 Z"
     fill-rule="evenodd"
     id="path1296" />
  <path
     stroke="#000000"
     stroke-width="1"
     stroke-linejoin="round"
     stroke-linecap="butt"
     d="M 417.29262,119.32152 H 620.97768 V 285.43176 H 417.29262 Z"
     fill-rule="evenodd"
     id="path1298" />
  <path
     fill="#efefef"
     d="m 406.51579,109.94881 h 203.685 v 166.11024 h -203.685 z"
     fill-rule="evenodd"
     id="path1300" />
  <path
     stroke="#000000"
     stroke-width="1"
     stroke-linejoin="round"
     stroke-linecap="butt"
     d="m 406.51579,109.94881 h 203.685 v 166.11024 h -203.685 z"
     fill-rule="evenodd"
     id="path1302" />
  <path
     fill="#efefef"
     d="M 396.35564,100.84383 H 600.04067 V 266.95407 H 396.35564 Z"
     fill-rule="evenodd"
     id="path1304" />
  <path
     stroke="#000000"
     stroke-width="1"
     stroke-linejoin="round"
     stroke-linecap="butt"
     d="M 396.35564,100.84383 H 600.04067 V 266.95407 H 396.35564 Z"
     fill-rule="evenodd"
     id="path1306" />
  <path
     fill="#efefef"
     d="M 144.67322,91.39239 H 348.35826 V 581.66015 H 144.67322 Z"
     fill-rule="evenodd"
     id="path1308" />
  <path
     stroke="#000000"
     stroke-width="1"
     stroke-linejoin="round"
     stroke-linecap="butt"
     d="M 144.67322,91.39239 H 348.35826 V 581.66015 H 144.67322 Z"
     fill-rule="evenodd"
     id="path1310" />
  <path
     fill="#000000"
     d="m 166.46261,114.01551 1.65625,-0.14063 q 0.125,1 0.54688,1.64063 0.4375,0.64062 1.34375,1.04687 0.92187,0.39063 2.0625,0.39063 1,0 1.78125,-0.29688 0.78125,-0.29687 1.15625,-0.8125 0.375,-0.53125 0.375,-1.15625 0,-0.625 -0.375,-1.09375 -0.35938,-0.46875 -1.1875,-0.79687 -0.54688,-0.20313 -2.39063,-0.64063 -1.82812,-0.45312 -2.5625,-0.84375 -0.96875,-0.5 -1.4375,-1.23437 -0.46875,-0.75 -0.46875,-1.67188 0,-1 0.57813,-1.875 0.57812,-0.89062 1.67187,-1.34375 1.10938,-0.45312 2.45313,-0.45312 1.48437,0 2.60937,0.48437 1.14063,0.46875 1.75,1.40625 0.60938,0.92188 0.65625,2.09375 l -1.6875,0.125 q -0.14062,-1.26562 -0.9375,-1.90625 -0.78125,-0.65625 -2.3125,-0.65625 -1.60937,0 -2.34375,0.59375 -0.73437,0.59375 -0.73437,1.42188 0,0.71875 0.53125,1.17187 0.5,0.46875 2.65625,0.96875 2.15625,0.48438 2.95312,0.84375 1.17188,0.53125 1.71875,1.35938 0.5625,0.82812 0.5625,1.90625 0,1.0625 -0.60937,2.01562 -0.60938,0.9375 -1.75,1.46875 -1.14063,0.51563 -2.57813,0.51563 -1.8125,0 -3.04687,-0.53125 -1.21875,-0.53125 -1.92188,-1.59375 -0.6875,-1.0625 -0.71875,-2.40625 z m 19.1467,0.75 1.60937,0.21875 q -0.26562,1.65625 -1.35937,2.60937 -1.07813,0.9375 -2.67188,0.9375 -1.98437,0 -3.1875,-1.29687 -1.20312,-1.29688 -1.20312,-3.71875 0,-1.57813 0.51562,-2.75 0.51563,-1.17188 1.57813,-1.75 1.0625,-0.59375 2.3125,-0.59375 1.57812,0 2.57812,0.79687 1,0.79688 1.28125,2.26563 l -1.59375,0.23437 q -0.23437,-0.96875 -0.8125,-1.45312 -0.57812,-0.5 -1.39062,-0.5 -1.23438,0 -2.01563,0.89062 -0.78125,0.89063 -0.78125,2.8125 0,1.95313 0.75,2.84375 0.75,0.875 1.95313,0.875 0.96875,0 1.60937,-0.59375 0.65625,-0.59375 0.82813,-1.82812 z m 9.32812,2.35937 q -0.92187,0.76563 -1.76562,1.09375 -0.82813,0.3125 -1.79688,0.3125 -1.59375,0 -2.45312,-0.78125 -0.85938,-0.78125 -0.85938,-1.98437 0,-0.71875 0.32813,-1.29688 0.32812,-0.59375 0.84375,-0.9375 0.53125,-0.35937 1.1875,-0.54687 0.46875,-0.125 1.45312,-0.25 1.98438,-0.23438 2.92188,-0.5625 0.0156,-0.34375 0.0156,-0.42188 0,-1 -0.46875,-1.42187 -0.625,-0.54688 -1.875,-0.54688 -1.15625,0 -1.70312,0.40625 -0.54688,0.40625 -0.8125,1.42188 l -1.60938,-0.21875 q 0.21875,-1.01563 0.71875,-1.64063 0.5,-0.64062 1.45313,-0.98437 0.95312,-0.34375 2.1875,-0.34375 1.25,0 2.01562,0.29687 0.78125,0.28125 1.14063,0.73438 0.375,0.4375 0.51562,1.10937 0.0781,0.42188 0.0781,1.51563 v 2.1875 q 0,2.28125 0.10937,2.89062 0.10938,0.59375 0.40625,1.15625 h -1.70312 q -0.26563,-0.51562 -0.32813,-1.1875 z m -0.14062,-3.67187 q -0.89063,0.375 -2.67188,0.625 -1.01562,0.14062 -1.4375,0.32812 -0.42187,0.1875 -0.65625,0.53125 -0.21875,0.34375 -0.21875,0.78125 0,0.65625 0.5,1.09375 0.5,0.4375 1.45313,0.4375 0.9375,0 1.67187,-0.40625 0.75,-0.42187 1.09375,-1.14062 0.26563,-0.5625 0.26563,-1.64063 z m 4.20383,4.85937 v -9.67187 h 1.46875 v 1.375 q 1.0625,-1.59375 3.07812,-1.59375 0.875,0 1.60938,0.3125 0.73437,0.3125 1.09375,0.82812 0.375,0.5 0.51562,1.20313 0.0937,0.45312 0.0937,1.59375 v 5.95312 h -1.64062 v -5.89062 q 0,-1 -0.20313,-1.48438 -0.1875,-0.5 -0.67187,-0.79687 -0.48438,-0.29688 -1.14063,-0.29688 -1.04687,0 -1.8125,0.67188 -0.75,0.65625 -0.75,2.51562 v 5.28125 z m 16.68823,-3.54687 1.60937,0.21875 q -0.26562,1.65625 -1.35937,2.60937 -1.07813,0.9375 -2.67188,0.9375 -1.98437,0 -3.1875,-1.29687 -1.20312,-1.29688 -1.20312,-3.71875 0,-1.57813 0.51562,-2.75 0.51563,-1.17188 1.57813,-1.75 1.0625,-0.59375 2.3125,-0.59375 1.57812,0 2.57812,0.79687 1,0.79688 1.28125,2.26563 l -1.59375,0.23437 q -0.23437,-0.96875 -0.8125,-1.45312 -0.57812,-0.5 -1.39062,-0.5 -1.23438,0 -2.01563,0.89062 -0.78125,0.89063 -0.78125,2.8125 0,1.95313 0.75,2.84375 0.75,0.875 1.95313,0.875 0.96875,0 1.60937,-0.59375 0.65625,-0.59375 0.82813,-1.82812 z m 3.01562,3.54687 v -13.35937 h 1.64063 v 4.79687 q 1.14062,-1.32812 2.89062,-1.32812 1.07813,0 1.85938,0.42187 0.79687,0.42188 1.14062,1.17188 0.34375,0.75 0.34375,2.17187 v 6.125 h -1.64062 v -6.125 q 0,-1.23437 -0.53125,-1.79687 -0.53125,-0.5625 -1.51563,-0.5625 -0.71875,0 -1.35937,0.39062 -0.64063,0.375 -0.92188,1.01563 -0.26562,0.64062 -0.26562,1.78125 v 5.29687 z m 16.6882,-1.1875 q -0.92187,0.76563 -1.76562,1.09375 -0.82813,0.3125 -1.79688,0.3125 -1.59375,0 -2.45312,-0.78125 -0.85938,-0.78125 -0.85938,-1.98437 0,-0.71875 0.32813,-1.29688 0.32812,-0.59375 0.84375,-0.9375 0.53125,-0.35937 1.1875,-0.54687 0.46875,-0.125 1.45312,-0.25 1.98438,-0.23438 2.92188,-0.5625 0.0156,-0.34375 0.0156,-0.42188 0,-1 -0.46875,-1.42187 -0.625,-0.54688 -1.875,-0.54688 -1.15625,0 -1.70312,0.40625 -0.54688,0.40625 -0.8125,1.42188 l -1.60938,-0.21875 q 0.21875,-1.01563 0.71875,-1.64063 0.5,-0.64062 1.45313,-0.98437 0.95312,-0.34375 2.1875,-0.34375 1.25,0 2.01562,0.29687 0.78125,0.28125 1.14063,0.73438 0.375,0.4375 0.51562,1.10937 0.0781,0.42188 0.0781,1.51563 v 2.1875 q 0,2.28125 0.10937,2.89062 0.10938,0.59375 0.40625,1.15625 h -1.70312 q -0.26563,-0.51562 -0.32813,-1.1875 z m -0.14062,-3.67187 q -0.89063,0.375 -2.67188,0.625 -1.01562,0.14062 -1.4375,0.32812 -0.42187,0.1875 -0.65625,0.53125 -0.21875,0.34375 -0.21875,0.78125 0,0.65625 0.5,1.09375 0.5,0.4375 1.45313,0.4375 0.9375,0 1.67187,-0.40625 0.75,-0.42187 1.09375,-1.14062 0.26563,-0.5625 0.26563,-1.64063 z m 4.20386,-6.60938 v -1.89062 h 1.64062 v 1.89062 z m 0,11.46875 v -9.67187 h 1.64062 v 9.67187 z m 4.1448,0 v -9.67187 h 1.46875 v 1.375 q 1.0625,-1.59375 3.07813,-1.59375 0.875,0 1.60937,0.3125 0.73438,0.3125 1.09375,0.82812 0.375,0.5 0.51563,1.20313 0.0937,0.45312 0.0937,1.59375 v 5.95312 h -1.64063 v -5.89062 q 0,-1 -0.20312,-1.48438 -0.1875,-0.5 -0.67188,-0.79687 -0.48437,-0.29688 -1.14062,-0.29688 -1.04688,0 -1.8125,0.67188 -0.75,0.65625 -0.75,2.51562 v 5.28125 z m 15.55902,-11.46875 v -1.89062 h 1.64063 v 1.89062 z m 0,11.46875 v -9.67187 h 1.64063 v 9.67187 z m 4.14484,0 v -9.67187 h 1.46875 v 1.375 q 1.0625,-1.59375 3.07812,-1.59375 0.875,0 1.60938,0.3125 0.73437,0.3125 1.09375,0.82812 0.375,0.5 0.51562,1.20313 0.0937,0.45312 0.0937,1.59375 v 5.95312 h -1.64062 v -5.89062 q 0,-1 -0.20313,-1.48438 -0.1875,-0.5 -0.67187,-0.79687 -0.48438,-0.29688 -1.14063,-0.29688 -1.04687,0 -1.8125,0.67188 -0.75,0.65625 -0.75,2.51562 v 5.28125 z m 9.71945,-2.89062 1.625,-0.25 q 0.125,0.96875 0.75,1.5 0.625,0.51562 1.75,0.51562 1.125,0 1.67188,-0.45312 0.54687,-0.46875 0.54687,-1.09375 0,-0.54688 -0.48437,-0.875 -0.32813,-0.21875 -1.67188,-0.54688 -1.8125,-0.46875 -2.51562,-0.79687 -0.6875,-0.32813 -1.04688,-0.90625 -0.35937,-0.59375 -0.35937,-1.3125 0,-0.64063 0.29687,-1.1875 0.29688,-0.5625 0.8125,-0.92188 0.375,-0.28125 1.03125,-0.46875 0.67188,-0.20312 1.42188,-0.20312 1.14062,0 2,0.32812 0.85937,0.32813 1.26562,0.89063 0.42188,0.5625 0.57813,1.5 l -1.60938,0.21875 q -0.10937,-0.75 -0.64062,-1.17188 -0.51563,-0.42187 -1.46875,-0.42187 -1.14063,0 -1.625,0.375 -0.46875,0.375 -0.46875,0.875 0,0.3125 0.1875,0.57812 0.20312,0.26563 0.64062,0.4375 0.23438,0.0937 1.4375,0.42188 1.75,0.45312 2.4375,0.75 0.6875,0.29687 1.07813,0.85937 0.39062,0.5625 0.39062,1.40625 0,0.82813 -0.48437,1.54688 -0.46875,0.71875 -1.375,1.125 -0.90625,0.39062 -2.04688,0.39062 -1.875,0 -2.875,-0.78125 -0.98437,-0.78125 -1.25,-2.32812 z m 13.5625,1.42187 0.23438,1.45313 q -0.6875,0.14062 -1.23438,0.14062 -0.89062,0 -1.39062,-0.28125 -0.48438,-0.28125 -0.6875,-0.73437 -0.20313,-0.46875 -0.20313,-1.9375 v -5.57813 h -1.20312 v -1.26562 h 1.20312 v -2.39063 l 1.625,-0.98437 v 3.375 h 1.65625 v 1.26562 h -1.65625 v 5.67188 q 0,0.6875 0.0781,0.89062 0.0937,0.20313 0.28125,0.32813 0.20312,0.10937 0.57812,0.10937 0.26563,0 0.71875,-0.0625 z m 7.9177,0.28125 q -0.92188,0.76563 -1.76563,1.09375 -0.82812,0.3125 -1.79687,0.3125 -1.59375,0 -2.45313,-0.78125 -0.85937,-0.78125 -0.85937,-1.98437 0,-0.71875 0.32812,-1.29688 0.32813,-0.59375 0.84375,-0.9375 0.53125,-0.35937 1.1875,-0.54687 0.46875,-0.125 1.45313,-0.25 1.98437,-0.23438 2.92187,-0.5625 0.0156,-0.34375 0.0156,-0.42188 0,-1 -0.46875,-1.42187 -0.625,-0.54688 -1.875,-0.54688 -1.15625,0 -1.70313,0.40625 -0.54687,0.40625 -0.8125,1.42188 l -1.60937,-0.21875 q 0.21875,-1.01563 0.71875,-1.64063 0.5,-0.64062 1.45312,-0.98437 0.95313,-0.34375 2.1875,-0.34375 1.25,0 2.01563,0.29687 0.78125,0.28125 1.14062,0.73438 0.375,0.4375 0.51563,1.10937 0.0781,0.42188 0.0781,1.51563 v 2.1875 q 0,2.28125 0.10938,2.89062 0.10937,0.59375 0.40625,1.15625 h -1.70313 q -0.26562,-0.51562 -0.32812,-1.1875 z m -0.14063,-3.67187 q -0.89062,0.375 -2.67187,0.625 -1.01563,0.14062 -1.4375,0.32812 -0.42188,0.1875 -0.65625,0.53125 -0.21875,0.34375 -0.21875,0.78125 0,0.65625 0.5,1.09375 0.5,0.4375 1.45312,0.4375 0.9375,0 1.67188,-0.40625 0.75,-0.42187 1.09375,-1.14062 0.26562,-0.5625 0.26562,-1.64063 z m 4.20383,4.85937 v -9.67187 h 1.46875 v 1.375 q 1.0625,-1.59375 3.07812,-1.59375 0.875,0 1.60938,0.3125 0.73437,0.3125 1.09375,0.82812 0.375,0.5 0.51562,1.20313 0.0937,0.45312 0.0937,1.59375 v 5.95312 h -1.64062 v -5.89062 q 0,-1 -0.20313,-1.48438 -0.1875,-0.5 -0.67187,-0.79687 -0.48438,-0.29688 -1.14063,-0.29688 -1.04687,0 -1.8125,0.67188 -0.75,0.65625 -0.75,2.51562 v 5.28125 z m 16.68823,-3.54687 1.60937,0.21875 q -0.26562,1.65625 -1.35937,2.60937 -1.07813,0.9375 -2.67188,0.9375 -1.98437,0 -3.1875,-1.29687 -1.20312,-1.29688 -1.20312,-3.71875 0,-1.57813 0.51562,-2.75 0.51563,-1.17188 1.57813,-1.75 1.0625,-0.59375 2.3125,-0.59375 1.57812,0 2.57812,0.79687 1,0.79688 1.28125,2.26563 l -1.59375,0.23437 q -0.23437,-0.96875 -0.8125,-1.45312 -0.57812,-0.5 -1.39062,-0.5 -1.23438,0 -2.01563,0.89062 -0.78125,0.89063 -0.78125,2.8125 0,1.95313 0.75,2.84375 0.75,0.875 1.95313,0.875 0.96875,0 1.60937,-0.59375 0.65625,-0.59375 0.82813,-1.82812 z m 9.64062,0.4375 1.6875,0.20312 q -0.40625,1.48438 -1.48437,2.3125 -1.07813,0.8125 -2.76563,0.8125 -2.125,0 -3.375,-1.29687 -1.23437,-1.3125 -1.23437,-3.67188 0,-2.45312 1.25,-3.79687 1.26562,-1.34375 3.26562,-1.34375 1.9375,0 3.15625,1.32812 1.23438,1.3125 1.23438,3.70313 0,0.15625 0,0.4375 h -7.21875 q 0.0937,1.59375 0.90625,2.45312 0.8125,0.84375 2.01562,0.84375 0.90625,0 1.54688,-0.46875 0.64062,-0.48437 1.01562,-1.51562 z m -5.39062,-2.65625 h 5.40625 q -0.10938,-1.21875 -0.625,-1.82813 -0.78125,-0.95312 -2.03125,-0.95312 -1.125,0 -1.90625,0.76562 -0.76563,0.75 -0.84375,2.01563 z"
     fill-rule="nonzero"
     id="path1312" />
  <path
     fill="#cfe2f3"
     d="m 161.87269,701.66539 h 192 v 96 h -192 z"
     fill-rule="evenodd"
     id="path1314" />
  <path
     stroke="#000000"
     stroke-width="1"
     stroke-linejoin="round"
     stroke-linecap="butt"
     d="m 161.87269,701.66539 h 192 v 96 h -192 z"
     fill-rule="evenodd"
     id="path1316" />
  <path
     fill="#000000"
     d="m 216.75747,743.22599 h 1.76562 v 7.71875 q 0,2.01562 -0.45312,3.20312 -0.45313,1.1875 -1.64063,1.9375 -1.1875,0.73438 -3.125,0.73438 -1.875,0 -3.07812,-0.64063 -1.1875,-0.65625 -1.70313,-1.875 -0.5,-1.23437 -0.5,-3.35937 v -7.71875 h 1.76563 v 7.71875 q 0,1.73437 0.3125,2.5625 0.32812,0.8125 1.10937,1.26562 0.79688,0.45313 1.9375,0.45313 1.95313,0 2.78125,-0.89063 0.82813,-0.89062 0.82813,-3.39062 z m 3.84796,10.46875 1.625,-0.25 q 0.125,0.96875 0.75,1.5 0.625,0.51562 1.75,0.51562 1.125,0 1.67188,-0.45312 0.54687,-0.46875 0.54687,-1.09375 0,-0.54688 -0.48437,-0.875 -0.32813,-0.21875 -1.67188,-0.54688 -1.8125,-0.46875 -2.51562,-0.79687 -0.6875,-0.32813 -1.04688,-0.90625 -0.35937,-0.59375 -0.35937,-1.3125 0,-0.64063 0.29687,-1.1875 0.29688,-0.5625 0.8125,-0.92188 0.375,-0.28125 1.03125,-0.46875 0.67188,-0.20312 1.42188,-0.20312 1.14062,0 2,0.32812 0.85937,0.32813 1.26562,0.89063 0.42188,0.5625 0.57813,1.5 l -1.60938,0.21875 q -0.10937,-0.75 -0.64062,-1.17188 -0.51563,-0.42187 -1.46875,-0.42187 -1.14063,0 -1.625,0.375 -0.46875,0.375 -0.46875,0.875 0,0.3125 0.1875,0.57812 0.20312,0.26563 0.64062,0.4375 0.23438,0.0937 1.4375,0.42188 1.75,0.45312 2.4375,0.75 0.6875,0.29687 1.07813,0.85937 0.39062,0.5625 0.39062,1.40625 0,0.82813 -0.48437,1.54688 -0.46875,0.71875 -1.375,1.125 -0.90625,0.39062 -2.04688,0.39062 -1.875,0 -2.875,-0.78125 -0.98437,-0.78125 -1.25,-2.32812 z m 16.60938,-0.21875 1.6875,0.20312 q -0.40625,1.48438 -1.48438,2.3125 -1.07812,0.8125 -2.76562,0.8125 -2.125,0 -3.375,-1.29687 -1.23438,-1.3125 -1.23438,-3.67188 0,-2.45312 1.25,-3.79687 1.26563,-1.34375 3.26563,-1.34375 1.9375,0 3.15625,1.32812 1.23437,1.3125 1.23437,3.70313 0,0.15625 0,0.4375 h -7.21875 q 0.0937,1.59375 0.90625,2.45312 0.8125,0.84375 2.01563,0.84375 0.90625,0 1.54687,-0.46875 0.64063,-0.48437 1.01563,-1.51562 z m -5.39063,-2.65625 h 5.40625 q -0.10937,-1.21875 -0.625,-1.82813 -0.78125,-0.95312 -2.03125,-0.95312 -1.125,0 -1.90625,0.76562 -0.76562,0.75 -0.84375,2.01563 z m 9.1257,5.76562 v -9.67187 h 1.46875 v 1.46875 q 0.5625,-1.03125 1.03125,-1.35938 0.48438,-0.32812 1.0625,-0.32812 0.82813,0 1.6875,0.53125 l -0.5625,1.51562 q -0.60937,-0.35937 -1.20312,-0.35937 -0.54688,0 -0.96875,0.32812 -0.42188,0.32813 -0.60938,0.89063 -0.28125,0.875 -0.28125,1.92187 v 5.0625 z m 11.61475,0 v -13.35937 h 5.04687 q 1.32813,0 2.03125,0.125 0.96875,0.17187 1.64063,0.64062 0.67187,0.45313 1.07812,1.28125 0.40625,0.82813 0.40625,1.82813 0,1.70312 -1.09375,2.89062 -1.07812,1.17188 -3.92187,1.17188 h -3.42188 v 5.42187 z m 1.76562,-7 h 3.45313 q 1.71875,0 2.4375,-0.64062 0.71875,-0.64063 0.71875,-1.79688 0,-0.84375 -0.42188,-1.4375 -0.42187,-0.59375 -1.125,-0.78125 -0.4375,-0.125 -1.64062,-0.125 h -3.42188 z m 10.4592,7 v -9.67187 h 1.46875 v 1.46875 q 0.5625,-1.03125 1.03125,-1.35938 0.48438,-0.32812 1.0625,-0.32812 0.82813,0 1.6875,0.53125 l -0.5625,1.51562 q -0.60937,-0.35937 -1.20312,-0.35937 -0.54688,0 -0.96875,0.32812 -0.42188,0.32813 -0.60938,0.89063 -0.28125,0.875 -0.28125,1.92187 v 5.0625 z m 5.61893,-4.84375 q 0,-2.6875 1.48437,-3.96875 1.25,-1.07812 3.04688,-1.07812 2,0 3.26562,1.3125 1.26563,1.29687 1.26563,3.60937 0,1.85938 -0.5625,2.9375 -0.5625,1.0625 -1.64063,1.65625 -1.0625,0.59375 -2.32812,0.59375 -2.03125,0 -3.28125,-1.29687 -1.25,-1.3125 -1.25,-3.76563 z m 1.6875,0 q 0,1.85938 0.79687,2.79688 0.8125,0.92187 2.04688,0.92187 1.21875,0 2.03125,-0.92187 0.8125,-0.9375 0.8125,-2.84375 0,-1.79688 -0.8125,-2.71875 -0.8125,-0.92188 -2.03125,-0.92188 -1.23438,0 -2.04688,0.92188 -0.79687,0.90625 -0.79687,2.76562 z m 9.28195,-6.60937 v -1.90625 h 1.64063 v 1.90625 z m -2.07812,15.20312 0.3125,-1.39062 q 0.5,0.125 0.78125,0.125 0.5,0 0.73437,-0.32813 0.25,-0.32812 0.25,-1.67187 v -10.15625 h 1.64063 v 10.20312 q 0,1.78125 -0.46875,2.48438 -0.59375,0.90625 -1.96875,0.90625 -0.65625,0 -1.28125,-0.17188 z m 12.86358,-6.85937 1.6875,0.20312 q -0.40625,1.48438 -1.48437,2.3125 -1.07813,0.8125 -2.76563,0.8125 -2.125,0 -3.375,-1.29687 -1.23437,-1.3125 -1.23437,-3.67188 0,-2.45312 1.25,-3.79687 1.26562,-1.34375 3.26562,-1.34375 1.9375,0 3.15625,1.32812 1.23438,1.3125 1.23438,3.70313 0,0.15625 0,0.4375 h -7.21875 q 0.0937,1.59375 0.90625,2.45312 0.8125,0.84375 2.01562,0.84375 0.90625,0 1.54688,-0.46875 0.64062,-0.48437 1.01562,-1.51562 z m -5.39062,-2.65625 h 5.40625 q -0.10938,-1.21875 -0.625,-1.82813 -0.78125,-0.95312 -2.03125,-0.95312 -1.125,0 -1.90625,0.76562 -0.76563,0.75 -0.84375,2.01563 z m 15.45382,2.21875 1.60938,0.21875 q -0.26563,1.65625 -1.35938,2.60937 -1.07812,0.9375 -2.67187,0.9375 -1.98438,0 -3.1875,-1.29687 -1.20313,-1.29688 -1.20313,-3.71875 0,-1.57813 0.51563,-2.75 0.51562,-1.17188 1.57812,-1.75 1.0625,-0.59375 2.3125,-0.59375 1.57813,0 2.57813,0.79687 1,0.79688 1.28125,2.26563 l -1.59375,0.23437 q -0.23438,-0.96875 -0.8125,-1.45312 -0.57813,-0.5 -1.39063,-0.5 -1.23437,0 -2.01562,0.89062 -0.78125,0.89063 -0.78125,2.8125 0,1.95313 0.75,2.84375 0.75,0.875 1.95312,0.875 0.96875,0 1.60938,-0.59375 0.65625,-0.59375 0.82812,-1.82812 z m 6.59375,2.07812 0.23438,1.45313 q -0.6875,0.14062 -1.23438,0.14062 -0.89062,0 -1.39062,-0.28125 -0.48438,-0.28125 -0.6875,-0.73437 -0.20313,-0.46875 -0.20313,-1.9375 v -5.57813 h -1.20312 v -1.26562 h 1.20312 v -2.39063 l 1.625,-0.98437 v 3.375 h 1.65625 v 1.26562 h -1.65625 v 5.67188 q 0,0.6875 0.0781,0.89062 0.0937,0.20313 0.28125,0.32813 0.20312,0.10937 0.57812,0.10937 0.26563,0 0.71875,-0.0625 z"
     fill-rule="nonzero"
     id="path1318" />
  <path
     fill="#efefef"
     d="m 241.87269,581.66539 v 88 h 16 l -32,32 -32,-32 h 16 v -88 z"
     fill-rule="evenodd"
     id="path1320" />
  <path
     stroke="#000000"
     stroke-width="1"
     stroke-linejoin="round"
     stroke-linecap="butt"
     d="m 241.87269,581.66539 v 88 h 16 l -32,32 -32,-32 h 16 v -88 z"
     fill-rule="evenodd"
     id="path1322" />
  <path
     fill="#000000"
     d="m 226.18706,593.96226 q 0.375,-1.01563 1.0625,-1.51563 0.70312,-0.48437 1.67187,-0.48437 1.45313,0 2.4375,1.04687 1,1.04688 1,2.78125 0,1.75 -1.01562,2.8125 -1.01563,1.07813 -2.46875,1.07813 -0.9375,0 -1.625,-0.5 -0.6875,-0.48438 -1.0625,-1.46875 -0.39063,1.21875 -1.28125,1.85937 -0.89063,0.65625 -2.14063,0.65625 -1.70312,0 -2.875,-1.21875 -1.17187,-1.21875 -1.17187,-3.1875 0,-1.98437 1.17187,-3.20312 1.17188,-1.20313 2.92188,-1.20313 1.3125,0 2.1875,0.65625 0.875,0.67188 1.1875,1.89063 z m 2.78125,-0.32813 q -0.9375,0 -1.54688,0.60938 -0.59375,0.60937 -0.59375,1.59375 0,0.9375 0.59375,1.54687 0.59375,0.60938 1.45313,0.60938 0.90625,0 1.51562,-0.625 0.625,-0.625 0.625,-1.5625 0,-0.9375 -0.60937,-1.5625 -0.59375,-0.60938 -1.4375,-0.60938 z m -6.15625,-0.53125 q -0.70313,0 -1.35938,0.32813 -0.65625,0.34375 -1.01562,1 -0.35938,0.65625 -0.35938,1.40625 0,1.17187 0.75,1.9375 0.75,0.76562 1.92188,0.76562 1.1875,0 1.95312,-0.79687 0.78125,-0.78125 0.78125,-1.95313 0,-1.15625 -0.76562,-1.92187 -0.76563,-0.76563 -1.90625,-0.76563 z m -3.85938,14.8559 h 13.35938 v 1.76563 h -13.35938 z m 0,4.68329 h 9.67188 v 1.46875 h -1.375 q 1.59375,1.0625 1.59375,3.07812 0,0.875 -0.3125,1.60938 -0.3125,0.73437 -0.82813,1.09375 -0.5,0.375 -1.20312,0.51562 -0.45313,0.0937 -1.59375,0.0937 h -5.95313 v -1.64062 h 5.89063 q 1,0 1.48437,-0.20313 0.5,-0.1875 0.79688,-0.67187 0.29687,-0.48438 0.29687,-1.14063 0,-1.04687 -0.67187,-1.8125 -0.65625,-0.75 -2.51563,-0.75 h -5.28125 z m -3.70312,10.37573 h 13.375 v 1.48438 h -1.25 q 0.73437,0.53125 1.09375,1.1875 0.375,0.67187 0.375,1.625 0,1.23437 -0.64063,2.17187 -0.625,0.95313 -1.79687,1.4375 -1.15625,0.48438 -2.54688,0.48438 -1.48437,0 -2.67187,-0.53125 -1.1875,-0.53125 -1.82813,-1.54688 -0.625,-1.01562 -0.625,-2.14062 0,-0.8125 0.34375,-1.46875 0.34375,-0.65625 0.875,-1.0625 h -4.70312 z m 8.48437,1.48438 q -1.85937,0 -2.76562,0.75 -0.89063,0.76562 -0.89063,1.82812 0,1.09375 0.92188,1.875 0.9375,0.78125 2.875,0.78125 1.84375,0 2.76562,-0.76562 0.92188,-0.75 0.92188,-1.8125 0,-1.04688 -0.98438,-1.85938 -0.96875,-0.79687 -2.84375,-0.79687 z m -4.78125,15.21942 h 1.42188 q -1.64063,-1.125 -1.64063,-3.0625 0,-0.85938 0.32813,-1.60938 0.32812,-0.73437 0.82812,-1.09375 0.5,-0.35937 1.21875,-0.5 0.46875,-0.10937 1.53125,-0.10937 h 5.98438 v 1.64062 h -5.35938 q -1.28125,0 -1.73437,0.10938 -0.64063,0.15625 -1.01563,0.65625 -0.375,0.5 -0.375,1.23437 0,0.73438 0.375,1.375 0.39063,0.65625 1.03125,0.92188 0.65625,0.26562 1.89063,0.26562 h 5.1875 v 1.64063 h -9.67188 z m 1.46875,7.62573 -1.45312,0.23437 q -0.14063,-0.6875 -0.14063,-1.23437 0,-0.89063 0.28125,-1.39063 0.28125,-0.48437 0.73438,-0.6875 0.46875,-0.20312 1.9375,-0.20312 h 5.57812 v -1.20313 h 1.26563 v 1.20313 h 2.39062 l 0.98438,1.625 h -3.375 v 1.65625 h -1.26563 v -1.65625 h -5.67187 q -0.6875,0 -0.89063,0.0781 -0.20312,0.0937 -0.32812,0.28125 -0.10938,0.20313 -0.10938,0.57813 0,0.26562 0.0625,0.71875 z m 1.42188,0.94891 0.25,1.625 q -0.96875,0.125 -1.5,0.75 -0.51563,0.625 -0.51563,1.75 0,1.125 0.45313,1.67188 0.46875,0.54687 1.09375,0.54687 0.54687,0 0.875,-0.48437 0.21875,-0.32813 0.54687,-1.67188 0.46875,-1.8125 0.79688,-2.51562 0.32812,-0.6875 0.90625,-1.04688 0.59375,-0.35937 1.3125,-0.35937 0.64062,0 1.1875,0.29687 0.5625,0.29688 0.92187,0.8125 0.28125,0.375 0.46875,1.03125 0.20313,0.67188 0.20313,1.42188 0,1.14062 -0.32813,2 -0.32812,0.85937 -0.89062,1.26562 -0.5625,0.42188 -1.5,0.57813 l -0.21875,-1.60938 q 0.75,-0.10937 1.17187,-0.64062 0.42188,-0.51563 0.42188,-1.46875 0,-1.14063 -0.375,-1.625 -0.375,-0.46875 -0.875,-0.46875 -0.3125,0 -0.57813,0.1875 -0.26562,0.20312 -0.4375,0.64062 -0.0937,0.23438 -0.42187,1.4375 -0.45313,1.75 -0.75,2.4375 -0.29688,0.6875 -0.85938,1.07813 -0.5625,0.39062 -1.40625,0.39062 -0.82812,0 -1.54687,-0.48437 -0.71875,-0.46875 -1.125,-1.375 -0.39063,-0.90625 -0.39063,-2.04688 0,-1.875 0.78125,-2.875 0.78125,-0.98437 2.32813,-1.25 z"
     fill-rule="nonzero"
     id="path1324" />
  <path
     fill="#efefef"
     d="m 273.87269,701.66539 v -88 h -16 l 32,-32 32,32 h -16 v 88 z"
     fill-rule="evenodd"
     id="path1326" />
  <path
     stroke="#000000"
     stroke-width="1"
     stroke-linejoin="round"
     stroke-linecap="butt"
     d="m 273.87269,701.66539 v -88 h -16 l 32,-32 32,32 h -16 v 88 z"
     fill-rule="evenodd"
     id="path1328" />
  <path
     fill="#000000"
     d="m 289.55831,689.36849 q -0.375,1.01562 -1.0625,1.51562 -0.70313,0.48438 -1.67188,0.48438 -1.45312,0 -2.4375,-1.04688 -1,-1.04687 -1,-2.78125 0,-1.75 1.01563,-2.8125 1.01562,-1.07812 2.46875,-1.07812 0.9375,0 1.625,0.5 0.6875,0.48437 1.0625,1.46875 0.39062,-1.21875 1.28125,-1.85938 0.89062,-0.65625 2.14062,-0.65625 1.70313,0 2.875,1.21875 1.17188,1.21875 1.17188,3.1875 0,1.98438 -1.17188,3.20313 -1.17187,1.20312 -2.92187,1.20312 -1.3125,0 -2.1875,-0.65625 -0.875,-0.67187 -1.1875,-1.89062 z m -2.78125,0.32812 q 0.9375,0 1.54687,-0.60937 0.59375,-0.60938 0.59375,-1.59375 0,-0.9375 -0.59375,-1.54688 -0.59375,-0.60937 -1.45312,-0.60937 -0.90625,0 -1.51563,0.625 -0.625,0.625 -0.625,1.5625 0,0.9375 0.60938,1.5625 0.59375,0.60937 1.4375,0.60937 z m 6.15625,0.53125 q 0.70312,0 1.35937,-0.32812 0.65625,-0.34375 1.01563,-1 0.35937,-0.65625 0.35937,-1.40625 0,-1.17188 -0.75,-1.9375 -0.75,-0.76563 -1.92187,-0.76563 -1.1875,0 -1.95313,0.79688 -0.78125,0.78125 -0.78125,1.95312 0,1.15625 0.76563,1.92188 0.76562,0.76562 1.90625,0.76562 z m -2.64063,-14.02777 q -3.32812,0 -5.20312,-1.78125 -1.89063,-1.78125 -1.89063,-4.60937 0,-1.84375 0.89063,-3.32813 0.875,-1.48437 2.46875,-2.26562 1.57812,-0.78125 3.57812,-0.78125 2.03125,0 3.64063,0.82812 1.59375,0.8125 2.42187,2.3125 0.82813,1.5 0.82813,3.25 0,1.875 -0.90625,3.35938 -0.92188,1.48437 -2.5,2.25 -1.57813,0.76562 -3.32813,0.76562 z m 0.0156,-1.8125 q 2.42187,0 3.8125,-1.29687 1.39062,-1.29688 1.39062,-3.26563 0,-2 -1.40625,-3.28125 -1.40625,-1.28125 -3.98437,-1.28125 -1.625,0 -2.84375,0.54688 -1.21875,0.54687 -1.875,1.60937 -0.67188,1.0625 -0.67188,2.375 0,1.89063 1.29688,3.25 1.28125,1.34375 4.28125,1.34375 z m 6.48437,-19.35522 h -1.42187 q 1.64062,1.125 1.64062,3.0625 0,0.85937 -0.32812,1.60937 -0.32813,0.73438 -0.82813,1.09375 -0.5,0.35938 -1.21875,0.5 -0.46875,0.10938 -1.53125,0.10938 h -5.98437 v -1.64063 h 5.35937 q 1.28125,0 1.73438,-0.10937 0.64062,-0.15625 1.01562,-0.65625 0.375,-0.5 0.375,-1.23438 0,-0.73437 -0.375,-1.375 -0.39062,-0.65625 -1.03125,-0.92187 -0.65625,-0.26563 -1.89062,-0.26563 h -5.1875 v -1.64062 h 9.67187 z m -1.46875,-7.62567 1.45313,-0.23438 q 0.14062,0.6875 0.14062,1.23438 0,0.89062 -0.28125,1.39062 -0.28125,0.48438 -0.73437,0.6875 -0.46875,0.20313 -1.9375,0.20313 h -5.57813 v 1.20312 h -1.26562 v -1.20312 h -2.39063 l -0.98437,-1.625 h 3.375 v -1.65625 h 1.26562 v 1.65625 h 5.67188 q 0.6875,0 0.89062,-0.0781 0.20313,-0.0937 0.32813,-0.28125 0.10937,-0.20312 0.10937,-0.57812 0,-0.26563 -0.0625,-0.71875 z m 5.17188,-1.60523 h -13.375 v -1.48437 h 1.25 q -0.73438,-0.53125 -1.09375,-1.1875 -0.375,-0.67188 -0.375,-1.625 0,-1.23438 0.64062,-2.17188 0.625,-0.95312 1.79688,-1.4375 1.15625,-0.48437 2.54687,-0.48437 1.48438,0 2.67188,0.53125 1.1875,0.53125 1.82812,1.54687 0.625,1.01563 0.625,2.14063 0,0.8125 -0.34375,1.46875 -0.34375,0.65625 -0.875,1.0625 h 4.70313 z m -8.48438,-1.48437 q 1.85938,0 2.76563,-0.75 0.89062,-0.76563 0.89062,-1.82813 0,-1.09375 -0.92187,-1.875 -0.9375,-0.78125 -2.875,-0.78125 -1.84375,0 -2.76563,0.76563 -0.92187,0.75 -0.92187,1.8125 0,1.04687 0.98437,1.85937 0.96875,0.79688 2.84375,0.79688 z m 4.78125,-15.21942 h -1.42187 q 1.64062,1.125 1.64062,3.0625 0,0.85937 -0.32812,1.60937 -0.32813,0.73438 -0.82813,1.09375 -0.5,0.35938 -1.21875,0.5 -0.46875,0.10938 -1.53125,0.10938 h -5.98437 v -1.64063 h 5.35937 q 1.28125,0 1.73438,-0.10937 0.64062,-0.15625 1.01562,-0.65625 0.375,-0.5 0.375,-1.23438 0,-0.73437 -0.375,-1.375 -0.39062,-0.65625 -1.03125,-0.92187 -0.65625,-0.26563 -1.89062,-0.26563 h -5.1875 v -1.64062 h 9.67187 z m -1.46875,-7.62574 1.45313,-0.23437 q 0.14062,0.6875 0.14062,1.23437 0,0.89063 -0.28125,1.39063 -0.28125,0.48437 -0.73437,0.6875 -0.46875,0.20312 -1.9375,0.20312 h -5.57813 v 1.20313 h -1.26562 v -1.20313 h -2.39063 l -0.98437,-1.625 h 3.375 v -1.65625 h 1.26562 v 1.65625 h 5.67188 q 0.6875,0 0.89062,-0.0781 0.20313,-0.0937 0.32813,-0.28125 0.10937,-0.20313 0.10937,-0.57813 0,-0.26562 -0.0625,-0.71875 z m -1.42187,-0.94891 -0.25,-1.625 q 0.96875,-0.125 1.5,-0.75 0.51562,-0.625 0.51562,-1.75 0,-1.125 -0.45312,-1.67187 -0.46875,-0.54688 -1.09375,-0.54688 -0.54688,0 -0.875,0.48438 -0.21875,0.32812 -0.54688,1.67187 -0.46875,1.8125 -0.79687,2.51563 -0.32813,0.6875 -0.90625,1.04687 -0.59375,0.35938 -1.3125,0.35938 -0.64063,0 -1.1875,-0.29688 -0.5625,-0.29687 -0.92188,-0.8125 -0.28125,-0.375 -0.46875,-1.03125 -0.20312,-0.67187 -0.20312,-1.42187 0,-1.14063 0.32812,-2 0.32813,-0.85938 0.89063,-1.26563 0.5625,-0.42187 1.5,-0.57812 l 0.21875,1.60937 q -0.75,0.10938 -1.17188,0.64063 -0.42187,0.51562 -0.42187,1.46875 0,1.14062 0.375,1.625 0.375,0.46875 0.875,0.46875 0.3125,0 0.57812,-0.1875 0.26563,-0.20313 0.4375,-0.64063 0.0937,-0.23437 0.42188,-1.4375 0.45312,-1.75 0.75,-2.4375 0.29687,-0.6875 0.85937,-1.07812 0.5625,-0.39063 1.40625,-0.39063 0.82813,0 1.54688,0.48438 0.71875,0.46875 1.125,1.375 0.39062,0.90625 0.39062,2.04687 0,1.875 -0.78125,2.875 -0.78125,0.98438 -2.32812,1.25 z"
     fill-rule="nonzero"
     id="path1330" />
  <path
     fill="#000000"
     fill-opacity="0"
     d="M 15.12729,215.14567 H 231.09578"
     fill-rule="evenodd"
     id="path1332" />
  <path
     stroke="#000000"
     stroke-width="3"
     stroke-linejoin="round"
     stroke-linecap="butt"
     d="M 15.12729,215.14567 H 213.09578"
     fill-rule="evenodd"
     id="path1334" />
  <path
     fill="#000000"
     stroke="#000000"
     stroke-width="3"
     stroke-linecap="butt"
     d="m 213.09579,220.10087 13.61429,-4.9552 -13.61429,-4.9552 z"
     fill-rule="evenodd"
     id="path1336" />
  <path
     fill="#000000"
     fill-opacity="0"
     d="m 148.85171,128.437 h 53.25983 v 87.27559 h -53.25983 z"
     fill-rule="evenodd"
     id="path1338" />
  <path
     fill="#000000"
     d="m 162.66421,153.88825 0.23437,1.45312 q -0.6875,0.14063 -1.23437,0.14063 -0.89063,0 -1.39063,-0.28125 -0.48437,-0.28125 -0.6875,-0.73438 -0.20312,-0.46875 -0.20312,-1.9375 v -5.57812 h -1.20313 v -1.26563 h 1.20313 v -2.39062 l 1.625,-0.98438 v 3.375 h 1.65625 v 1.26563 h -1.65625 v 5.67187 q 0,0.6875 0.0781,0.89063 0.0937,0.20312 0.28125,0.32812 0.20313,0.10938 0.57813,0.10938 0.26562,0 0.71875,-0.0625 z m 7.91766,-2.07813 1.60938,0.21875 q -0.26563,1.65625 -1.35938,2.60938 -1.07812,0.9375 -2.67187,0.9375 -1.98438,0 -3.1875,-1.29688 -1.20313,-1.29687 -1.20313,-3.71875 0,-1.57812 0.51563,-2.75 0.51562,-1.17187 1.57812,-1.75 1.0625,-0.59375 2.3125,-0.59375 1.57813,0 2.57813,0.79688 1,0.79687 1.28125,2.26562 l -1.59375,0.23438 q -0.23438,-0.96875 -0.8125,-1.45313 -0.57813,-0.5 -1.39063,-0.5 -1.23437,0 -2.01562,0.89063 -0.78125,0.89062 -0.78125,2.8125 0,1.95312 0.75,2.84375 0.75,0.875 1.95312,0.875 0.96875,0 1.60938,-0.59375 0.65625,-0.59375 0.82812,-1.82813 z m 3.01563,3.54688 v -13.35938 h 1.64062 v 7.625 l 3.89063,-3.9375 h 2.10937 l -3.6875,3.59375 4.0625,6.07813 h -2.01562 l -3.20313,-4.95313 -1.15625,1.125 v 3.82813 z"
     fill-rule="nonzero"
     id="path1340" />
  <path
     fill="#000000"
     d="m 162.66421,176.28825 0.23437,1.45312 q -0.6875,0.14063 -1.23437,0.14063 -0.89063,0 -1.39063,-0.28125 -0.48437,-0.28125 -0.6875,-0.73438 -0.20312,-0.46875 -0.20312,-1.9375 v -5.57812 h -1.20313 v -1.26563 h 1.20313 v -2.39062 l 1.625,-0.98438 v 3.375 h 1.65625 v 1.26563 h -1.65625 v 5.67187 q 0,0.6875 0.0781,0.89063 0.0937,0.20312 0.28125,0.32812 0.20313,0.10938 0.57813,0.10938 0.26562,0 0.71875,-0.0625 z m 1.60516,1.46875 v -9.67188 h 1.46875 v 1.35938 q 0.45313,-0.71875 1.20313,-1.14063 0.76562,-0.4375 1.71875,-0.4375 1.07812,0 1.76562,0.45313 0.6875,0.4375 0.96875,1.23437 1.15625,-1.6875 2.98438,-1.6875 1.45312,0 2.21875,0.79688 0.78125,0.79687 0.78125,2.45312 v 6.64063 h -1.64063 v -6.09375 q 0,-0.98438 -0.15625,-1.40625 -0.15625,-0.4375 -0.57812,-0.70313 -0.42188,-0.26562 -0.98438,-0.26562 -1.01562,0 -1.6875,0.6875 -0.67187,0.67187 -0.67187,2.15625 v 5.625 h -1.64063 v -6.28125 q 0,-1.09375 -0.40625,-1.64063 -0.40625,-0.54687 -1.3125,-0.54687 -0.6875,0 -1.28125,0.35937 -0.59375,0.35938 -0.85937,1.0625 -0.25,0.70313 -0.25,2.03125 v 5.01563 z m 14.88456,-2.89063 1.625,-0.25 q 0.125,0.96875 0.75,1.5 0.625,0.51563 1.75,0.51563 1.125,0 1.67187,-0.45313 0.54688,-0.46875 0.54688,-1.09375 0,-0.54687 -0.48438,-0.875 -0.32812,-0.21875 -1.67187,-0.54687 -1.8125,-0.46875 -2.51563,-0.79688 -0.6875,-0.32812 -1.04687,-0.90625 -0.35938,-0.59375 -0.35938,-1.3125 0,-0.64062 0.29688,-1.1875 0.29687,-0.5625 0.8125,-0.92187 0.375,-0.28125 1.03125,-0.46875 0.67187,-0.20313 1.42187,-0.20313 1.14063,0 2,0.32813 0.85938,0.32812 1.26563,0.89062 0.42187,0.5625 0.57812,1.5 l -1.60937,0.21875 q -0.10938,-0.75 -0.64063,-1.17187 -0.51562,-0.42188 -1.46875,-0.42188 -1.14062,0 -1.625,0.375 -0.46875,0.375 -0.46875,0.875 0,0.3125 0.1875,0.57813 0.20313,0.26562 0.64063,0.4375 0.23437,0.0937 1.4375,0.42187 1.75,0.45313 2.4375,0.75 0.6875,0.29688 1.07812,0.85938 0.39063,0.5625 0.39063,1.40625 0,0.82812 -0.48438,1.54687 -0.46875,0.71875 -1.375,1.125 -0.90625,0.39063 -2.04687,0.39063 -1.875,0 -2.875,-0.78125 -0.98438,-0.78125 -1.25,-2.32813 z"
     fill-rule="nonzero"
     id="path1342" />
  <path
     fill="#000000"
     d="m 162.66421,198.68825 0.23437,1.45312 q -0.6875,0.14063 -1.23437,0.14063 -0.89063,0 -1.39063,-0.28125 -0.48437,-0.28125 -0.6875,-0.73438 -0.20312,-0.46875 -0.20312,-1.9375 v -5.57812 h -1.20313 v -1.26563 h 1.20313 v -2.39062 l 1.625,-0.98438 v 3.375 h 1.65625 v 1.26563 h -1.65625 v 5.67187 q 0,0.6875 0.0781,0.89063 0.0937,0.20312 0.28125,0.32812 0.20313,0.10938 0.57813,0.10938 0.26562,0 0.71875,-0.0625 z m 7.87079,1.46875 v -1.21875 q -0.90625,1.4375 -2.70313,1.4375 -1.15625,0 -2.125,-0.64063 -0.96875,-0.64062 -1.5,-1.78125 -0.53125,-1.14062 -0.53125,-2.625 0,-1.45312 0.48438,-2.625 0.48437,-1.1875 1.4375,-1.8125 0.96875,-0.625 2.17187,-0.625 0.875,0 1.54688,0.375 0.6875,0.35938 1.10937,0.95313 v -4.79688 h 1.64063 V 200.157 Z m -5.17188,-4.82813 q 0,1.85938 0.78125,2.78125 0.78125,0.92188 1.84375,0.92188 1.07813,0 1.82813,-0.875 0.75,-0.89063 0.75,-2.6875 0,-1.98438 -0.76563,-2.90625 -0.76562,-0.9375 -1.89062,-0.9375 -1.07813,0 -1.8125,0.89062 -0.73438,0.89063 -0.73438,2.8125 z m 9.28199,-6.64062 v -1.89063 h 1.64062 v 1.89063 z m 0,11.46875 v -9.67188 h 1.64062 v 9.67188 z"
     fill-rule="nonzero"
     id="path1344" />
  <path
     fill="#ffffff"
     d="m 247.09579,276.05906 h 32 v 36.15747 h -32 z"
     fill-rule="evenodd"
     id="path1346" />
  <path
     stroke="#000000"
     stroke-width="1"
     stroke-linejoin="round"
     stroke-linecap="butt"
     d="m 247.09579,276.05906 h 32 v 36.15747 h -32 z"
     fill-rule="evenodd"
     id="path1348" />
  <path
     fill="#000000"
     d="m 257.79684,301.05779 v -13.35938 h 4.60937 q 1.54688,0 2.375,0.20313 1.14063,0.25 1.95313,0.95312 1.0625,0.89063 1.57812,2.28125 0.53125,1.39063 0.53125,3.17188 0,1.51562 -0.35937,2.70312 -0.35938,1.17188 -0.92188,1.9375 -0.54687,0.76563 -1.20312,1.21875 -0.65625,0.4375 -1.59375,0.67188 -0.9375,0.21875 -2.14063,0.21875 z m 1.76562,-1.57813 h 2.85938 q 1.3125,0 2.0625,-0.23437 0.75,-0.25 1.20312,-0.70313 0.625,-0.625 0.96875,-1.6875 0.35938,-1.0625 0.35938,-2.57812 0,-2.09375 -0.6875,-3.21875 -0.6875,-1.125 -1.67188,-1.5 -0.70312,-0.28125 -2.28125,-0.28125 h -2.8125 z"
     fill-rule="nonzero"
     id="path1350" />
  <path
     fill="#ffffff"
     d="m 247.09579,312.21653 h 32 V 348.374 h -32 z"
     fill-rule="evenodd"
     id="path1352" />
  <path
     stroke="#000000"
     stroke-width="1"
     stroke-linejoin="round"
     stroke-linecap="butt"
     d="m 247.09579,312.21653 h 32 V 348.374 h -32 z"
     fill-rule="evenodd"
     id="path1354" />
  <path
     fill="#000000"
     d="m 257.79684,337.21529 v -13.35937 h 4.60937 q 1.54688,0 2.375,0.20312 1.14063,0.25 1.95313,0.95313 1.0625,0.89062 1.57812,2.28125 0.53125,1.39062 0.53125,3.17187 0,1.51563 -0.35937,2.70313 -0.35938,1.17187 -0.92188,1.9375 -0.54687,0.76562 -1.20312,1.21875 -0.65625,0.4375 -1.59375,0.67187 -0.9375,0.21875 -2.14063,0.21875 z m 1.76562,-1.57812 h 2.85938 q 1.3125,0 2.0625,-0.23438 0.75,-0.25 1.20312,-0.70312 0.625,-0.625 0.96875,-1.6875 0.35938,-1.0625 0.35938,-2.57813 0,-2.09375 -0.6875,-3.21875 -0.6875,-1.125 -1.67188,-1.5 -0.70312,-0.28125 -2.28125,-0.28125 h -2.8125 z"
     fill-rule="nonzero"
     id="path1356" />
  <path
     fill="#ffffff"
     d="m 247.09579,348.37399 h 32 v 36.1575 h -32 z"
     fill-rule="evenodd"
     id="path1358" />
  <path
     stroke="#000000"
     stroke-width="1"
     stroke-linejoin="round"
     stroke-linecap="butt"
     d="m 247.09579,348.37399 h 32 v 36.1575 h -32 z"
     fill-rule="evenodd"
     id="path1360" />
  <path
     fill="#000000"
     d="m 257.79684,373.37275 v -13.35938 h 4.60937 q 1.54688,0 2.375,0.20313 1.14063,0.25 1.95313,0.95312 1.0625,0.89063 1.57812,2.28125 0.53125,1.39063 0.53125,3.17188 0,1.51562 -0.35937,2.70312 -0.35938,1.17188 -0.92188,1.9375 -0.54687,0.76563 -1.20312,1.21875 -0.65625,0.4375 -1.59375,0.67188 -0.9375,0.21875 -2.14063,0.21875 z m 1.76562,-1.57813 h 2.85938 q 1.3125,0 2.0625,-0.23437 0.75,-0.25 1.20312,-0.70313 0.625,-0.625 0.96875,-1.6875 0.35938,-1.0625 0.35938,-2.57812 0,-2.09375 -0.6875,-3.21875 -0.6875,-1.125 -1.67188,-1.5 -0.70312,-0.28125 -2.28125,-0.28125 h -2.8125 z"
     fill-rule="nonzero"
     id="path1362" />
  <path
     fill="#ffffff"
     d="m 247.09579,384.53149 h 32 v 36.15747 h -32 z"
     fill-rule="evenodd"
     id="path1364" />
  <path
     stroke="#000000"
     stroke-width="1"
     stroke-linejoin="round"
     stroke-linecap="butt"
     d="m 247.09579,384.53149 h 32 v 36.15747 h -32 z"
     fill-rule="evenodd"
     id="path1366" />
  <path
     fill="#000000"
     d="m 257.79684,409.53022 v -13.35938 h 4.60937 q 1.54688,0 2.375,0.20313 1.14063,0.25 1.95313,0.95312 1.0625,0.89063 1.57812,2.28125 0.53125,1.39063 0.53125,3.17188 0,1.51562 -0.35937,2.70312 -0.35938,1.17188 -0.92188,1.9375 -0.54687,0.76563 -1.20312,1.21875 -0.65625,0.4375 -1.59375,0.67188 -0.9375,0.21875 -2.14063,0.21875 z m 1.76562,-1.57813 h 2.85938 q 1.3125,0 2.0625,-0.23437 0.75,-0.25 1.20312,-0.70313 0.625,-0.625 0.96875,-1.6875 0.35938,-1.0625 0.35938,-2.57812 0,-2.09375 -0.6875,-3.21875 -0.6875,-1.125 -1.67188,-1.5 -0.70312,-0.28125 -2.28125,-0.28125 h -2.8125 z"
     fill-rule="nonzero"
     id="path1368" />
  <path
     fill="#ffffff"
     d="m 247.09579,420.68897 h 32 v 36.15747 h -32 z"
     fill-rule="evenodd"
     id="path1370" />
  <path
     stroke="#000000"
     stroke-width="1"
     stroke-linejoin="round"
     stroke-linecap="butt"
     d="m 247.09579,420.68897 h 32 v 36.15747 h -32 z"
     fill-rule="evenodd"
     id="path1372" />
  <path
     fill="#000000"
     d="m 257.79684,445.68772 v -13.35938 h 4.60937 q 1.54688,0 2.375,0.20313 1.14063,0.25 1.95313,0.95312 1.0625,0.89063 1.57812,2.28125 0.53125,1.39063 0.53125,3.17188 0,1.51562 -0.35937,2.70312 -0.35938,1.17188 -0.92188,1.9375 -0.54687,0.76563 -1.20312,1.21875 -0.65625,0.4375 -1.59375,0.67188 -0.9375,0.21875 -2.14063,0.21875 z m 1.76562,-1.57813 h 2.85938 q 1.3125,0 2.0625,-0.23437 0.75,-0.25 1.20312,-0.70313 0.625,-0.625 0.96875,-1.6875 0.35938,-1.0625 0.35938,-2.57812 0,-2.09375 -0.6875,-3.21875 -0.6875,-1.125 -1.67188,-1.5 -0.70312,-0.28125 -2.28125,-0.28125 h -2.8125 z"
     fill-rule="nonzero"
     id="path1374" />
  <path
     fill="#ffffff"
     d="m 247.09579,456.84644 h 32 v 36.1575 h -32 z"
     fill-rule="evenodd"
     id="path1376" />
  <path
     stroke="#000000"
     stroke-width="1"
     stroke-linejoin="round"
     stroke-linecap="butt"
     d="m 247.09579,456.84644 h 32 v 36.1575 h -32 z"
     fill-rule="evenodd"
     id="path1378" />
  <path
     fill="#000000"
     d="m 257.79684,481.84519 v -13.35937 h 4.60937 q 1.54688,0 2.375,0.20312 1.14063,0.25 1.95313,0.95313 1.0625,0.89062 1.57812,2.28125 0.53125,1.39062 0.53125,3.17187 0,1.51563 -0.35937,2.70313 -0.35938,1.17187 -0.92188,1.9375 -0.54687,0.76562 -1.20312,1.21875 -0.65625,0.4375 -1.59375,0.67187 -0.9375,0.21875 -2.14063,0.21875 z m 1.76562,-1.57812 h 2.85938 q 1.3125,0 2.0625,-0.23438 0.75,-0.25 1.20312,-0.70312 0.625,-0.625 0.96875,-1.6875 0.35938,-1.0625 0.35938,-2.57813 0,-2.09375 -0.6875,-3.21875 -0.6875,-1.125 -1.67188,-1.5 -0.70312,-0.28125 -2.28125,-0.28125 h -2.8125 z"
     fill-rule="nonzero"
     id="path1380" />
  <path
     fill="#ffffff"
     d="m 247.09579,493.00394 h 32 v 36.15747 h -32 z"
     fill-rule="evenodd"
     id="path1382" />
  <path
     stroke="#000000"
     stroke-width="1"
     stroke-linejoin="round"
     stroke-linecap="butt"
     d="m 247.09579,493.00394 h 32 v 36.15747 h -32 z"
     fill-rule="evenodd"
     id="path1384" />
  <path
     fill="#000000"
     d="m 257.79684,518.00269 v -13.35938 h 4.60937 q 1.54688,0 2.375,0.20313 1.14063,0.25 1.95313,0.95312 1.0625,0.89063 1.57812,2.28125 0.53125,1.39063 0.53125,3.17188 0,1.51562 -0.35937,2.70312 -0.35938,1.17188 -0.92188,1.9375 -0.54687,0.76563 -1.20312,1.21875 -0.65625,0.4375 -1.59375,0.67188 -0.9375,0.21875 -2.14063,0.21875 z m 1.76562,-1.57813 h 2.85938 q 1.3125,0 2.0625,-0.23437 0.75,-0.25 1.20312,-0.70313 0.625,-0.625 0.96875,-1.6875 0.35938,-1.0625 0.35938,-2.57812 0,-2.09375 -0.6875,-3.21875 -0.6875,-1.125 -1.67188,-1.5 -0.70312,-0.28125 -2.28125,-0.28125 h -2.8125 z"
     fill-rule="nonzero"
     id="path1386" />
  <path
     fill="#ffffff"
     d="m 247.09579,529.16139 h 32 v 36.15747 h -32 z"
     fill-rule="evenodd"
     id="path1388" />
  <path
     stroke="#000000"
     stroke-width="1"
     stroke-linejoin="round"
     stroke-linecap="butt"
     d="m 247.09579,529.16139 h 32 v 36.15747 h -32 z"
     fill-rule="evenodd"
     id="path1390" />
  <path
     fill="#000000"
     d="m 257.79684,554.16013 v -13.35937 h 4.60937 q 1.54688,0 2.375,0.20312 1.14063,0.25 1.95313,0.95313 1.0625,0.89062 1.57812,2.28125 0.53125,1.39062 0.53125,3.17187 0,1.51563 -0.35937,2.70313 -0.35938,1.17187 -0.92188,1.9375 -0.54687,0.76562 -1.20312,1.21875 -0.65625,0.4375 -1.59375,0.67187 -0.9375,0.21875 -2.14063,0.21875 z m 1.76562,-1.57812 h 2.85938 q 1.3125,0 2.0625,-0.23438 0.75,-0.25 1.20312,-0.70312 0.625,-0.625 0.96875,-1.6875 0.35938,-1.0625 0.35938,-2.57813 0,-2.09375 -0.6875,-3.21875 -0.6875,-1.125 -1.67188,-1.5 -0.70312,-0.28125 -2.28125,-0.28125 h -2.8125 z"
     fill-rule="nonzero"
     id="path1392" />
  <path
     fill="#000000"
     fill-opacity="0"
     d="M 263.09579,276.05906 V 233.2244"
     fill-rule="evenodd"
     id="path1394" />
  <path
     stroke="#000000"
     stroke-width="3"
     stroke-linejoin="round"
     stroke-linecap="butt"
     d="M 263.09579,276.05906 V 251.2244"
     fill-rule="evenodd"
     id="path1396" />
  <path
     fill="#000000"
     stroke="#000000"
     stroke-width="3"
     stroke-linecap="butt"
     d="m 268.05099,251.22439 -4.9552,-13.61429 -4.9552,13.61429 z"
     fill-rule="evenodd"
     id="path1398" />
  <path
     fill="#ffffff"
     d="m 231.09579,197.06693 h 64 v 36.15747 h -64 z"
     fill-rule="evenodd"
     id="path1400" />
  <path
     stroke="#000000"
     stroke-width="1"
     stroke-linejoin="round"
     stroke-linecap="butt"
     d="m 231.09579,197.06693 h 64 v 36.15747 h -64 z"
     fill-rule="evenodd"
     id="path1402" />
  <path
     fill="#000000"
     d="m 246.86409,222.06567 v -13.35938 h 2.65625 l 3.15625,9.45313 q 0.4375,1.32812 0.64062,1.98437 0.23438,-0.73437 0.70313,-2.14062 l 3.20312,-9.29688 h 2.375 v 13.35938 h -1.70312 v -11.17188 l -3.875,11.17188 h -1.59375 l -3.85938,-11.375 v 11.375 z m 21.71268,0 v -1.42188 q -1.125,1.64063 -3.0625,1.64063 -0.85938,0 -1.60938,-0.32813 -0.73437,-0.32812 -1.09375,-0.82812 -0.35937,-0.5 -0.5,-1.21875 -0.10937,-0.46875 -0.10937,-1.53125 v -5.98438 h 1.64062 v 5.35938 q 0,1.28125 0.10938,1.73437 0.15625,0.64063 0.65625,1.01563 0.5,0.375 1.23437,0.375 0.73438,0 1.375,-0.375 0.65625,-0.39063 0.92188,-1.03125 0.26562,-0.65625 0.26562,-1.89063 v -5.1875 h 1.64063 v 9.67188 z m 2.95385,0 3.53125,-5.03125 -3.26562,-4.64063 h 2.04687 l 1.48438,2.26563 q 0.42187,0.64062 0.67187,1.07812 0.40625,-0.59375 0.73438,-1.0625 l 1.64062,-2.28125 h 1.95313 l -3.34375,4.54688 3.59375,5.125 h -2.01563 l -1.98437,-3 -0.51563,-0.8125 -2.54687,3.8125 z"
     fill-rule="nonzero"
     id="path1404" />
  <path
     fill="#000000"
     fill-opacity="0"
     d="m 202.11941,215.71259 v 331.52756 h 44.97638"
     fill-rule="evenodd"
     id="path1406" />
  <path
     stroke="#000000"
     stroke-width="3"
     stroke-linejoin="round"
     stroke-linecap="butt"
     d="m 202.11941,215.71259 v 331.52756 h 26.97638"
     fill-rule="evenodd"
     id="path1408" />
  <path
     fill="#000000"
     stroke="#000000"
     stroke-width="3"
     stroke-linecap="butt"
     d="m 229.09579,552.19535 13.61429,-4.9552 -13.61429,-4.9552 z"
     fill-rule="evenodd"
     id="path1410" />
  <path
     fill="#000000"
     fill-opacity="0"
     d="m 295.09579,128.437 h 53.25986 v 87.27559 h -53.25986 z"
     fill-rule="evenodd"
     id="path1412" />
  <path
     fill="#000000"
     d="m 308.90829,153.88825 0.23437,1.45312 q -0.6875,0.14063 -1.23437,0.14063 -0.89063,0 -1.39063,-0.28125 -0.48437,-0.28125 -0.6875,-0.73438 -0.20312,-0.46875 -0.20312,-1.9375 v -5.57812 h -1.20313 v -1.26563 h 1.20313 v -2.39062 l 1.625,-0.98438 v 3.375 h 1.65625 v 1.26563 h -1.65625 v 5.67187 q 0,0.6875 0.0781,0.89063 0.0937,0.20312 0.28125,0.32812 0.20313,0.10938 0.57813,0.10938 0.26562,0 0.71875,-0.0625 z m 7.91769,-2.07813 1.60938,0.21875 q -0.26563,1.65625 -1.35938,2.60938 -1.07812,0.9375 -2.67187,0.9375 -1.98438,0 -3.1875,-1.29688 -1.20313,-1.29687 -1.20313,-3.71875 0,-1.57812 0.51563,-2.75 0.51562,-1.17187 1.57812,-1.75 1.0625,-0.59375 2.3125,-0.59375 1.57813,0 2.57813,0.79688 1,0.79687 1.28125,2.26562 l -1.59375,0.23438 q -0.23438,-0.96875 -0.8125,-1.45313 -0.57813,-0.5 -1.39063,-0.5 -1.23437,0 -2.01562,0.89063 -0.78125,0.89062 -0.78125,2.8125 0,1.95312 0.75,2.84375 0.75,0.875 1.95312,0.875 0.96875,0 1.60938,-0.59375 0.65625,-0.59375 0.82812,-1.82813 z m 3.01563,3.54688 v -13.35938 h 1.64062 v 7.625 l 3.89063,-3.9375 h 2.10937 l -3.6875,3.59375 4.0625,6.07813 h -2.01562 l -3.20313,-4.95313 -1.15625,1.125 v 3.82813 z"
     fill-rule="nonzero"
     id="path1414" />
  <path
     fill="#000000"
     d="m 308.90829,176.28825 0.23437,1.45312 q -0.6875,0.14063 -1.23437,0.14063 -0.89063,0 -1.39063,-0.28125 -0.48437,-0.28125 -0.6875,-0.73438 -0.20312,-0.46875 -0.20312,-1.9375 v -5.57812 h -1.20313 v -1.26563 h 1.20313 v -2.39062 l 1.625,-0.98438 v 3.375 h 1.65625 v 1.26563 h -1.65625 v 5.67187 q 0,0.6875 0.0781,0.89063 0.0937,0.20312 0.28125,0.32812 0.20313,0.10938 0.57813,0.10938 0.26562,0 0.71875,-0.0625 z m 1.60519,1.46875 v -9.67188 h 1.46875 v 1.35938 q 0.45313,-0.71875 1.20313,-1.14063 0.76562,-0.4375 1.71875,-0.4375 1.07812,0 1.76562,0.45313 0.6875,0.4375 0.96875,1.23437 1.15625,-1.6875 2.98438,-1.6875 1.45312,0 2.21875,0.79688 0.78125,0.79687 0.78125,2.45312 v 6.64063 h -1.64063 v -6.09375 q 0,-0.98438 -0.15625,-1.40625 -0.15625,-0.4375 -0.57812,-0.70313 -0.42188,-0.26562 -0.98438,-0.26562 -1.01562,0 -1.6875,0.6875 -0.67187,0.67187 -0.67187,2.15625 v 5.625 h -1.64063 v -6.28125 q 0,-1.09375 -0.40625,-1.64063 -0.40625,-0.54687 -1.3125,-0.54687 -0.6875,0 -1.28125,0.35937 -0.59375,0.35938 -0.85937,1.0625 -0.25,0.70313 -0.25,2.03125 v 5.01563 z m 14.88456,-2.89063 1.625,-0.25 q 0.125,0.96875 0.75,1.5 0.625,0.51563 1.75,0.51563 1.125,0 1.67187,-0.45313 0.54688,-0.46875 0.54688,-1.09375 0,-0.54687 -0.48438,-0.875 -0.32812,-0.21875 -1.67187,-0.54687 -1.8125,-0.46875 -2.51563,-0.79688 -0.6875,-0.32812 -1.04687,-0.90625 -0.35938,-0.59375 -0.35938,-1.3125 0,-0.64062 0.29688,-1.1875 0.29687,-0.5625 0.8125,-0.92187 0.375,-0.28125 1.03125,-0.46875 0.67187,-0.20313 1.42187,-0.20313 1.14063,0 2,0.32813 0.85938,0.32812 1.26563,0.89062 0.42187,0.5625 0.57812,1.5 l -1.60937,0.21875 q -0.10938,-0.75 -0.64063,-1.17187 -0.51562,-0.42188 -1.46875,-0.42188 -1.14062,0 -1.625,0.375 -0.46875,0.375 -0.46875,0.875 0,0.3125 0.1875,0.57813 0.20313,0.26562 0.64063,0.4375 0.23437,0.0937 1.4375,0.42187 1.75,0.45313 2.4375,0.75 0.6875,0.29688 1.07812,0.85938 0.39063,0.5625 0.39063,1.40625 0,0.82812 -0.48438,1.54687 -0.46875,0.71875 -1.375,1.125 -0.90625,0.39063 -2.04687,0.39063 -1.875,0 -2.875,-0.78125 -0.98438,-0.78125 -1.25,-2.32813 z"
     fill-rule="nonzero"
     id="path1416" />
  <path
     fill="#000000"
     d="m 308.90829,198.68825 0.23437,1.45312 q -0.6875,0.14063 -1.23437,0.14063 -0.89063,0 -1.39063,-0.28125 -0.48437,-0.28125 -0.6875,-0.73438 -0.20312,-0.46875 -0.20312,-1.9375 v -5.57812 h -1.20313 v -1.26563 h 1.20313 v -2.39062 l 1.625,-0.98438 v 3.375 h 1.65625 v 1.26563 h -1.65625 v 5.67187 q 0,0.6875 0.0781,0.89063 0.0937,0.20312 0.28125,0.32812 0.20313,0.10938 0.57813,0.10938 0.26562,0 0.71875,-0.0625 z m 7.87082,1.46875 v -1.21875 q -0.90625,1.4375 -2.70313,1.4375 -1.15625,0 -2.125,-0.64063 -0.96875,-0.64062 -1.5,-1.78125 -0.53125,-1.14062 -0.53125,-2.625 0,-1.45312 0.48438,-2.625 0.48437,-1.1875 1.4375,-1.8125 0.96875,-0.625 2.17187,-0.625 0.875,0 1.54688,0.375 0.6875,0.35938 1.10937,0.95313 v -4.79688 h 1.64063 V 200.157 Z m -5.17188,-4.82813 q 0,1.85938 0.78125,2.78125 0.78125,0.92188 1.84375,0.92188 1.07813,0 1.82813,-0.875 0.75,-0.89063 0.75,-2.6875 0,-1.98438 -0.76563,-2.90625 -0.76562,-0.9375 -1.89062,-0.9375 -1.07813,0 -1.8125,0.89062 -0.73438,0.89063 -0.73438,2.8125 z m 8.67258,-0.0156 q 0,-2.6875 1.48438,-3.96875 1.25,-1.07813 3.04687,-1.07813 2,0 3.26563,1.3125 1.26562,1.29688 1.26562,3.60938 0,1.85937 -0.5625,2.9375 -0.5625,1.0625 -1.64062,1.65625 -1.0625,0.59375 -2.32813,0.59375 -2.03125,0 -3.28125,-1.29688 -1.25,-1.3125 -1.25,-3.76562 z m 1.6875,0 q 0,1.85937 0.79688,2.79687 0.8125,0.92188 2.04687,0.92188 1.21875,0 2.03125,-0.92188 0.8125,-0.9375 0.8125,-2.84375 0,-1.79687 -0.8125,-2.71875 -0.8125,-0.92187 -2.03125,-0.92187 -1.23437,0 -2.04687,0.92187 -0.79688,0.90625 -0.79688,2.76563 z"
     fill-rule="nonzero"
     id="path1418" />
  <path
     fill="#efefef"
     d="M 388.42649,91.39239 H 592.11152 V 257.50263 H 388.42649 Z"
     fill-rule="evenodd"
     id="path1420" />
  <path
     stroke="#000000"
     stroke-width="1"
     stroke-linejoin="round"
     stroke-linecap="butt"
     d="M 388.42649,91.39239 H 592.11152 V 257.50263 H 388.42649 Z"
     fill-rule="evenodd"
     id="path1422" />
  <path
     fill="#000000"
     d="m 434.83645,116.73426 v 1.57812 h -8.82813 q -0.0156,-0.59375 0.1875,-1.14062 0.34375,-0.90625 1.07813,-1.78125 0.75,-0.875 2.15625,-2.01563 2.17187,-1.78125 2.9375,-2.82812 0.76562,-1.04688 0.76562,-1.96875 0,-0.98438 -0.70312,-1.64063 -0.6875,-0.67187 -1.8125,-0.67187 -1.1875,0 -1.90625,0.71875 -0.70313,0.70312 -0.70313,1.95312 l -1.6875,-0.17187 q 0.17188,-1.89063 1.29688,-2.875 1.14062,-0.98438 3.03125,-0.98438 1.92187,0 3.04687,1.0625 1.125,1.0625 1.125,2.64063 0,0.79687 -0.32812,1.57812 -0.32813,0.78125 -1.09375,1.64063 -0.75,0.84375 -2.53125,2.34375 -1.46875,1.23437 -1.89063,1.6875 -0.42187,0.4375 -0.6875,0.875 z m 7.01636,1.57812 v -3.20312 h -5.79688 v -1.5 l 6.09375,-8.65625 h 1.34375 v 8.65625 h 1.79688 v 1.5 h -1.79688 v 3.20312 z m 0,-4.70312 v -6.01563 l -4.1875,6.01563 z m 5.3601,1.60937 1.57813,-0.14062 q 0.20312,1.10937 0.76562,1.60937 0.5625,0.5 1.45313,0.5 0.75,0 1.3125,-0.34375 0.57812,-0.34375 0.9375,-0.92187 0.375,-0.57813 0.60937,-1.5625 0.25,-0.98438 0.25,-2 0,-0.10938 0,-0.32813 -0.5,0.78125 -1.35937,1.26563 -0.84375,0.48437 -1.82813,0.48437 -1.67187,0 -2.8125,-1.20312 -1.14062,-1.20313 -1.14062,-3.17188 0,-2.03125 1.1875,-3.26562 1.20312,-1.23438 3,-1.23438 1.3125,0 2.39062,0.70313 1.07813,0.70312 1.64063,2 0.5625,1.29687 0.5625,3.75 0,2.5625 -0.5625,4.07812 -0.5625,1.51563 -1.65625,2.3125 -1.09375,0.79688 -2.57813,0.79688 -1.5625,0 -2.5625,-0.875 -0.98437,-0.875 -1.1875,-2.45313 z m 6.71875,-5.89062 q 0,-1.40625 -0.75,-2.23438 -0.75,-0.82812 -1.8125,-0.82812 -1.09375,0 -1.90625,0.89062 -0.8125,0.89063 -0.8125,2.3125 0,1.28125 0.76563,2.07813 0.78125,0.79687 1.90625,0.79687 1.14062,0 1.875,-0.79687 0.73437,-0.79688 0.73437,-2.21875 z m 2.78199,8.98437 3.53125,-5.03125 -3.26563,-4.64062 h 2.04688 l 1.48437,2.26562 q 0.42188,0.64063 0.67188,1.07813 0.40625,-0.59375 0.73437,-1.0625 l 1.64063,-2.28125 h 1.95312 l -3.34375,4.54687 3.59375,5.125 h -2.01562 l -1.98438,-3 -0.51562,-0.8125 -2.54688,3.8125 z m 14.94891,-2.89062 1.625,-0.25 q 0.125,0.96875 0.75,1.5 0.625,0.51562 1.75,0.51562 1.125,0 1.67188,-0.45312 0.54687,-0.46875 0.54687,-1.09375 0,-0.54688 -0.48437,-0.875 -0.32813,-0.21875 -1.67188,-0.54688 -1.8125,-0.46875 -2.51562,-0.79687 -0.6875,-0.32813 -1.04688,-0.90625 -0.35937,-0.59375 -0.35937,-1.3125 0,-0.64063 0.29687,-1.1875 0.29688,-0.5625 0.8125,-0.92188 0.375,-0.28125 1.03125,-0.46875 0.67188,-0.20312 1.42188,-0.20312 1.14062,0 2,0.32812 0.85937,0.32813 1.26562,0.89063 0.42188,0.5625 0.57813,1.5 l -1.60938,0.21875 q -0.10937,-0.75 -0.64062,-1.17188 -0.51563,-0.42187 -1.46875,-0.42187 -1.14063,0 -1.625,0.375 -0.46875,0.375 -0.46875,0.875 0,0.3125 0.1875,0.57812 0.20312,0.26563 0.64062,0.4375 0.23438,0.0937 1.4375,0.42188 1.75,0.45312 2.4375,0.75 0.6875,0.29687 1.07813,0.85937 0.39062,0.5625 0.39062,1.40625 0,0.82813 -0.48437,1.54688 -0.46875,0.71875 -1.375,1.125 -0.90625,0.39062 -2.04688,0.39062 -1.875,0 -2.875,-0.78125 -0.98437,-0.78125 -1.25,-2.32812 z m 16.29688,-0.65625 1.60937,0.21875 q -0.26562,1.65625 -1.35937,2.60937 -1.07813,0.9375 -2.67188,0.9375 -1.98437,0 -3.1875,-1.29687 -1.20312,-1.29688 -1.20312,-3.71875 0,-1.57813 0.51562,-2.75 0.51563,-1.17188 1.57813,-1.75 1.0625,-0.59375 2.3125,-0.59375 1.57812,0 2.57812,0.79687 1,0.79688 1.28125,2.26563 l -1.59375,0.23437 q -0.23437,-0.96875 -0.8125,-1.45312 -0.57812,-0.5 -1.39062,-0.5 -1.23438,0 -2.01563,0.89062 -0.78125,0.89063 -0.78125,2.8125 0,1.95313 0.75,2.84375 0.75,0.875 1.95313,0.875 0.96875,0 1.60937,-0.59375 0.65625,-0.59375 0.82813,-1.82812 z m 9.32812,2.35937 q -0.92187,0.76563 -1.76562,1.09375 -0.82813,0.3125 -1.79688,0.3125 -1.59375,0 -2.45312,-0.78125 -0.85938,-0.78125 -0.85938,-1.98437 0,-0.71875 0.32813,-1.29688 0.32812,-0.59375 0.84375,-0.9375 0.53125,-0.35937 1.1875,-0.54687 0.46875,-0.125 1.45312,-0.25 1.98438,-0.23438 2.92188,-0.5625 0.0156,-0.34375 0.0156,-0.42188 0,-1 -0.46875,-1.42187 -0.625,-0.54688 -1.875,-0.54688 -1.15625,0 -1.70312,0.40625 -0.54688,0.40625 -0.8125,1.42188 l -1.60938,-0.21875 q 0.21875,-1.01563 0.71875,-1.64063 0.5,-0.64062 1.45313,-0.98437 0.95312,-0.34375 2.1875,-0.34375 1.25,0 2.01562,0.29687 0.78125,0.28125 1.14063,0.73438 0.375,0.4375 0.51562,1.10937 0.0781,0.42188 0.0781,1.51563 v 2.1875 q 0,2.28125 0.10937,2.89062 0.10938,0.59375 0.40625,1.15625 h -1.70307 q -0.26563,-0.51562 -0.32813,-1.1875 z m -0.14062,-3.67187 q -0.89063,0.375 -2.67188,0.625 -1.01562,0.14062 -1.4375,0.32812 -0.42187,0.1875 -0.65625,0.53125 -0.21875,0.34375 -0.21875,0.78125 0,0.65625 0.5,1.09375 0.5,0.4375 1.45313,0.4375 0.9375,0 1.67187,-0.40625 0.75,-0.42187 1.09375,-1.14062 0.26563,-0.5625 0.26563,-1.64063 z m 4.20385,4.85937 v -9.67187 h 1.46875 v 1.375 q 1.0625,-1.59375 3.07813,-1.59375 0.875,0 1.60937,0.3125 0.73438,0.3125 1.09375,0.82812 0.375,0.5 0.51563,1.20313 0.0937,0.45312 0.0937,1.59375 v 5.95312 h -1.64063 v -5.89062 q 0,-1 -0.20312,-1.48438 -0.1875,-0.5 -0.67188,-0.79687 -0.48437,-0.29688 -1.14062,-0.29688 -1.04688,0 -1.8125,0.67188 -0.75,0.65625 -0.75,2.51562 v 5.28125 z m 16.68817,-3.54687 1.60938,0.21875 q -0.26563,1.65625 -1.35938,2.60937 -1.07812,0.9375 -2.67187,0.9375 -1.98438,0 -3.1875,-1.29687 -1.20313,-1.29688 -1.20313,-3.71875 0,-1.57813 0.51563,-2.75 0.51562,-1.17188 1.57812,-1.75 1.0625,-0.59375 2.3125,-0.59375 1.57813,0 2.57813,0.79687 1,0.79688 1.28125,2.26563 l -1.59375,0.23437 q -0.23438,-0.96875 -0.8125,-1.45312 -0.57813,-0.5 -1.39063,-0.5 -1.23437,0 -2.01562,0.89062 -0.78125,0.89063 -0.78125,2.8125 0,1.95313 0.75,2.84375 0.75,0.875 1.95312,0.875 0.96875,0 1.60938,-0.59375 0.65625,-0.59375 0.82812,-1.82812 z m 3.01563,3.54687 v -13.35937 h 1.64062 v 4.79687 q 1.14063,-1.32812 2.89063,-1.32812 1.07812,0 1.85937,0.42187 0.79688,0.42188 1.14063,1.17188 0.34375,0.75 0.34375,2.17187 v 6.125 h -1.64063 v -6.125 q 0,-1.23437 -0.53125,-1.79687 -0.53125,-0.5625 -1.51562,-0.5625 -0.71875,0 -1.35938,0.39062 -0.64062,0.375 -0.92187,1.01563 -0.26563,0.64062 -0.26563,1.78125 v 5.29687 z m 16.68823,-1.1875 q -0.92187,0.76563 -1.76562,1.09375 -0.82813,0.3125 -1.79688,0.3125 -1.59375,0 -2.45312,-0.78125 -0.85938,-0.78125 -0.85938,-1.98437 0,-0.71875 0.32813,-1.29688 0.32812,-0.59375 0.84375,-0.9375 0.53125,-0.35937 1.1875,-0.54687 0.46875,-0.125 1.45312,-0.25 1.98438,-0.23438 2.92188,-0.5625 0.0156,-0.34375 0.0156,-0.42188 0,-1 -0.46875,-1.42187 -0.625,-0.54688 -1.875,-0.54688 -1.15625,0 -1.70312,0.40625 -0.54688,0.40625 -0.8125,1.42188 l -1.60938,-0.21875 q 0.21875,-1.01563 0.71875,-1.64063 0.5,-0.64062 1.45313,-0.98437 0.95312,-0.34375 2.1875,-0.34375 1.25,0 2.01562,0.29687 0.78125,0.28125 1.14063,0.73438 0.375,0.4375 0.51562,1.10937 0.0781,0.42188 0.0781,1.51563 v 2.1875 q 0,2.28125 0.10937,2.89062 0.10938,0.59375 0.40625,1.15625 h -1.70312 q -0.26563,-0.51562 -0.32813,-1.1875 z m -0.14062,-3.67187 q -0.89063,0.375 -2.67188,0.625 -1.01562,0.14062 -1.4375,0.32812 -0.42187,0.1875 -0.65625,0.53125 -0.21875,0.34375 -0.21875,0.78125 0,0.65625 0.5,1.09375 0.5,0.4375 1.45313,0.4375 0.9375,0 1.67187,-0.40625 0.75,-0.42187 1.09375,-1.14062 0.26563,-0.5625 0.26563,-1.64063 z m 4.20385,-6.60938 v -1.89062 h 1.64063 v 1.89062 z m 0,11.46875 v -9.67187 h 1.64063 v 9.67187 z m 4.14478,0 v -9.67187 h 1.46875 v 1.375 q 1.0625,-1.59375 3.07812,-1.59375 0.875,0 1.60938,0.3125 0.73437,0.3125 1.09375,0.82812 0.375,0.5 0.51562,1.20313 0.0937,0.45312 0.0937,1.59375 v 5.95312 h -1.64062 v -5.89062 q 0,-1 -0.20313,-1.48438 -0.1875,-0.5 -0.67187,-0.79687 -0.48438,-0.29688 -1.14063,-0.29688 -1.04687,0 -1.8125,0.67188 -0.75,0.65625 -0.75,2.51562 v 5.28125 z"
     fill-rule="nonzero"
     id="path1424" />
  <path
     fill="#000000"
     d="M 452.09572,128.84363 V 126.953 h 1.64062 v 1.89063 z m 0,11.46875 v -9.67188 h 1.64062 v 9.67188 z m 4.14484,0 v -9.67188 h 1.46875 v 1.375 q 1.0625,-1.59375 3.07812,-1.59375 0.875,0 1.60938,0.3125 0.73437,0.3125 1.09375,0.82813 0.375,0.5 0.51562,1.20312 0.0937,0.45313 0.0937,1.59375 v 5.95313 h -1.64062 v -5.89063 q 0,-1 -0.20313,-1.48437 -0.1875,-0.5 -0.67187,-0.79688 -0.48438,-0.29687 -1.14063,-0.29687 -1.04687,0 -1.8125,0.67187 -0.75,0.65625 -0.75,2.51563 v 5.28125 z m 9.71942,-2.89063 1.625,-0.25 q 0.125,0.96875 0.75,1.5 0.625,0.51563 1.75,0.51563 1.125,0 1.67187,-0.45313 0.54688,-0.46875 0.54688,-1.09375 0,-0.54687 -0.48438,-0.875 -0.32812,-0.21875 -1.67187,-0.54687 -1.8125,-0.46875 -2.51563,-0.79688 -0.6875,-0.32812 -1.04687,-0.90625 -0.35938,-0.59375 -0.35938,-1.3125 0,-0.64062 0.29688,-1.1875 0.29687,-0.5625 0.8125,-0.92187 0.375,-0.28125 1.03125,-0.46875 0.67187,-0.20313 1.42187,-0.20313 1.14063,0 2,0.32813 0.85938,0.32812 1.26563,0.89062 0.42187,0.5625 0.57812,1.5 l -1.60937,0.21875 q -0.10938,-0.75 -0.64063,-1.17187 -0.51562,-0.42188 -1.46875,-0.42188 -1.14062,0 -1.625,0.375 -0.46875,0.375 -0.46875,0.875 0,0.3125 0.1875,0.57813 0.20313,0.26562 0.64063,0.4375 0.23437,0.0937 1.4375,0.42187 1.75,0.45313 2.4375,0.75 0.6875,0.29688 1.07812,0.85938 0.39063,0.5625 0.39063,1.40625 0,0.82812 -0.48438,1.54687 -0.46875,0.71875 -1.375,1.125 -0.90625,0.39063 -2.04687,0.39063 -1.875,0 -2.875,-0.78125 -0.98438,-0.78125 -1.25,-2.32813 z m 13.5625,1.42188 0.23437,1.45312 q -0.6875,0.14063 -1.23437,0.14063 -0.89063,0 -1.39063,-0.28125 -0.48437,-0.28125 -0.6875,-0.73438 -0.20312,-0.46875 -0.20312,-1.9375 v -5.57812 h -1.20313 v -1.26563 h 1.20313 v -2.39062 l 1.625,-0.98438 v 3.375 h 1.65625 v 1.26563 h -1.65625 v 5.67187 q 0,0.6875 0.0781,0.89063 0.0937,0.20312 0.28125,0.32812 0.20313,0.10938 0.57813,0.10938 0.26562,0 0.71875,-0.0625 z m 7.91772,0.28125 q -0.92187,0.76562 -1.76562,1.09375 -0.82813,0.3125 -1.79688,0.3125 -1.59375,0 -2.45312,-0.78125 -0.85938,-0.78125 -0.85938,-1.98438 0,-0.71875 0.32813,-1.29687 0.32812,-0.59375 0.84375,-0.9375 0.53125,-0.35938 1.1875,-0.54688 0.46875,-0.125 1.45312,-0.25 1.98438,-0.23437 2.92188,-0.5625 0.0156,-0.34375 0.0156,-0.42187 0,-1 -0.46875,-1.42188 -0.625,-0.54687 -1.875,-0.54687 -1.15625,0 -1.70312,0.40625 -0.54688,0.40625 -0.8125,1.42187 l -1.60938,-0.21875 q 0.21875,-1.01562 0.71875,-1.64062 0.5,-0.64063 1.45313,-0.98438 0.95312,-0.34375 2.1875,-0.34375 1.25,0 2.01562,0.29688 0.78125,0.28125 1.14063,0.73437 0.375,0.4375 0.51562,1.10938 0.0781,0.42187 0.0781,1.51562 v 2.1875 q 0,2.28125 0.10937,2.89063 0.10938,0.59375 0.40625,1.15625 h -1.70312 q -0.26563,-0.51563 -0.32813,-1.1875 z m -0.14062,-3.67188 q -0.89063,0.375 -2.67188,0.625 -1.01562,0.14063 -1.4375,0.32813 -0.42187,0.1875 -0.65625,0.53125 -0.21875,0.34375 -0.21875,0.78125 0,0.65625 0.5,1.09375 0.5,0.4375 1.45313,0.4375 0.9375,0 1.67187,-0.40625 0.75,-0.42188 1.09375,-1.14063 0.26563,-0.5625 0.26563,-1.64062 z m 4.20379,4.85938 v -9.67188 h 1.46875 v 1.375 q 1.0625,-1.59375 3.07813,-1.59375 0.875,0 1.60937,0.3125 0.73438,0.3125 1.09375,0.82813 0.375,0.5 0.51563,1.20312 0.0937,0.45313 0.0937,1.59375 v 5.95313 h -1.64063 v -5.89063 q 0,-1 -0.20312,-1.48437 -0.1875,-0.5 -0.67188,-0.79688 -0.48437,-0.29687 -1.14062,-0.29687 -1.04688,0 -1.8125,0.67187 -0.75,0.65625 -0.75,2.51563 v 5.28125 z m 16.68824,-3.54688 1.60937,0.21875 q -0.26562,1.65625 -1.35937,2.60938 -1.07813,0.9375 -2.67188,0.9375 -1.98437,0 -3.1875,-1.29688 -1.20312,-1.29687 -1.20312,-3.71875 0,-1.57812 0.51562,-2.75 0.51563,-1.17187 1.57813,-1.75 1.0625,-0.59375 2.3125,-0.59375 1.57812,0 2.57812,0.79688 1,0.79687 1.28125,2.26562 l -1.59375,0.23438 q -0.23437,-0.96875 -0.8125,-1.45313 -0.57812,-0.5 -1.39062,-0.5 -1.23438,0 -2.01563,0.89063 -0.78125,0.89062 -0.78125,2.8125 0,1.95312 0.75,2.84375 0.75,0.875 1.95313,0.875 0.96875,0 1.60937,-0.59375 0.65625,-0.59375 0.82813,-1.82813 z m 9.64062,0.4375 1.6875,0.20313 q -0.40625,1.48437 -1.48437,2.3125 -1.07813,0.8125 -2.76563,0.8125 -2.125,0 -3.375,-1.29688 -1.23437,-1.3125 -1.23437,-3.67187 0,-2.45313 1.25,-3.79688 1.26562,-1.34375 3.26562,-1.34375 1.9375,0 3.15625,1.32813 1.23438,1.3125 1.23438,3.70312 0,0.15625 0,0.4375 h -7.21875 q 0.0937,1.59375 0.90625,2.45313 0.8125,0.84375 2.01562,0.84375 0.90625,0 1.54688,-0.46875 0.64062,-0.48438 1.01562,-1.51563 z m -5.39062,-2.65625 h 5.40625 q -0.10938,-1.21875 -0.625,-1.82812 -0.78125,-0.95313 -2.03125,-0.95313 -1.125,0 -1.90625,0.76563 -0.76563,0.75 -0.84375,2.01562 z m 8.4851,2.875 1.625,-0.25 q 0.125,0.96875 0.75,1.5 0.625,0.51563 1.75,0.51563 1.125,0 1.67188,-0.45313 0.54687,-0.46875 0.54687,-1.09375 0,-0.54687 -0.48437,-0.875 -0.32813,-0.21875 -1.67188,-0.54687 -1.8125,-0.46875 -2.51562,-0.79688 -0.6875,-0.32812 -1.04688,-0.90625 -0.35937,-0.59375 -0.35937,-1.3125 0,-0.64062 0.29687,-1.1875 0.29688,-0.5625 0.8125,-0.92187 0.375,-0.28125 1.03125,-0.46875 0.67188,-0.20313 1.42188,-0.20313 1.14062,0 2,0.32813 0.85937,0.32812 1.26562,0.89062 0.42188,0.5625 0.57813,1.5 l -1.60938,0.21875 q -0.10937,-0.75 -0.64062,-1.17187 -0.51563,-0.42188 -1.46875,-0.42188 -1.14063,0 -1.625,0.375 -0.46875,0.375 -0.46875,0.875 0,0.3125 0.1875,0.57813 0.20312,0.26562 0.64062,0.4375 0.23438,0.0937 1.4375,0.42187 1.75,0.45313 2.4375,0.75 0.6875,0.29688 1.07813,0.85938 0.39062,0.5625 0.39062,1.40625 0,0.82812 -0.48437,1.54687 -0.46875,0.71875 -1.375,1.125 -0.90625,0.39063 -2.04688,0.39063 -1.875,0 -2.875,-0.78125 -0.98437,-0.78125 -1.25,-2.32813 z"
     fill-rule="nonzero"
     id="path1426" />
  <path
     fill="#ffffff"
     d="m 458.26899,197.35564 h 64 v 36.15749 h -64 z"
     fill-rule="evenodd"
     id="path1428" />
  <path
     stroke="#000000"
     stroke-width="1"
     stroke-linejoin="round"
     stroke-linecap="butt"
     d="m 458.26899,197.35564 h 64 v 36.15749 h -64 z"
     fill-rule="evenodd"
     id="path1430" />
  <path
     fill="#000000"
     d="M 474.03729,222.35438 V 208.995 h 2.65625 l 3.15625,9.45313 q 0.4375,1.32812 0.64062,1.98437 0.23438,-0.73437 0.70313,-2.14062 l 3.20312,-9.29688 h 2.375 v 13.35938 h -1.70312 V 211.1825 l -3.875,11.17188 h -1.59375 l -3.85938,-11.375 v 11.375 z m 21.71271,0 v -1.42188 q -1.125,1.64063 -3.0625,1.64063 -0.85938,0 -1.60938,-0.32813 -0.73437,-0.32812 -1.09375,-0.82812 -0.35937,-0.5 -0.5,-1.21875 -0.10937,-0.46875 -0.10937,-1.53125 v -5.98438 h 1.64062 v 5.35938 q 0,1.28125 0.10938,1.73437 0.15625,0.64063 0.65625,1.01563 0.5,0.375 1.23437,0.375 0.73438,0 1.375,-0.375 0.65625,-0.39063 0.92188,-1.03125 0.26562,-0.65625 0.26562,-1.89063 v -5.1875 h 1.64063 v 9.67188 z m 2.95379,0 3.53125,-5.03125 -3.26562,-4.64063 h 2.04687 l 1.48438,2.26563 q 0.42187,0.64062 0.67187,1.07812 0.40625,-0.59375 0.73438,-1.0625 l 1.64062,-2.28125 h 1.95313 l -3.34375,4.54688 3.59375,5.125 h -2.01563 l -1.98437,-3 -0.51563,-0.8125 -2.54687,3.8125 z"
     fill-rule="nonzero"
     id="path1432" />
  <path
     fill="#000000"
     fill-opacity="0"
     d="m 295.09579,215.14567 163.18109,0.28346"
     fill-rule="evenodd"
     id="path1434" />
  <path
     stroke="#000000"
     stroke-width="3"
     stroke-linejoin="round"
     stroke-linecap="butt"
     d="m 295.09579,215.14567 145.18115,0.2522"
     fill-rule="evenodd"
     id="path1436" />
  <path
     fill="#000000"
     stroke="#000000"
     stroke-width="3"
     stroke-linecap="butt"
     d="m 440.26833,220.35305 13.62286,-4.93153 -13.60565,-4.97884 z"
     fill-rule="evenodd"
     id="path1438" />
  <path
     fill="#000000"
     fill-opacity="0"
     d="m 523.28213,215.42913 126.01575,-2.83464"
     fill-rule="evenodd"
     id="path1440" />
  <path
     stroke="#000000"
     stroke-width="3"
     stroke-linejoin="round"
     stroke-linecap="butt"
     d="m 523.28213,215.42913 108.02039,-2.42986"
     fill-rule="evenodd"
     id="path1442" />
  <path
     fill="#000000"
     stroke="#000000"
     stroke-width="3"
     stroke-linecap="butt"
     d="m 631.41389,217.95322 13.49939,-5.26012 -13.72229,-4.64776 z"
     fill-rule="evenodd"
     id="path1444" />
  <path
     fill="#efefef"
     d="m 24.67322,328.21653 h 88 v -16 l 32,32 -32,32 v -16 h -88 z"
     fill-rule="evenodd"
     id="path1446" />
  <path
     stroke="#000000"
     stroke-width="1"
     stroke-linejoin="round"
     stroke-linecap="butt"
     d="m 24.67322,328.21653 h 88 v -16 l 32,32 -32,32 v -16 h -88 z"
     fill-rule="evenodd"
     id="path1448" />
  <path
     fill="#000000"
     d="m 33.64197,351.13654 5.125,-13.35937 h 1.90625 l 5.46875,13.35937 h -2.01563 l -1.54687,-4.04687 h -5.59375 l -1.46875,4.04687 z m 3.85937,-5.48437 h 4.53125 l -1.40625,-3.70313 q -0.625,-1.6875 -0.9375,-2.76562 -0.26562,1.28125 -0.71875,2.54687 z m 16.11545,5.48437 v -1.21875 q -0.90625,1.4375 -2.70312,1.4375 -1.15625,0 -2.125,-0.64062 -0.96875,-0.64063 -1.5,-1.78125 -0.53125,-1.14063 -0.53125,-2.625 0,-1.45313 0.48437,-2.625 0.48438,-1.1875 1.4375,-1.8125 0.96875,-0.625 2.17188,-0.625 0.875,0 1.54687,0.375 0.6875,0.35937 1.10938,0.95312 v -4.79687 h 1.64062 v 13.35937 z m -5.17187,-4.82812 q 0,1.85937 0.78125,2.78125 0.78125,0.92187 1.84375,0.92187 1.07812,0 1.82812,-0.875 0.75,-0.89062 0.75,-2.6875 0,-1.98437 -0.76562,-2.90625 -0.76563,-0.9375 -1.89063,-0.9375 -1.07812,0 -1.8125,0.89063 -0.73437,0.89062 -0.73437,2.8125 z m 15.54759,4.82812 v -1.21875 q -0.90625,1.4375 -2.70312,1.4375 -1.15625,0 -2.125,-0.64062 -0.96875,-0.64063 -1.5,-1.78125 -0.53125,-1.14063 -0.53125,-2.625 0,-1.45313 0.48437,-2.625 0.48438,-1.1875 1.4375,-1.8125 0.96875,-0.625 2.17188,-0.625 0.875,0 1.54687,0.375 0.6875,0.35937 1.10938,0.95312 v -4.79687 h 1.64062 v 13.35937 z m -5.17187,-4.82812 q 0,1.85937 0.78125,2.78125 0.78125,0.92187 1.84375,0.92187 1.07812,0 1.82812,-0.875 0.75,-0.89062 0.75,-2.6875 0,-1.98437 -0.76562,-2.90625 -0.76563,-0.9375 -1.89063,-0.9375 -1.07812,0 -1.8125,0.89063 -0.73437,0.89062 -0.73437,2.8125 z m 9.26634,4.82812 v -9.67187 h 1.46875 v 1.46875 q 0.5625,-1.03125 1.03125,-1.35938 0.48437,-0.32812 1.0625,-0.32812 0.82812,0 1.6875,0.53125 l -0.5625,1.51562 q -0.60938,-0.35937 -1.20313,-0.35937 -0.54687,0 -0.96875,0.32812 -0.42187,0.32813 -0.60937,0.89063 -0.28125,0.875 -0.28125,1.92187 v 5.0625 z m 12.8533,-3.10937 1.6875,0.20312 q -0.40625,1.48438 -1.48438,2.3125 -1.07812,0.8125 -2.76562,0.8125 -2.125,0 -3.375,-1.29687 -1.23438,-1.3125 -1.23438,-3.67188 0,-2.45312 1.25,-3.79687 1.26563,-1.34375 3.26563,-1.34375 1.9375,0 3.15625,1.32812 1.23437,1.3125 1.23437,3.70313 0,0.15625 0,0.4375 H 75.4559 q 0.0937,1.59375 0.90625,2.45312 0.8125,0.84375 2.01563,0.84375 0.90625,0 1.54687,-0.46875 0.64063,-0.48437 1.01563,-1.51562 z m -5.39063,-2.65625 h 5.40625 q -0.10937,-1.21875 -0.625,-1.82813 -0.78125,-0.95312 -2.03125,-0.95312 -1.125,0 -1.90625,0.76562 -0.76562,0.75 -0.84375,2.01563 z m 8.4851,2.875 1.625,-0.25 q 0.125,0.96875 0.75,1.5 0.625,0.51562 1.75,0.51562 1.125,0 1.67187,-0.45312 0.54688,-0.46875 0.54688,-1.09375 0,-0.54688 -0.48438,-0.875 -0.32812,-0.21875 -1.67187,-0.54688 -1.8125,-0.46875 -2.51563,-0.79687 -0.6875,-0.32813 -1.04687,-0.90625 -0.35938,-0.59375 -0.35938,-1.3125 0,-0.64063 0.29688,-1.1875 0.29687,-0.5625 0.8125,-0.92188 0.375,-0.28125 1.03125,-0.46875 0.67187,-0.20312 1.42187,-0.20312 1.14063,0 2,0.32812 0.85938,0.32813 1.26563,0.89063 0.42187,0.5625 0.57812,1.5 l -1.60937,0.21875 q -0.10938,-0.75 -0.64063,-1.17188 -0.51562,-0.42187 -1.46875,-0.42187 -1.14062,0 -1.625,0.375 -0.46875,0.375 -0.46875,0.875 0,0.3125 0.1875,0.57812 0.20313,0.26563 0.64063,0.4375 0.23437,0.0937 1.4375,0.42188 1.75,0.45312 2.4375,0.75 0.6875,0.29687 1.07812,0.85937 0.39063,0.5625 0.39063,1.40625 0,0.82813 -0.48438,1.54688 -0.46875,0.71875 -1.375,1.125 -0.90625,0.39062 -2.04687,0.39062 -1.875,0 -2.875,-0.78125 -0.98438,-0.78125 -1.25,-2.32812 z m 9.32812,0 1.625,-0.25 q 0.125,0.96875 0.75,1.5 0.625,0.51562 1.75,0.51562 1.125,0 1.67188,-0.45312 0.54687,-0.46875 0.54687,-1.09375 0,-0.54688 -0.48437,-0.875 -0.32813,-0.21875 -1.67188,-0.54688 -1.8125,-0.46875 -2.51562,-0.79687 -0.6875,-0.32813 -1.04688,-0.90625 -0.35937,-0.59375 -0.35937,-1.3125 0,-0.64063 0.29687,-1.1875 0.29688,-0.5625 0.8125,-0.92188 0.375,-0.28125 1.03125,-0.46875 0.67188,-0.20312 1.42188,-0.20312 1.14062,0 2,0.32812 0.85937,0.32813 1.26562,0.89063 0.42188,0.5625 0.57813,1.5 l -1.60938,0.21875 q -0.10937,-0.75 -0.64062,-1.17188 -0.51563,-0.42187 -1.46875,-0.42187 -1.14063,0 -1.625,0.375 -0.46875,0.375 -0.46875,0.875 0,0.3125 0.1875,0.57812 0.20312,0.26563 0.64062,0.4375 0.23438,0.0937 1.4375,0.42188 1.75,0.45312 2.4375,0.75 0.6875,0.29687 1.07813,0.85937 0.39062,0.5625 0.39062,1.40625 0,0.82813 -0.48437,1.54688 -0.46875,0.71875 -1.375,1.125 -0.90625,0.39062 -2.04688,0.39062 -1.875,0 -2.875,-0.78125 -0.98437,-0.78125 -1.25,-2.32812 z"
     fill-rule="nonzero"
     id="path1450" />
</svg>
